<?xml version="1.0" standalone="no"?>
<!DOCTYPE svg PUBLIC "-//W3C//DTD SVG 1.1//EN" "http://www.w3.org/Graphics/SVG/1.1/DTD/svg11.dtd" >
<svg xmlns="http://www.w3.org/2000/svg">
<metadata>
Created by FontPrep 20130207 at Tue May 13 21:21:01 2014
 By Callum Flack
Copyright  2004, Joshua Darden &#38; Phil's Fonts, Inc. All rights reserved. Published by Garagefonts USA 301-260-2285 www.garagefonts.com
</metadata>
<defs>
<font id="e22f587501faf91b63b7eb3b27fceae5" >
  <font-face 
    font-family="FreightTextBookItalic"
    font-weight="400"
    font-style="italic"
    font-stretch="normal"
    units-per-em="2048"
    panose-1="2 0 6 6 6 0 0 9 0 4"
    ascent="1638"
    descent="-410"
    x-height="946"
    cap-height="1280"
    bbox="-305 -547 2273 1769"
    underline-thickness="40"
    underline-position="-231"
    slope="-12"
    unicode-range="U+0020-FB04"
  />
<missing-glyph horiz-adv-x="1024" 
 />
    <glyph glyph-name=".notdef" horiz-adv-x="1024" 
 />
    <glyph glyph-name=".null" horiz-adv-x="0" 
 />
    <glyph glyph-name="nonmarkingreturn" horiz-adv-x="323" 
 />
    <glyph glyph-name="space" unicode=" " horiz-adv-x="323" 
 />
    <glyph glyph-name="space" unicode="&#xa0;" horiz-adv-x="323" 
 />
    <glyph glyph-name="exclam" unicode="!" horiz-adv-x="575" 
d="M356 85q0 -46 -31.5 -81t-83.5 -35t-86 35t-33 81t33.5 80t84.5 34t84 -34t32 -80zM395 1311q59 0 78 -22.5t8 -59.5l-184 -826q-4 -12 -23.5 -11t-19.5 14l33 831q4 74 78 74h30z" />
    <glyph glyph-name="quotedbl" unicode="&#x22;" horiz-adv-x="727" 
d="M147 825h-67l233 500h2l152 -53zM469 825h-70l236 500h2l151 -53z" />
    <glyph glyph-name="numbersign" unicode="#" horiz-adv-x="1148" 
d="M823 831h-356l-107 -389h359zM1061 442v-71h-287l-102 -383h-74l102 383h-358l-102 -383h-74l102 383h-264v71h283l104 389h-264v72h283l108 389h74l-107 -389h359l104 389h74l-104 -389h266v-72h-287l-104 -389h268z" />
    <glyph glyph-name="dollar" unicode="$" horiz-adv-x="1019" 
d="M408 53h36q129 0 211 59.5t82 179.5t-82 180t-127 89l-135 -506q12 -2 15 -2zM565 1225q-93 0 -168 -50t-76 -140q-1 -91 51 -151.5t138 -115.5q35 130 54 200t31.5 113t32.5 120l5 20q-29 4 -68 4zM242.5 767q-74.5 82 -74.5 221q0 140 132.5 230.5t301.5 90.5h20
q21 0 33 -2q3 0 29 102l29 102h73l-28 -102q-27 -104 -29 -104q81 -8 141 -25q0 3 56 14l53 13l-53 -394h-84l-21 256q-39 22 -116 41l-132 -481q61 -35 190.5 -116.5t129.5 -260.5t-138 -281t-341 -102h-45l-84 -309h-74l84 313q-125 10 -254 52l20 362h80l52 -283
q55 -29 126 -41l146 537q-148 85 -222.5 167z" />
    <glyph glyph-name="percent" unicode="%" horiz-adv-x="1527" 
d="M1332.5 490q-70.5 65 -175.5 65t-185.5 -89.5t-80.5 -198.5t67.5 -172.5t174.5 -63.5t188.5 87.5t81.5 197.5q0 109 -70.5 174zM648.5 1175.5q-66.5 67.5 -176.5 67.5t-189.5 -89.5t-79.5 -197.5t68.5 -172.5t177.5 -64.5t187.5 83t78.5 195q0 111 -66.5 178.5zM1383 65
q-110 -112 -257 -112t-236 80t-89 230t106.5 262t254.5 112t239.5 -82.5t91.5 -230.5q0 -147 -110 -259zM209 -31h-117l1294 1340h117zM700.5 753.5q-108.5 -112.5 -256.5 -112.5t-239.5 85t-91.5 229t107.5 257t255.5 113t240.5 -82t92.5 -229q0 -148 -108.5 -260.5z" />
    <glyph glyph-name="ampersand" unicode="&#x26;" horiz-adv-x="1265" 
d="M162 307q0 -98 53 -156.5t127 -58.5q135 0 377 207l-299 338q-258 -130 -258 -330zM793 1026q0 94 -48.5 152.5t-141.5 58.5t-151.5 -66.5t-58.5 -175.5t49.5 -170t75.5 -94q133 63 204 132t71 163zM90 56q-78 89 -78 194q0 183 105.5 283t267.5 139v2q-59 66 -100 133
t-41 151q0 157 113.5 254t256.5 97t235.5 -75.5t92.5 -189.5q0 -248 -385 -352v-2l272 -297h2l252 236v4q-45 10 -69.5 39.5t-24.5 68.5t32 66t82 27t82 -38t32 -83q0 -139 -228 -285l-119 -78l306 -332l-166 -49l-252 289h-2q-123 -148 -229.5 -219.5t-232.5 -71.5t-204 89
z" />
    <glyph glyph-name="quotesingle" unicode="'" horiz-adv-x="405" 
d="M147 825h-69l235 500h2l152 -53z" />
    <glyph glyph-name="parenleft" unicode="(" horiz-adv-x="808" 
d="M190 428q0 186 54.5 342t135.5 275.5t176 202.5t177 124l25 -33q24 -29 24 -36q-76 -41 -163 -121t-158.5 -192.5t-119.5 -254t-48 -307.5t48 -307t119.5 -254t159 -193t162.5 -118q0 -9 -49 -72q-82 41 -177 124t-176 202.5t-135.5 275.5t-54.5 342z" />
    <glyph glyph-name="parenright" unicode=")" horiz-adv-x="808" 
d="M516 428q0 166 -48 307.5t-120 254t-158 192.5t-163 121q0 5 26 36l25 33q82 -41 176 -124t175 -202.5t135 -275.5t54 -342t-54 -342t-135 -275.5t-175 -202.5t-176 -124l-25 33q-26 31 -26 37q78 41 163.5 120.5t157.5 192.5t120 254t48 307z" />
    <glyph glyph-name="asterisk" unicode="*" horiz-adv-x="710" 
d="M653 893l-180 63l-20 -26l108 -152l-22 -127l-43 -10l-82 94l12 189l-31 8l-112 -150l-127 -26l-27 37l70 116l178 49l2 35l-174 54l-64 110l27 37l129 -25l100 -155l35 10l6 190l86 93l45 -15l11 -127l-125 -151l20 -27l184 62l111 -56l-2 -45z" />
    <glyph glyph-name="plus" unicode="+" horiz-adv-x="983" 
d="M545 430v-381h-103v381h-374l6 100h368v379h103v-379h366l7 -100h-373z" />
    <glyph glyph-name="comma" unicode="," horiz-adv-x="462" 
d="M144 229q79 0 130.5 -53.5t48.5 -126.5q-8 -202 -335 -393l-43 37q202 119 207 226t-40.5 145t-67 48.5t-21.5 12.5q2 43 39.5 73.5t81.5 30.5z" />
    <glyph glyph-name="hyphen" unicode="-" horiz-adv-x="671" 
d="M51 428l6 104h525l6 -104h-537z" />
    <glyph glyph-name="period" unicode="." horiz-adv-x="464" 
d="M186 -31q-56 0 -92.5 39t-34.5 88q0 49 35 86t91 37t92 -37t35 -86t-35.5 -88t-90.5 -39z" />
    <glyph glyph-name="slash" unicode="/" horiz-adv-x="571" 
d="M457 1358h92l-438 -1790h-93z" />
    <glyph glyph-name="zero" unicode="0" horiz-adv-x="1034" 
d="M741 789q-78 92 -182 92t-168.5 -46.5t-106.5 -117t-61.5 -152.5t-19.5 -190.5t77 -203.5t199 -95q164 0 252 151t88 310q0 160 -78 252zM808 145q-132 -176 -335 -176q-169 0 -280 118.5t-111 333.5t131.5 391.5t337.5 176.5q170 0 279.5 -117.5t109.5 -334.5
q0 -216 -132 -392z" />
    <glyph glyph-name="one" unicode="1" horiz-adv-x="749" 
d="M57 0l9 70l161 20q36 3 41 37l99 727l-232 29l15 59l376 35l-114 -850q-5 -33 32 -37l160 -20l4 -70h-551z" />
    <glyph glyph-name="two" unicode="2" horiz-adv-x="917" 
d="M559 818q-62 48 -143 48q-82 0 -159 -37.5t-134 -89.5l-19 47q118 132 230 165.5t168 33.5q120 0 203 -65.5t83 -168.5q0 -102 -52 -179.5t-140 -150.5t-199.5 -142.5t-232.5 -143.5l-2 -10h59q275 0 340.5 15.5t89 38t43.5 59.5l49 100h84l-98 -338h-709l5 113
q117 84 225 157.5t239.5 183.5t131.5 213t-62 151z" />
    <glyph glyph-name="three" unicode="3" horiz-adv-x="849" 
d="M463 987q119 0 206 -67t87 -187q0 -174 -162 -270t-219 -125v-4q31 6 81 6q114 0 197.5 -77.5t83.5 -189.5q0 -204 -180 -345.5t-379 -141.5q-78 0 -162 32.5t-84 102.5q0 41 31 71t66 30q63 0 104 -45t45 -101q30 -8 82 -8t110 28t128.5 101.5t70.5 193.5
q0 119 -65.5 188t-167.5 69t-180 -33l-19 49q53 33 241.5 142.5t188.5 271.5q0 92 -56 141t-142 49q-139 0 -295 -125l-21 48q207 196 410 196z" />
    <glyph glyph-name="four" unicode="4" horiz-adv-x="956" 
d="M645 758h-8l-537 -588h459zM692 80l-59 -457h-146l60 457h-572l2 74l777 841h59l-108 -825h231l-27 -90h-217z" />
    <glyph glyph-name="five" unicode="5" horiz-adv-x="874" 
d="M7.5 -380q-81.5 34 -81.5 104q2 43 33 72.5t81 29.5t89 -45t43 -103q27 -8 77 -8t107.5 21.5t128 82.5t74.5 181q7 145 -126.5 258t-330.5 190l217 560h521l-25 -154h-469l-108 -289q478 -184 468 -494q-3 -95 -48.5 -177t-119 -140.5t-166.5 -90.5t-188 -32t-176.5 34z
" />
    <glyph glyph-name="six" unicode="6" horiz-adv-x="1036" 
d="M720 659q-68 82 -162 82q-93 0 -172 -64.5t-132 -152.5q-21 -92 -21 -148q0 -57 16.5 -119t48.5 -111.5t78 -79t107.5 -29.5t116.5 31.5t121.5 118t66.5 238.5t-68 234zM942 452q0 -93 -40 -182.5t-145.5 -195t-277.5 -105.5t-283.5 135t-111.5 325t86 341.5t226.5 271
t320.5 197.5t368 98l27 -55q-480 -100 -651.5 -323.5t-222.5 -352.5l20 -2q72 100 172 160.5t180 60.5t137.5 -24.5t100.5 -71.5t68.5 -115.5t25.5 -161.5z" />
    <glyph glyph-name="seven" unicode="7" horiz-adv-x="915" 
d="M772 819h-283q-157 0 -191 -8t-48 -22.5t-38 -61.5q-25 -48 -35.5 -67t-12.5 -23h-68l86 326h725v-89l-780 -1253h-104l749 1188v10z" />
    <glyph glyph-name="eight" unicode="8" horiz-adv-x="997" 
d="M748 262q10 151 -120 238.5t-184 117.5q-204 -123 -213 -305q-6 -121 64 -198.5t191 -80.5t188.5 56t73.5 172zM784 973q4 108 -51 185t-160 80q-106 3 -165.5 -58.5t-63.5 -159.5q-5 -146 104 -222.5t162 -107.5q166 99 174 283zM826 519q69 -79 66 -183
q-5 -186 -130 -278.5t-293 -88.5t-280.5 100t-108.5 244q7 229 317 334v4q-205 121 -198 307q4 154 121.5 249t271.5 91q153 -4 251.5 -96t90.5 -225q-7 -220 -277 -318v-4q100 -57 169 -136z" />
    <glyph glyph-name="nine" unicode="9" horiz-adv-x="1036" 
d="M310 299.5q66 -84.5 161 -84.5q94 0 173 64.5t132 152.5q21 92 21 148q0 129 -66.5 234.5t-185.5 105.5t-210 -117.5t-91 -268.5q0 -150 66 -234.5zM774 352q-168 -221 -376 -221q-127 0 -217.5 99.5t-90.5 274.5q0 93 40 182t144 194.5t276 105.5t285 -134.5t113 -323.5
t-86 -341.5t-226 -272.5t-320.5 -197.5t-370.5 -98.5l-25 55q317 66 543.5 240t331.5 436z" />
    <glyph glyph-name="colon" unicode=":" horiz-adv-x="462" 
d="M186 -31q-56 0 -92.5 39t-34.5 88q0 49 35 86t91 37t92 -37t35 -86t-35.5 -88t-90.5 -39zM270 606q-56 0 -91.5 38t-35.5 87t36 86t92 37t91 -37t34 -86t-35.5 -87t-90.5 -38z" />
    <glyph glyph-name="semicolon" unicode=";" horiz-adv-x="462" 
d="M144 229q79 0 130.5 -53.5t48.5 -126.5q-8 -202 -335 -393l-43 37q202 119 207 226t-40.5 145t-67 48.5t-21.5 12.5q2 43 39.5 73.5t81.5 30.5zM272 606q-56 0 -91.5 38t-35.5 87t35 86t91 37t92 -37t35 -86t-35.5 -87t-90.5 -38z" />
    <glyph glyph-name="less" unicode="&#x3c;" horiz-adv-x="983" 
d="M41 457v49l819 385l25 -92l-668 -312v-10l668 -313l-25 -92z" />
    <glyph glyph-name="equal" unicode="=" horiz-adv-x="983" 
d="M68 250l6 104h798l7 -104h-811zM74 606l-6 105h811l-7 -105h-798z" />
    <glyph glyph-name="greater" unicode="&#x3e;" horiz-adv-x="983" 
d="M86 72l-27 92l670 313v10l-670 312l27 92l819 -385v-49z" />
    <glyph glyph-name="question" unicode="?" horiz-adv-x="727" 
d="M356 85q0 -46 -30.5 -81t-84 -35t-86 35t-32.5 81t32.5 80t86 34t84 -34t30.5 -80zM303 1157q-66 0 -102 -8q-11 16 -11 56t39 71t115 31q151 0 258 -100.5t107 -225.5q0 -176 -101.5 -220.5t-143.5 -58.5q-111 -38 -157.5 -69.5t-46.5 -100.5q0 -70 82 -161l-63 4
q-14 16 -35 37.5t-49.5 69t-28.5 107.5q0 168 219 238q134 42 187 70.5t53 72.5t-25 75.5t-69 56t-103 40t-125 15.5z" />
    <glyph glyph-name="at" unicode="@" horiz-adv-x="1708" 
d="M840 866q-45 0 -76 -30q-61 -60 -116.5 -227t-55.5 -254t36 -120.5t68 -33.5t109 84t221 352q10 20 19.5 49t9.5 33q-43 87 -106.5 117t-108.5 30zM818 -258q-149 0 -287 59.5t-237 165t-153.5 250.5t-47.5 313t75 310.5t178.5 247t257 164t304.5 55.5t295.5 -57.5
t237 -147.5t155.5 -223t48 -265q-14 -249 -144 -393.5t-310 -144.5q-133 0 -177.5 50.5t-27.5 106.5l72 314h-27q-155 -304 -241.5 -372.5t-128.5 -68.5q-82 0 -144.5 62t-62.5 130t19.5 145t71.5 200t146 217t201 94q74 0 128 -45t77 -116h22l51 137h97l-117 -334l-45 -365
q-6 -35 20 -59.5t94 -24.5q138 0 235.5 128.5t105.5 292.5q15 298 -174 478.5t-478 188.5q-145 4 -275 -51.5t-229.5 -150.5t-160 -223t-67.5 -278t42 -282.5t138 -229t213 -150.5t257 -54t260 41l21 -68q-139 -47 -288 -47z" />
    <glyph glyph-name="A" unicode="A" horiz-adv-x="1181" 
d="M641 1130h-10l-248 -583h352zM643 0l6 70l121 16q43 7 33 53l-53 324h-402l-98 -234q-27 -68 -24 -99.5t36 -39.5l111 -20l6 -70h-445l7 70l96 20q35 10 52 30.5t40 67.5l451 1012v60l190 47l211 -1166q4 -23 13.5 -35t37.5 -16l117 -20l6 -70h-512z" />
    <glyph glyph-name="B" unicode="B" horiz-adv-x="1169" 
d="M598 76q128 0 212.5 75t84.5 197t-92 197.5t-238 75.5h-129l-67 -519l153 -26h76zM606 1204h-90l-70 -510h138q150 0 248 68t98 193q0 126 -90 187.5t-234 61.5zM678 1280q219 0 323.5 -83t104.5 -207t-89 -209t-241 -122l6 -8q141 -29 220 -108t79 -197t-96 -215
q-135 -131 -426 -131h-532l6 70l127 20q35 6 41 37l137 1026q4 31 -33 37l-119 20l-6 70h498z" />
    <glyph glyph-name="C" unicode="C" horiz-adv-x="1255" 
d="M102 546q0 144 59 292t163 252q220 220 507 219q158 0 277 -39l145 33l-55 -416h-84l-20 272q-124 70 -253 70q-240 0 -399 -203.5t-159 -501.5q0 -240 137 -377q98 -98 264 -98q118 0 246 62l121 274h96l-98 -387l-95 20q-298 -95 -575 9t-277 519z" />
    <glyph glyph-name="D" unicode="D" horiz-adv-x="1331" 
d="M1092 702q0 243 -119.5 372.5t-343.5 129.5h-115l-145 -1100l149 -28q253 8 369.5 132t160.5 243t44 251zM471 0h-444l6 70l127 20q35 6 41 37l137 1026q4 31 -33 37l-119 20l-6 70h490q276 0 441 -153.5t165 -430.5t-201 -475q-102 -104 -259 -162.5t-345 -58.5z" />
    <glyph glyph-name="E" unicode="E" horiz-adv-x="1175" 
d="M586 1204h-70l-70 -514h70q130 0 165 6.5t46 32.5l66 137h69l-100 -426h-68l8 131q4 25 -29.5 35t-170.5 10h-66l-71 -540h47q316 0 380 12t81.5 29.5t29.5 46.5l82 198h98l-86 -362h-970l6 70l127 20q35 6 41 37l137 1026q9 30 -31 37l-119 20l-6 70h983l-49 -371h-88
l-18 207q-2 31 -13.5 48.5t-63 28.5t-347.5 11z" />
    <glyph glyph-name="F" unicode="F" horiz-adv-x="1128" 
d="M567 1204h-51l-72 -526h82q173 0 190 12t23 27l66 137h69l-100 -426h-67l8 131q4 26 -30.5 35.5t-172.5 9.5h-78l-63 -477q-6 -29 30 -37l134 -20l6 -70h-514l6 70l127 20q35 6 41 37l137 1026q9 30 -31 37l-119 20l-6 70h967l-49 -371h-90l-19 207q-2 31 -13 48.5
t-61 28.5t-350 11z" />
    <glyph glyph-name="G" unicode="G" horiz-adv-x="1341" 
d="M102 532q0 158 59 306t163 252q220 220 507 219q152 0 271 -39l145 33l-55 -416h-84l-21 272q-128 70 -250 70q-235 0 -394.5 -204t-159.5 -501q0 -239 137 -374q97 -101 266 -101q119 0 219 45l47 342q4 18 -3 26.5t-29 12.5l-134 21l-6 67h502l-6 -67l-117 -21
q-37 -8 -43 -39l-45 -311l115 -21l4 -55q-313 -80 -484 -80t-277.5 41t-216.5 152.5t-110 369.5z" />
    <glyph glyph-name="H" unicode="H" horiz-adv-x="1468" 
d="M821 0l6 70l127 20q20 4 28.5 11.5t12.5 25.5l66 487h-623l-65 -487q-2 -29 33 -37l118 -20l6 -70h-499l6 70l125 20q37 6 41 37l137 1026q9 30 -31 37l-119 20l-6 70h500l-6 -70l-127 -20q-35 -6 -41 -37l-59 -455h620l62 455q4 18 -2.5 25.5t-28.5 11.5l-121 20l-6 70
h502l-9 -70l-125 -20q-35 -6 -40 -37l-138 -1026q-6 -29 31 -37l119 -20l6 -70h-500z" />
    <glyph glyph-name="I" unicode="I" horiz-adv-x="716" 
d="M37 0l6 70l141 20q35 6 41 37l137 1026q9 30 -30 37l-135 20l-7 70h529l-6 -70l-142 -20q-35 -6 -41 -37l-135 -1026q-6 -31 31 -37l135 -20l6 -70h-530z" />
    <glyph glyph-name="J" unicode="J" horiz-adv-x="798" 
d="M156 -31q-90 0 -149.5 37t-57.5 87t28.5 75t69.5 25q121 -4 139 -156h2q87 17 133.5 104.5t77.5 325.5l93 686q4 31 -31 37l-154 20l-6 70h547l-6 -70l-140 -20q-37 -6 -40 -37l-89 -666q-35 -264 -144.5 -391t-272.5 -127z" />
    <glyph glyph-name="K" unicode="K" horiz-adv-x="1294" 
d="M1018 1164q0 20 -41 34l-84 14l-6 70h485l-6 -68l-61 -8q-76 -13 -193 -106l-401 -359l344 -594q25 -41 42 -49t44 -14l73 -14l7 -70h-441l6 70l82 18q27 6 6 39l-284 516l-172 -147l-47 -369q-6 -29 30 -37l121 -20l6 -70h-501l6 70l127 20q35 6 41 37l137 1026
q9 30 -31 37l-119 20l-6 70h500l-8 -70l-125 -20q-35 -6 -41 -37l-72 -543l461 418q53 51 87 83.5t34 52.5z" />
    <glyph glyph-name="L" unicode="L" horiz-adv-x="1124" 
d="M406 76q285 0 345 12t76.5 29.5t28.5 46.5l96 244h97l-99 -408h-923l6 70l127 20q35 6 41 37l135 1026q6 31 -31 37l-123 20l-6 70h522l-6 -70l-145 -20q-23 -4 -30 -13.5t-11 -23.5l-141 -1077h41z" />
    <glyph glyph-name="M" unicode="M" horiz-adv-x="1617" 
d="M1014 0l6 70l135 22q26 4 38 56.5t30 222.5l80 774h-11l-542 -1104h-119l-187 1118h-10l-129 -782q-33 -200 -34 -234t5.5 -41.5t16.5 -9.5l133 -22l6 -70h-455l7 70l139 22q29 5 47.5 56t46.5 229l129 780q6 29 -27 35l-139 18l-6 70h418l166 -1020h10l496 1020h393
l-6 -70l-142 -20q-37 -6 -41 -37l-77 -782q-19 -175 -14 -224.5t30 -54.5l123 -22l6 -70h-522z" />
    <glyph glyph-name="N" unicode="N" horiz-adv-x="1433" 
d="M1491 1210l-125 -16q-20 -4 -34.5 -13.5t-32 -52.5t-39.5 -225l-123 -919h-103l-590 1126h-8l-94 -733q-25 -208 -21.5 -238t14.5 -39.5t34 -13.5l118 -16l7 -70h-478l7 70l124 16q23 4 37.5 14.5t30.5 53.5t39 223l90 676q8 66 -2 93.5t-45 37.5l-113 26l-6 70h363
l534 -1028h8l88 651q25 210 23 240.5t-13.5 38.5t-33.5 12l-121 16l-6 70h477z" />
    <glyph glyph-name="O" unicode="O" horiz-adv-x="1409" 
d="M758 1229q-123 0 -212 -67.5t-174 -217.5t-85 -401t133 -383q109 -109 280 -109q123 0 212 67.5t174 217.5t85 401t-131 381q-107 111 -282 111zM1356 696q0 -140 -54.5 -281t-148.5 -239q-199 -207 -462 -207t-426 169.5t-163 446.5q0 276 177 490q90 106 216 170
t268 64t248.5 -46t183.5 -127t119 -190.5t42 -249.5z" />
    <glyph glyph-name="P" unicode="P" horiz-adv-x="1124" 
d="M598 594q150 0 245 87t95 233t-86 219t-225 73h-51q-50 0 -60 -2l-80 -592q83 -18 162 -18zM609 520q-96 0 -183 15l-55 -408q-6 -35 30 -37l162 -20l6 -70h-542l6 70l127 20q35 6 41 37l137 1026q9 30 -31 37l-119 20l-6 70h475q209 0 336 -95t127 -269
q0 -175 -151 -285.5t-360 -110.5z" />
    <glyph glyph-name="Q" unicode="Q" horiz-adv-x="1413" 
d="M758 1229q-123 0 -212 -67.5t-174 -217.5t-85 -401t133 -383q109 -109 280 -109q123 0 212 67.5t174 217.5t85 401t-131 381q-107 111 -282 111zM1070 -393q-115 0 -196 16.5t-172 79.5t-198 291q-184 54 -293 208t-109 365q0 294 177 508q90 106 216 170t268 64
q268 0 430.5 -171t162.5 -429q0 -154 -54.5 -294.5t-145.5 -236.5q-183 -193 -437 -209q118 -241 288.5 -260.5t278.5 -13.5l2 -66q-103 -22 -218 -22z" />
    <glyph glyph-name="R" unicode="R" horiz-adv-x="1212" 
d="M936 936q0 129 -81 200.5t-234 67.5l-109 -2l-70 -545l176 -26q141 18 229.5 97t88.5 208zM707 1280q202 0 309.5 -84.5t107.5 -228.5t-100 -243t-266 -142l223 -412q29 -57 49.5 -69.5t36.5 -16.5l78 -14l6 -70h-283l-274 563l-164 6l-59 -442q-6 -31 30 -37l134 -20
l6 -70h-512l6 70l125 20q35 6 41 37l135 1026q6 29 -31 37l-121 20l-6 70h529z" />
    <glyph glyph-name="S" unicode="S" horiz-adv-x="1011" 
d="M432 53q141 0 223 59.5t82 174.5q0 140 -108.5 210t-168.5 106q-151 91 -221.5 166.5t-70.5 217.5q0 141 132.5 231.5t280.5 90.5t203.5 -11.5t85.5 -17.5q0 3 56 14l53 13l-53 -394h-84l-21 256q-106 56 -227 56t-196.5 -50t-75.5 -148t65.5 -163.5t166.5 -123.5
t220 -138t119 -254t-138 -276.5t-341 -102.5t-373 56l20 362h80l52 -283q98 -51 239 -51z" />
    <glyph glyph-name="T" unicode="T" horiz-adv-x="1257" 
d="M819 1204h-14l-141 -1077q-6 -31 30 -37l152 -20l6 -70h-567l8 70l160 20q29 3 41 37l141 1077h-14q-204 0 -248.5 -12t-61 -29.5t-28.5 -46.5l-84 -229h-97l86 393h1096l-51 -393h-84l-19 215q-2 29 -11 48t-55.5 36.5t-244.5 17.5z" />
    <glyph glyph-name="U" unicode="U" horiz-adv-x="1458" 
d="M676 -31q-317 0 -387 144.5t-70 225.5t10 153l93 661q4 30 -33 37l-119 20l-6 70h502l-7 -70l-127 -20q-37 -6 -40 -37l-89 -651q-10 -58 -10 -113q0 -166 94.5 -241.5t247.5 -75.5q326 0 377 354l64 477q28 197 24 234t-15 45t-34 12l-121 16l-6 70h477l-6 -70l-125 -16
q-20 -4 -34.5 -13.5t-29 -45.5t-42.5 -232l-68 -495q-33 -223 -174 -331t-346 -108z" />
    <glyph glyph-name="V" unicode="V" horiz-adv-x="1189" 
d="M1311 1210l-99 -20q-35 -10 -53 -30.5t-39 -67.5l-504 -1094h-153l-219 1141q-4 23 -13.5 35t-37.5 16l-117 20l-6 70h512l-7 -70l-122 -16q-41 -7 -31 -53l170 -977h8l418 950q24 61 -33 76l-108 20l-7 70h447z" />
    <glyph glyph-name="W" unicode="W" horiz-adv-x="1757" 
d="M1884 1210l-98 -20q-67 -20 -96 -98l-445 -1094h-164l-129 848h-8l-371 -848h-163l-177 1141q-4 23 -13 35t-38 16l-116 20l-7 70h512l-6 -70l-123 -16q-42 -7 -30 -53l131 -983l8 -2l364 852l-20 131q-4 23 -14.5 35t-38.5 16l-117 20l-6 70h508l-6 -70l-123 -16
q-43 -7 -33 -53l145 -981l7 -2l376 956q10 23 3 45.5t-37 30.5l-109 20l-6 70h446z" />
    <glyph glyph-name="X" unicode="X" horiz-adv-x="1273" 
d="M864 113.5q0 27.5 -28 83.5l-201 381h-6l-332 -412q-47 -59 29 -78l98 -18l6 -70h-469l6 70l80 14q41 10 77 30.5t77 73.5l385 459l-250 445q-27 47 -44.5 67.5t-51.5 30.5l-95 20l-4 70h502l-8 -70l-105 -12q-39 -4 -40 -31.5t30 -83.5l172 -333h10l291 364
q52 61 -28 80l-99 16l-6 70h469l-6 -70l-80 -14q-41 -10 -75.5 -30.5t-77.5 -73.5l-345 -412l277 -492q27 -47 44 -67.5t50 -30.5l94 -20l7 -70h-504l8 70l102 12q41 4 41 31.5z" />
    <glyph glyph-name="Y" unicode="Y" horiz-adv-x="1210" 
d="M1321 1210l-82 -14q-41 -10 -75 -29.5t-70 -74.5l-381 -543l-56 -422q-6 -31 31 -37l152 -20l6 -70h-567l6 70l161 20q31 3 41 37l54 420l-269 545q-23 47 -43 67.5t-55 30.5l-92 20l-6 70h499l-8 -70l-102 -12q-39 -4 -40 -32.5t28 -86.5l209 -450h8l331 485
q16 29 15.5 49.5t-43.5 30.5l-107 16l-6 70h467z" />
    <glyph glyph-name="Z" unicode="Z" horiz-adv-x="1116" 
d="M961 1204h-224q-262 0 -319.5 -18.5t-74.5 -41t-34 -57.5l-65 -186h-84l49 379h962l-10 -72l-950 -1126l-2 -8l205 2q284 0 348.5 17.5t83 37t33.5 49.5l77 203h97l-95 -383h-960l8 70l955 1126v8z" />
    <glyph glyph-name="bracketleft" unicode="[" horiz-adv-x="753" 
d="M195 -451v1784h516v-86h-416v-1612h416v-86h-516z" />
    <glyph glyph-name="backslash" unicode="\" horiz-adv-x="571" 
d="M459 -432l-439 1790h93l438 -1790h-92z" />
    <glyph glyph-name="bracketright" unicode="]" horiz-adv-x="753" 
d="M43 -365h416v1612h-416v86h516v-1784h-516v86z" />
    <glyph glyph-name="asciicircum" unicode="^" 
d="M678 1040l-182 271h-4l-259 -271h-45l226 377h182l125 -377h-43z" />
    <glyph glyph-name="underscore" unicode="_" horiz-adv-x="962" 
d="M-78 -106l6 104h983l7 -104h-996z" />
    <glyph glyph-name="grave" unicode="`" 
d="M526 1040l-288 377h192l141 -377h-45z" />
    <glyph glyph-name="a" unicode="a" horiz-adv-x="966" 
d="M439 854q-38 0 -72 -34q-61 -61 -121 -238.5t-60 -311.5q0 -180 101 -180q54 0 131.5 105t232.5 370l29 119q-75 104 -139 137t-102 33zM526 46q0 23 117 390h-18q-127 -227 -186.5 -307t-108.5 -120t-99 -40q-84 0 -135 72t-51 171q0 174 80.5 382.5t208 281t178.5 72.5
t98 -26.5t84 -128.5h15l41 153h127l-101 -364l-108 -488l61 -18l162 137l35 -37q-37 -68 -115.5 -137.5t-136.5 -69.5q-32 0 -72.5 15.5t-58 27t-17.5 34.5z" />
    <glyph glyph-name="b" unicode="b" horiz-adv-x="915" 
d="M205 164q125 -125 247 -125q36 0 74 41q39 41 70 103.5t55.5 137t39 154.5t14.5 155t-25 134t-75 60t-133 -117.5t-228 -374.5zM776 304.5q-72 -200.5 -209 -270t-197 -69.5q-98 0 -196.5 55t-93.5 82l223 1106q6 35 -14 41l-142 45l7 52l333 81l-112 -477l-121 -485h18
q120 226 185 313.5t114.5 128.5t93.5 41t76.5 -23.5t69.5 -86.5t37 -198t-72 -335.5z" />
    <glyph glyph-name="c" unicode="c" horiz-adv-x="763" 
d="M664 172q-174 -203 -312 -203q-132 0 -211.5 90t-79.5 219q0 130 39 247.5t105.5 211.5t155 151.5t186.5 57.5q147 0 184 -61.5t37 -101.5t-26.5 -71.5t-67.5 -31.5q-80 0 -80 76q0 35 14 55q-19 28 -80 41.5t-85 13.5t-56 -34q-69 -72 -125.5 -229.5t-56.5 -282.5
q0 -124 56 -183t128 -59t246 131z" />
    <glyph glyph-name="d" unicode="d" horiz-adv-x="966" 
d="M439 854q-38 0 -72 -34q-61 -61 -121 -238.5t-60 -311.5q0 -180 101 -180q54 0 131.5 105t232.5 370l29 119q-75 104 -139 137t-102 33zM526 46q0 23 117 390h-18q-127 -227 -186.5 -307t-108.5 -120t-99 -40q-84 0 -135 72t-51 171q0 174 80.5 382.5t208 281t178.5 72.5
t98 -26.5t84 -128.5h15l82 415q6 35 -15 41l-141 45l8 52l332 81l-203 -862l-104 -471l61 -18l162 137l35 -37q-37 -68 -115.5 -137.5t-136.5 -69.5q-32 0 -72.5 15.5t-58 27t-17.5 34.5z" />
    <glyph glyph-name="e" unicode="e" horiz-adv-x="751" 
d="M563 828.5q-53 29.5 -104 29.5t-89 -40t-85 -146.5t-76 -253.5l4 -2q246 132 308.5 185.5t78.5 87.5t16 72t-53 67.5zM664 172q-174 -203 -312 -203q-132 0 -211.5 90t-79.5 220q0 131 40 249.5t106.5 212t151.5 149.5t179 56t154 -54t60 -115q0 -62 -26 -101t-94 -86
t-425 -234q-2 -10 -2 -13v-32q0 -115 56 -174t128 -59t246 131z" />
    <glyph glyph-name="f" unicode="f" horiz-adv-x="552" 
d="M858 1280q0 -47 -24.5 -78t-68.5 -31t-75 37t-41 97l-166 -37q-56 -129 -92 -350h244l8 -93h-268l-117 -645q-76 -458 -201 -590q-90 -94 -217 -94q-61 0 -103 34t-42 82t25.5 76.5t70.5 28.5t74 -38.5t35 -92.5l120 64q33 75 56.5 200t34.5 181l137 788l-185 8l7 58
l194 43q50 260 162 370q107 111 254 111q82 0 130 -41t48 -88z" />
    <glyph glyph-name="g" unicode="g" horiz-adv-x="872" 
d="M6 -231q0 -85 96 -141t226 -56q129 0 216 46.5t87 110.5t-61.5 101t-135.5 65t-128 44t-103 36q-197 -96 -197 -206zM639 674q0 88 -61.5 140t-112.5 52t-72.5 -12t-55.5 -45t-63.5 -110t-27.5 -147q5 -163 57.5 -191.5t85.5 -28.5q75 0 137 62t87.5 143t25.5 137z
M520 946q90 0 225 -37h207l-39 -135l-239 47v-16q43 -49 65.5 -94t22.5 -111q0 -127 -109.5 -227.5t-232.5 -100.5q-66 0 -135 27q-49 -12 -77 -45.5t-28 -67.5t38 -60t136 -60l95 -33q143 -47 223 -105t80 -162q0 -103 -137.5 -187.5t-364.5 -84.5q-154 0 -262.5 67
t-108.5 185q0 81 83.5 150t187.5 102v10q-99 55 -99 137q0 61 53.5 105.5t131.5 71.5v10q-53 39 -89 104.5t-36 144.5t32.5 145.5t87 115.5t127 76.5t162.5 27.5z" />
    <glyph glyph-name="h" unicode="h" horiz-adv-x="1005" 
d="M583 -9q-55 22 -55 43q0 57 94.5 357t94.5 337q0 38 -31 65.5t-61 27.5t-106.5 -87.5t-276.5 -491.5l-45 -252l-152 10l72 301l186 907q6 35 -14 41l-142 45l7 52l333 81l-251 -1069h18q188 397 303 519q68 69 132 69t113.5 -40.5t49.5 -104.5t-35 -189.5t-57 -201.5
t-50 -168t-44 -148l59 -18l164 137l33 -37q-37 -68 -115.5 -137.5t-123.5 -69.5t-100 22z" />
    <glyph glyph-name="i" unicode="i" horiz-adv-x="522" 
d="M137.5 -7.5q-55.5 23.5 -51.5 42.5l209 788l-62 11l-157 -164l-35 37q37 76 113 157.5t133 81.5q37 0 78 -15.5t58 -26.5t13 -23l-217 -787l62 -18l163 137l35 -37q-35 -63 -114.5 -135t-125.5 -72t-101.5 23.5zM551 1256q0 -51 -31.5 -89.5t-75.5 -38.5t-71 30t-27 81
t32 89t76 38t70.5 -29.5t26.5 -80.5z" />
    <glyph glyph-name="j" unicode="j" horiz-adv-x="499" 
d="M-176 -330q79 0 119 -100l41 8q57 101 137 479l168 766l-62 11l-157 -164l-35 37q37 76 113 157.5t139 81.5t105 -26.5t38 -38.5l-174 -752q-47 -207 -111.5 -393t-149.5 -229.5t-136.5 -43.5t-92 30t-41.5 76t28.5 73.5t70.5 27.5zM541 1256q0 -51 -31 -89.5t-76 -38.5
t-70.5 30t-25.5 81t30.5 89t74.5 38t71 -29.5t27 -80.5z" />
    <glyph glyph-name="k" unicode="k" horiz-adv-x="884" 
d="M618 850q0 41 34 71.5t80 30.5t78 -34.5t32 -80.5q0 -90 -68 -143t-256 -133l43 -328l78 -143l111 94l71 27q-12 -29 -12 -34t5 1t17 21q-40 -82 -114 -156t-119 -74t-77 25.5t-34 32.5l-141 454l-80 -37l-76 -454l-149 10l76 301l186 907q6 35 -14 41l-142 45l7 52
l333 81l-221 -921h13l405 221l16 29q-82 20 -82 94z" />
    <glyph glyph-name="l" unicode="l" horiz-adv-x="501" 
d="M201 -31q-22 0 -47 7.5t-47.5 16.5t-39 21.5t-14.5 20.5l250 1173q6 35 -14 41l-142 45l9 52l327 81l-297 -1333l62 -18l164 137l34 -37q-38 -70 -93.5 -119t-92.5 -68.5t-59 -19.5z" />
    <glyph glyph-name="m" unicode="m" horiz-adv-x="1523" 
d="M1397 803q0 -110 -189 -709l62 -18l162 137l34 -37q-36 -67 -114 -137t-138 -70q-30 0 -85.5 22t-55.5 42q1 56 61 249t74.5 239t34 112.5t19.5 99.5t-31 60.5t-61 27.5t-103.5 -84.5t-280.5 -494.5l-57 -252l-151 10l120 428q12 43 26.5 90t34 116.5t19.5 100.5
t-30.5 58.5t-60.5 27.5t-99 -79t-281 -500l-47 -252l-149 10l69 301l111 522l-62 11l-159 -164l-35 37q37 76 113 157.5t136 81.5t102 -26.5t42 -40.5t-14.5 -74t-34 -138.5t-42 -161.5t-38.5 -147h20q192 405 299 519q69 69 133 69t103 -42t39 -121t-113 -425h19
q188 397 303 519q68 69 134 69t113.5 -41t47.5 -102z" />
    <glyph glyph-name="n" unicode="n" horiz-adv-x="1042" 
d="M647.5 -8.5q-53.5 22.5 -53.5 42.5q0 21 10 65t26.5 99.5t35 116t33.5 110.5t29.5 96t33 112t18.5 99q0 34 -30.5 61.5t-60.5 27.5t-67.5 -43t-102 -143t-212.5 -393l-47 -252l-149 10l69 301l109 514l-60 12l-161 -157l-33 37q37 76 113 157.5t136 81.5t102 -26.5
t42 -40.5t-14.5 -74t-34 -138.5t-42 -161.5t-38.5 -147h20q191 403 302 519q68 69 134 69t113 -40.5t47 -102.5q0 -93 -86 -371q-29 -98 -56.5 -191.5t-45.5 -146.5l61 -18l164 137l35 -37q-38 -69 -117 -138t-124 -69t-98.5 22.5z" />
    <glyph glyph-name="o" unicode="o" horiz-adv-x="894" 
d="M638 337q44 114 44 285t-61.5 216t-110.5 45q-90 0 -166.5 -118.5t-106.5 -232.5t-30 -190q0 -140 42.5 -224.5t133.5 -84.5q92 0 151.5 95t103.5 209zM823 543q0 -90 -33.5 -193.5t-94 -187.5t-143.5 -138.5t-172 -54.5q-162 0 -237 110t-75 303q0 194 94 326t177 185
t171 53t145.5 -30.5t94 -85t55 -126t18.5 -161.5z" />
    <glyph glyph-name="p" unicode="p" horiz-adv-x="972" 
d="M494 39q34 0 76 41q76 75 136 244t60 275q0 222 -98 226q-51 0 -134 -118.5t-229 -374.5l-37 -154q79 -86 135.5 -112.5t90.5 -26.5zM406 -33q-86 0 -160 76h-4l-82 -420q-6 -35 28 -37l152 -20l6 -70h-502l4 70l129 20q23 2 31 11.5t12 25.5l271 1196l-64 15l-157 -164
l-35 37q37 76 113 157.5t138 81.5t104 -26.5t42 -46.5t-117 -408h19q124 232 187 316.5t112 125.5t93 41q82 0 132.5 -85.5t50.5 -183.5q0 -165 -61 -325.5t-158 -257.5q-129 -129 -284 -129z" />
    <glyph glyph-name="q" unicode="q" horiz-adv-x="901" 
d="M439 854q-38 0 -72 -34q-61 -61 -121 -238.5t-60 -311.5q0 -180 101 -180q54 0 131.5 105t232.5 370l29 119q-75 104 -139 137t-102 33zM231 -31q-84 0 -135 72t-51 171q0 174 80.5 382.5t208 281t178.5 72.5t98 -26.5t84 -128.5h15l39 147l126 -4l-98 -354l-207 -959
q-6 -31 29 -37l133 -20l4 -70h-491l4 70l135 20q33 3 43 37l113 463q23 80 41 144t36.5 122t26.5 84h-18q-127 -227 -186.5 -307t-108.5 -120t-99 -40z" />
    <glyph glyph-name="r" unicode="r" horiz-adv-x="804" 
d="M428 883q0 -59 -131 -525h27q60 178 136.5 308.5t102.5 156.5q49 72 81.5 97.5t85.5 25.5q54 0 89 -36t35 -87t-27.5 -83.5t-69.5 -32.5t-67.5 29.5t-9.5 84.5q-26 17 -35 13q-20 -17 -76.5 -108t-91.5 -154.5t-66.5 -125t-59 -114.5t-44.5 -90l-47 -252l-149 10l69 301
l109 522l-62 11l-157 -164l-35 37q37 76 91 134t90 81.5t58 23.5q42 0 98 -22.5t56 -40.5z" />
    <glyph glyph-name="s" unicode="s" horiz-adv-x="696" 
d="M684 852q0 -94 -26.5 -122t-64.5 -28t-57.5 24t-19.5 52t10 51q-92 40 -172 43q-41 -12 -73.5 -54t-35.5 -94t43 -103.5t113 -116.5q188 -174 178 -285q-9 -111 -110.5 -180.5t-214.5 -69.5q-185 0 -223.5 54.5t-38.5 95.5t26.5 68.5t65.5 27.5t58.5 -23.5t19.5 -47.5
t-12 -54q95 -39 192 -47q41 16 75 61.5t37 81.5t-10.5 63t-35 55t-51 55.5t-58.5 54.5q-77 72 -129 143t-49 136q7 121 107 187t278 66t178 -94z" />
    <glyph glyph-name="t" unicode="t" horiz-adv-x="604" 
d="M236 -31q-22 0 -47 5.5t-47.5 13.5t-38 18t-13.5 21l160 792l-170 8l6 60q51 16 89 27t66.5 21.5t28.5 8.5l49 254h132l-56 -280h252l6 -93h-276l-154 -731l62 -18l164 137l34 -37q-35 -63 -93 -115.5t-95 -72t-59 -19.5z" />
    <glyph glyph-name="u" unicode="u" horiz-adv-x="1042" 
d="M396 924q55 -22 55 -43q0 -20 -10.5 -63.5t-27 -98.5t-35 -117t-33.5 -112t-29.5 -96t-34 -108.5t-19.5 -98.5t31 -64.5t61 -28.5t105 85.5t278 494.5l49 252l150 -11l-72 -301q-27 -132 -43 -210q-59 -292 -67 -310l61 -18l162 137l35 -37q-37 -68 -115.5 -137.5
t-136.5 -69.5q-34 0 -89 22t-55 44q0 31 54 238t73 284h-18q-189 -399 -303 -518q-68 -70 -136 -70t-113.5 41t-45.5 104t35.5 188.5t57.5 201.5t49.5 169t43.5 150l-61 11l-158 -164l-35 37q39 80 116.5 159.5t121.5 79.5t99 -22z" />
    <glyph glyph-name="v" unicode="v" horiz-adv-x="874" 
d="M610 827q24 121 131 121q49 0 90 -34.5t41 -108.5t-60 -179.5t-179 -273.5l-238 -352l-147 -31v848l-60 12l-157 -163l-35 36q39 80 91 137.5t88.5 82t58.5 24.5q47 0 100 -26t53 -46l-10 -776h14l246 396q94 145 94 227q-2 41 -34.5 68.5t-86.5 37.5z" />
    <glyph glyph-name="w" unicode="w" horiz-adv-x="1359" 
d="M1210 948q49 0 89 -35t40 -89q0 -92 -45 -173.5t-184 -298.5l-221 -352l-148 -31l-10 658h-6l-324 -627l-147 -31l-6 848l-60 12l-157 -163l-35 36q39 80 113 162t133 82t102 -29.5t43 -42.5l-2 -776h10l330 672l-4 170l135 -27l25 -815h12l217 396q91 160 88 225
q0 86 -119 108q12 59 47 90t84 31z" />
    <glyph glyph-name="x" unicode="x" horiz-adv-x="960" 
d="M72 203q95 0 86 -113l57 -6l213 367l-143 380h-47l-117 -147l-31 37q75 146 126.5 186.5t71.5 40.5q32 0 76.5 -21.5t47.5 -35.5l104 -359h4q122 258 170.5 319.5t78.5 78t79 16.5t93 -32t43 -84t-28.5 -84.5t-70.5 -32.5t-64.5 28.5t-15.5 79.5l-60 6l-202 -348
l145 -395h47l117 149l31 -36q-123 -228 -209 -228q-32 0 -71.5 24.5t-41.5 33.5l-106 362h-9q-140 -277 -184.5 -335t-72 -71.5t-77.5 -13.5t-93.5 32t-42.5 84t28 85t68 33z" />
    <glyph glyph-name="y" unicode="y" horiz-adv-x="878" 
d="M696 455l-237 -355l-121 -215q-115 -221 -205 -315t-201 -94q-61 0 -110 36t-49 88t31.5 80.5t72.5 28.5t77 -35.5t32 -89.5l55 -4q2 0 14.5 17.5t33 46t45 65.5t68.5 99t120 176l-80 22l6 811l-60 12l-157 -163l-35 36q39 80 113 162t133 82t102 -29.5t43 -42.5
l-16 -776h20l354 592l7 33q-39 14 -71 42t-32 73t29 78.5t82 33.5t87 -36t34 -97q0 -105 -185 -362z" />
    <glyph glyph-name="z" unicode="z" horiz-adv-x="808" 
d="M188 668q-40 0 -63 24.5t-23 58.5q0 71 70 131t159 62t137 -21.5t82 -56t54.5 -69.5t34.5 -62l18 2l58 209q53 -2 86 -29.5t33 -71.5q0 -75 -138 -165l-495 -436q71 -27 201 -113t165 -100l43 43q-51 53 -51 90t24.5 59.5t65.5 22.5t61.5 -23.5t20.5 -57.5
q0 -74 -61.5 -133.5t-165.5 -70.5q-117 0 -198 71t-122 165l-18 -2l-60 -226q-53 4 -86.5 33t-33.5 73q0 82 131 167l506 448q-63 23 -194.5 99.5t-154.5 84.5l-38 -38q70 -91 31 -129.5t-79 -38.5z" />
    <glyph glyph-name="braceleft" unicode="{" horiz-adv-x="681" 
d="M227 -170q0 97 60.5 210t60.5 171q0 57 -43 112t-225 62l-23 57l23 56q268 11 268 159q0 53 -18.5 97.5t-60.5 125t-42 175.5q0 137 100.5 216t288.5 91v-68q-123 -10 -187 -65t-64 -117t18 -106.5t60 -124t42 -178.5q0 -98 -86 -172t-176 -78v-25q89 -4 175.5 -79.5
t86.5 -171.5t-60 -208.5t-60 -183.5q0 -117 95 -155t156 -44v-63q-188 10 -288.5 90t-100.5 217z" />
    <glyph glyph-name="bar" unicode="|" horiz-adv-x="567" 
d="M238 1409h90v-1790h-90v1790z" />
    <glyph glyph-name="braceright" unicode="}" horiz-adv-x="681" 
d="M379.5 40q60.5 -113 60.5 -210q0 -137 -100 -217t-289 -90v63q116 11 184 67.5t68 119.5t-18.5 107t-60.5 124.5t-42 152.5t25.5 116t86.5 97.5t150 57.5v25q-90 4 -176 78t-86 171t42 178t60.5 125.5t18.5 106.5t-64.5 117t-187.5 65v68q188 -12 288.5 -91t100.5 -216
q0 -95 -42 -175.5t-60.5 -124t-18.5 -93.5q0 -153 269 -164l22 -56l-22 -57q-181 -7 -225 -62t-44 -112q0 -58 60.5 -171z" />
    <glyph glyph-name="asciitilde" unicode="~" horiz-adv-x="774" 
d="M550 444q30 0 56.5 27t67.5 109h55q-37 -119 -90 -173.5t-129 -54.5t-138.5 51.5t-92 75t-61.5 23.5t-58.5 -28t-67.5 -107h-53q35 119 89 173t118 54t103.5 -23.5t74.5 -51t65.5 -51.5t60.5 -24z" />
    <glyph glyph-name="exclamdown" unicode="&#xa1;" horiz-adv-x="575" 
d="M227 -31q-59 0 -77.5 22.5t-8.5 57.5l185 825q4 12 22.5 12.5t18.5 -12.5l-33 -833q-4 -72 -76 -72h-31zM264 1193q0 46 32 81t84 35t85 -35t34 -81t-33 -80t-86 -34t-84 34t-32 80z" />
    <glyph glyph-name="cent" unicode="&#xa2;" horiz-adv-x="755" 
d="M516 840q-30 18 -70 18q-41 0 -69 -30q-62 -64 -117 -224.5t-55 -272.5q0 -200 106 -243zM61 286q0 122 36 238.5t99.5 209.5t148.5 151.5t183 60.5h7l98 357h72l-101 -365q72 -16 116 -59t44 -93t-28.5 -81t-70.5 -31t-69 29.5t-31 60.5l-188 -686q61 -7 254 131l33 -37
q-172 -194 -320 -201l-82 -311h-72l84 313q-92 18 -152.5 104.5t-60.5 208.5z" />
    <glyph glyph-name="sterling" unicode="&#xa3;" horiz-adv-x="946" 
d="M442.5 -5q-70.5 44 -157.5 120q-133 -138 -330 -166l-12 74q231 49 273 173t51 208.5t14 125.5h-209l6 80h209q7 129 18 240q27 203 143.5 320.5t294.5 117.5q100 0 165 -42t65 -96t-26.5 -87t-76.5 -33t-80 44t-10 108q-37 32 -89 32t-86 -14t-79 -74.5t-61 -202.5
t-25 -313h322l6 -80h-336q-21 -248 -108 -358v-8q29 -8 186 -67t231 15q32 32 53 67.5t44 76.5l41 -14q-21 -196 -112 -243.5t-172 -47.5q-82 0 -152.5 44z" />
    <glyph glyph-name="currency" unicode="&#xa4;" horiz-adv-x="1028" 
d="M313 535v-21h416l8 -80h-418q33 -249 143.5 -303.5t192.5 -54.5q138 0 285 137l29 -45q-66 -86 -163.5 -142.5t-205.5 -56.5q-195 0 -307.5 131t-134.5 334h-138l7 80h125v16q5 101 14 160h-123l6 80h133q61 228 221 373t367 145q132 0 217.5 -48t85.5 -128
q0 -43 -23.5 -74.5t-60.5 -31.5q-63 0 -93 48.5t-30 110.5q-50 43 -151 43q-147 0 -246.5 -117.5t-134.5 -320.5h420l6 -80h-438q-9 -88 -9 -155z" />
    <glyph glyph-name="yen" unicode="&#xa5;" horiz-adv-x="1253" 
d="M1313 1210l-62 -10q-41 -10 -75.5 -30.5t-75.5 -79.5l-334 -463h324l8 -82h-377l-23 -174h392l8 -82h-410l-22 -162q-6 -31 30 -37l160 -20l6 -70h-565l6 70l164 20q31 3 41 37l22 162h-356l4 82h361l24 174h-389l6 82h357l-256 512q-27 43 -76 57l-84 14l-6 70h485
l-6 -70l-105 -12q-37 -4 -36.5 -39t41.5 -119l188 -389h6l303 436q64 97 -4 113l-76 10l-6 70h414z" />
    <glyph glyph-name="brokenbar" unicode="&#xa6;" horiz-adv-x="952" 
d="M-37 221q0 55 34 92t81 35t73.5 -26.5t26.5 -75.5t-45 -90q23 -49 76 -79t106 -30q127 0 189.5 92t83.5 250l102 764q4 31 -31 37l-157 20l-6 70h542l-6 -70l-143 -20q-35 -6 -41 -37l-103 -768q-28 -206 -143.5 -311t-277.5 -105q-142 0 -251.5 68.5t-109.5 183.5z" />
    <glyph glyph-name="section" unicode="&#xa7;" horiz-adv-x="880" 
d="M711 463q0 72 -49.5 125t-115.5 102t-123.5 95t-96.5 100q-47 -23 -83 -66t-36 -101t44.5 -110.5t112.5 -102.5t129.5 -96.5t102.5 -105.5q115 56 115 160zM769 369.5q-60 -71.5 -148 -107.5q53 -104 5.5 -208.5t-137.5 -142.5t-143 -38q-105 0 -179.5 39.5t-74.5 107.5
q0 45 29 73t75 28t74.5 -43t32.5 -111q39 -20 95 -20t93 45t37 95q0 83 -59 143.5t-127 107.5q-134 93 -194 160.5t-60 154.5t57.5 158t153.5 113q-29 57 -29 110q0 108 90.5 188.5t223.5 80.5q80 0 131 -27t75.5 -54.5t24.5 -67.5t-28.5 -69.5t-74.5 -29.5t-75 43t-33 112
q-38 19 -72 19q-72 0 -106.5 -43t-34.5 -89t17.5 -81t47 -65.5t68.5 -59.5t81 -60t82 -62.5t91 -88t51 -147.5q0 -92 -60 -163.5z" />
    <glyph glyph-name="dieresis" unicode="&#xa8;" 
d="M414 1223q0 -47 -30 -84t-83 -37t-83 37t-30 84t30 83.5t83 36.5t83 -36.5t30 -83.5zM823 1223q0 -47 -29.5 -84t-83 -37t-83 37t-29.5 84t29.5 83.5t83 36.5t83 -36.5t29.5 -83.5z" />
    <glyph glyph-name="copyright" unicode="&#xa9;" horiz-adv-x="1503" 
d="M778 258q-182 0 -285.5 103.5t-103.5 270.5t106.5 277.5t276.5 110.5q101 0 166 -23l92 23v-260h-53l-43 151q-65 43 -146 43q-137 0 -210.5 -80t-73.5 -222t74.5 -236t214.5 -94q83 0 129 32l63 162h55l-26 -242l-58 13q-84 -29 -178 -29zM1348 639q0 123 -47.5 233.5
t-128 192.5t-189.5 130t-231.5 48t-231 -48t-189.5 -130t-128 -192.5t-47 -233.5t47 -232.5t128 -191.5t189.5 -130t231 -48t231.5 48t189.5 130t128 191.5t47.5 232.5zM1421 639q0 -139 -52 -261t-143 -213t-213 -143.5t-261.5 -52.5t-261 52.5t-213 143.5t-143.5 213
t-52 261t52 261t143.5 213t213 144.5t261 53.5t261.5 -53.5t213 -144.5t143 -213t52 -261z" />
    <glyph glyph-name="ordfeminine" unicode="&#xaa;" horiz-adv-x="706" 
d="M389 1229q-27 -1 -51 -25q-51 -52 -87 -172t-36 -197q0 -78 22.5 -112.5t46.5 -34.5t82 67t169 273l20 76q-43 78 -91 101.5t-75 23.5zM497 620q-28 26 -28 46q0 21 28.5 104.5t73.5 235.5h-10q-153 -299 -216.5 -355.5t-96.5 -56.5q-66 0 -101.5 59t-35.5 129
q0 125 46 244.5t101 175.5q105 107 201 107q66 0 90 -49.5t31 -65.5h12l26 115h87l-64 -269l-78 -354l39 -10l139 121l19 -27q-69 -104 -129 -140t-83 -36t-51 26z" />
    <glyph glyph-name="guillemotleft" unicode="&#xab;" horiz-adv-x="997" 
d="M455 121l-404 293l2 82l492 301l14 -43l-344 -303l266 -291zM836 100l-400 314l2 82l492 321l14 -43l-364 -323l280 -312z" />
    <glyph glyph-name="logicalnot" unicode="&#xac;" horiz-adv-x="966" 
d="M439 854q-38 0 -72 -34q-61 -61 -121 -238.5t-60 -311.5q0 -180 101 -180q54 0 131.5 105t232.5 370l29 119q-75 104 -139 137t-102 33zM526 46q0 23 117 390h-18q-127 -227 -186.5 -307t-108.5 -120t-99 -40q-84 0 -135 72t-51 171q0 174 80.5 382.5t208 281t178.5 72.5
t98 -26.5t84 -128.5h15l41 153h127l-101 -364l-108 -488l61 -18l162 137l35 -37q-37 -68 -115.5 -137.5t-136.5 -69.5q-32 0 -72.5 15.5t-58 27t-17.5 34.5z" />
    <glyph glyph-name="registered" unicode="&#xae;" horiz-adv-x="1503" 
d="M911 803q0 150 -198 141l-62 -2v-287l94 -10q72 6 119 44t47 114zM1030 821q0 -154 -178 -211l145 -221q27 -33 52 -41l69 -8l6 -59h-190l-45 81l-141 224l-97 4v-215q0 -20 21 -23l88 -12l4 -59h-324l6 59l76 12q20 2 21 23v538q0 20 -21 23l-76 12l-6 60h324
q132 0 199 -54.5t67 -132.5zM1348 639q0 123 -47.5 233.5t-128 192.5t-189.5 130t-231.5 48t-231 -48t-189.5 -130t-128 -192.5t-47 -233.5t47 -232.5t128 -191.5t189.5 -130t231 -48t231.5 48t189.5 130t128 191.5t47.5 232.5zM1421 639q0 -139 -52 -261t-143 -213
t-213 -143.5t-261.5 -52.5t-261 52.5t-213 143.5t-143.5 213t-52 261t52 261t143.5 213t213 144.5t261 53.5t261.5 -53.5t213 -144.5t143 -213t52 -261z" />
    <glyph glyph-name="macron" unicode="&#xaf;" 
d="M737 1188v-84h-506l15 84h491z" />
    <glyph glyph-name="degree" unicode="&#xb0;" horiz-adv-x="841" 
d="M242 952q0 -155 93 -193t147 -38q110 0 190 84t81 196q1 111 -67 176.5t-179 65.5t-188 -89.5t-77 -201.5zM738 756.5q-108 -113.5 -256 -113.5t-240 85t-92 229t107.5 257t255.5 113t240.5 -82t92.5 -229q0 -146 -108 -259.5z" />
    <glyph glyph-name="plusminus" unicode="&#xb1;" horiz-adv-x="1503" 
d="M956 784.5q0 77.5 -51 119.5t-143 40h-66v-317q63 -11 90 -11q78 0 124 45.5t46 123zM790 557q-56 0 -94 6v-188q0 -18 21 -23l98 -12l2 -59h-330l5 59l77 12q20 2 21 23v540q0 18 -21 21l-77 14l-5 58h293q147 0 217 -57.5t70 -156.5t-82.5 -168t-194.5 -69zM1348 639
q0 123 -47.5 233.5t-128 192.5t-189.5 130t-231.5 48t-231 -48t-189.5 -130t-128 -192.5t-47 -233.5t47 -232.5t128 -191.5t189.5 -130t231 -48t231.5 48t189.5 130t128 191.5t47.5 232.5zM1421 639q0 -139 -52 -261t-143 -213t-213 -143.5t-261.5 -52.5t-261 52.5
t-213 143.5t-143.5 213t-52 261t52 261t143.5 213t213 144.5t261 53.5t261.5 -53.5t213 -144.5t143 -213t52 -261z" />
    <glyph glyph-name="acute" unicode="&#xb4;" 
d="M416 1040h-47l243 377h193z" />
    <glyph glyph-name="mu" unicode="&#xb5;" horiz-adv-x="872" 
d="M6 -231q0 -85 96 -141t226 -56q129 0 216 46.5t87 110.5t-61.5 101t-135.5 65t-128 44t-103 36q-197 -96 -197 -206zM639 674q0 88 -61.5 140t-112.5 52t-72.5 -12t-55.5 -45t-63.5 -110t-27.5 -147q5 -163 57.5 -191.5t85.5 -28.5q75 0 137 62t87.5 143t25.5 137z
M520 946q90 0 225 -37h207l-39 -135l-239 47v-16q43 -49 65.5 -94t22.5 -111q0 -127 -109.5 -227.5t-232.5 -100.5q-66 0 -135 27q-49 -12 -77 -45.5t-28 -67.5t38 -60t136 -60l95 -33q143 -47 223 -105t80 -162q0 -103 -137.5 -187.5t-364.5 -84.5q-154 0 -262.5 67
t-108.5 185q0 81 83.5 150t187.5 102v10q-99 55 -99 137q0 61 53.5 105.5t131.5 71.5v10q-53 39 -89 104.5t-36 144.5t32.5 145.5t87 115.5t127 76.5t162.5 27.5z" />
    <glyph glyph-name="paragraph" unicode="&#xb6;" horiz-adv-x="1011" 
d="M572 528q-183 0 -307 95t-124 249q0 207 138.5 307.5t357.5 100.5h311l-176 -1346h-96l80 617q-104 -23 -184 -23z" />
    <glyph glyph-name="periodcentered" unicode="&#xb7;" horiz-adv-x="462" 
d="M186 340q-56 0 -92.5 38t-34.5 87q0 49 35 86t91 37t92 -37t35 -86t-35.5 -87t-90.5 -38z" />
    <glyph glyph-name="cedilla" unicode="&#xb8;" 
d="M412 -307q0 43 -39 69.5t-102 26.5t-140 -10l4 35l242 225h84l-174 -160q111 4 177 -38.5t66 -108.5q0 -118 -122.5 -190.5t-331.5 -88.5l-8 45q344 45 344 195z" />
    <glyph glyph-name="ordmasculine" unicode="&#xba;" horiz-adv-x="653" 
d="M571 1046q0 210 -122 209q-100 0 -160 -146t-61 -271t43 -158t81 -33t71 27.5t59.5 68.5t57 120.5t31.5 182.5zM580 728.5q-96 -134.5 -236 -134.5q-162 0 -191.5 113.5t-29.5 179.5q0 150 95.5 286t234.5 136q109 0 166 -80.5t57 -223.5q0 -142 -96 -276.5z" />
    <glyph glyph-name="guillemotright" unicode="&#xbb;" horiz-adv-x="997" 
d="M33 94l-13 43l363 324l-279 311l23 39l399 -315l-2 -82zM418 115l-15 43l347 303l-269 291l27 39l405 -295l-2 -82z" />
    <glyph glyph-name="onequarter" unicode="&#xbc;" horiz-adv-x="1028" 
d="M821 1249q0 -102 -78 -102q-51 0 -79.5 37t-34.5 96l-150 -37q-29 -49 -48 -135t-40 -190h371q60 270 166 387q47 51 115.5 79.5t134.5 28.5t110.5 -38t44.5 -87t-25.5 -80.5t-71.5 -31.5t-76 37.5t-34 97.5l-137 -33q-42 -76 -96 -360h250l8 -93h-274l-109 -589
q-88 -471 -201 -590q-96 -96 -198 -97q-61 0 -104.5 34t-43.5 82t25.5 77t71.5 29t75 -38t35 -93l107 65q48 109 92 381l118 739h-370l-117 -645q-88 -471 -201 -590q-90 -94 -217 -94q-61 0 -103 34t-42 82t25.5 76.5t70.5 28.5t74 -38.5t35 -92.5l120 64q33 75 56.5 200
t34.5 181l137 788l-185 8l7 58l192 43q54 234 154 342q47 51 115.5 79.5t134.5 28.5t110.5 -37.5t44.5 -91.5z" />
    <glyph glyph-name="onehalf" unicode="&#xbd;" horiz-adv-x="1492" 
d="M1179.5 1420.5q131.5 0.5 181.5 -41.5t50 -91t-26.5 -80.5t-71.5 -31.5t-77 39.5t-42 99.5l-203 -37q-67 -127 -98 -360h283q45 28 69 28q45 -1 97 -38t44 -56l-210 -764l47 -16l184 141l33 -37q-42 -69 -124.5 -138t-127.5 -69t-93 38.5t-44 55.5l200 756l-14 6h-360
l-109 -589q-88 -471 -201 -590q-96 -96 -198 -97q-61 0 -104.5 34t-43.5 82t25.5 77t71.5 29t75 -38t35 -93l107 65q48 109 92 381l118 739h-370l-117 -645q-76 -458 -201 -590q-90 -94 -217 -94q-61 0 -103 34t-42 82t25.5 76.5t70.5 28.5t74 -38.5t35 -92.5l120 64
q33 75 56.5 200t34.5 181l137 788l-185 8l7 58l192 43q43 247 162 364q107 111 256 111q82 0 130 -41t48 -88t-24.5 -78t-68.5 -31t-75 37t-41 96l-166 -36q-63 -144 -92 -344h371q44 264 160 378q126 124 257.5 124.5z" />
    <glyph glyph-name="threequarters" unicode="&#xbe;" horiz-adv-x="1515" 
d="M1321 1223q-39 -10 -68.5 15.5t-40.5 80.5l-215 -35q-72 -121 -104 -366h362zM1213 1421q74 0 126 -28l158 34l-297 -1333l57 -18l175 137l32 -37q-41 -68 -123 -137.5t-141 -69.5q-29 0 -79 38t-46 56l162 762h-360l-109 -589q-88 -471 -201 -590q-96 -96 -198 -97
q-61 0 -104.5 34t-43.5 82t25.5 77t71.5 29t75 -38t35 -93l107 65q48 109 92 381l118 739h-370l-117 -645q-76 -458 -201 -590q-90 -94 -217 -94q-61 0 -103 34t-42 82t25.5 76.5t70.5 28.5t74 -38.5t35 -92.5l120 64q33 75 56.5 200t34.5 181l137 788l-185 8l7 58l192 43
q43 247 162 364q107 111 256 111q82 0 130 -41t48 -88t-24.5 -78t-68.5 -31t-75 37t-41 96l-166 -36q-63 -144 -92 -344h371q44 264 160 378q58 58 137.5 91.5t153.5 33.5z" />
    <glyph glyph-name="questiondown" unicode="&#xbf;" horiz-adv-x="727" 
d="M399 1201q0 46 32 81t84 35t86 -35t33 -81t-34 -80t-85 -34t-84 34t-32 80zM592 685q0 -93 -73.5 -147.5t-149.5 -77.5q-134 -40 -186 -71.5t-52 -72.5q0 -77 96.5 -131t231.5 -54q59 0 96 6q12 -18 12 -56t-39.5 -69.5t-115.5 -31.5q-153 0 -258 99.5t-105 225.5
q0 177 100.5 221t143.5 58q103 32 153 66t50 105t-82 160l63 -4q115 -101 115 -226z" />
    <glyph glyph-name="Agrave" unicode="&#xc0;" horiz-adv-x="1181" 
d="M709 1393l-289 376h192l142 -376h-45zM641 1130h-10l-248 -583h352zM643 0l6 70l121 16q43 7 33 53l-53 324h-402l-98 -234q-27 -68 -24 -99.5t36 -39.5l111 -20l6 -70h-445l7 70l96 20q35 10 52 30.5t40 67.5l451 1012v60l190 47l211 -1166q4 -23 13.5 -35t37.5 -16
l117 -20l6 -70h-512z" />
    <glyph glyph-name="Aacute" unicode="&#xc1;" horiz-adv-x="1181" 
d="M657 1393h-47l244 376h193zM641 1130h-10l-248 -583h352zM643 0l6 70l121 16q43 7 33 53l-53 324h-402l-98 -234q-27 -68 -24 -99.5t36 -39.5l111 -20l6 -70h-445l7 70l96 20q35 10 52 30.5t40 67.5l451 1012v60l190 47l211 -1166q4 -23 13.5 -35t37.5 -16l117 -20l6 -70
h-512z" />
    <glyph glyph-name="Acircumflex" unicode="&#xc2;" horiz-adv-x="1181" 
d="M903 1393l-182 270h-4l-258 -270h-45l225 376h182l125 -376h-43zM641 1130h-10l-248 -583h352zM643 0l6 70l121 16q43 7 33 53l-53 324h-402l-98 -234q-27 -68 -24 -99.5t36 -39.5l111 -20l6 -70h-445l7 70l96 20q35 10 52 30.5t40 67.5l451 1012v60l190 47l211 -1166
q4 -23 13.5 -35t37.5 -16l117 -20l6 -70h-512z" />
    <glyph glyph-name="Atilde" unicode="&#xc3;" horiz-adv-x="1181" 
d="M598 1671q71 0 133 -50t92.5 -73.5t60.5 -23.5t57.5 26.5t68.5 106.5h55q-37 -117 -92 -178.5t-130 -61.5t-137.5 51.5t-92 74t-61.5 22.5t-58.5 -27t-67.5 -106h-53q70 239 225 239zM641 1130h-10l-248 -583h352zM643 0l6 70l121 16q43 7 33 53l-53 324h-402l-98 -234
q-27 -68 -24 -99.5t36 -39.5l111 -20l6 -70h-445l7 70l96 20q35 10 52 30.5t40 67.5l451 1012v60l190 47l211 -1166q4 -23 13.5 -35t37.5 -16l117 -20l6 -70h-512z" />
    <glyph glyph-name="Adieresis" unicode="&#xc4;" horiz-adv-x="1181" 
d="M594 1575q0 -47 -29.5 -84t-83 -37t-83 37t-29.5 84t29.5 84t83 37t83 -37t29.5 -84zM1004 1575q0 -47 -30 -84t-83 -37t-83 37t-30 84t30 84t83 37t83 -37t30 -84zM641 1130h-10l-248 -583h352zM643 0l6 70l121 16q43 7 33 53l-53 324h-402l-98 -234q-27 -68 -24 -99.5
t36 -39.5l111 -20l6 -70h-445l7 70l96 20q35 10 52 30.5t40 67.5l451 1012v60l190 47l211 -1166q4 -23 13.5 -35t37.5 -16l117 -20l6 -70h-512z" />
    <glyph glyph-name="Aring" unicode="&#xc5;" horiz-adv-x="1181" 
d="M700 1595q86 0 135.5 -53.5t48.5 -119.5q-2 -130 -102 -179l199 -1102q4 -23 13.5 -35t37.5 -16l117 -20l6 -70h-512l6 70l121 16q43 7 33 53l-53 324h-402l-98 -234q-27 -68 -24 -99.5t36 -39.5l111 -20l6 -70h-445l7 70l96 20q35 10 52 30.5t40 67.5l473 1063
q-84 51 -84 160q2 76 49 130t133 54zM823 1410q0 52 -31.5 91t-89.5 39t-90 -39t-32 -91t31.5 -91t89.5 -39t90 39t32 91zM641 1130h-10l-248 -583h352z" />
    <glyph glyph-name="AE" unicode="&#xc6;" horiz-adv-x="1642" 
d="M856 1204h-18l-414 -657h342zM1061 1204h-47l-72 -514h47q172 0 188.5 12.5t24.5 26.5l64 137h71l-100 -426h-70l9 131q4 25 -30 35t-171 10h-43l-70 -540h25q313 0 378.5 12t83 29.5t29.5 46.5l80 198h98l-86 -362h-938l9 70l129 20q35 6 41 37l45 336h-385l-99 -156
q-10 -18 -26.5 -44.5t-42 -74t-26.5 -62.5t9.5 -23.5t26.5 -12.5l109 -20l6 -70h-445l6 70l97 20q59 17 110 100l613 963q18 29 -25 37l-125 20l-4 70h1085l-49 -371h-90l-18 207q-2 31 -13.5 48.5t-61.5 28.5t-347 11z" />
    <glyph glyph-name="Ccedilla" unicode="&#xc7;" horiz-adv-x="1255" 
d="M805 -268q0 -118 -122 -190.5t-333 -88.5l-8 45q344 45 344 195q0 43 -39 69.5t-103 26.5t-138 -10l4 35l172 159q-236 27 -358 174.5t-122 384.5q0 158 59 306t163 252q220 220 507 219q158 0 277 -39l145 33l-55 -416h-84l-20 272q-124 70 -253 70q-240 0 -399 -203.5
t-159 -501.5q0 -240 137 -377q98 -98 264 -98q118 0 246 62l121 274h96l-98 -387l-95 20q-154 -49 -280 -49h-15l-98 -90q111 4 177.5 -38.5t66.5 -108.5z" />
    <glyph glyph-name="Egrave" unicode="&#xc8;" horiz-adv-x="1175" 
d="M733 1393l-289 376h193l141 -376h-45zM586 1204h-70l-70 -514h70q130 0 165 6.5t46 32.5l66 137h69l-100 -426h-68l8 131q4 25 -29.5 35t-170.5 10h-66l-71 -540h47q316 0 380 12t81.5 29.5t29.5 46.5l82 198h98l-86 -362h-970l6 70l127 20q35 6 41 37l137 1026
q9 30 -31 37l-119 20l-6 70h983l-49 -371h-88l-18 207q-2 31 -13.5 48.5t-63 28.5t-347.5 11z" />
    <glyph glyph-name="Eacute" unicode="&#xc9;" horiz-adv-x="1175" 
d="M594 1393h-47l244 376h192zM586 1204h-70l-70 -514h70q130 0 165 6.5t46 32.5l66 137h69l-100 -426h-68l8 131q4 25 -29.5 35t-170.5 10h-66l-71 -540h47q316 0 380 12t81.5 29.5t29.5 46.5l82 198h98l-86 -362h-970l6 70l127 20q35 6 41 37l137 1026q9 30 -31 37
l-119 20l-6 70h983l-49 -371h-88l-18 207q-2 31 -13.5 48.5t-63 28.5t-347.5 11z" />
    <glyph glyph-name="Ecircumflex" unicode="&#xca;" horiz-adv-x="1175" 
d="M915 1393l-182 270h-4l-258 -270h-45l225 376h183l124 -376h-43zM586 1204h-70l-70 -514h70q130 0 165 6.5t46 32.5l66 137h69l-100 -426h-68l8 131q4 25 -29.5 35t-170.5 10h-66l-71 -540h47q316 0 380 12t81.5 29.5t29.5 46.5l82 198h98l-86 -362h-970l6 70l127 20
q35 6 41 37l137 1026q9 30 -31 37l-119 20l-6 70h983l-49 -371h-88l-18 207q-2 31 -13.5 48.5t-63 28.5t-347.5 11z" />
    <glyph glyph-name="Edieresis" unicode="&#xcb;" horiz-adv-x="1175" 
d="M618 1575q0 -47 -29.5 -84t-82.5 -37t-83 37t-30 84t30 84t83 37t82.5 -37t29.5 -84zM1028 1575q0 -47 -29.5 -84t-83 -37t-83 37t-29.5 84t29.5 84t83 37t83 -37t29.5 -84zM586 1204h-70l-70 -514h70q130 0 165 6.5t46 32.5l66 137h69l-100 -426h-68l8 131
q4 25 -29.5 35t-170.5 10h-66l-71 -540h47q316 0 380 12t81.5 29.5t29.5 46.5l82 198h98l-86 -362h-970l6 70l127 20q35 6 41 37l137 1026q9 30 -31 37l-119 20l-6 70h983l-49 -371h-88l-18 207q-2 31 -13.5 48.5t-63 28.5t-347.5 11z" />
    <glyph glyph-name="Igrave" unicode="&#xcc;" horiz-adv-x="716" 
d="M457 1393l-289 376h192l142 -376h-45zM37 0l6 70l141 20q35 6 41 37l137 1026q9 30 -30 37l-135 20l-7 70h529l-6 -70l-142 -20q-35 -6 -41 -37l-135 -1026q-6 -31 31 -37l135 -20l6 -70h-530z" />
    <glyph glyph-name="Iacute" unicode="&#xcd;" horiz-adv-x="716" 
d="M481 1393h-47l244 376h192zM37 0l6 70l141 20q35 6 41 37l137 1026q9 30 -30 37l-135 20l-7 70h529l-6 -70l-142 -20q-35 -6 -41 -37l-135 -1026q-6 -31 31 -37l135 -20l6 -70h-530z" />
    <glyph glyph-name="Icircumflex" unicode="&#xce;" horiz-adv-x="716" 
d="M690 1393l-182 270h-4l-258 -270h-45l225 376h182l125 -376h-43zM37 0l6 70l141 20q35 6 41 37l137 1026q9 30 -30 37l-135 20l-7 70h529l-6 -70l-142 -20q-35 -6 -41 -37l-135 -1026q-6 -31 31 -37l135 -20l6 -70h-530z" />
    <glyph glyph-name="Idieresis" unicode="&#xcf;" horiz-adv-x="716" 
d="M387 1575q0 -47 -29.5 -84t-83 -37t-83 37t-29.5 84t29.5 84t83 37t83 -37t29.5 -84zM797 1575q0 -47 -30 -84t-83 -37t-83 37t-30 84t30 84t83 37t83 -37t30 -84zM37 0l6 70l141 20q35 6 41 37l137 1026q9 30 -30 37l-135 20l-7 70h529l-6 -70l-142 -20q-35 -6 -41 -37
l-135 -1026q-6 -31 31 -37l135 -20l6 -70h-530z" />
    <glyph glyph-name="Eth" unicode="&#xd0;" horiz-adv-x="1331" 
d="M670 1280q276 0 441 -153.5t165 -409.5q0 -299 -201 -496q-102 -104 -259 -162.5t-345 -58.5h-444l6 70l127 20q35 6 41 37l65 487h-176l6 80h180l62 459q4 31 -33 37l-119 20l-6 70h490zM1092 702q0 243 -119.5 372.5t-343.5 129.5h-115l-68 -510h238l6 -80h-254
l-67 -510l149 -28q253 8 369.5 132t160.5 243t44 251z" />
    <glyph glyph-name="Ntilde" unicode="&#xd1;" horiz-adv-x="1433" 
d="M632 1565q-32 0 -58.5 -27t-67.5 -106h-53q70 239 225 239q72 0 133 -50t92 -73.5t61 -23.5t57.5 26.5t68.5 106.5h55q-76 -240 -227 -240q-70 0 -132.5 51.5t-92 74t-61.5 22.5zM1491 1210l-125 -16q-20 -4 -34.5 -13.5t-32 -52.5t-39.5 -225l-123 -919h-103l-590 1126
h-8l-94 -733q-25 -208 -21.5 -238t14.5 -39.5t34 -13.5l118 -16l7 -70h-478l7 70l124 16q23 4 37.5 14.5t30.5 53.5t39 223l90 676q8 66 -2 93.5t-45 37.5l-113 26l-6 70h363l534 -1028h8l88 651q25 210 23 240.5t-13.5 38.5t-33.5 12l-121 16l-6 70h477z" />
    <glyph glyph-name="Ograve" unicode="&#xd2;" horiz-adv-x="1409" 
d="M803 1393l-289 376h193l141 -376h-45zM758 1229q-123 0 -212 -67.5t-174 -217.5t-85 -401t133 -383q109 -109 280 -109q123 0 212 67.5t174 217.5t85 401t-131 381q-107 111 -282 111zM1356 696q0 -140 -54.5 -281t-148.5 -239q-199 -207 -462 -207t-426 169.5
t-163 446.5q0 276 177 490q90 106 216 170t268 64t248.5 -46t183.5 -127t119 -190.5t42 -249.5z" />
    <glyph glyph-name="Oacute" unicode="&#xd3;" horiz-adv-x="1409" 
d="M776 1393h-47l244 376h192zM758 1229q-123 0 -212 -67.5t-174 -217.5t-85 -401t133 -383q109 -109 280 -109q123 0 212 67.5t174 217.5t85 401t-131 381q-107 111 -282 111zM1356 696q0 -140 -54.5 -281t-148.5 -239q-199 -207 -462 -207t-426 169.5t-163 446.5
q0 276 177 490q90 106 216 170t268 64t248.5 -46t183.5 -127t119 -190.5t42 -249.5z" />
    <glyph glyph-name="Ocircumflex" unicode="&#xd4;" horiz-adv-x="1409" 
d="M1044 1393l-182 270h-4l-258 -270h-45l225 376h183l124 -376h-43zM758 1229q-123 0 -212 -67.5t-174 -217.5t-85 -401t133 -383q109 -109 280 -109q123 0 212 67.5t174 217.5t85 401t-131 381q-107 111 -282 111zM1356 696q0 -140 -54.5 -281t-148.5 -239
q-199 -207 -462 -207t-426 169.5t-163 446.5q0 276 177 490q90 106 216 170t268 64t248.5 -46t183.5 -127t119 -190.5t42 -249.5z" />
    <glyph glyph-name="Otilde" unicode="&#xd5;" horiz-adv-x="1409" 
d="M677 1565q-32 0 -58.5 -27t-67.5 -106h-53q70 239 225 239q71 0 133 -50t92.5 -73.5t60.5 -23.5t57.5 26.5t68.5 106.5h55q-76 -240 -227 -240q-70 0 -132.5 51.5t-92 74t-61.5 22.5zM758 1229q-123 0 -212 -67.5t-174 -217.5t-85 -401t133 -383q109 -109 280 -109
q123 0 212 67.5t174 217.5t85 401t-131 381q-107 111 -282 111zM1356 696q0 -140 -54.5 -281t-148.5 -239q-199 -207 -462 -207t-426 169.5t-163 446.5q0 276 177 490q90 106 216 170t268 64t248.5 -46t183.5 -127t119 -190.5t42 -249.5z" />
    <glyph glyph-name="Odieresis" unicode="&#xd6;" horiz-adv-x="1409" 
d="M709 1575q0 -47 -30 -84t-83 -37t-83 37t-30 84t30 84t83 37t83 -37t30 -84zM1118 1575q0 -47 -29.5 -84t-83 -37t-83 37t-29.5 84t29.5 84t83 37t83 -37t29.5 -84zM758 1229q-123 0 -212 -67.5t-174 -217.5t-85 -401t133 -383q109 -109 280 -109q123 0 212 67.5
t174 217.5t85 401t-131 381q-107 111 -282 111zM1356 696q0 -140 -54.5 -281t-148.5 -239q-199 -207 -462 -207t-426 169.5t-163 446.5q0 276 177 490q90 106 216 170t268 64t248.5 -46t183.5 -127t119 -190.5t42 -249.5z" />
    <glyph glyph-name="multiply" unicode="&#xd7;" horiz-adv-x="995" 
d="M846 57l-344 346l-346 -346l-76 76l346 346l-346 344l76 76l346 -346l346 348l76 -76l-349 -346l347 -346z" />
    <glyph glyph-name="Oslash" unicode="&#xd8;" horiz-adv-x="1409" 
d="M102 561q0 300 177 514q90 106 215.5 170t283.5 64t279 -72l108 172h90l-65 -106q-25 -41 -46.5 -73t-21.5 -34q111 -78 172.5 -205t61.5 -281t-54.5 -295t-148.5 -239q-199 -207 -471 -207q-158 0 -279 68q0 2 -18 -28.5t-43 -68.5t-57 -92h-88l141 228
q-111 82 -173.5 209t-62.5 276zM771 1229q-136 0 -225 -67.5t-146.5 -169t-85 -221.5t-27.5 -225q0 -233 114 -368l603 971q-97 80 -233 80zM688 51q135 0 224 67.5t146.5 169t85 221.5t27.5 289t-110 300l-602 -971q94 -76 229 -76z" />
    <glyph glyph-name="Ugrave" unicode="&#xd9;" horiz-adv-x="1458" 
d="M856 1393l-289 376h193l141 -376h-45zM676 -31q-317 0 -387 144.5t-70 225.5t10 153l93 661q4 30 -33 37l-119 20l-6 70h502l-7 -70l-127 -20q-37 -6 -40 -37l-89 -651q-10 -58 -10 -113q0 -166 94.5 -241.5t247.5 -75.5q326 0 377 354l64 477q28 197 24 234t-15 45
t-34 12l-121 16l-6 70h477l-6 -70l-125 -16q-20 -4 -34.5 -13.5t-29 -45.5t-42.5 -232l-68 -495q-33 -223 -174 -331t-346 -108z" />
    <glyph glyph-name="Uacute" unicode="&#xda;" horiz-adv-x="1458" 
d="M838 1393h-47l243 376h193zM676 -31q-317 0 -387 144.5t-70 225.5t10 153l93 661q4 30 -33 37l-119 20l-6 70h502l-7 -70l-127 -20q-37 -6 -40 -37l-89 -651q-10 -58 -10 -113q0 -166 94.5 -241.5t247.5 -75.5q326 0 377 354l64 477q28 197 24 234t-15 45t-34 12l-121 16
l-6 70h477l-6 -70l-125 -16q-20 -4 -34.5 -13.5t-29 -45.5t-42.5 -232l-68 -495q-33 -223 -174 -331t-346 -108z" />
    <glyph glyph-name="Ucircumflex" unicode="&#xdb;" horiz-adv-x="1458" 
d="M1073 1393l-182 270h-4l-258 -270h-45l225 376h182l125 -376h-43zM676 -31q-317 0 -387 144.5t-70 225.5t10 153l93 661q4 30 -33 37l-119 20l-6 70h502l-7 -70l-127 -20q-37 -6 -40 -37l-89 -651q-10 -58 -10 -113q0 -166 94.5 -241.5t247.5 -75.5q326 0 377 354l64 477
q28 197 24 234t-15 45t-34 12l-121 16l-6 70h477l-6 -70l-125 -16q-20 -4 -34.5 -13.5t-29 -45.5t-42.5 -232l-68 -495q-33 -223 -174 -331t-346 -108z" />
    <glyph glyph-name="Udieresis" unicode="&#xdc;" horiz-adv-x="1458" 
d="M733 1575q0 -47 -29.5 -84t-83 -37t-83 37t-29.5 84t29.5 84t83 37t83 -37t29.5 -84zM1143 1575q0 -47 -30 -84t-83 -37t-82.5 37t-29.5 84t29.5 84t82.5 37t83 -37t30 -84zM676 -31q-317 0 -387 144.5t-70 225.5t10 153l93 661q4 30 -33 37l-119 20l-6 70h502l-7 -70
l-127 -20q-37 -6 -40 -37l-89 -651q-10 -58 -10 -113q0 -166 94.5 -241.5t247.5 -75.5q326 0 377 354l64 477q28 197 24 234t-15 45t-34 12l-121 16l-6 70h477l-6 -70l-125 -16q-20 -4 -34.5 -13.5t-29 -45.5t-42.5 -232l-68 -495q-33 -223 -174 -331t-346 -108z" />
    <glyph glyph-name="Yacute" unicode="&#xdd;" horiz-adv-x="1210" 
d="M715 1393h-47l243 376h193zM1321 1210l-82 -14q-41 -10 -75 -29.5t-70 -74.5l-381 -543l-56 -422q-6 -31 31 -37l152 -20l6 -70h-567l6 70l161 20q31 3 41 37l54 420l-269 545q-23 47 -43 67.5t-55 30.5l-92 20l-6 70h499l-8 -70l-102 -12q-39 -4 -40 -32.5t28 -86.5
l209 -450h8l331 485q16 29 15.5 49.5t-43.5 30.5l-107 16l-6 70h467z" />
    <glyph glyph-name="Thorn" unicode="&#xde;" horiz-adv-x="1124" 
d="M565 340q150 0 245 87t95 233t-86 220t-225 74q-89 0 -111 -4l-80 -590q74 -20 162 -20zM625 1028q208 0 335 -95t127 -257q0 -191 -152.5 -299.5t-358.5 -108.5q-96 0 -183 15l-22 -156q-6 -35 30 -37l162 -20l6 -70h-542l6 70l127 20q35 6 41 37l139 1026q9 30 -31 37
l-119 20l-6 70h500l-6 -70l-127 -20q-35 -6 -41 -37l-16 -125h131z" />
    <glyph glyph-name="germandbls" unicode="&#xdf;" horiz-adv-x="1118" 
d="M872 1280q0 -47 -24.5 -78t-68.5 -31t-74.5 37t-40.5 97l-166 -37q-52 -118 -92 -350l-134 -738q-88 -468 -200 -590q-94 -94 -217 -94q-61 0 -103.5 34t-42.5 82t25.5 76.5t70.5 28.5t74 -38.5t35 -92.5l121 64q37 86 90 381l131 788l-178 8l6 58l192 43q44 252 162 370
q102 111 256 111q82 0 130 -41t48 -88zM428 119q0 41 26.5 68.5t65.5 27.5t58.5 -22.5t19.5 -48.5t-12 -56q87 -34 209 -41q35 14 60.5 61.5t27.5 81.5q3 50 -33.5 97.5t-93.5 101.5q-56 54 -134 127.5t-72 172.5q8 127 101.5 192t210.5 65q244 0 244 -145
q0 -41 -26.5 -68.5t-64.5 -27.5t-57.5 23.5t-19.5 51.5t10 47q-71 33 -188 43q-35 -12 -58.5 -51t-26.5 -78q-5 -60 28.5 -103t95.5 -102q122 -117 167 -177.5t42 -127.5q-7 -121 -109 -191.5t-218 -70.5t-184.5 33t-68.5 117z" />
    <glyph glyph-name="agrave" unicode="&#xe0;" horiz-adv-x="966" 
d="M439 854q-38 0 -72 -34q-61 -61 -121 -238.5t-60 -311.5q0 -180 101 -180q54 0 131.5 105t232.5 370l29 119q-75 104 -139 137t-102 33zM526 46q0 23 117 390h-18q-127 -227 -186.5 -307t-108.5 -120t-99 -40q-84 0 -135 72t-51 171q0 174 80.5 382.5t208 281t178.5 72.5
t98 -26.5t84 -128.5h15l41 153h127l-101 -364l-108 -488l61 -18l162 137l35 -37q-37 -68 -115.5 -137.5t-136.5 -69.5q-32 0 -72.5 15.5t-58 27t-17.5 34.5zM602 1040l-289 377h193l141 -377h-45z" />
    <glyph glyph-name="aacute" unicode="&#xe1;" horiz-adv-x="966" 
d="M496 1040h-47l243 377h193zM439 854q-38 0 -72 -34q-61 -61 -121 -238.5t-60 -311.5q0 -180 101 -180q54 0 131.5 105t232.5 370l29 119q-75 104 -139 137t-102 33zM526 46q0 23 117 390h-18q-127 -227 -186.5 -307t-108.5 -120t-99 -40q-84 0 -135 72t-51 171
q0 174 80.5 382.5t208 281t178.5 72.5t98 -26.5t84 -128.5h15l41 153h127l-101 -364l-108 -488l61 -18l162 137l35 -37q-37 -68 -115.5 -137.5t-136.5 -69.5q-32 0 -72.5 15.5t-58 27t-17.5 34.5z" />
    <glyph glyph-name="acircumflex" unicode="&#xe2;" horiz-adv-x="966" 
d="M774 1040l-182 271h-4l-258 -271h-45l225 377h182l125 -377h-43zM439 854q-38 0 -72 -34q-61 -61 -121 -238.5t-60 -311.5q0 -180 101 -180q54 0 131.5 105t232.5 370l29 119q-75 104 -139 137t-102 33zM526 46q0 23 117 390h-18q-127 -227 -186.5 -307t-108.5 -120
t-99 -40q-84 0 -135 72t-51 171q0 174 80.5 382.5t208 281t178.5 72.5t98 -26.5t84 -128.5h15l41 153h127l-101 -364l-108 -488l61 -18l162 137l35 -37q-37 -68 -115.5 -137.5t-136.5 -69.5q-32 0 -72.5 15.5t-58 27t-17.5 34.5z" />
    <glyph glyph-name="atilde" unicode="&#xe3;" horiz-adv-x="966" 
d="M690 1065q-70 0 -132 51t-92 73.5t-62 22.5t-58.5 -26.5t-66.5 -106.5h-54q71 240 226 240q72 0 133 -50t91.5 -74t60.5 -24t57.5 27t68.5 107h56q-76 -240 -228 -240zM439 854q-38 0 -72 -34q-61 -61 -121 -238.5t-60 -311.5q0 -180 101 -180q54 0 131.5 105t232.5 370
l29 119q-75 104 -139 137t-102 33zM526 46q0 23 117 390h-18q-127 -227 -186.5 -307t-108.5 -120t-99 -40q-84 0 -135 72t-51 171q0 174 80.5 382.5t208 281t178.5 72.5t98 -26.5t84 -128.5h15l41 153h127l-101 -364l-108 -488l61 -18l162 137l35 -37q-37 -68 -115.5 -137.5
t-136.5 -69.5q-32 0 -72.5 15.5t-58 27t-17.5 34.5z" />
    <glyph glyph-name="adieresis" unicode="&#xe4;" horiz-adv-x="966" 
d="M487 1223q0 -47 -29.5 -84t-82.5 -37t-83 37t-30 84t30 83.5t83 36.5t82.5 -36.5t29.5 -83.5zM897 1223q0 -47 -29.5 -84t-83 -37t-83 37t-29.5 84t29.5 83.5t83 36.5t83 -36.5t29.5 -83.5zM439 854q-38 0 -72 -34q-61 -61 -121 -238.5t-60 -311.5q0 -180 101 -180
q54 0 131.5 105t232.5 370l29 119q-75 104 -139 137t-102 33zM526 46q0 23 117 390h-18q-127 -227 -186.5 -307t-108.5 -120t-99 -40q-84 0 -135 72t-51 171q0 174 80.5 382.5t208 281t178.5 72.5t98 -26.5t84 -128.5h15l41 153h127l-101 -364l-108 -488l61 -18l162 137
l35 -37q-37 -68 -115.5 -137.5t-136.5 -69.5q-32 0 -72.5 15.5t-58 27t-17.5 34.5z" />
    <glyph glyph-name="aring" unicode="&#xe5;" horiz-adv-x="966" 
d="M705 1240q0 52 -32 91t-90 39t-90 -39t-32 -91t31.5 -91t89.5 -39t90.5 39t32.5 91zM582 1055q-86 0 -134.5 54t-48.5 130q2 76 49.5 130t133.5 54t135 -54t48 -130t-49 -130t-134 -54zM439 854q-38 0 -72 -34q-61 -61 -121 -238.5t-60 -311.5q0 -180 101 -180
q54 0 131.5 105t232.5 370l29 119q-75 104 -139 137t-102 33zM526 46q0 23 117 390h-18q-127 -227 -186.5 -307t-108.5 -120t-99 -40q-84 0 -135 72t-51 171q0 174 80.5 382.5t208 281t178.5 72.5t98 -26.5t84 -128.5h15l41 153h127l-101 -364l-108 -488l61 -18l162 137
l35 -37q-37 -68 -115.5 -137.5t-136.5 -69.5q-32 0 -72.5 15.5t-58 27t-17.5 34.5z" />
    <glyph glyph-name="ae" unicode="&#xe6;" horiz-adv-x="1239" 
d="M422 854q-37 0 -71 -34q-64 -64 -114.5 -228t-50.5 -274q0 -109 23.5 -164.5t59.5 -55.5q97 0 294 363q65 120 75.5 145t18.5 39q-34 78 -81.5 125t-82 65.5t-71.5 18.5zM1049 827.5q-57 30.5 -105 30.5t-76 -26q-111 -106 -174 -406h4q258 142 317.5 191t75 79.5
t15.5 65.5t-57 65.5zM1149 172q-175 -203 -313 -203q-131 0 -210 90t-79 228q0 6 1 16t1 23q-141 -251 -220 -304t-116 -53q-77 0 -122.5 85t-45.5 185q0 177 73.5 370.5t200.5 266t181 72.5t112.5 -43.5t92.5 -175.5q72 106 146.5 161.5t172.5 55.5t155.5 -54t57.5 -114
t-25.5 -96.5t-88 -79.5t-168 -98t-263.5 -139q-2 -10 -2 -15v-39q0 -115 56.5 -174t128.5 -59t245 131z" />
    <glyph glyph-name="ccedilla" unicode="&#xe7;" horiz-adv-x="763" 
d="M389 78q72 0 246 131l29 -37q-149 -176 -287 -199l-103 -94q111 4 177.5 -38.5t66.5 -108.5q0 -118 -122.5 -190.5t-332.5 -88.5l-8 45q344 45 344 195q0 43 -38.5 69.5t-101.5 26.5t-140 -10l4 35q49 45 109 100t61 59q-101 16 -166.5 104.5t-65.5 209.5t39 238.5
t105.5 211.5t155 151.5t186.5 57.5q147 0 184 -61.5t37 -101.5t-26.5 -71.5t-67.5 -31.5q-80 0 -80 76q0 35 14 55q-19 28 -80 41.5t-85 13.5t-56 -34q-69 -72 -125.5 -229.5t-56.5 -282.5q0 -124 56 -183t128 -59z" />
    <glyph glyph-name="egrave" unicode="&#xe8;" horiz-adv-x="751" 
d="M563 828.5q-53 29.5 -104 29.5t-89 -40t-85 -146.5t-76 -253.5l4 -2q246 132 308.5 185.5t78.5 87.5t16 72t-53 67.5zM664 172q-174 -203 -312 -203q-132 0 -211.5 90t-79.5 220q0 131 40 249.5t106.5 212t151.5 149.5t179 56t154 -54t60 -115q0 -62 -26 -101t-94 -86
t-425 -234q-2 -10 -2 -13v-32q0 -115 56 -174t128 -59t246 131zM557 1040l-289 377h193l141 -377h-45z" />
    <glyph glyph-name="eacute" unicode="&#xe9;" horiz-adv-x="751" 
d="M465 1040h-47l244 377h192zM563 828.5q-53 29.5 -104 29.5t-89 -40t-85 -146.5t-76 -253.5l4 -2q246 132 308.5 185.5t78.5 87.5t16 72t-53 67.5zM664 172q-174 -203 -312 -203q-132 0 -211.5 90t-79.5 220q0 131 40 249.5t106.5 212t151.5 149.5t179 56t154 -54t60 -115
q0 -62 -26 -101t-94 -86t-425 -234q-2 -10 -2 -13v-32q0 -115 56 -174t128 -59t246 131z" />
    <glyph glyph-name="ecircumflex" unicode="&#xea;" horiz-adv-x="751" 
d="M737 1040l-182 271h-4l-258 -271h-45l225 377h182l125 -377h-43zM563 828.5q-53 29.5 -104 29.5t-89 -40t-85 -146.5t-76 -253.5l4 -2q246 132 308.5 185.5t78.5 87.5t16 72t-53 67.5zM664 172q-174 -203 -312 -203q-132 0 -211.5 90t-79.5 220q0 131 40 249.5t106.5 212
t151.5 149.5t179 56t154 -54t60 -115q0 -62 -26 -101t-94 -86t-425 -234q-2 -10 -2 -13v-32q0 -115 56 -174t128 -59t246 131z" />
    <glyph glyph-name="edieresis" unicode="&#xeb;" horiz-adv-x="751" 
d="M442 1223q0 -47 -29.5 -84t-83 -37t-83 37t-29.5 84t29.5 83.5t83 36.5t83 -36.5t29.5 -83.5zM852 1223q0 -47 -29.5 -84t-83 -37t-83 37t-29.5 84t29.5 83.5t83 36.5t83 -36.5t29.5 -83.5zM563 828.5q-53 29.5 -104 29.5t-89 -40t-85 -146.5t-76 -253.5l4 -2
q246 132 308.5 185.5t78.5 87.5t16 72t-53 67.5zM664 172q-174 -203 -312 -203q-132 0 -211.5 90t-79.5 220q0 131 40 249.5t106.5 212t151.5 149.5t179 56t154 -54t60 -115q0 -62 -26 -101t-94 -86t-425 -234q-2 -10 -2 -13v-32q0 -115 56 -174t128 -59t246 131z" />
    <glyph glyph-name="igrave" unicode="&#xec;" horiz-adv-x="522" 
d="M137.5 -7.5q-55.5 23.5 -51.5 42.5l209 788l-62 11l-157 -164l-35 37q37 76 113 157.5t133 81.5q37 0 78 -15.5t58 -26.5t13 -23l-217 -787l62 -18l163 137l35 -37q-35 -63 -114.5 -135t-125.5 -72t-101.5 23.5zM385 1040l-289 377h193l141 -377h-45z" />
    <glyph glyph-name="iacute" unicode="&#xed;" horiz-adv-x="522" 
d="M137.5 -7.5q-55.5 23.5 -51.5 42.5l209 788l-62 11l-157 -164l-35 37q37 76 113 157.5t133 81.5q37 0 78 -15.5t58 -26.5t13 -23l-217 -787l62 -18l163 137l35 -37q-35 -63 -114.5 -135t-125.5 -72t-101.5 23.5zM287 1040h-47l243 377h193z" />
    <glyph glyph-name="icircumflex" unicode="&#xee;" horiz-adv-x="522" 
d="M565 1040l-182 271h-4l-258 -271h-45l225 377h182l125 -377h-43zM137.5 -7.5q-55.5 23.5 -51.5 42.5l209 788l-62 11l-157 -164l-35 37q37 76 113 157.5t133 81.5q37 0 78 -15.5t58 -26.5t13 -23l-217 -787l62 -18l163 137l35 -37q-35 -63 -114.5 -135t-125.5 -72
t-101.5 23.5z" />
    <glyph glyph-name="idieresis" unicode="&#xef;" horiz-adv-x="522" 
d="M137.5 -7.5q-55.5 23.5 -51.5 42.5l209 788l-62 11l-157 -164l-35 37q37 76 113 157.5t133 81.5q37 0 78 -15.5t58 -26.5t13 -23l-217 -787l62 -18l163 137l35 -37q-35 -63 -114.5 -135t-125.5 -72t-101.5 23.5zM264 1223q0 -47 -29.5 -84t-83 -37t-83 37t-29.5 84
t29.5 83.5t83 36.5t83 -36.5t29.5 -83.5zM674 1223q0 -47 -30 -84t-83 -37t-82.5 37t-29.5 84t29.5 83.5t82.5 36.5t83 -36.5t30 -83.5z" />
    <glyph glyph-name="eth" unicode="&#xf0;" horiz-adv-x="894" 
d="M382 -31q-164 0 -239 110t-75 304t129 378.5t315 184.5q146 0 207 -145q-21 208 -148 354l-325 -100l18 84l244 75q-80 65 -207 111l43 70q156 -51 264 -150q2 0 48 15.5t102 31.5l147 45l-18 -84l-215 -67q182 -198 184 -478t-101.5 -445t-192.5 -229.5t-180 -64.5z
M249.5 117.5q42.5 -84.5 133.5 -84.5q92 0 185 148.5t103.5 281.5t10.5 165q0 98 -42 176.5t-131 78.5t-165 -117.5t-107 -233.5q-30 -114 -30 -222t42.5 -192.5z" />
    <glyph glyph-name="ntilde" unicode="&#xf1;" horiz-adv-x="1042" 
d="M481 1319q71 0 133 -50t92.5 -74t60.5 -24t57.5 27t68.5 107h55q-37 -117 -92 -178.5t-129 -61.5t-137.5 51t-93 73.5t-61.5 22.5t-58.5 -26.5t-67.5 -106.5h-53q71 240 225 240zM647.5 -8.5q-53.5 22.5 -53.5 42.5q0 21 10 65t26.5 99.5t35 116t33.5 110.5t29.5 96
t33 112t18.5 99q0 34 -30.5 61.5t-60.5 27.5t-67.5 -43t-102 -143t-212.5 -393l-47 -252l-149 10l69 301l109 514l-60 12l-161 -157l-33 37q37 76 113 157.5t136 81.5t102 -26.5t42 -40.5t-14.5 -74t-34 -138.5t-42 -161.5t-38.5 -147h20q191 403 302 519q68 69 134 69
t113 -40.5t47 -102.5q0 -93 -86 -371q-29 -98 -56.5 -191.5t-45.5 -146.5l61 -18l164 137l35 -37q-38 -69 -117 -138t-124 -69t-98.5 22.5z" />
    <glyph glyph-name="ograve" unicode="&#xf2;" horiz-adv-x="894" 
d="M638 337q44 114 44 285t-61.5 216t-110.5 45q-90 0 -166.5 -118.5t-106.5 -232.5t-30 -190q0 -140 42.5 -224.5t133.5 -84.5q92 0 151.5 95t103.5 209zM823 543q0 -90 -33.5 -193.5t-94 -187.5t-143.5 -138.5t-172 -54.5q-162 0 -237 110t-75 303q0 194 94 326t177 185
t171 53t145.5 -30.5t94 -85t55 -126t18.5 -161.5zM592 1040l-289 377h193l141 -377h-45z" />
    <glyph glyph-name="oacute" unicode="&#xf3;" horiz-adv-x="894" 
d="M502 1040h-47l243 377h193zM638 337q44 114 44 285t-61.5 216t-110.5 45q-90 0 -166.5 -118.5t-106.5 -232.5t-30 -190q0 -140 42.5 -224.5t133.5 -84.5q92 0 151.5 95t103.5 209zM823 543q0 -90 -33.5 -193.5t-94 -187.5t-143.5 -138.5t-172 -54.5q-162 0 -237 110
t-75 303q0 194 94 326t177 185t171 53t145.5 -30.5t94 -85t55 -126t18.5 -161.5z" />
    <glyph glyph-name="ocircumflex" unicode="&#xf4;" horiz-adv-x="894" 
d="M766 1040l-182 271h-4l-258 -271h-46l226 377h182l125 -377h-43zM638 337q44 114 44 285t-61.5 216t-110.5 45q-90 0 -166.5 -118.5t-106.5 -232.5t-30 -190q0 -140 42.5 -224.5t133.5 -84.5q92 0 151.5 95t103.5 209zM823 543q0 -90 -33.5 -193.5t-94 -187.5
t-143.5 -138.5t-172 -54.5q-162 0 -237 110t-75 303q0 194 94 326t177 185t171 53t145.5 -30.5t94 -85t55 -126t18.5 -161.5z" />
    <glyph glyph-name="otilde" unicode="&#xf5;" horiz-adv-x="894" 
d="M690 1065q-70 0 -132 51t-92 73.5t-62 22.5t-58.5 -26.5t-66.5 -106.5h-54q71 240 226 240q72 0 133 -50t91.5 -74t60.5 -24t57.5 27t68.5 107h56q-76 -240 -228 -240zM638 337q44 114 44 285t-61.5 216t-110.5 45q-90 0 -166.5 -118.5t-106.5 -232.5t-30 -190
q0 -140 42.5 -224.5t133.5 -84.5q92 0 151.5 95t103.5 209zM823 543q0 -90 -33.5 -193.5t-94 -187.5t-143.5 -138.5t-172 -54.5q-162 0 -237 110t-75 303q0 194 94 326t177 185t171 53t145.5 -30.5t94 -85t55 -126t18.5 -161.5z" />
    <glyph glyph-name="odieresis" unicode="&#xf6;" horiz-adv-x="894" 
d="M485 1223q0 -47 -29.5 -84t-83 -37t-83 37t-29.5 84t29.5 83.5t83 36.5t83 -36.5t29.5 -83.5zM895 1223q0 -47 -29.5 -84t-83 -37t-83 37t-29.5 84t29.5 83.5t83 36.5t83 -36.5t29.5 -83.5zM638 337q44 114 44 285t-61.5 216t-110.5 45q-90 0 -166.5 -118.5
t-106.5 -232.5t-30 -190q0 -140 42.5 -224.5t133.5 -84.5q92 0 151.5 95t103.5 209zM823 543q0 -90 -33.5 -193.5t-94 -187.5t-143.5 -138.5t-172 -54.5q-162 0 -237 110t-75 303q0 194 94 326t177 185t171 53t145.5 -30.5t94 -85t55 -126t18.5 -161.5z" />
    <glyph glyph-name="divide" unicode="&#xf7;" horiz-adv-x="995" 
d="M606 766q0 -41 -29.5 -74t-76.5 -33t-76 33t-29 74t29 73.5t76 32.5t76.5 -32.5t29.5 -73.5zM606 192.5q0 -40.5 -28.5 -73.5t-75.5 -33t-77 33t-30 73.5t30 72.5t77 32t75.5 -32t28.5 -72.5zM84 426l6 111h817l6 -111h-829z" />
    <glyph glyph-name="oslash" unicode="&#xf8;" horiz-adv-x="894" 
d="M158 61q-90 101 -90 308t94 339t177 185t178 53t159 -45l166 273h78q-55 -88 -85 -138t-35 -59l-64 -107l-9 -14q96 -104 96 -310q0 -207 -94 -337.5t-177 -185t-180 -54.5t-161 47q-34 -62 -150 -245h-79zM237 532q-30 -114 -30 -202t20 -158l402 649q-49 62 -109 62
q-100 0 -176.5 -118t-106.5 -233zM477 72q47 39 96.5 118.5t79.5 201.5q29 122 29 207t-20 151q-114 -182 -176 -284t-98 -161t-64.5 -105t-45.5 -74l-18 -28q45 -65 107 -65q63 0 110 39z" />
    <glyph glyph-name="ugrave" unicode="&#xf9;" horiz-adv-x="1042" 
d="M396 924q55 -22 55 -43q0 -20 -10.5 -63.5t-27 -98.5t-35 -117t-33.5 -112t-29.5 -96t-34 -108.5t-19.5 -98.5t31 -64.5t61 -28.5t105 85.5t278 494.5l49 252l150 -11l-72 -301q-27 -132 -43 -210q-59 -292 -67 -310l61 -18l162 137l35 -37q-37 -68 -115.5 -137.5
t-136.5 -69.5q-34 0 -89 22t-55 44q0 31 54 238t73 284h-18q-189 -399 -303 -518q-68 -70 -136 -70t-113.5 41t-45.5 104t35.5 188.5t57.5 201.5t49.5 169t43.5 150l-61 11l-158 -164l-35 37q39 80 116.5 159.5t121.5 79.5t99 -22zM625 1040l-289 377h192l142 -377h-45z" />
    <glyph glyph-name="uacute" unicode="&#xfa;" horiz-adv-x="1042" 
d="M555 1040h-47l244 377h192zM396 924q55 -22 55 -43q0 -20 -10.5 -63.5t-27 -98.5t-35 -117t-33.5 -112t-29.5 -96t-34 -108.5t-19.5 -98.5t31 -64.5t61 -28.5t105 85.5t278 494.5l49 252l150 -11l-72 -301q-27 -132 -43 -210q-59 -292 -67 -310l61 -18l162 137l35 -37
q-37 -68 -115.5 -137.5t-136.5 -69.5q-34 0 -89 22t-55 44q0 31 54 238t73 284h-18q-189 -399 -303 -518q-68 -70 -136 -70t-113.5 41t-45.5 104t35.5 188.5t57.5 201.5t49.5 169t43.5 150l-61 11l-158 -164l-35 37q39 80 116.5 159.5t121.5 79.5t99 -22z" />
    <glyph glyph-name="ucircumflex" unicode="&#xfb;" horiz-adv-x="1042" 
d="M825 1040l-182 271h-4l-258 -271h-45l225 377h182l125 -377h-43zM396 924q55 -22 55 -43q0 -20 -10.5 -63.5t-27 -98.5t-35 -117t-33.5 -112t-29.5 -96t-34 -108.5t-19.5 -98.5t31 -64.5t61 -28.5t105 85.5t278 494.5l49 252l150 -11l-72 -301q-27 -132 -43 -210
q-59 -292 -67 -310l61 -18l162 137l35 -37q-37 -68 -115.5 -137.5t-136.5 -69.5q-34 0 -89 22t-55 44q0 31 54 238t73 284h-18q-189 -399 -303 -518q-68 -70 -136 -70t-113.5 41t-45.5 104t35.5 188.5t57.5 201.5t49.5 169t43.5 150l-61 11l-158 -164l-35 37
q39 80 116.5 159.5t121.5 79.5t99 -22z" />
    <glyph glyph-name="udieresis" unicode="&#xfc;" horiz-adv-x="1042" 
d="M545 1223q0 -47 -30 -84t-83 -37t-83 37t-30 84t30 83.5t83 36.5t83 -36.5t30 -83.5zM954 1223q0 -47 -29.5 -84t-83 -37t-83 37t-29.5 84t29.5 83.5t83 36.5t83 -36.5t29.5 -83.5zM396 924q55 -22 55 -43q0 -20 -10.5 -63.5t-27 -98.5t-35 -117t-33.5 -112t-29.5 -96
t-34 -108.5t-19.5 -98.5t31 -64.5t61 -28.5t105 85.5t278 494.5l49 252l150 -11l-72 -301q-27 -132 -43 -210q-59 -292 -67 -310l61 -18l162 137l35 -37q-37 -68 -115.5 -137.5t-136.5 -69.5q-34 0 -89 22t-55 44q0 31 54 238t73 284h-18q-189 -399 -303 -518
q-68 -70 -136 -70t-113.5 41t-45.5 104t35.5 188.5t57.5 201.5t49.5 169t43.5 150l-61 11l-158 -164l-35 37q39 80 116.5 159.5t121.5 79.5t99 -22z" />
    <glyph glyph-name="yacute" unicode="&#xfd;" horiz-adv-x="878" 
d="M473 1040h-47l244 377h192zM696 455l-237 -355l-121 -215q-115 -221 -205 -315t-201 -94q-61 0 -110 36t-49 88t31.5 80.5t72.5 28.5t77 -35.5t32 -89.5l55 -4q2 0 14.5 17.5t33 46t45 65.5t68.5 99t120 176l-80 22l6 811l-60 12l-157 -163l-35 36q39 80 113 162t133 82
t102 -29.5t43 -42.5l-16 -776h20l354 592l7 33q-39 14 -71 42t-32 73t29 78.5t82 33.5t87 -36t34 -97q0 -105 -185 -362z" />
    <glyph glyph-name="thorn" unicode="&#xfe;" horiz-adv-x="911" 
d="M705 596q0 225 -99 229q-72 0 -179.5 -182t-180.5 -311l-35 -154q128 -139 213 -139q113 0 197 224t84 333zM848 678q0 -168 -59.5 -323t-155.5 -253q-140 -135 -288 -135q-85 0 -161 76h-4l-84 -420q-4 -35 29 -37l154 -20l6 -70h-502l4 70l129 20q37 2 43 37l344 1585
q10 35 -14 41l-142 45l7 52l333 81l-112 -477l-127 -504h16q128 245 194 334.5t114.5 127.5t91.5 39q82 2 133 -85t51 -184z" />
    <glyph glyph-name="ydieresis" unicode="&#xff;" horiz-adv-x="878" 
d="M463 1223q0 -47 -30 -84t-83 -37t-82.5 37t-29.5 84t29.5 83.5t82.5 36.5t83 -36.5t30 -83.5zM872 1223q0 -47 -29.5 -84t-82.5 -37t-83 37t-30 84t30 83.5t83 36.5t82.5 -36.5t29.5 -83.5zM696 455l-237 -355l-121 -215q-115 -221 -205 -315t-201 -94q-61 0 -110 36
t-49 88t31.5 80.5t72.5 28.5t77 -35.5t32 -89.5l55 -4q2 0 14.5 17.5t33 46t45 65.5t68.5 99t120 176l-80 22l6 811l-60 12l-157 -163l-35 36q39 80 113 162t133 82t102 -29.5t43 -42.5l-16 -776h20l354 592l7 33q-39 14 -71 42t-32 73t29 78.5t82 33.5t87 -36t34 -97
q0 -105 -185 -362z" />
    <glyph glyph-name="dotlessi" unicode="&#x131;" horiz-adv-x="522" 
d="M137.5 -7.5q-55.5 23.5 -51.5 42.5l209 788l-62 11l-157 -164l-35 37q37 76 113 157.5t133 81.5q37 0 78 -15.5t58 -26.5t13 -23l-217 -787l62 -18l163 137l35 -37q-35 -63 -114.5 -135t-125.5 -72t-101.5 23.5z" />
    <glyph glyph-name="Lslash" unicode="&#x141;" horiz-adv-x="1124" 
d="M406 76q285 0 345 12t76.5 29.5t28.5 46.5l96 244h97l-99 -408h-923l6 70l127 20q35 6 41 37l39 289l-164 -43v84l174 47l4 27q7 52 32 246q25 195 50 376q6 31 -31 37l-123 20l-6 70h522l-6 -70l-145 -20q-23 -4 -30 -13.5t-11 -23.5l-80 -602l227 59v-86l-239 -63
q-6 -51 -13.5 -103.5t-11.5 -89.5l-24 -192h41z" />
    <glyph glyph-name="lslash" unicode="&#x142;" horiz-adv-x="542" 
d="M151 7.5q-53 38.5 -49 55.5l74 353l-24 -6q-27 -6 -62 -16t-82 -23v84q53 16 91 26t68 18l28 7l149 702q6 35 -14 41l-142 45l9 52l327 81q-31 -145 -68 -308t-126 -576l164 45v-86l-185 -49q-16 -74 -42.5 -197.5t-39.5 -161.5l62 -18l164 137l34 -37
q-38 -70 -115.5 -138.5t-122.5 -68.5t-98 38.5z" />
    <glyph glyph-name="OE" unicode="&#x152;" horiz-adv-x="1839" 
d="M287 578q0 -244 119 -373t344 -129h116l146 1100l-150 28q-253 -8 -370 -132t-161 -243t-44 -251zM711 0q-279 0 -444 153.5t-165 409.5q0 295 201 496q104 104 261 162.5t345 58.5h928l-63 -371h-74l-19 207q-2 31 -13 48.5t-62.5 28.5t-348.5 11h-69l-70 -514h70
q130 0 170.5 11t56.5 38l49 127h70l-100 -426h-68l8 131q4 25 -29.5 35t-170.5 10h-66l-72 -540h47q317 0 381 12t81.5 29.5t29.5 46.5l82 198h98l-86 -362h-958z" />
    <glyph glyph-name="oe" unicode="&#x153;" horiz-adv-x="1339" 
d="M638 337q44 114 44 285t-61.5 216t-110.5 45q-90 0 -166.5 -118.5t-106.5 -232.5t-30 -190q0 -140 42.5 -224.5t133.5 -84.5q92 0 151.5 95t103.5 209zM1149 827.5q-57 30.5 -105 30.5t-86 -33q-41 -41 -88 -147.5t-75 -251.5h4q254 140 315.5 190t76.5 80.5t15 65.5
t-57 65.5zM68 362q0 98 32.5 203t92 189t142.5 138t189 54t172 -59.5t92 -157.5q61 98 148.5 157.5t186 59.5t156.5 -54t58 -114t-25.5 -96.5t-89 -79.5t-168 -98t-263.5 -139v-54q0 -164 73.5 -198.5t108.5 -34.5q75 0 248 131l28 -37q-78 -88 -157.5 -145.5t-172 -57.5
t-151.5 49.5t-84 128.5q-130 -178 -313 -178q-152 0 -227.5 108.5t-75.5 284.5z" />
    <glyph glyph-name="Scaron" unicode="&#x160;" horiz-adv-x="1011" 
d="M713 1393h-183l-124 376h43l184 -268h4l256 268h45zM432 53q141 0 223 59.5t82 174.5q0 140 -108.5 210t-168.5 106q-151 91 -221.5 166.5t-70.5 217.5q0 141 132.5 231.5t280.5 90.5t203.5 -11.5t85.5 -17.5q0 3 56 14l53 13l-53 -394h-84l-21 256q-106 56 -227 56
t-196.5 -50t-75.5 -148t65.5 -163.5t166.5 -123.5t220 -138t119 -254t-138 -276.5t-341 -102.5t-373 56l20 362h80l52 -283q98 -51 239 -51z" />
    <glyph glyph-name="scaron" unicode="&#x161;" horiz-adv-x="696" 
d="M547 1040h-182l-125 377h43l184 -268h4l256 268h45zM684 852q0 -94 -26.5 -122t-64.5 -28t-57.5 24t-19.5 52t10 51q-92 40 -172 43q-41 -12 -73.5 -54t-35.5 -94t43 -103.5t113 -116.5q188 -174 178 -285q-9 -111 -110.5 -180.5t-214.5 -69.5q-185 0 -223.5 54.5
t-38.5 95.5t26.5 68.5t65.5 27.5t58.5 -23.5t19.5 -47.5t-12 -54q95 -39 192 -47q41 16 75 61.5t37 81.5t-10.5 63t-35 55t-51 55.5t-58.5 54.5q-77 72 -129 143t-49 136q7 121 107 187t278 66t178 -94z" />
    <glyph glyph-name="Ydieresis" unicode="&#x178;" horiz-adv-x="1210" 
d="M655 1575q0 -47 -29.5 -84t-83 -37t-83 37t-29.5 84t29.5 84t83 37t83 -37t29.5 -84zM1065 1575q0 -47 -29.5 -84t-83 -37t-83 37t-29.5 84t29.5 84t83 37t83 -37t29.5 -84zM1321 1210l-82 -14q-41 -10 -75 -29.5t-70 -74.5l-381 -543l-56 -422q-6 -31 31 -37l152 -20
l6 -70h-567l6 70l161 20q31 3 41 37l54 420l-269 545q-23 47 -43 67.5t-55 30.5l-92 20l-6 70h499l-8 -70l-102 -12q-39 -4 -40 -32.5t28 -86.5l209 -450h8l331 485q16 29 15.5 49.5t-43.5 30.5l-107 16l-6 70h467z" />
    <glyph glyph-name="Zcaron" unicode="&#x17d;" horiz-adv-x="1116" 
d="M805 1393h-182l-125 376h43l184 -268h4l256 268h45zM961 1204h-224q-262 0 -319.5 -18.5t-74.5 -41t-34 -57.5l-65 -186h-84l49 379h962l-10 -72l-950 -1126l-2 -8l205 2q284 0 348.5 17.5t83 37t33.5 49.5l77 203h97l-95 -383h-960l8 70l955 1126v8z" />
    <glyph glyph-name="zcaron" unicode="&#x17e;" horiz-adv-x="808" 
d="M598 1040h-182l-125 377h43l184 -268h4l256 268h45zM188 668q-40 0 -63 24.5t-23 58.5q0 71 70 131t159 62t137 -21.5t82 -56t54.5 -69.5t34.5 -62l18 2l58 209q53 -2 86 -29.5t33 -71.5q0 -75 -138 -165l-495 -436q71 -27 201 -113t165 -100l43 43q-51 53 -51 90
t24.5 59.5t65.5 22.5t61.5 -23.5t20.5 -57.5q0 -74 -61.5 -133.5t-165.5 -70.5q-117 0 -198 71t-122 165l-18 -2l-60 -226q-53 4 -86.5 33t-33.5 73q0 82 131 167l506 448q-63 23 -194.5 99.5t-154.5 84.5l-38 -38q70 -91 31 -129.5t-79 -38.5z" />
    <glyph glyph-name="florin" unicode="&#x192;" horiz-adv-x="1046" 
d="M1057 1168q0 -50 -25.5 -81.5t-71.5 -31.5t-76 37.5t-34 97.5l-123 -31q-43 -71 -98 -364h252l6 -93h-269q-71 -366 -141 -514.5t-160 -184.5t-147 -36t-100 34t-43 82t25.5 76.5t70.5 28.5t74.5 -38.5t33.5 -92.5l123 58q52 120 95 387l30 194l-178 9l6 57l193 43
q61 267 168 383q45 47 110.5 74.5t129.5 27.5t106.5 -36t42.5 -86z" />
    <glyph glyph-name="circumflex" unicode="&#x2c6;" 
d="M694 1040l-182 271h-4l-258 -271h-45l225 377h182l125 -377h-43z" />
    <glyph glyph-name="caron" unicode="&#x2c7;" 
d="M561 1040h-182l-125 377h43l184 -268h4l256 268h45z" />
    <glyph glyph-name="breve" unicode="&#x2d8;" 
d="M442 1034q-99 0 -142.5 101.5t-59.5 281.5h47q33 -133 64.5 -185t61 -74.5t87 -22.5t117 69t137.5 213h47q-60 -178 -108 -245.5t-100 -102.5t-151 -35z" />
    <glyph glyph-name="dotaccent" unicode="&#x2d9;" 
d="M623 1234q0 -48 -31 -86t-85 -38t-85 38t-31 86t31 86t85 38t85 -38t31 -86z" />
    <glyph glyph-name="ring" unicode="&#x2da;" 
d="M631 1240q0 52 -32 91t-90 39t-90 -39t-32 -91t32 -91t90 -39t90 39t32 91zM508 1055q-86 0 -134 54t-48 130q2 76 49 130t133 54t135 -54t48 -130t-49 -130t-134 -54z" />
    <glyph glyph-name="ogonek" unicode="&#x2db;" 
d="M346 -412q65 0 148 45l10 -45q-104 -73 -201 -73t-158 52.5t-58 120.5q5 117 95 205t230 140h94q-295 -135 -301 -309q-4 -57 36 -96.5t105 -39.5z" />
    <glyph glyph-name="tilde" unicode="&#x2dc;" 
d="M610 1065q-70 0 -132 51t-92 73.5t-62 22.5t-58 -26.5t-67 -106.5h-54q71 240 226 240q72 0 133 -50t91.5 -74t60.5 -24t57.5 27t68.5 107h56q-76 -240 -228 -240z" />
    <glyph glyph-name="hungarumlaut" unicode="&#x2dd;" 
d="M264 1040h-47l227 377h172zM571 1040h-45l228 377h172z" />
    <glyph glyph-name="pi" unicode="&#x3c0;" horiz-adv-x="952" 
d="M-37 221q0 55 34 92t81 35t73.5 -26.5t26.5 -75.5t-45 -90q23 -49 76 -79t106 -30q127 0 189.5 92t83.5 250l102 764q4 31 -31 37l-157 20l-6 70h542l-6 -70l-143 -20q-35 -6 -41 -37l-103 -768q-28 -206 -143.5 -311t-277.5 -105q-142 0 -251.5 68.5t-109.5 183.5z" />
    <glyph glyph-name="endash" unicode="&#x2013;" horiz-adv-x="962" 
d="M55 424l6 100h848l6 -100h-860z" />
    <glyph glyph-name="emdash" unicode="&#x2014;" horiz-adv-x="1921" 
d="M55 424l6 100h1805l8 -100h-1819z" />
    <glyph glyph-name="quoteleft" unicode="&#x2018;" horiz-adv-x="462" 
d="M276 782q-64 0 -109.5 50t-42.5 120q5 124 118 235t286 187l29 -39q-88 -47 -189 -153.5t-55.5 -180.5t77.5 -94t32 -22q-10 -43 -46 -73t-100 -30z" />
    <glyph glyph-name="quoteright" unicode="&#x2019;" horiz-adv-x="462" 
d="M425 1296.5q52 -53.5 49 -126.5q-9 -212 -337 -394l-41 37q137 81 192.5 194t-8 163.5t-85 60.5t-21.5 12q2 45 40 76t98 31q61 0 113 -53.5z" />
    <glyph glyph-name="quotesinglbase" unicode="&#x201a;" horiz-adv-x="462" 
d="M144 229q79 0 130.5 -53.5t48.5 -126.5q-8 -208 -337 -393l-41 37q138 81 193 193.5t-8.5 163t-85 61t-21.5 12.5q2 45 39.5 75.5t81.5 30.5z" />
    <glyph glyph-name="quotedblleft" unicode="&#x201c;" horiz-adv-x="868" 
d="M284 782q-62 0 -111.5 53.5t-47.5 126.5q3 119 97 214.5t237 179.5l43 -37q-138 -81 -192 -193.5t8.5 -164.5t84 -62t21.5 -12q-2 -43 -40 -74t-100 -31zM710 782q-62 0 -111.5 53.5t-47.5 126.5q6 205 334 394l43 -37q-138 -81 -192 -193.5t8.5 -164.5t84 -62t21.5 -12
q-2 -43 -40 -74t-100 -31z" />
    <glyph glyph-name="quotedblright" unicode="&#x201d;" horiz-adv-x="868" 
d="M306 1350q78 0 129.5 -53.5t48.5 -126.5q-9 -212 -337 -394l-41 37q92 57 186 169.5t14.5 175.5t-101 73t-21.5 12q2 45 40 76t82 31zM732 1350q78 0 129.5 -53.5t48.5 -126.5q-9 -212 -337 -394l-41 37q137 81 192.5 194t-8 163.5t-85 60.5t-21.5 12q2 45 40 76t82 31z
" />
    <glyph glyph-name="quotedblbase" unicode="&#x201e;" horiz-adv-x="868" 
d="M155 229q78 0 129.5 -53.5t48.5 -126.5q-8 -208 -337 -393l-41 37q200 124 207 264q3 72 -41.5 107.5t-66 46t-21.5 12.5q2 45 40 75.5t82 30.5zM581 229q78 0 129.5 -53.5t48.5 -126.5q-8 -208 -337 -393l-41 37q138 81 193 193.5t-8.5 163t-85 61t-21.5 12.5
q2 45 40 75.5t82 30.5z" />
    <glyph glyph-name="dagger" unicode="&#x2020;" horiz-adv-x="962" 
d="M543 805v-1124h-78v1124h-367l-8 80h375v395h78v-395h377l-9 -80h-368z" />
    <glyph glyph-name="daggerdbl" unicode="&#x2021;" horiz-adv-x="962" 
d="M563 43v-362h-80l2 362h-374l8 80h366v713h-366l-8 79h374v365h78v-365h377l-8 -79h-369v-713h369l8 -80h-377z" />
    <glyph glyph-name="bullet" unicode="&#x2022;" horiz-adv-x="931" 
d="M860 475.5q0 -43.5 -42.5 -148t-64.5 -125.5q-42 -40 -142.5 -81t-132.5 -41q-57 0 -156.5 40.5t-123.5 65.5t-44.5 63t-39 81t-30.5 83t-12 74.5t43 134.5t66 124q36 38 139.5 80t136.5 42q53 0 158 -42.5t130 -71.5q30 -26 72.5 -130.5t42.5 -148z" />
    <glyph glyph-name="ellipsis" unicode="&#x2026;" horiz-adv-x="1392" 
d="M186 -31q-56 0 -92.5 39t-34.5 88q0 49 35 86t91 37t92 -37t35 -86t-35.5 -88t-90.5 -39zM776 96q0 -49 -35 -88t-91 -39t-92 39t-36 88t36 86t92 37t91 -37t35 -86zM1113 -31q-56 0 -92 39t-34 88q0 49 36 86t92 37t91 -37t34 -86t-36 -88t-91 -39z" />
    <glyph glyph-name="perthousand" unicode="&#x2030;" horiz-adv-x="2306" 
d="M2113 489q-68 66 -174 66t-187 -89.5t-81 -198.5t67.5 -172.5t175.5 -63.5t187.5 88.5t79.5 195.5q0 108 -68 174zM2163 65q-110 -112 -257 -112t-236 80t-89 230t107.5 262t254.5 112q148 0 239 -82.5t91 -230.5q0 -147 -110 -259zM1332.5 490q-70.5 65 -175.5 65
t-185.5 -89.5t-80.5 -198.5t67.5 -172.5t174.5 -63.5t188.5 87.5t81.5 197.5q0 109 -70.5 174zM648.5 1175.5q-66.5 67.5 -176.5 67.5t-189.5 -89.5t-79.5 -197.5t68.5 -172.5t177.5 -64.5t187.5 83t78.5 195q0 111 -66.5 178.5zM1383 65q-110 -112 -257 -112t-236 80
t-89 230t106.5 262t254.5 112t239.5 -82.5t91.5 -230.5q0 -147 -110 -259zM209 -31h-117l1294 1340h117zM700.5 753.5q-108.5 -112.5 -256.5 -112.5t-239.5 85t-91.5 229t107.5 257t255.5 113t240.5 -82t92.5 -229q0 -148 -108.5 -260.5z" />
    <glyph glyph-name="guilsinglleft" unicode="&#x2039;" horiz-adv-x="620" 
d="M463 100l-400 314l3 82l491 321l14 -43l-366 -323l282 -312z" />
    <glyph glyph-name="guilsinglright" unicode="&#x203a;" horiz-adv-x="620" 
d="M61 94l-14 43l344 318l-260 317l25 39l399 -315l-12 -86z" />
    <glyph glyph-name="fraction" unicode="&#x2044;" horiz-adv-x="1243" 
d="M100 -31h-120l1185 1340h121z" />
    <glyph glyph-name="Euro" unicode="&#x20ac;" horiz-adv-x="1028" 
d="M313 535v-21h416l8 -80h-418q33 -249 143.5 -303.5t192.5 -54.5q138 0 285 137l29 -45q-66 -86 -163.5 -142.5t-205.5 -56.5q-195 0 -307.5 131t-134.5 334h-138l7 80h125v16q5 101 14 160h-123l6 80h133q61 228 221 373t367 145q132 0 217.5 -48t85.5 -128
q0 -43 -23.5 -74.5t-60.5 -31.5q-63 0 -93 48.5t-30 110.5q-50 43 -151 43q-147 0 -246.5 -117.5t-134.5 -320.5h420l6 -80h-438q-9 -88 -9 -155z" />
    <glyph glyph-name="trademark" unicode="&#x2122;" horiz-adv-x="1865" 
d="M791 1012h-60l-14 71q-25 91 -60.5 115.5t-146.5 24.5h-6v-615q0 -20 18 -22l105 -13l2 -55h-371l4 55l105 13q20 2 20 22v615h-10q-96 0 -127 -21.5t-45.5 -49.5t-28.5 -69l-18 -71h-56l17 268h672v-268zM1059 657.5q0 -28.5 2.5 -47t17.5 -26.5l82 -11l2 -55h-284l4 55
l80 11q25 0 28.5 51t5.5 100l15 453q0 21 -19 24l-86 13l-4 55h289l156 -586h18l199 586h288l-4 -55l-84 -13q-23 -2 -22 -24l12 -510q3 -83 31 -92l80 -13l4 -55h-336l4 55l78 13q14 4 17 21.5t3 70.5l-12 520h-20l-228 -655h-92l-186 659h-21l-16 -467q-2 -49 -2 -77.5z
" />
    <glyph glyph-name="minus" unicode="&#x2212;" horiz-adv-x="995" 
d="M84 426l6 111h817l6 -111h-829z" />
    <glyph glyph-name="apple" unicode="&#xf8ff;" horiz-adv-x="1552" 
d="M1087 782l103 285l-285 -102l-129 272l-129 -272l-285 102l105 -285l-274 -129l274 -129l-105 -282l285 104l127 -276l131 276l285 -104l-103 286l271 127zM1194 483l141 -387l-387 142l-174 -371l-172 369l-383 -140l139 383l-370 176l370 170l-139 387l383 -141
l176 371l170 -371l387 141l-141 -387l369 -168z" />
    <glyph glyph-name="ff" unicode="&#xfb00;" horiz-adv-x="1028" 
d="M821 1249q0 -102 -78 -102q-51 0 -79.5 37t-34.5 96l-150 -37q-29 -49 -48 -135t-40 -190h371q60 270 166 387q47 51 115.5 79.5t134.5 28.5t110.5 -38t44.5 -87t-25.5 -80.5t-71.5 -31.5t-76 37.5t-34 97.5l-137 -33q-42 -76 -96 -360h250l8 -93h-274l-109 -589
q-88 -471 -201 -590q-96 -96 -198 -97q-61 0 -104.5 34t-43.5 82t25.5 77t71.5 29t75 -38t35 -93l107 65q48 109 92 381l118 739h-370l-117 -645q-88 -471 -201 -590q-90 -94 -217 -94q-61 0 -103 34t-42 82t25.5 76.5t70.5 28.5t74 -38.5t35 -92.5l120 64q33 75 56.5 200
t34.5 181l137 788l-185 8l7 58l192 43q54 234 154 342q47 51 115.5 79.5t134.5 28.5t110.5 -37.5t44.5 -91.5z" />
    <glyph glyph-name="fi" unicode="&#xfb01;" horiz-adv-x="991" 
d="M-162 -504q-60 0 -101.5 34t-41.5 82t25.5 76.5t70.5 28.5t74 -38.5t35 -92.5l120 64q33 75 56.5 200t34.5 181l137 788l-185 8l7 58l192 43q45 257 168 377q49 49 128 82.5t165 33.5t136 -42t50 -91t-26.5 -80.5t-71.5 -31.5t-77 39.5t-42 99.5l-203 -37
q-58 -109 -98 -360h283q46 28 70 28q44 -1 95.5 -38t45.5 -56l-211 -764l47 -16l184 141l33 -37q-42 -69 -124.5 -138t-127.5 -69t-93 38.5t-44 55.5l201 756l-15 6h-360l-117 -645q-53 -317 -141 -500.5t-279 -183.5z" />
    <glyph glyph-name="fl" unicode="&#xfb02;" horiz-adv-x="1013" 
d="M819 1223q-39 -10 -68.5 16.5t-39.5 79.5l-215 -35q-64 -108 -105 -366h363zM711 1421q74 0 127 -28l157 34l-297 -1333l58 -18l176 137l31 -37q-42 -69 -124.5 -138t-140.5 -69q-30 0 -79.5 39.5t-45.5 54.5l162 762h-360l-117 -645q-76 -458 -201 -590
q-90 -94 -217 -94q-61 0 -103 34t-42 82t25.5 76.5t70.5 28.5t74 -38.5t35 -92.5l125 64q30 58 57 191.5t35 189.5l125 788l-179 8l7 58l192 43q45 257 168 377q49 49 128 82.5t153 33.5z" />
    <glyph glyph-name="ffi" unicode="&#xfb03;" horiz-adv-x="1492" 
d="M1179.5 1420.5q131.5 0.5 181.5 -41.5t50 -91t-26.5 -80.5t-71.5 -31.5t-77 39.5t-42 99.5l-203 -37q-67 -127 -98 -360h283q45 28 69 28q45 -1 97 -38t44 -56l-210 -764l47 -16l184 141l33 -37q-42 -69 -124.5 -138t-127.5 -69t-93 38.5t-44 55.5l200 756l-14 6h-360
l-109 -589q-88 -471 -201 -590q-96 -96 -198 -97q-61 0 -104.5 34t-43.5 82t25.5 77t71.5 29t75 -38t35 -93l107 65q48 109 92 381l118 739h-370l-117 -645q-76 -458 -201 -590q-90 -94 -217 -94q-61 0 -103 34t-42 82t25.5 76.5t70.5 28.5t74 -38.5t35 -92.5l120 64
q33 75 56.5 200t34.5 181l137 788l-185 8l7 58l192 43q43 247 162 364q107 111 256 111q82 0 130 -41t48 -88t-24.5 -78t-68.5 -31t-75 37t-41 96l-166 -36q-63 -144 -92 -344h371q44 264 160 378q126 124 257.5 124.5z" />
    <glyph glyph-name="ffl" unicode="&#xfb04;" horiz-adv-x="1515" 
d="M1321 1223q-39 -10 -68.5 15.5t-40.5 80.5l-215 -35q-72 -121 -104 -366h362zM1213 1421q74 0 126 -28l158 34l-297 -1333l57 -18l175 137l32 -37q-41 -68 -123 -137.5t-141 -69.5q-29 0 -79 38t-46 56l162 762h-360l-109 -589q-88 -471 -201 -590q-96 -96 -198 -97
q-61 0 -104.5 34t-43.5 82t25.5 77t71.5 29t75 -38t35 -93l107 65q48 109 92 381l118 739h-370l-117 -645q-76 -458 -201 -590q-90 -94 -217 -94q-61 0 -103 34t-42 82t25.5 76.5t70.5 28.5t74 -38.5t35 -92.5l120 64q33 75 56.5 200t34.5 181l137 788l-185 8l7 58l192 43
q43 247 162 364q107 111 256 111q82 0 130 -41t48 -88t-24.5 -78t-68.5 -31t-75 37t-41 96l-166 -36q-63 -144 -92 -344h371q44 264 160 378q58 58 137.5 91.5t153.5 33.5z" />
    </font>
</defs>
</svg>
