<?xml version="1.0" standalone="no"?>
<!DOCTYPE svg PUBLIC "-//W3C//DTD SVG 1.1//EN" "http://www.w3.org/Graphics/SVG/1.1/DTD/svg11.dtd" >
<svg xmlns="http://www.w3.org/2000/svg">
<metadata>
Created by FontPrep 20130207 at Tue Apr  8 21:58:54 2014
 By Callum Flack
Copyright (c) 2006 by Dino dos Santos _DSType. All rights reserved.
</metadata>
<defs>
<font id="eb692a27dbb268157554460249e8efc6" >
  <font-face 
    font-family="LeituraNews-Roman2"
    font-weight="400"
    font-stretch="normal"
    units-per-em="2048"
    panose-1="2 0 5 3 0 0 0 2 0 4"
    ascent="1638"
    descent="-410"
    x-height="1024"
    cap-height="1434"
    bbox="-313.348 -686 3250 2163"
    underline-thickness="102"
    underline-position="-102"
    unicode-range="U+000D-FB04"
  />
<missing-glyph horiz-adv-x="1208" 
d="M606 492l-411 -467h821zM190 999l416 -469l414 469h-830zM623 510l419 -473v952zM588 510l-422 483v-960zM143 1024h922v-1024h-922v1024z" />
    <glyph glyph-name="ff" unicode="ff" horiz-adv-x="1351" 
d="M1063 1112l2 -88h250v-82h-250v-733q0 -86 31 -118t137 -46v-45h-522v45q96 16 123 47t26 117v733h-450v-733q0 -86 30 -118t138 -46v-45h-523v45q96 16 123 47t27 117v733h-133v72l133 10q25 221 180 387q156 166 261 166t120 -72q10 -57 -33 -92q-31 -23 -65 -10
q-180 59 -228 -21q-35 -55 -32 -270l2 -88h450q25 221 180 387q156 166 262 166t119 -72q10 -57 -32 -92q-31 -23 -66 -10q-180 59 -227 -21q-35 -55 -33 -270z" />
    <glyph glyph-name="fi" unicode="fi" horiz-adv-x="1269" 
d="M408 1112l2 -88h321l334 20h20v-835q0 -86 31 -118t137 -46v-45h-542v45q106 14 138 46t32 118v584q0 81 -30 115t-120 34h-321v-733q0 -86 30 -118t138 -46v-45h-523v45q96 16 123 47t27 117v733h-133v72l133 10q25 221 180 387q156 166 261 166t120 -72q10 -57 -33 -92
q-31 -23 -65 -10q-180 59 -228 -21q-35 -55 -32 -270z" />
    <glyph glyph-name="fl" unicode="fl" horiz-adv-x="1269" 
d="M1085 1577v-1368q0 -86 31 -118t137 -46v-45h-542v45q106 14 138 46t32 118v1153q-162 64 -256 78q-93 14 -147 -29t-67 -133t-1 -254h249v-82h-249v-733q0 -86 30 -118t138 -46v-45h-523v45q96 16 123 47t27 117v733h-133v72l133 10q25 236 185 394t347 159
q125 0 242 -64l86 64h20z" />
    <glyph glyph-name="ffi" unicode="ffi" horiz-adv-x="1925" 
d="M408 1112l2 -88h450q25 221 180 387q156 166 262 166t119 -72q10 -57 -32 -92q-31 -23 -66 -10q-180 59 -227 -21q-35 -55 -33 -270l2 -88h321l334 20h21v-835q0 -86 31 -118t137 -46v-45h-543v45q106 14 138 46t32 118v584q0 81 -30 115t-120 34h-321v-733
q0 -86 31 -118t137 -46v-45h-522v45q96 16 123 47t26 117v733h-450v-733q0 -86 30 -118t138 -46v-45h-523v45q96 16 123 47t27 117v733h-133v72l133 10q25 221 180 387q156 166 261 166t120 -72q10 -57 -33 -92q-31 -23 -65 -10q-180 59 -228 -21q-35 -55 -32 -270z" />
    <glyph glyph-name="ffl" unicode="ffl" horiz-adv-x="1925" 
d="M408 1112l2 -88h450q24 236 184 394t349 159q125 0 241 -64l86 64h21v-1368q0 -86 31 -118t137 -46v-45h-543v45q106 14 138 46t32 118v1153q-162 64 -256 78q-184 28 -214 -162q-13 -90 -1 -254h250v-82h-250v-733q0 -86 31 -118t137 -46v-45h-522v45q96 16 123 47
t26 117v733h-450v-733q0 -86 30 -118t138 -46v-45h-523v45q96 16 123 47t27 117v733h-133v72l133 10q25 221 180 387q156 166 261 166t120 -72q10 -57 -33 -92q-31 -23 -65 -10q-180 59 -228 -21q-35 -55 -32 -270z" />
    <glyph glyph-name="T_h" unicode="Th" horiz-adv-x="2314" 
d="M1475 1532v-692h4q195 205 389 204q114 0 188 -74t74 -233v-528q0 -86 31 -118t137 -46v-45h-502v45q90 23 110 49q19 27 19 115v522q0 76 -38 123t-109 47q-141 0 -303 -129v-563q1 -86 31 -118t136 -46v-45h-542v45q106 14 138 46t32 118v1001q0 82 -30 114t-120 32
h-403v-1147q0 -86 31 -118t137 -46v-45h-543v45q106 14 138 46t32 118v1147h-143q-109 0 -175 -66t-81 -190h-58l11 334h1054l334 98h21z" />
    <glyph glyph-name="T_h.caron" unicode="&#x164;h" horiz-adv-x="2314" 
d="M614 1720l230 185h57l-256 -369h-61l-256 369h55zM1475 1532v-692h4q195 205 389 204q114 0 188 -74t74 -233v-528q0 -86 31 -118t137 -46v-45h-502v45q90 23 110 49q19 27 19 115v522q0 76 -38 123t-109 47q-141 0 -303 -129v-563q1 -86 31 -118t136 -46v-45h-542v45
q106 14 138 46t32 118v1001q0 82 -30 114t-120 32h-403v-1147q0 -86 31 -118t137 -46v-45h-543v45q106 14 138 46t32 118v1147h-143q-109 0 -175 -66t-81 -190h-58l11 334h1054l334 98h21z" />
    <glyph glyph-name="T_h.commaaccent" unicode="&#x162;h" horiz-adv-x="2314" 
d="M590 -94q94 0 132 -65t38 -146q0 -133 -83 -237t-181 -140l-27 47q123 57 164 166q33 84 -15 111q-12 6 -28 6q-53 0 -90 38t-37 91t38 91t89 38zM1475 1532v-692h4q195 205 389 204q114 0 188 -74t74 -233v-528q0 -86 31 -118t137 -46v-45h-502v45q90 23 110 49
q19 27 19 115v522q0 76 -38 123t-109 47q-141 0 -303 -129v-563q1 -86 31 -118t136 -46v-45h-542v45q106 14 138 46t32 118v1001q0 82 -30 114t-120 32h-403v-1147q0 -86 31 -118t137 -46v-45h-543v45q106 14 138 46t32 118v1147h-143q-109 0 -175 -66t-81 -190h-58l11 334
h1054l334 98h21z" />
    <glyph glyph-name="f_f_j" unicode="ffj" horiz-adv-x="1884" 
d="M1063 1112l2 -88h348l307 20h21v-952q0 -254 -124 -450t-245 -195q-100 0 -117 76q-12 57 22 83t75 13q40 -14 74 -17t57 5t37 23t21 44t9 60q3 49 -5 166q-9 117 -9 192v701q0 81 -30 115t-120 34h-321v-733q0 -86 31 -118t137 -46v-45h-522v45q96 16 123 47t26 117v733
h-450v-733q0 -86 30 -118t138 -46v-45h-523v45q96 16 123 47t27 117v733h-133v72l133 10q25 221 180 387q156 166 261 166t120 -72q10 -57 -33 -92q-31 -23 -65 -10q-180 59 -228 -21q-35 -55 -32 -270l2 -88h450q25 221 180 387q156 166 262 166t119 -72q10 -57 -32 -92
q-31 -23 -66 -10q-180 59 -227 -21q-35 -55 -33 -270z" />
    <glyph glyph-name="f_j" unicode="fj" 
d="M408 1112l2 -88h321l334 20h20v-952q1 -254 -123 -450t-245 -195q-100 0 -117 76q-12 57 22 83t74 13q84 -29 119 -16q35 12 49 27q37 40 31 179q-2 44 -8 126t-6 157v701q0 81 -30 115t-120 34h-321v-733q0 -86 30 -118t138 -46v-45h-523v45q96 16 123 47t27 117v733
h-133v72l133 10q25 221 180 387q156 166 261 166t120 -72q10 -57 -33 -92q-31 -23 -65 -10q-180 59 -228 -21q-35 -55 -32 -270z" />
    <glyph glyph-name=".notdef" horiz-adv-x="1208" 
d="M606 492l-411 -467h821zM190 999l416 -469l414 469h-830zM623 510l419 -473v952zM588 510l-422 483v-960zM143 1024h922v-1024h-922v1024z" />
    <glyph glyph-name=".notdef" horiz-adv-x="1208" 
d="M606 492l-411 -467h821zM190 999l416 -469l414 469h-830zM623 510l419 -473v952zM588 510l-422 483v-960zM143 1024h922v-1024h-922v1024z" />
    <glyph glyph-name=".null" horiz-adv-x="0" 
 />
    <glyph glyph-name="nonmarkingreturn" horiz-adv-x="681" 
 />
    <glyph glyph-name="CR" unicode="&#xd;" horiz-adv-x="471" 
 />
    <glyph glyph-name="space" unicode=" " horiz-adv-x="471" 
 />
    <glyph glyph-name="exclam" unicode="!" horiz-adv-x="655" 
d="M330 1577q70 0 96 -44t18 -106l-90 -1017h-51l-96 1017q-6 59 23 105q30 45 100 45zM197 109q0 53 39 91t92 38t91 -38t38 -91t-38 -91t-91 -38t-92 38t-39 91z" />
    <glyph glyph-name="quotedbl" unicode="&#x22;" horiz-adv-x="851" 
d="M344 1556l-41 -405h-63l-41 405h145zM651 1556l-41 -405h-63l-41 405h145z" />
    <glyph glyph-name="numbersign" unicode="#" horiz-adv-x="1146" 
d="M449 670v-246h245v246h-245zM76 424h291v246h-291v82h291v292h82v-292h245v292h82v-292h293v-82h-293v-246h293v-82h-293v-291h-82v291h-245v-291h-82v291h-291v82z" />
    <glyph glyph-name="dollar" unicode="$" horiz-adv-x="1095" 
d="M322 1147q0 -160 184 -258v473q-184 -25 -184 -215zM793 334q0 158 -205 268v-532q98 16 152 87t53 177zM506 1638h82v-186q195 -6 348 -90l20 -344h-55q-55 340 -313 352v-520q416 -160 416 -451q0 -179 -115 -291t-301 -124v-189h-82v185q-219 6 -393 102l-21 362h55
q35 -375 359 -383v582q-188 78 -294 178t-106 255t108 258t292 118v186z" />
    <glyph glyph-name="percent" unicode="%" horiz-adv-x="2007" 
d="M668 1137q0 276 -167 276q-167 1 -167 -277t168 -278q80 0 123 71t43 208zM507 1454q130 0 214 -92t81 -225t-90 -225t-217 -93q-130 1 -214 93t-80 225q2 133 89 225t217 92zM1671 297q0 276 -167 276q-167 1 -167 -277t168 -278q80 0 123 71t43 208zM1510 614
q130 0 214 -92t81 -225t-90 -225t-217 -92t-214 92t-80 225q2 133 89 225t217 92zM1405 1577l-696 -1700h-93l699 1700h90z" />
    <glyph glyph-name="ampersand" unicode="&#x26;" horiz-adv-x="1617" 
d="M575 -20q-196 0 -312 103t-116 279q0 140 75 228t233 182q-92 117 -131 196t-39 171q0 143 108 229q109 86 250 86t233 -77t93 -203q0 -201 -303 -347l378 -462q70 104 117 243q27 80 -7 115t-157 49v47h461v-47q-115 -14 -151 -51q-23 -20 -58 -113q-76 -180 -155 -301
l114 -139q78 -94 191 -123v-45h-305l-133 150q-190 -170 -386 -170zM829 1167q0 83 -42 145t-131 62t-131 -58t-42 -136q0 -119 144 -301q202 122 202 288zM352 420q0 -136 81 -234t213 -98t267 119l-417 514q-144 -108 -144 -301z" />
    <glyph glyph-name="quotesingle" unicode="'" horiz-adv-x="544" 
d="M344 1556l-41 -405h-63l-41 405h145z" />
    <glyph glyph-name="parenleft" unicode="(" horiz-adv-x="768" 
d="M410 604q0 -299 64 -604t202 -543h-51q-430 463 -430 1147t430 1147h51q-138 -238 -202 -543t-64 -604z" />
    <glyph glyph-name="parenright" unicode=")" horiz-adv-x="768" 
d="M358 604q0 299 -64 604q-65 305 -202 543h51q430 -463 430 -1147t-430 -1147h-51q137 238 202 543q64 305 64 604z" />
    <glyph glyph-name="asterisk" unicode="*" horiz-adv-x="905" 
d="M453 1413q51 0 51 -49q0 -12 -9 -68q-9 -57 -18 -118q77 97 91 121q43 78 87 32q44 -45 -15 -88q-11 -8 -47 -34t-87 -66q100 10 138 20q38 11 54 11t29 -16q14 -16 14 -36t-14 -34t-31 -15q-17 0 -72 9t-116 16q81 -64 122 -90q41 -25 41 -50q1 -24 -16 -38
q-41 -39 -85 16q-43 62 -93 125q11 -103 19 -136t8 -47t-14 -28t-36 -14q-21 0 -38 17t-13 42q16 84 25 172q-70 -87 -86 -115t-25 -37t-32 -9t-37 14q-39 39 17 84q11 8 45 32t81 62l-178 -25q-20 0 -35 14q-14 14 -14 36t17 39t43 11q76 -19 171 -28q-88 70 -114 87
q-25 17 -33 25q-35 35 4 75t73 -16t103 -138l-25 186q-1 20 13 34t37 15z" />
    <glyph glyph-name="plus" unicode="+" horiz-adv-x="1146" 
d="M612 922v-334h334v-82h-334v-332h-82v332h-331v82h331v334h82z" />
    <glyph glyph-name="comma" unicode="," horiz-adv-x="696" 
d="M326 252q94 0 132 -64t38 -145q0 -133 -83 -237t-182 -140l-26 47q123 57 164 166q33 84 -15 111q-12 6 -28 6q-53 0 -90 37t-37 90t38 91t89 38z" />
    <glyph glyph-name="hyphen" unicode="-" horiz-adv-x="1146" 
d="M199 588h747v-82h-747v82z" />
    <glyph glyph-name="period" unicode="." horiz-adv-x="655" 
d="M197 109q0 53 39 91t92 38t91 -38t38 -91t-38 -91t-91 -38t-92 38t-39 91z" />
    <glyph glyph-name="slash" unicode="/" horiz-adv-x="983" 
d="M782 1577l-491 -1700h-92l493 1700h90z" />
    <glyph glyph-name="zero" unicode="0" 
d="M614 1272q-154 0 -215 -160t-61 -447q0 -288 61 -448t218 -160t215 168q59 168 59 441q0 446 -141 561q-55 45 -136 45zM113 642q0 296 119 497q58 98 158 155q100 58 224 58t224 -58t158 -155q58 -98 89 -218t31 -255t-31 -255q-70 -271 -246 -374q-99 -57 -225 -57
q-166 0 -282 99t-168 251q-51 152 -51 312z" />
    <glyph glyph-name="one" unicode="1" horiz-adv-x="860" 
d="M532 1352v-1143q0 -88 43 -119t207 -45v-45h-706v45q164 14 208 45t44 119v860q0 80 -44 96t-208 17v47l436 123h20z" />
    <glyph glyph-name="two" unicode="2" horiz-adv-x="1044" 
d="M527 1272q-103 0 -142 -48t-31 -163q2 -33 -26 -55t-74 -23q-47 0 -81 30t-34 83q1 104 107 180t294 76t295 -110q108 -110 107 -257q0 -59 -9 -111t-47 -133t-103 -161t-187 -189t-289 -223h645v-168h-860v82q170 125 294 242q124 116 188 202t102 173q37 87 46 143
t9 121q0 135 -50 222q-51 87 -154 87z" />
    <glyph glyph-name="three" unicode="3" horiz-adv-x="1095" 
d="M492 57q132 0 202 84q70 83 70 225t-76 220t-213 76h-69v77h55q123 0 191 80q68 81 69 203q0 122 -58 186q-57 64 -151 64t-130 -47t-28 -164q2 -33 -26 -55t-74 -23q-47 0 -81 30t-34 83q-1 104 105 180t288 76t290 -84t108 -212t-78 -218t-213 -127v-4
q152 -17 248 -101t96 -235q0 -187 -140 -289t-337 -102t-302 78t-102 194q2 47 36 72q34 24 80 24t73 -22t24 -54q-9 -111 35 -163t142 -52z" />
    <glyph glyph-name="four" unicode="4" horiz-adv-x="1167" 
d="M1090 307h-195v-307h-205v307h-614v176l682 869h137v-901h195v-144zM690 451v690l-545 -690h545z" />
    <glyph glyph-name="five" unicode="5" horiz-adv-x="1095" 
d="M932 1331v-170h-608l-13 -338q152 18 273 -2q122 -20 194 -65t120 -110q85 -115 85 -247q0 -186 -136 -303t-366 -116q-167 0 -275 76t-108 180q0 52 34 82t83 30t76 -22t24 -54q-12 -201 181 -200q112 0 192 79t80 233t-96 249q-97 94 -324 98h-127l21 600h690z" />
    <glyph glyph-name="six" unicode="6" horiz-adv-x="1157" 
d="M1044 416q0 -186 -136 -312q-136 -125 -326 -124q-223 0 -346 154t-123 386q0 326 202 558q203 232 531 294l16 -67q-248 -72 -368 -223t-158 -361q138 121 316 121t285 -120t107 -306zM584 57q109 1 172 91t63 253q-1 163 -67 253t-189 89q-123 0 -225 -106
q-31 -236 38 -408t208 -172z" />
    <glyph glyph-name="seven" unicode="7" horiz-adv-x="1003" 
d="M317 1161q-109 1 -139 -29t-45 -145h-57l10 344h860v-61l-489 -1270h-246l618 1161h-512z" />
    <glyph glyph-name="eight" unicode="8" horiz-adv-x="1157" 
d="M1040 362q0 -178 -141 -280t-336 -102t-321 93t-127 267q0 102 81 189t220 141q-250 139 -250 334q0 158 130 252t298 96q168 0 285 -87t116 -239q1 -94 -69 -178t-193 -127q167 -76 237 -159t70 -200zM840 307q0 193 -357 330q-172 -109 -172 -283q0 -139 73 -218
t197 -79q123 1 191 69t68 181zM813 1036q0 113 -63 174q-62 62 -162 62t-162 -60t-64 -157q0 -98 76 -169t232 -134q143 81 143 284z" />
    <glyph glyph-name="nine" unicode="9" horiz-adv-x="1157" 
d="M113 916q0 186 136 311t326 125q223 0 347 -155t122 -386q0 -326 -202 -558t-531 -294l-16 66q248 73 367 223t159 360q-145 -121 -320 -121t-282 121q-106 122 -106 308zM338 931q0 -163 66 -254t187 -91q120 0 228 108q31 236 -39 407t-207 171q-111 0 -173 -89
t-62 -252z" />
    <glyph glyph-name="colon" unicode=":" horiz-adv-x="655" 
d="M197 799q0 53 39 91t92 38t91 -38t38 -91t-38 -92t-91 -39t-92 39t-39 92zM197 225q0 53 39 91t92 38t91 -38t38 -91t-38 -91t-91 -38t-92 38t-39 91z" />
    <glyph glyph-name="semicolon" unicode=";" horiz-adv-x="696" 
d="M326 252q94 0 132 -64t38 -145q0 -133 -83 -237t-182 -140l-26 47q123 57 164 166q33 84 -15 111q-12 6 -28 6q-53 0 -90 37t-37 90t38 91t89 38zM217 799q0 53 39 91t92 38t91 -38t38 -91t-38 -92t-91 -39t-92 39t-39 92z" />
    <glyph glyph-name="less" unicode="&#x3c;" horiz-adv-x="983" 
d="M309 551l473 -318v-94l-583 385v47l583 387v-96z" />
    <glyph glyph-name="equal" unicode="=" horiz-adv-x="1146" 
d="M199 444h747v-82h-747v82zM199 731h747v-82h-747v82z" />
    <glyph glyph-name="greater" unicode="&#x3e;" horiz-adv-x="983" 
d="M674 551l-475 311v96l583 -387v-47l-583 -385v94z" />
    <glyph glyph-name="question" unicode="?" horiz-adv-x="919" 
d="M256 109q0 53 39 91t92 38t91 -38t38 -91t-38 -91t-91 -38t-92 38t-39 91zM725 1092q0 -120 -42 -194q-43 -74 -145 -129q-102 -54 -130 -123t4 -236h-62q-233 383 60 510q16 8 66 26q67 24 122 63t55 112t-62 118t-182 85t-143 50q-84 42 -74 112t74 89q66 18 148 -39
q111 -80 211 -202t100 -242z" />
    <glyph glyph-name="at" unicode="@" horiz-adv-x="1810" 
d="M1544 530q0 313 -164 439q-164 125 -401 125q-269 0 -451 -218t-182 -516t144 -456q144 -156 420 -156t483 166l20 -37q-236 -197 -541 -197t-486 190q-181 189 -181 480q0 330 234 568t544 237q275 0 449 -157t174 -459q0 -246 -122 -401t-294 -154q-78 0 -118 43
t-44 108q-32 -67 -96 -111t-138 -44t-131 47q-58 47 -82 117q-59 173 -1 311q49 143 157 239q109 96 237 96t159 -124h6l121 102h22l-98 -528q-20 -64 -7 -122t80 -59q102 0 195 128q92 128 92 343zM979 731q-180 0 -252 -307q-39 -137 -12 -256t114 -119q111 0 175 141
q42 95 79 320q23 109 -14 165t-90 56z" />
    <glyph glyph-name="A" unicode="A" horiz-adv-x="1433" 
d="M649 1192l-207 -627h430l-219 627h-4zM1417 0h-553v45q106 14 134 60t-5 124l-92 258h-485l-76 -227q-37 -92 -9 -146t144 -69v-45h-461v45q106 16 146 39q39 23 59 84l438 1276h121l471 -1276q20 -53 51 -77t117 -46v-45z" />
    <glyph glyph-name="B" unicode="B" horiz-adv-x="1249" 
d="M553 780q188 0 268 73t80 212q0 291 -287 291h-163v-576h102zM451 702v-626h204q307 0 308 313q1 143 -91 228t-278 85h-143zM1178 379q0 -171 -123 -275t-348 -104h-631v45q106 14 138 46t32 118v1014q0 85 -32 117t-138 46v48h569q225 0 348 -96t123 -253
q0 -119 -80 -207t-207 -124v-4q181 -46 265 -144t84 -227z" />
    <glyph glyph-name="C" unicode="C" horiz-adv-x="1310" 
d="M778 57q170 1 278 99t142 237h55l-20 -291q-197 -123 -455 -122q-298 0 -492 208t-194 529t194 529t492 208q258 0 455 -123l20 -293h-55q-35 139 -142 238q-108 98 -278 98q-203 0 -332 -183t-129 -474t129 -475t332 -185z" />
    <glyph glyph-name="D" unicode="D" horiz-adv-x="1515" 
d="M696 0h-620v45q106 14 138 46t32 118v1014q0 85 -32 117t-138 46v48h620q334 0 531 -190t197 -518t-200 -527t-528 -199zM451 76h245q126 0 226 54t158 145q118 185 118 462t-129 448t-393 171h-225v-1280z" />
    <glyph glyph-name="E" unicode="E" 
d="M451 1356v-596h184q102 0 156 45q53 45 65 162h55v-492h-55q-12 117 -65 162t-156 45h-184v-606h378q109 0 181 66t86 190h55l-21 -332h-1054v45q106 14 138 46t32 118v1014q0 85 -32 117t-138 46v48h1034l10 -334h-55q-14 124 -81 190t-175 66h-358z" />
    <glyph glyph-name="F" unicode="F" horiz-adv-x="1177" 
d="M451 651v-442q1 -86 31 -118t136 -46v-45h-542v45q106 14 138 46t32 118v1014q0 85 -32 117t-138 46v48h1034l10 -334h-55q-14 124 -81 190t-175 66h-358v-627h184q102 0 156 45q53 45 65 162h55v-492h-55q-12 117 -65 162t-156 45h-184z" />
    <glyph glyph-name="G" unicode="G" horiz-adv-x="1454" 
d="M1075 430q0 86 -31 118t-139 46v45h512v-45q-89 -14 -113 -45t-24 -119v-287q-76 -57 -219 -110t-283 -53q-298 0 -492 208t-194 529t194 529t492 208q258 0 455 -123l20 -293h-55q-35 139 -142 238q-108 98 -278 98q-203 0 -332 -183t-129 -474t129 -475t332 -185
q172 0 297 115v258z" />
    <glyph glyph-name="H" unicode="H" horiz-adv-x="1597" 
d="M1352 1223v-1014q0 -86 30 -118t138 -46v-45h-543v45q106 14 138 46t32 118v483h-696v-483q1 -86 31 -118t136 -46v-45h-542v45q106 14 138 46t32 118v1014q0 85 -32 117t-138 46v48h542v-48q-106 -14 -137 -46t-30 -117v-453h696v453q0 85 -32 117t-138 46v48h543v-48
q-106 -14 -137 -46t-31 -117z" />
    <glyph glyph-name="I" unicode="I" horiz-adv-x="696" 
d="M451 1223v-1014q1 -86 31 -118t136 -46v-45h-542v45q106 14 138 46t32 118v1014q0 85 -32 117t-138 46v48h542v-48q-106 -14 -136 -46t-31 -117z" />
    <glyph glyph-name="J" unicode="J" horiz-adv-x="819" 
d="M573 1223v-670q1 -260 -117 -417t-302 -156q-106 0 -127 71q-17 57 25 89t97 6q160 -76 195 -30q28 36 26 98q-1 62 -1 116v893q0 85 -32 117t-138 46v48h542v-48q-106 -14 -137 -46t-31 -117z" />
    <glyph glyph-name="K" unicode="K" horiz-adv-x="1503" 
d="M848 1434h522v-48q-205 -29 -305 -157l-352 -445l448 -534q147 -172 291 -205v-45h-610v45q190 27 53 195l-297 358q-45 54 -71 68t-76 14v-471q1 -86 31 -118t136 -46v-45h-542v45q106 14 138 46t32 118v1014q0 85 -32 117t-138 46v48h542v-48q-106 -14 -137 -46
t-30 -117v-465q82 0 126 22t91 80l250 311q53 69 55 131q0 70 -125 84v48z" />
    <glyph glyph-name="L" unicode="L" horiz-adv-x="1187" 
d="M451 76h378q109 0 181 66t86 190h55l-21 -332h-1054v45q106 14 138 46t32 118v1014q0 85 -32 117t-138 46v48h542v-48q-106 -14 -137 -46t-30 -117v-1147z" />
    <glyph glyph-name="M" unicode="M" horiz-adv-x="1802" 
d="M1724 1434v-48q-106 -14 -137 -46t-31 -117v-1014q0 -86 31 -118t137 -46v-45h-542v45q106 14 138 46t32 118v989l-437 -1208h-102l-465 1253v-1034q0 -88 33 -119t151 -45v-45h-456v45q120 14 152 45t32 119v1014q0 89 -33 119t-151 44v48h436l420 -1147l409 1147h383z
" />
    <glyph glyph-name="N" unicode="N" horiz-adv-x="1495" 
d="M1167 1223q-1 89 -33 119t-151 44v48h455v-48q-115 -14 -149 -46t-34 -117v-1223h-125l-782 1243v-1034q0 -88 33 -119t151 -45v-45h-456v45q114 14 148 46t34 118v1014q0 85 -34 117t-148 46v48h420l671 -1082v871z" />
    <glyph glyph-name="O" unicode="O" horiz-adv-x="1597" 
d="M317 717q-1 -291 135 -475t346 -184t346 184t136 475t-135 474t-346 183t-347 -183t-135 -474zM92 717q0 317 207 527t500 210t499 -210t207 -527q0 -317 -207 -527q-208 -210 -500 -210t-499 210t-207 527z" />
    <glyph glyph-name="P" unicode="P" horiz-adv-x="1249" 
d="M604 608h-153v-399q1 -86 31 -118t136 -46v-45h-542v45q106 14 138 46t32 118v1014q0 85 -32 117t-138 46v48h631q225 0 348 -108t123 -278t-125 -297q-63 -65 -179 -104t-270 -39zM451 686h143q197 0 283 93t86 235t-67 242t-241 100h-204v-670z" />
    <glyph glyph-name="Q" unicode="Q" horiz-adv-x="1597" 
d="M317 717q-1 -291 135 -475t346 -184t346 184t136 475t-135 474t-346 183t-347 -183t-135 -474zM92 724q0 310 207 520t500 210t499 -210t207 -511q0 -301 -169 -502t-421 -239q255 -269 441 -348q98 -43 205 -58v-37q-145 -45 -221 -45t-134 20t-100 45q-43 24 -96 76
t-81 81q-58 60 -188 258q-273 20 -461 225t-188 515z" />
    <glyph glyph-name="R" unicode="R" horiz-adv-x="1372" 
d="M451 707h143q196 0 272 86t76 232q0 147 -71 239t-236 92h-184v-649zM1157 1051q0 -311 -342 -398l301 -422q102 -145 219 -186v-45h-297q-76 57 -164 195l-284 434h-139v-420q1 -86 31 -118t136 -46v-45h-542v45q106 14 138 46t32 118v1014q0 85 -32 117t-138 46v48h610
q225 0 348 -104t123 -279z" />
    <glyph glyph-name="S" unicode="S" horiz-adv-x="1095" 
d="M1004 399q0 -193 -132 -307t-351 -112q-220 0 -408 102l-21 362h55q37 -383 375 -383q127 0 199 74t72 199q0 162 -197 267q-47 26 -115 54q-178 76 -276 173q-99 97 -99 256q0 158 122 264t330 106t378 -92l20 -344h-55q-59 354 -332 354q-115 0 -181 -56t-66 -169
q0 -188 268 -297q414 -166 414 -451z" />
    <glyph glyph-name="T" unicode="T" 
d="M860 1356h-143v-1147q0 -86 31 -118t137 -46v-45h-543v45q106 14 138 46t32 118v1147h-143q-109 0 -175 -66t-81 -190h-58l11 334h1095l10 -334h-55q-14 124 -81 190t-175 66z" />
    <glyph glyph-name="U" unicode="U" horiz-adv-x="1556" 
d="M1225 573v650q0 85 -33 117t-154 46v48h461v-48q-117 -14 -151 -46t-33 -117v-670q-1 -272 -147 -423q-146 -150 -409 -150t-399 150q-135 151 -135 423v670q1 85 -31 117t-139 46v48h543v-48q-106 -14 -137 -46t-31 -117v-650q0 -502 383 -501q205 0 309 130t103 371z
" />
    <glyph glyph-name="V" unicode="V" horiz-adv-x="1433" 
d="M14 1434h549v-48q-106 -14 -134 -60t5 -124l344 -962h4l310 931q37 93 9 147t-145 68v48h461v-48q-104 -16 -144 -38t-61 -84l-438 -1274h-119l-471 1274q-20 52 -52 76t-118 46v48z" />
    <glyph glyph-name="W" unicode="W" horiz-adv-x="2068" 
d="M768 1434h547v-48q-106 -14 -132 -59t3 -125l274 -954h4l265 923q33 93 5 147t-143 68v48h461v-48q-110 -16 -148 -38t-57 -84l-379 -1274h-137l-274 874l-332 -874h-119l-426 1274q-16 52 -48 76t-118 46v48h549v-48q-106 -14 -136 -60t1 -124l309 -954h4l277 745
l-82 271q-16 52 -48 76t-120 46v48z" />
    <glyph glyph-name="X" unicode="X" horiz-adv-x="1474" 
d="M86 1434h594v-48q-94 -12 -102 -68t38 -126l187 -332l213 318q136 185 -101 208v48h471v-48q-98 -18 -145 -51t-102 -112l-295 -435l340 -579q28 -49 66 -81t66 -44t101 -39v-45h-614v45q77 10 105 47t18 81t-45 108l-185 327l-229 -327q-82 -115 -30 -185
q30 -39 110 -51v-45h-492v45q105 27 163 61t106 103l325 469l-317 545q-43 75 -95 109t-151 54v48z" />
    <glyph glyph-name="Y" unicode="Y" horiz-adv-x="1310" 
d="M10 1434h502v-48q-102 -14 -114 -63t36 -121l291 -563h4l266 553q78 168 -114 194v48h419v-48q-80 -16 -118 -40t-66 -82l-328 -693v-362q0 -86 31 -118t137 -46v-45h-542v45q106 14 138 46t32 118v272l-426 783q-25 46 -57 72t-91 50v48z" />
    <glyph glyph-name="Z" unicode="Z" 
d="M829 76q111 0 182 66t85 190h55l-21 -332h-1054v55l798 1301h-440q-110 0 -176 -66t-80 -190h-57l10 334h999v-62l-786 -1296h485z" />
    <glyph glyph-name="bracketleft" unicode="[" horiz-adv-x="778" 
d="M686 -532h-491v2283h491v-78h-317v-2128h317v-77z" />
    <glyph glyph-name="backslash" unicode="\" horiz-adv-x="983" 
d="M199 1577h90l493 -1700h-92z" />
    <glyph glyph-name="bracketright" unicode="]" horiz-adv-x="778" 
d="M92 -532v77h318v2128h-318v78h492v-2283h-492z" />
    <glyph glyph-name="asciicircum" unicode="^" horiz-adv-x="1044" 
d="M522 1284l-276 -280h-51l297 471h61l297 -471h-51z" />
    <glyph glyph-name="underscore" unicode="_" horiz-adv-x="1249" 
d="M199 -96h850v-82h-850v82z" />
    <glyph glyph-name="grave" unicode="`" horiz-adv-x="755" 
d="M555 1149l-25 -23l-290 213q-66 49 -33 105t80 52q47 -5 71 -42z" />
    <glyph glyph-name="a" unicode="a" horiz-adv-x="1024" 
d="M614 201l4 241l-231 -55q-131 -31 -113 -158q17 -117 125 -115q53 0 98 20q45 18 117 67zM444 952q-144 0 -174 -80q-29 -80 19 -126q49 -46 -20 -92t-126 -31q-23 6 -30 22q-31 66 16 159t164 167q117 73 254 73t211 -73q73 -74 71 -203l-10 -498q-4 -146 84 -144
q43 1 105 11v-35q-100 -70 -152 -96t-104 -26q-137 0 -138 163h-4q-96 -88 -162 -126q-66 -37 -154 -37q-89 0 -156 72t-66 173q0 180 266 228l283 49l4 205q3 121 -49 183t-132 62z" />
    <glyph glyph-name="b" unicode="b" horiz-adv-x="1187" 
d="M369 1577v-676h4q57 66 140 105t173 38q198 0 314 -150t116 -384t-157 -382t-365 -148q-168 0 -293 102l-86 -92h-51v1294q0 78 -29 109t-121 45v47l334 92h21zM593 915q-128 0 -224 -86v-491q1 -158 69 -222t156 -65q152 0 234 125t73 327q-8 202 -94 307t-214 105z" />
    <glyph glyph-name="c" unicode="c" horiz-adv-x="1024" 
d="M573 973q-141 0 -221 -109q-80 -110 -80 -306t98 -308t266 -113q167 0 316 84v-82q-117 -96 -206 -128t-183 -31q-225 0 -358 152t-133 386q0 232 153 379q154 147 359 147q166 0 266 -76t100 -180q0 -52 -34 -82t-83 -30t-75 22t-25 54q8 117 -26 169q-36 52 -134 52z
" />
    <glyph glyph-name="d" unicode="d" 
d="M819 1284q0 78 -28 109q-29 31 -121 45v47l334 92h20v-1296q0 -96 42 -126t146 -18v-55l-372 -102h-21v143h-4q-127 -143 -319 -143t-308 150t-116 384t156 382q157 148 366 148q135 0 225 -61v301zM592 106q127 0 227 87v493q-1 158 -69 222t-156 65q-152 0 -234 -125
t-74 -327q8 -203 94 -309q85 -106 212 -106z" />
    <glyph glyph-name="e" unicode="e" horiz-adv-x="1024" 
d="M563 -20q-225 0 -358 152t-133 386q0 232 153 379q154 147 359 147q170 0 277 -94q56 -49 79 -140t0 -212h-668q-8 -207 92 -334t275 -127q176 0 313 84v-82q-117 -95 -206 -127t-183 -32zM562 973q-108 0 -184 -79t-99 -214h458q37 145 -14 219q-53 74 -161 74z" />
    <glyph glyph-name="f" unicode="f" horiz-adv-x="696" 
d="M408 1112l2 -88h249v-82h-249v-733q0 -86 30 -118t138 -46v-45h-523v45q96 16 123 47t27 117v733h-133v72l133 10q25 221 180 387q156 166 261 166t120 -72q10 -57 -33 -92q-31 -23 -65 -10q-180 59 -228 -21q-35 -55 -32 -270z" />
    <glyph glyph-name="g" unicode="g" horiz-adv-x="1105" 
d="M836 901v-4q86 -102 86 -221q0 -174 -114 -276t-296 -103q-78 0 -139 20l-16 -16q-11 -12 -14 -16q-3 -5 -12 -15q-28 -33 -28 -67q0 -57 121 -70l321 -31q143 -14 227 -82t83 -180q1 -112 -103 -207q-104 -94 -248 -140t-294 -46q-379 0 -379 205q0 86 60 159t179 152
q-61 10 -104 50t-43 102q0 106 194 223q-102 43 -163 130t-62 202q0 166 119 270t301 104q106 0 256 -59l281 31v-115h-213zM496 973q-96 0 -150 -83t-45 -224q11 -142 71 -220t157 -78t144 84q46 83 38 220q-7 137 -63 219t-152 82zM225 -307q0 -82 69 -128q68 -46 192 -46
q124 -1 249 65t125 180q0 68 -57 99t-168 45l-318 41q-92 -125 -92 -256z" />
    <glyph glyph-name="h" unicode="h" horiz-adv-x="1269" 
d="M55 0v45q106 14 139 46q32 32 31 118v1075q0 78 -28 109q-29 31 -121 45v47l334 92h20v-737h4q197 205 367 204q285 0 284 -307v-528q0 -86 31 -118t137 -46v-45h-501v45q90 23 109 49t20 115v522q0 76 -38 123t-110 47q-141 0 -303 -129v-563q0 -86 31 -118t137 -46v-45
h-543z" />
    <glyph glyph-name="i" unicode="i" horiz-adv-x="614" 
d="M188 1375q0 57 41 99t99 42t98 -42q41 -42 41 -100t-41 -98q-41 -41 -98 -41t-99 41q-41 41 -41 99zM430 1044v-835q0 -86 31 -118t137 -46v-45h-543v45q106 14 139 46q32 32 31 118v543q-1 78 -29 108t-120 45v47l334 92h20z" />
    <glyph glyph-name="j" unicode="j" horiz-adv-x="571" 
d="M186 1375q0 57 41 99t99 42t98 -42q41 -42 41 -100t-41 -98q-41 -41 -98 -41t-99 41q-41 41 -41 99zM428 1044v-952q0 -254 -124 -450t-245 -195q-98 0 -114 76q-11 57 21 83t73 13q85 -29 119 -16q35 12 49 27q46 49 25 264q-9 123 -9 198v660q-1 78 -29 108t-120 45v47
l334 92h20z" />
    <glyph glyph-name="k" unicode="k" 
d="M430 496v-287q0 -86 31 -118t137 -46v-45h-543v45q106 14 139 46q32 32 31 118v1075q0 78 -28 109q-29 31 -121 45v47l334 92h20v-1004q82 1 124 15t81 57l133 154q129 150 -72 178v47h451v-47q-86 -16 -139 -41t-97 -76l-223 -262l309 -381q59 -74 109 -115t113 -57v-45
h-471v45q45 5 59 21q30 33 -59 141l-175 217q-39 44 -67 58t-76 14z" />
    <glyph glyph-name="l" unicode="l" horiz-adv-x="614" 
d="M430 1577v-1368q0 -86 31 -118t137 -46v-45h-543v45q106 14 139 46q32 32 31 118v1075q0 78 -28 109q-29 31 -121 45v47l334 92h20z" />
    <glyph glyph-name="m" unicode="m" horiz-adv-x="1884" 
d="M1065 209q0 -86 31 -118t137 -46v-45h-502v45q90 23 110 49q19 27 19 115v522q0 170 -141 170q-73 0 -139 -31t-150 -108v-553q0 -86 31 -118t137 -46v-45h-543v45q106 14 139 46q32 32 31 118v543q-1 78 -29 108t-120 45v47l344 92h16l-6 -215h4q176 215 369 215
q96 0 166 -54t88 -171h6q170 225 375 225q114 0 188 -74t74 -233v-528q0 -86 31 -118t137 -46v-45h-502v45q90 23 110 49q19 27 19 115v522q0 170 -141 170q-74 -1 -140 -31t-149 -108v-553z" />
    <glyph glyph-name="n" unicode="n" horiz-adv-x="1269" 
d="M55 0v45q106 14 139 46q32 32 31 118v543q-1 78 -29 108t-120 45v47l344 92h16l-6 -215h4q193 215 389 215q115 0 189 -74t73 -233v-528q0 -86 31 -118t137 -46v-45h-501v45q90 23 109 49t20 115v522q0 82 -39 126t-114 44t-137 -31t-161 -108v-553q0 -86 31 -118
t137 -46v-45h-543z" />
    <glyph glyph-name="o" unicode="o" horiz-adv-x="1150" 
d="M299 512q0 -227 72 -344q73 -117 205 -117t204 117t72 344t-72 344t-205 117t-205 -117t-71 -344zM927 134q-147 -154 -363 -154t-355 154t-135 377q4 224 148 379q144 154 360 154t358 -154q141 -154 137 -378q-4 -223 -150 -378z" />
    <glyph glyph-name="p" unicode="p" 
d="M410 -322q0 -86 30 -118t138 -45v-47h-523v47q94 14 122 46t28 117v1074q0 78 -29 108t-121 45v47l344 92h17l-6 -143h4q57 66 140 105t173 38q197 0 313 -150t117 -384q0 -234 -157 -382t-365 -148q-139 0 -225 61v-363zM634 915q-128 0 -224 -86v-491q0 -158 68 -222
t157 -65q151 0 233 125t74 327t-94 307t-214 105z" />
    <glyph glyph-name="q" unicode="q" horiz-adv-x="1167" 
d="M819 -322v445h-4q-127 -143 -319 -143t-308 150t-116 384t156 382q157 148 366 148q166 0 291 -102l88 92h51v-1356q0 -86 27 -118t120 -45v-47h-522v47q106 13 138 45t32 118zM592 106q127 0 227 87v493q-1 158 -69 222t-156 65q-152 0 -234 -125t-74 -327
q8 -203 94 -309q85 -106 212 -106z" />
    <glyph glyph-name="r" unicode="r" horiz-adv-x="890" 
d="M430 209q0 -86 31 -118t137 -46v-45h-543v45q106 14 139 46q32 32 31 118v543q-1 78 -29 108t-120 45v47l344 92h16l-6 -235h4q150 236 307 235q68 0 103 -51t1 -118t-97 -41q-168 68 -318 -93v-532z" />
    <glyph glyph-name="s" unicode="s" horiz-adv-x="880" 
d="M445 973q-83 0 -134 -40q-51 -39 -51 -97t16 -91q30 -62 195 -120q160 -61 244 -135t84 -206q0 -134 -110 -219q-111 -85 -275 -85t-308 71l-20 277h57q26 -218 192 -266q38 -11 79 -11q82 0 133 49t51 127t-56 123t-187 99t-202 123t-71 192t96 202q96 78 258 78
t295 -63l21 -264h-56q-24 121 -96 189t-155 67z" />
    <glyph glyph-name="t" unicode="t" horiz-adv-x="778" 
d="M389 942v-709q0 -77 40 -101q41 -24 103 -24t205 29v-35q-154 -123 -327 -122q-225 0 -226 245v717h-129v72l129 30l154 287h51v-307h291v-82h-291z" />
    <glyph glyph-name="u" unicode="u" 
d="M819 823q0 80 -31 110t-139 44v47h375v-743q0 -96 42 -126t146 -18v-55l-372 -102h-21v215h-4q-184 -215 -371 -215q-112 0 -186 74t-74 233v536q0 80 -27 110q-28 30 -122 44v47h354v-733q0 -76 37 -122t108 -46q71 1 130 29t155 108v563z" />
    <glyph glyph-name="v" unicode="v" horiz-adv-x="1167" 
d="M14 1024h508v-47q-104 -13 -126 -61t18 -123l239 -570h4l215 570q31 80 -2 125t-139 59v47h420v-47q-76 -16 -109 -40t-57 -83l-326 -823l-61 -41h-61l-379 864q-25 53 -52 77t-92 46v47z" />
    <glyph glyph-name="w" unicode="w" horiz-adv-x="1761" 
d="M670 1024h508v-47q-104 -15 -124 -61t13 -123l180 -570h4l215 570q31 80 -2 125t-139 59v47h420v-47q-76 -16 -109 -40t-57 -83l-326 -823l-67 -41h-64l-231 686l-275 -645l-69 -41h-62l-327 864q-20 53 -48 77t-96 46v47h508v-47q-104 -15 -124 -61t16 -123l198 -570h4
l230 551l-29 80q-18 51 -48 76t-99 47v47z" />
    <glyph glyph-name="x" unicode="x" horiz-adv-x="1146" 
d="M55 1024h488v-47q-41 -9 -61 -23q-49 -36 36 -155l98 -152l115 146q94 120 35 159q-25 16 -76 25v47h389v-47q-82 -14 -126 -39t-85 -78l-209 -276l269 -420q34 -51 70 -74t112 -45v-45h-506v45q61 10 80 37q18 26 7 58t-46 85l-121 189l-137 -189q-93 -123 -41 -156
q25 -15 76 -24v-45h-387v45q86 16 134 41t85 78l229 313l-245 383q-35 53 -72 78t-111 39v47z" />
    <glyph glyph-name="y" unicode="y" horiz-adv-x="1167" 
d="M14 1024h508v-47q-104 -13 -126 -61t18 -123l239 -570h4l215 570q31 80 -2 125t-139 59v47h420v-47q-76 -16 -109 -40t-57 -83l-346 -874q-107 -268 -253 -394t-273 -139q-96 -8 -119 68q-14 59 24 96q25 20 58 10q323 -95 473 354l-391 879q-25 53 -52 77t-92 46v47z
" />
    <glyph glyph-name="z" unicode="z" horiz-adv-x="983" 
d="M690 72q84 0 126 56t58 183h52l-21 -311h-850v86l604 866h-337q-82 0 -120 -56t-55 -185h-51l10 313h789v-88l-606 -864h401z" />
    <glyph glyph-name="braceleft" unicode="{" horiz-adv-x="880" 
d="M782 1751v-57q-143 -4 -217 -49t-80 -179q-1 -33 17 -302t11 -329t-35 -94q-28 -33 -38 -45t-34 -26t-31 -20q-10 -8 -72 -34t-65 -26v-2q4 -2 74 -30t90 -45t44 -39q56 -52 68 -148q6 -45 -12 -304q-18 -258 -16 -308t22 -90q32 -65 130 -82t144 -17v-57q-326 0 -408 75
q-81 75 -79 228q0 51 30 273t17 304q-12 111 -63 148t-183 53v74q133 25 184 61q50 37 62 132q12 96 -18 328t-29 281q1 195 117 261t370 65z" />
    <glyph glyph-name="bar" unicode="|" horiz-adv-x="481" 
d="M199 1679h82v-1884h-82v1884z" />
    <glyph glyph-name="braceright" unicode="}" horiz-adv-x="880" 
d="M96 1753q324 0 406 -75t82 -228q0 -51 -30 -273t-17 -305q12 -110 63 -148t182 -54v-74q-135 -28 -184 -62t-61 -130q-13 -96 17 -327q30 -232 30 -282q0 -195 -117 -260t-371 -65v57q143 4 217 49t80 178q2 33 -16 302q-18 270 -14 306t17 74t32 58q18 20 27 31t33 25
t36 24q12 9 69 31q58 23 64 26v2q-4 2 -40 16q-36 15 -45 19t-42 20t-45 26l-36 32q-55 50 -68 149q-6 45 12 304t15 309q-7 112 -83 148q-41 18 -101 28t-92 10l-20 2v57z" />
    <glyph glyph-name="asciitilde" unicode="~" horiz-adv-x="1126" 
d="M746 829q48 -1 80 15t65 61l41 -24q-51 -95 -80 -136q-56 -79 -125 -79q-47 0 -169 41t-171 41t-79 -22t-72 -77l-41 27q115 236 215 235q40 0 164 -41t172 -41z" />
    <glyph glyph-name="exclamdown" unicode="&#xa1;" horiz-adv-x="655" 
d="M330 -471q-70 0 -100 45t-23 104l96 1018h51l90 -1018q6 -61 -20 -105q-24 -44 -94 -44zM197 995q0 53 39 92t92 39t91 -39t38 -92t-38 -91t-91 -38t-92 38t-39 91z" />
    <glyph glyph-name="cent" unicode="&#xa2;" horiz-adv-x="1105" 
d="M313 568q0 -168 69 -276t185 -138v815q-119 -20 -187 -126t-67 -275zM874 676q-103 0 -101 83q2 74 -17 139t-107 71v-832q193 -2 344 84v-82q-168 -141 -344 -155v-189h-82v187q-211 14 -333 162t-122 368t133 364q132 144 322 164v189h82v-187q156 -6 249 -80t93 -174
q0 -52 -34 -82t-83 -30z" />
    <glyph glyph-name="sterling" unicode="&#xa3;" horiz-adv-x="1304" 
d="M158 709h164q-4 29 -15 89l-16 96q-14 86 -10 181q10 162 137 271q127 108 309 108q183 0 281 -80t98 -184q0 -51 -37 -82t-85 -31t-75 22t-22 54q10 119 -23 169q-34 50 -140 50t-170 -63t-69 -162q-3 -99 7 -251t12 -187h299v-78h-299q-4 -324 -217 -527q0 -2 1 -2
t1 -2q172 82 292 75t201 -37q80 -30 107 -36q88 -22 146 12t95 173h56q-47 -180 -117 -262q-113 -133 -305 -101q-23 4 -118 41t-184 57q-172 40 -325 -22l-24 61q160 111 201 248q42 137 20 322h-176v78z" />
    <glyph glyph-name="currency" unicode="&#xa4;" horiz-adv-x="1050" 
d="M229 510q0 -121 88 -209t209 -88t210 88t89 209t-89 210t-210 89t-209 -89t-88 -210zM205 510q0 139 98 233l-160 185l17 16l162 -184q90 74 204 74t203 -74l160 184l18 -16l-159 -183q102 -96 102 -235t-100 -234l155 -176l-18 -18l-158 178q-88 -72 -204 -72t-203 72
l-156 -178l-19 18l156 176q-98 95 -98 234z" />
    <glyph glyph-name="yen" unicode="&#xa5;" horiz-adv-x="1515" 
d="M1182 567v-82h-291v-276q0 -86 31 -118t137 -46v-45h-543v45q106 14 138 46t32 118v276h-293v82h262l-395 697q-26 48 -58 74t-89 48v48h501v-48q-108 -16 -114 -64q-7 -42 37 -120l307 -563h4l250 553q76 168 -115 194v48h420v-48q-80 -16 -119 -40t-65 -82l-312 -697
h275z" />
    <glyph glyph-name="brokenbar" unicode="&#xa6;" horiz-adv-x="481" 
d="M281 532v-737h-82v737h82zM281 1679v-737h-82v737h82z" />
    <glyph glyph-name="section" unicode="&#xa7;" horiz-adv-x="1157" 
d="M389 826q-1 -54 17 -89t64 -64t147 -66q100 -38 137 -58q24 43 24 93t-18 86q-26 53 -136 105q-24 10 -99 40t-105 47q-31 -40 -31 -94zM564 41q102 0 158 54t56 146t-84 142q-62 38 -183 87q-120 48 -193 114q-72 66 -72 188t98 199q-98 78 -98 204q0 127 95 203t254 76
t258 -76t99 -180q0 -49 -32 -76q-32 -26 -74 -26q-41 0 -67 17t-23 48q8 121 -27 176t-136 55t-153 -42q-52 -44 -51 -106q-1 -62 17 -97t61 -62t70 -37t88 -34q145 -53 231 -124t86 -197t-92 -208q92 -81 92 -209t-113 -212t-269 -84t-256 76q-99 76 -99 180q0 50 33 76
q34 26 74 26t66 -17t23 -49q-7 -121 27 -176t136 -55z" />
    <glyph glyph-name="dieresis" unicode="&#xa8;" horiz-adv-x="1024" 
d="M596 1261q0 49 33 81t82 32t82 -33t33 -81t-34 -81q-32 -32 -81 -32t-82 32t-33 82zM199 1261q-1 49 31 81t81 32t82 -32t33 -82t-33 -81q-33 -32 -82 -32t-81 32q-31 32 -31 82z" />
    <glyph glyph-name="copyright" unicode="&#xa9;" horiz-adv-x="1884" 
d="M968 358q-134 0 -234 82q-99 82 -99 258t99 258q98 82 234 82t244 -73l13 -172h-31q-55 197 -219 196q-207 0 -207 -291q0 -160 58 -226t162 -66q103 0 142 55q40 55 64 141h31l-13 -170q-110 -74 -244 -74zM279 717q1 -274 195 -469t468 -195t469 195t195 469t-195 469
q-195 194 -469 194t-469 -194q-194 -195 -194 -469zM205 717q0 305 216 521t521 216t521 -216t216 -521t-216 -521t-521 -216t-521 216t-216 521z" />
    <glyph glyph-name="ordfeminine" unicode="&#xaa;" horiz-adv-x="788" 
d="M296 895q60 0 134 53l2 144l-139 -35q-78 -20 -67 -91q10 -71 70 -71zM512 813q-82 0 -82 98h-2q-57 -53 -97 -75t-92 -23q-52 0 -89 42t-37 106q0 109 151 137l170 30l2 121q2 143 -117 144q-49 0 -77 -24q-46 -39 -9 -95q33 -33 -24 -66t-76 4q-33 62 50 152t210 90
q78 0 123 -44t45 -124l-8 -299q-2 -68 28 -81t85 1v-20q-98 -74 -154 -74z" />
    <glyph glyph-name="guillemotleft" unicode="&#xab;" horiz-adv-x="1495" 
d="M954 551l340 -318v-94l-583 385v47l583 387v-96zM442 551l340 -318v-94l-583 385v47l583 387v-96z" />
    <glyph glyph-name="logicalnot" unicode="&#xac;" horiz-adv-x="1222" 
d="M1022 588v-414h-82v332h-741v82h823z" />
    <glyph glyph-name="uni00AD" unicode="&#xad;" horiz-adv-x="1146" 
d="M199 588h747v-82h-747v82z" />
    <glyph glyph-name="registered" unicode="&#xae;" horiz-adv-x="1884" 
d="M279 717q1 -274 195 -469t468 -195t469 195t195 469t-195 469q-195 194 -469 194t-469 -194q-194 -195 -194 -469zM205 717q0 305 216 521t521 216t521 -216t216 -521t-216 -521t-521 -216t-521 216t-216 521zM846 692h96q74 0 117 41t43 109t-49 104t-133 35h-74v-289z
M1229 840q0 -60 -49 -110t-142 -68l136 -168q45 -57 126 -99v-22h-174q-45 27 -86 84l-137 194h-57v-157q0 -52 18 -70t80 -29v-22h-319v22q63 11 81 29t19 70v407q0 51 -18 69t-82 29v25h323q141 0 211 -43t70 -141z" />
    <glyph glyph-name="macron" unicode="&#xaf;" horiz-adv-x="1044" 
d="M199 1305h645v-82h-645v82z" />
    <glyph glyph-name="degree" unicode="&#xb0;" horiz-adv-x="768" 
d="M266 1378q0 -49 34 -83q34 -33 83 -33t83 34t34 82q0 49 -34 83t-83 34t-83 -34t-34 -83zM199 1378q0 78 53 131t130 53t131 -54t54 -131t-53 -130t-131 -53t-131 53t-53 131z" />
    <glyph glyph-name="plusminus" unicode="&#xb1;" horiz-adv-x="1146" 
d="M199 240h331v266h-331v82h331v334h82v-334h334v-82h-334v-266h334v-82h-747v82z" />
    <glyph glyph-name="twosuperior" unicode="&#xb2;" horiz-adv-x="819" 
d="M410 1802q-55 0 -76 -26q-20 -27 -17 -95q2 -20 -15 -36q-17 -17 -51 -17t-53 20t-20 54q0 63 64 108t178 45q116 1 182 -65t66 -142t-18 -129t-106 -151q-87 -98 -245 -207h375v-117h-529v50q245 179 318 319q57 111 57 209q1 180 -110 180z" />
    <glyph glyph-name="threesuperior" unicode="&#xb3;" horiz-adv-x="819" 
d="M377 1075q143 0 143 191q0 78 -43 122t-117 44h-38v49h18q76 0 119 46q43 47 43 121t-34 110t-83 36q-102 0 -82 -121q4 -21 -13 -37t-50 -16q-66 0 -72 53q-8 76 56 125t176 49t179 -50t67 -128t-49 -132q-48 -54 -132 -75v-2q92 -12 152 -61q61 -49 61 -151t-85 -164
q-85 -60 -210 -60t-186 47t-54 127q6 53 76 53q31 0 47 -15t17 -36q-1 -68 21 -96t73 -29z" />
    <glyph glyph-name="acute" unicode="&#xb4;" horiz-adv-x="755" 
d="M199 1149l196 305q25 37 72 42t80 -51t-33 -106l-289 -213z" />
    <glyph glyph-name="mu" unicode="&#xb5;" 
d="M184 823q0 80 -27 110q-28 30 -122 44v47h354v-707q0 -195 146 -194q70 1 129 29t155 108v563q0 80 -31 110t-139 44v47h375v-770q0 -84 42 -103t146 -14v-55l-372 -102h-21v215h-4q-63 -72 -104 -111t-103 -72q-62 -32 -116 -32t-111 14q-25 -223 -139 -385t-218 -162
q-102 0 -118 76q-12 57 22 83t80 11q47 -16 87 -17q101 -3 104 145l-15 347v731z" />
    <glyph glyph-name="paragraph" unicode="&#xb6;" horiz-adv-x="1372" 
d="M881 1434h286v-41q-119 -14 -151 -45t-33 -119v-1024q0 -88 33 -119t151 -45v-41h-286v1434zM676 614q-229 0 -350 129t-121 299t110 281q111 111 279 111h184v-1434h-286v41q120 14 152 45t32 119v409z" />
    <glyph glyph-name="periodcentered" unicode="&#xb7;" horiz-adv-x="729" 
d="M195 508q0 70 50 119t120 49q71 0 119 -49t48 -119t-49 -120t-119 -50t-119 50q-50 50 -50 120z" />
    <glyph glyph-name="cedilla" unicode="&#xb8;" horiz-adv-x="761" 
d="M348 0v-82q0 -37 106 -56q40 -7 72 -41t33 -95q-2 -90 -108 -155t-232 -83l-20 61l43 13q121 35 148 85q13 23 13 55t-20 54t-44 33q-24 10 -42 37t-16 72l6 102h61z" />
    <glyph glyph-name="onesuperior" unicode="&#xb9;" horiz-adv-x="819" 
d="M483 1855v-681q0 -50 26 -70t116 -29v-31h-430v31q89 7 115 27t26 72v503q0 49 -26 61t-115 13v31l276 73h12z" />
    <glyph glyph-name="ordmasculine" unicode="&#xba;" horiz-adv-x="833" 
d="M414 1411q-166 -1 -166 -277t166 -276q78 0 121 70t43 204t-43 207q-43 72 -121 72zM417 1454q130 0 214 -93t80 -229t-90 -227q-86 -92 -215 -92t-212 92t-79 227q4 134 88 228t214 94z" />
    <glyph glyph-name="guillemotright" unicode="&#xbb;" horiz-adv-x="1495" 
d="M1053 551l-342 311v96l583 -387v-47l-583 -385v94zM541 551l-342 311v96l583 -387v-47l-583 -385v94z" />
    <glyph glyph-name="onequarter" unicode="&#xbc;" horiz-adv-x="1843" 
d="M1741 172h-109v-172h-147v172h-359v119l410 520h96v-541h109v-98zM1485 270v394l-311 -394h311zM1233 1454l-492 -1474h-82l494 1474h80zM391 1446v-682q0 -50 26 -70t115 -28v-31h-430v31q90 8 116 27t26 71v504q0 49 -26 61t-116 12v31l277 74h12z" />
    <glyph glyph-name="onehalf" unicode="&#xbd;" horiz-adv-x="1843" 
d="M1477 758q-99 0 -93 -98q4 -76 -63 -76q-37 0 -56 20t-20 53q-1 63 63 109t179 45q115 0 181 -66t67 -141q-1 -76 -19 -130t-105 -151t-245 -206h375v-117h-529v49q246 180 318 320q57 111 57 209q1 180 -110 180zM1202 1454l-491 -1474h-82l493 1474h80zM391 1446v-682
q0 -50 26 -70t115 -28v-31h-430v31q90 8 116 27t26 71v504q0 49 -26 61t-116 12v31l277 74h12z" />
    <glyph glyph-name="threequarters" unicode="&#xbe;" horiz-adv-x="1843" 
d="M1741 172h-109v-172h-147v172h-359v119l410 520h96v-541h109v-98zM1485 270v394l-311 -394h311zM338 666q143 0 143 190q0 78 -43 122t-116 44h-39v49h18q76 0 119 46q43 47 43 121t-34 110t-83 36q-102 -1 -82 -120q4 -20 -13 -36t-50 -18q-66 0 -72 54q-8 76 56 125
q65 49 177 49t178 -50t66 -128t-48 -133q-48 -54 -132 -74v-2q92 -11 152 -61t61 -152q0 -102 -85 -163t-210 -61t-186 48t-54 126q6 53 76 54q31 0 47 -16t17 -35q0 -68 21 -97q22 -28 73 -28zM1243 1454l-491 -1474h-82l493 1474h80z" />
    <glyph glyph-name="questiondown" unicode="&#xbf;" horiz-adv-x="919" 
d="M662 995q0 -53 -38 -91t-92 -38t-92 38q-39 38 -39 91t39 92t92 39q54 0 92 -39t38 -92zM266 -20q0 -68 62 -113t183 -85q120 -40 140 -50q84 -42 76 -112t-72 -89q-68 -19 -164 49t-196 190t-100 242t42 195q42 74 156 135q45 25 69 45q24 19 44 61t16 98t-16 150h61
q236 -385 -59 -512q-18 -8 -66 -26q-135 -50 -163 -112q-13 -27 -13 -66z" />
    <glyph glyph-name="Agrave" unicode="&#xc0;" horiz-adv-x="1433" 
d="M649 1192l-207 -627h430l-219 627h-4zM1417 0h-553v45q106 14 134 60t-5 124l-92 258h-485l-76 -227q-37 -92 -9 -146t144 -69v-45h-461v45q106 16 146 39q39 23 59 84l438 1276h121l471 -1276q20 -53 51 -77t117 -46v-45zM700 1536l-290 213q-66 49 -33 105t80 52
q47 -5 71 -42l197 -305z" />
    <glyph glyph-name="Aacute" unicode="&#xc1;" horiz-adv-x="1433" 
d="M649 1192l-207 -627h430l-219 627h-4zM1417 0h-553v45q106 14 134 60t-5 124l-92 258h-485l-76 -227q-37 -92 -9 -146t144 -69v-45h-461v45q106 16 146 39q39 23 59 84l438 1276h121l471 -1276q20 -53 51 -77t117 -46v-45zM692 1559l197 305q25 37 71 42t80 -51
q33 -56 -32 -106l-289 -213z" />
    <glyph glyph-name="Acircumflex" unicode="&#xc2;" horiz-adv-x="1433" 
d="M649 1192l-207 -627h430l-219 627h-4zM1417 0h-553v45q106 14 134 60t-5 124l-92 258h-485l-76 -227q-37 -92 -9 -146t144 -69v-45h-461v45q106 16 146 39q39 23 59 84l438 1276h121l471 -1276q20 -53 51 -77t117 -46v-45zM719 1720l-232 -184h-55l256 369h62l256 -369
h-58z" />
    <glyph glyph-name="Atilde" unicode="&#xc3;" horiz-adv-x="1433" 
d="M649 1192l-207 -627h430l-219 627h-4zM1417 0h-553v45q106 14 134 60t-5 124l-92 258h-485l-76 -227q-37 -92 -9 -146t144 -69v-45h-461v45q106 16 146 39q39 23 59 84l438 1276h121l471 -1276q20 -53 51 -77t117 -46v-45zM563 1833q41 0 165 -41t172 -41t80 15t64 61
l41 -25q-106 -215 -204 -215q-49 0 -170 41t-170 41q-49 1 -80 -21t-72 -77l-41 26q115 236 215 236z" />
    <glyph glyph-name="Adieresis" unicode="&#xc4;" horiz-adv-x="1433" 
d="M649 1192l-207 -627h430l-219 627h-4zM1417 0h-553v45q106 14 134 60t-5 124l-92 258h-485l-76 -227q-37 -92 -9 -146t144 -69v-45h-461v45q106 16 146 39q39 23 59 84l438 1276h121l471 -1276q20 -53 51 -77t117 -46v-45zM799 1670q0 50 32 82q33 32 82 32t82 -33
t33 -82t-33 -81t-82 -32t-82 32q-32 32 -32 82zM401 1670q0 50 33 82t81 32t81 -32t33 -82t-33 -82t-82 -32t-81 32t-32 82z" />
    <glyph glyph-name="Aring" unicode="&#xc5;" horiz-adv-x="1433" 
d="M598 1602q0 -49 34 -83t83 -34t83 34t33 83q1 48 -33 82t-83 34t-83 -34t-34 -82zM653 1192h-4l-207 -625h430zM530 1610q0 70 54 123t130 53q77 0 131 -53t54 -121t-33 -116q-33 -46 -84 -66l467 -1262q20 -53 51 -77t117 -46v-45h-553v45q106 14 134 60t-5 124l-90 256
h-489l-74 -225q-37 -92 -9 -146t144 -69v-45h-461v45q106 16 146 39q39 23 59 84l432 1262q-53 16 -87 64q-34 46 -34 116z" />
    <glyph glyph-name="AE" unicode="&#xc6;" horiz-adv-x="1802" 
d="M901 760v442h-4l-242 -442h246zM1382 1356h-276v-596h102q102 0 156 45q53 45 66 162h55v-492h-55q-12 117 -66 162t-156 45h-102v-606h297q109 0 181 66t85 190h55l-20 -332h-973v45q106 14 138 46t32 118v473h-287l-225 -422q-55 -92 -41 -146t127 -69v-45h-461v45
q109 16 154 39t80 84l696 1266h739l11 -334h-56q-14 124 -80 190t-176 66z" />
    <glyph glyph-name="Ccedilla" unicode="&#xc7;" horiz-adv-x="1310" 
d="M778 57q170 1 278 99t142 237h55l-20 -291q-193 -121 -453 -122v-62q0 -37 106 -56q40 -7 72 -41t33 -95q-2 -90 -108 -155t-232 -83l-20 61l41 13q49 14 93 37q44 24 57 48q14 25 14 57t-20 54t-45 31q-24 10 -42 37t-16 72l4 86q-274 18 -450 223q-175 205 -175 519
t194 520q194 208 492 208q258 0 455 -123l20 -293h-55q-35 139 -142 238q-108 98 -278 98q-203 0 -332 -183t-129 -474t129 -475t332 -185z" />
    <glyph glyph-name="Egrave" unicode="&#xc8;" 
d="M451 1356v-596h184q102 0 156 45q53 45 65 162h55v-492h-55q-12 117 -65 162t-156 45h-184v-606h378q109 0 181 66t86 190h55l-21 -332h-1054v45q106 14 138 46t32 118v1014q0 85 -32 117t-138 46v48h1034l10 -334h-55q-14 124 -81 190t-175 66h-358zM668 1536l-291 213
q-66 49 -33 105t80 52q47 -5 72 -42l196 -305z" />
    <glyph glyph-name="Eacute" unicode="&#xc9;" 
d="M451 1356v-596h184q102 0 156 45q53 45 65 162h55v-492h-55q-12 117 -65 162t-156 45h-184v-606h378q109 0 181 66t86 190h55l-21 -332h-1054v45q106 14 138 46t32 118v1014q0 85 -32 117t-138 46v48h1034l10 -334h-55q-14 124 -81 190t-175 66h-358zM606 1559l197 305
q25 37 71 42t80 -51q33 -56 -32 -106l-289 -213z" />
    <glyph glyph-name="Ecircumflex" unicode="&#xca;" 
d="M451 1356v-596h184q102 0 156 45q53 45 65 162h55v-492h-55q-12 117 -65 162t-156 45h-184v-606h378q109 0 181 66t86 190h55l-21 -332h-1054v45q106 14 138 46t32 118v1014q0 85 -32 117t-138 46v48h1034l10 -334h-55q-14 124 -81 190t-175 66h-358zM664 1720l-232 -184
h-55l256 369h61l256 -369h-57z" />
    <glyph glyph-name="Edieresis" unicode="&#xcb;" 
d="M451 1356v-596h184q102 0 156 45q53 45 65 162h55v-492h-55q-12 117 -65 162t-156 45h-184v-606h378q109 0 181 66t86 190h55l-21 -332h-1054v45q106 14 138 46t32 118v1014q0 85 -32 117t-138 46v48h1034l10 -334h-55q-14 124 -81 190t-175 66h-358zM764 1670
q0 50 33 82t82 32t82 -33t33 -82t-34 -81q-32 -32 -81 -32t-82 32t-33 82zM367 1670q0 50 31 82q32 32 81 32t82 -32t33 -82t-33 -82t-82 -32t-81 32q-31 32 -31 82z" />
    <glyph glyph-name="Igrave" unicode="&#xcc;" horiz-adv-x="696" 
d="M451 1223v-1014q1 -86 31 -118t136 -46v-45h-542v45q106 14 138 46t32 118v1014q0 85 -32 117t-138 46v48h542v-48q-106 -14 -136 -46t-31 -117zM344 1536l-291 213q-67 49 -33 105t81 51q47 -6 71 -41l197 -305z" />
    <glyph glyph-name="Iacute" unicode="&#xcd;" horiz-adv-x="696" 
d="M451 1223v-1014q1 -86 31 -118t136 -46v-45h-542v45q106 14 138 46t32 118v1014q0 85 -32 117t-138 46v48h542v-48q-106 -14 -136 -46t-31 -117zM328 1559l196 305q25 37 72 42t80 -51t-33 -106l-289 -213z" />
    <glyph glyph-name="Icircumflex" unicode="&#xce;" horiz-adv-x="696" 
d="M451 1223v-1014q1 -86 31 -118t136 -46v-45h-542v45q106 14 138 46t32 118v1014q0 85 -32 117t-138 46v48h542v-48q-106 -14 -136 -46t-31 -117zM348 1720l-231 -184h-56l256 369h62l256 -369h-57z" />
    <glyph glyph-name="Idieresis" unicode="&#xcf;" horiz-adv-x="696" 
d="M455 1223v-1014q1 -86 31 -118t137 -46v-45h-543v45q106 14 138 46t32 118v1014q0 85 -32 117t-138 46v48h543v-48q-106 -14 -137 -46t-31 -117zM432 1670q0 50 33 82t82 32t82 -33t33 -82t-33 -81t-82 -32t-82 32t-33 82zM147 1556q-49 0 -81 32t-31 82q0 50 32 82
q33 32 81 32t81 -32t33 -82t-33 -82t-82 -32z" />
    <glyph glyph-name="Eth" unicode="&#xd0;" horiz-adv-x="1515" 
d="M451 76h245q126 0 226 54t158 145q118 185 118 462t-129 448t-393 171h-225v-596h229v-78h-229v-606zM76 760h170v463q0 85 -32 117t-138 46v48h620q334 0 531 -190t197 -518t-200 -527t-528 -199h-620v45q106 14 138 46t32 118v473h-170v78z" />
    <glyph glyph-name="Ntilde" unicode="&#xd1;" horiz-adv-x="1495" 
d="M1167 1223q-1 89 -33 119t-151 44v48h455v-48q-115 -14 -149 -46t-34 -117v-1223h-125l-782 1243v-1034q0 -88 33 -119t151 -45v-45h-456v45q114 14 148 46t34 118v1014q0 85 -34 117t-148 46v48h420l671 -1082v871zM670 1833q41 0 165 -41q123 -41 171 -41t80 15t65 61
l41 -25q-106 -215 -205 -215q-49 0 -170 41t-170 41t-80 -21q-30 -22 -71 -77l-41 26q115 236 215 236z" />
    <glyph glyph-name="Ograve" unicode="&#xd2;" horiz-adv-x="1597" 
d="M317 717q-1 -291 135 -475t346 -184t346 184t136 475t-135 474t-346 183t-347 -183t-135 -474zM92 717q0 317 207 527t500 210t499 -210t207 -527q0 -317 -207 -527q-208 -210 -500 -210t-499 210t-207 527zM817 1536l-291 213q-66 49 -32 105t80 52q47 -5 71 -42
l197 -305z" />
    <glyph glyph-name="Oacute" unicode="&#xd3;" horiz-adv-x="1597" 
d="M317 717q-1 -291 135 -475t346 -184t346 184t136 475t-135 474t-346 183t-347 -183t-135 -474zM92 717q0 317 207 527t500 210t499 -210t207 -527q0 -317 -207 -527q-208 -210 -500 -210t-499 210t-207 527zM713 1559l196 305q25 37 72 42t80 -51t-33 -106l-289 -213z
" />
    <glyph glyph-name="Ocircumflex" unicode="&#xd4;" horiz-adv-x="1597" 
d="M317 717q-1 -291 135 -475t346 -184t346 184t136 475t-135 474t-346 183t-347 -183t-135 -474zM92 717q0 317 207 527t500 210t499 -210t207 -527q0 -317 -207 -527q-208 -210 -500 -210t-499 210t-207 527zM799 1720l-232 -184h-55l256 369h61l256 -369h-57z" />
    <glyph glyph-name="Otilde" unicode="&#xd5;" horiz-adv-x="1597" 
d="M317 717q-1 -291 135 -475t346 -184t346 184t136 475t-135 474t-346 183t-347 -183t-135 -474zM92 717q0 317 207 527t500 210t499 -210t207 -527q0 -317 -207 -527q-208 -210 -500 -210t-499 210t-207 527zM653 1833q41 0 165 -41t172 -41t80 15t65 61l41 -25
q-106 -215 -205 -215q-49 0 -170 41t-170 41q-49 1 -80 -21t-72 -77l-41 26q115 236 215 236z" />
    <glyph glyph-name="Odieresis" unicode="&#xd6;" horiz-adv-x="1597" 
d="M317 717q-1 -291 135 -475t346 -184t346 184t136 475t-135 474t-346 183t-347 -183t-135 -474zM92 717q0 317 207 527t500 210t499 -210t207 -527q0 -317 -207 -527q-208 -210 -500 -210t-499 210t-207 527zM899 1670q0 50 33 82t82 32t82 -33q32 -33 32 -82t-32 -81
t-82 -32q-49 0 -82 32t-33 82zM614 1556q-48 0 -80 32t-32 82t32 82t80 32t82 -32q33 -32 33 -82t-33 -82t-82 -32z" />
    <glyph glyph-name="multiply" unicode="&#xd7;" horiz-adv-x="1126" 
d="M926 858l-310 -309l310 -309l-56 -56l-309 308l-307 -308l-55 58l307 307l-307 307l55 55l307 -307l309 307z" />
    <glyph glyph-name="Oslash" unicode="&#xd8;" horiz-adv-x="1597" 
d="M1280 717q0 195 -74 358l-772 -809q138 -209 356 -209q218 1 354 185t136 475zM317 717q0 -203 76 -371l774 807q-137 221 -358 221t-357 -183t-135 -474zM92 729q0 305 207 515t491 210t484 -188l119 125l55 -62l-117 -123q174 -206 174 -506t-207 -510t-487 -210
t-481 178l-123 -129l-60 63l123 127q-178 205 -178 510z" />
    <glyph glyph-name="Ugrave" unicode="&#xd9;" horiz-adv-x="1556" 
d="M1225 573v650q0 85 -33 117t-154 46v48h461v-48q-117 -14 -151 -46t-33 -117v-670q-1 -272 -147 -423q-146 -150 -409 -150t-399 150q-135 151 -135 423v670q1 85 -31 117t-139 46v48h543v-48q-106 -14 -137 -46t-31 -117v-650q0 -502 383 -501q205 0 309 130t103 371z
M831 1536l-290 213q-66 49 -33 105t80 52q47 -5 71 -42l197 -305z" />
    <glyph glyph-name="Uacute" unicode="&#xda;" horiz-adv-x="1556" 
d="M1225 573v650q0 85 -33 117t-154 46v48h461v-48q-117 -14 -151 -46t-33 -117v-670q-1 -272 -147 -423q-146 -150 -409 -150t-399 150q-135 151 -135 423v670q1 85 -31 117t-139 46v48h543v-48q-106 -14 -137 -46t-31 -117v-650q0 -502 383 -501q205 0 309 130t103 371z
M784 1559l197 305q25 37 71 42t80 -51q33 -56 -32 -106l-289 -213z" />
    <glyph glyph-name="Ucircumflex" unicode="&#xdb;" horiz-adv-x="1556" 
d="M1225 573v650q0 85 -33 117t-154 46v48h461v-48q-117 -14 -151 -46t-33 -117v-670q-1 -272 -147 -423q-146 -150 -409 -150t-399 150q-135 151 -135 423v670q1 85 -31 117t-139 46v48h543v-48q-106 -14 -137 -46t-31 -117v-650q0 -502 383 -501q205 0 309 130t103 371z
M821 1720l-231 -184h-55l256 369h61l256 -369h-57z" />
    <glyph glyph-name="Udieresis" unicode="&#xdc;" horiz-adv-x="1556" 
d="M1225 573v650q0 85 -33 117t-154 46v48h461v-48q-117 -14 -151 -46t-33 -117v-670q-1 -272 -147 -423q-146 -150 -409 -150t-399 150q-135 151 -135 423v670q1 85 -31 117t-139 46v48h543v-48q-106 -14 -137 -46t-31 -117v-650q0 -502 383 -501q205 0 309 130t103 371z
M909 1670q0 50 33 82t82 32t82 -33t33 -82t-33 -81t-82 -32t-82 32t-33 82zM512 1670q0 50 33 82t81 32t81 -32t33 -82t-34 -82q-32 -32 -81 -32t-81 32t-32 82z" />
    <glyph glyph-name="Yacute" unicode="&#xdd;" horiz-adv-x="1310" 
d="M10 1434h502v-48q-102 -14 -114 -63t36 -121l291 -563h4l266 553q78 168 -114 194v48h419v-48q-80 -16 -118 -40t-66 -82l-328 -693v-362q0 -86 31 -118t137 -46v-45h-542v45q106 14 138 46t32 118v272l-426 783q-25 46 -57 72t-91 50v48zM678 1559l196 305q25 37 72 42
t80 -51t-33 -106l-288 -213z" />
    <glyph glyph-name="Thorn" unicode="&#xde;" horiz-adv-x="1249" 
d="M246 209v1014q0 85 -32 117t-138 46v48h542v-48q-106 -14 -137 -46t-30 -117v-76h256q225 0 348 -108t123 -278t-125 -297q-63 -65 -179 -104t-270 -38h-153v-113q1 -86 31 -118t136 -46v-45h-542v45q106 14 138 46t32 118zM451 399h143q197 -1 283 93t86 235t-67 242
q-67 100 -241 100h-204v-670z" />
    <glyph glyph-name="germandbls" unicode="&#xdf;" horiz-adv-x="1269" 
d="M989 1311q0 -82 -36 -150q-36 -69 -79 -105q-114 -97 -114 -186q0 -68 84 -127l200 -145q90 -66 128 -152q69 -155 -42 -314q-47 -68 -129 -110q-83 -42 -187 -42t-172 53t-69 142q0 89 74 114q63 23 92 -19q18 -23 9 -61q-25 -82 -6 -125q20 -43 100 -43t127 52t49 138
q2 113 -129 213l-170 129q-125 96 -91 212q17 61 39 103q23 42 71 118t66 196q17 119 -26 216t-149 98q-129 0 -174 -116t-45 -376v-1024h-355v45q96 16 123 47t27 117v733h-133v72l133 10q0 154 47 268t120 173q141 112 295 112t238 -75t84 -191z" />
    <glyph glyph-name="agrave" unicode="&#xe0;" horiz-adv-x="1024" 
d="M614 201l4 241l-231 -55q-131 -31 -113 -158q17 -117 125 -115q53 0 98 20q45 18 117 67zM444 952q-144 0 -174 -80q-29 -80 19 -126q49 -46 -20 -92t-126 -31q-23 6 -30 22q-31 66 16 159t164 167q117 73 254 73t211 -73q73 -74 71 -203l-10 -498q-4 -146 84 -144
q43 1 105 11v-35q-100 -70 -152 -96t-104 -26q-137 0 -138 163h-4q-96 -88 -162 -126q-66 -37 -154 -37q-89 0 -156 72t-66 173q0 180 266 228l283 49l4 205q3 121 -49 183t-132 62zM545 1149l-25 -23l-291 213q-67 49 -33 105t81 52q47 -5 71 -42z" />
    <glyph glyph-name="aacute" unicode="&#xe1;" horiz-adv-x="1024" 
d="M614 201l4 241l-231 -55q-131 -31 -113 -158q17 -117 125 -115q53 0 98 20q45 18 117 67zM444 952q-144 0 -174 -80q-29 -80 19 -126q49 -46 -20 -92t-126 -31q-23 6 -30 22q-31 66 16 159t164 167q117 73 254 73t211 -73q73 -74 71 -203l-10 -498q-4 -146 84 -144
q43 1 105 11v-35q-100 -70 -152 -96t-104 -26q-137 0 -138 163h-4q-96 -88 -162 -126q-66 -37 -154 -37q-89 0 -156 72t-66 173q0 180 266 228l283 49l4 205q3 121 -49 183t-132 62zM440 1149l197 305q25 37 71 42t80 -51q33 -56 -32 -106l-289 -213z" />
    <glyph glyph-name="acircumflex" unicode="&#xe2;" horiz-adv-x="1024" 
d="M614 201l4 241l-231 -55q-131 -31 -113 -158q17 -117 125 -115q53 0 98 20q45 18 117 67zM444 952q-144 0 -174 -80q-29 -80 19 -126q49 -46 -20 -92t-126 -31q-23 6 -30 22q-31 66 16 159t164 167q117 73 254 73t211 -73q73 -74 71 -203l-10 -498q-4 -146 84 -144
q43 1 105 11v-35q-100 -70 -152 -96t-104 -26q-137 0 -138 163h-4q-96 -88 -162 -126q-66 -37 -154 -37q-89 0 -156 72t-66 173q0 180 266 228l283 49l4 205q3 121 -49 183t-132 62zM494 1311l-232 -185h-55l256 369h61l256 -369h-57z" />
    <glyph glyph-name="atilde" unicode="&#xe3;" horiz-adv-x="1024" 
d="M614 201l4 241l-231 -55q-131 -31 -113 -158q17 -117 125 -115q53 0 98 20q45 18 117 67zM444 952q-144 0 -174 -80q-29 -80 19 -126q49 -46 -20 -92t-126 -31q-23 6 -30 22q-31 66 16 159t164 167q117 73 254 73t211 -73q73 -74 71 -203l-10 -498q-4 -146 84 -144
q43 1 105 11v-35q-100 -70 -152 -96t-104 -26q-137 0 -138 163h-4q-96 -88 -162 -126q-66 -37 -154 -37q-89 0 -156 72t-66 173q0 180 266 228l283 49l4 205q3 121 -49 183t-132 62zM677 1341q48 -1 80 15t64 61l41 -24q-51 -95 -80 -136q-56 -79 -125 -79q-47 0 -169 41
t-171 41t-79 -22t-72 -77l-41 27q115 236 215 235q41 0 165 -41t172 -41z" />
    <glyph glyph-name="adieresis" unicode="&#xe4;" horiz-adv-x="1024" 
d="M614 201l4 241l-231 -55q-131 -31 -113 -158q17 -117 125 -115q53 0 98 20q45 18 117 67zM444 952q-144 0 -174 -80q-29 -80 19 -126q49 -46 -20 -92t-126 -31q-23 6 -30 22q-31 66 16 159t164 167q117 73 254 73t211 -73q73 -74 71 -203l-10 -498q-4 -146 84 -144
q43 1 105 11v-35q-100 -70 -152 -96t-104 -26q-137 0 -138 163h-4q-96 -88 -162 -126q-66 -37 -154 -37q-89 0 -156 72t-66 173q0 180 266 228l283 49l4 205q3 121 -49 183t-132 62zM584 1261q0 49 32 81t82 32q49 0 82 -33t33 -81t-33 -81q-33 -32 -82 -32t-82 32
q-32 32 -32 82zM186 1261q0 49 32 81t81 32t82 -32t33 -82t-33 -81q-33 -32 -82 -32t-81 32t-32 82z" />
    <glyph glyph-name="aring" unicode="&#xe5;" horiz-adv-x="1024" 
d="M614 201l4 241l-231 -55q-131 -31 -113 -158q17 -117 125 -115q53 0 98 20q45 18 117 67zM444 952q-144 0 -174 -80q-29 -80 19 -126q49 -46 -20 -92t-126 -31q-23 6 -30 22q-31 66 16 159t164 167q117 73 254 73t211 -73q73 -74 71 -203l-10 -498q-4 -146 84 -144
q43 1 105 11v-35q-100 -70 -152 -96t-104 -26q-137 0 -138 163h-4q-96 -88 -162 -126q-66 -37 -154 -37q-89 0 -156 72t-66 173q0 180 266 228l283 49l4 205q3 121 -49 183t-132 62zM383 1305q0 -49 34 -83t83 -34t83 34t33 83q0 49 -33 83q-34 34 -83 34t-83 -34t-34 -83z
M315 1305q-1 78 53 131t131 53t131 -54t54 -131t-53 -130q-53 -54 -131 -54t-132 54t-53 131z" />
    <glyph glyph-name="ae" unicode="&#xe6;" horiz-adv-x="1517" 
d="M391 115q143 0 289 108q-47 98 -53 217l-238 -53q-135 -31 -115 -158q8 -55 40 -85t77 -29zM1084 973q-100 0 -168 -78q-69 -78 -85 -215h398q35 147 -5 220t-140 73zM1085 -20q-252 0 -374 188q-225 -188 -414 -188q-92 0 -159 72t-66 173q0 180 266 228l283 49l4 205
q3 121 -49 183t-132 62q-144 0 -174 -80q-29 -80 19 -126q49 -46 -20 -92t-126 -31q-23 6 -30 22q-31 66 16 159t164 167t260 73q172 0 240 -129q133 129 305 129t273 -106t63 -340h-607q-6 -215 81 -338t245 -123t293 84v-82q-104 -91 -186 -125t-175 -34z" />
    <glyph glyph-name="ccedilla" unicode="&#xe7;" horiz-adv-x="1024" 
d="M573 -82q0 -37 106 -56q40 -7 73 -41t32 -95q-2 -90 -108 -155t-232 -83l-20 61l43 13q121 35 148 85q13 25 13 57t-20 54t-45 34q-25 11 -44 39t-17 73l4 80q-201 18 -318 166t-116 352q0 248 153 395q154 147 359 147q166 0 266 -76t100 -180q0 -52 -34 -82t-83 -30
t-75 22t-25 54q8 117 -26 169q-35 52 -134 52q-141 0 -221 -109q-80 -110 -80 -306t98 -308t266 -113q166 0 316 84v-82q-55 -45 -83 -67q-27 -22 -115 -56q-88 -35 -181 -36v-62z" />
    <glyph glyph-name="egrave" unicode="&#xe8;" horiz-adv-x="1024" 
d="M563 -20q-225 0 -358 152t-133 386q0 232 153 379q154 147 359 147q170 0 277 -94q56 -49 79 -140t0 -212h-668q-8 -207 92 -334t275 -127q176 0 313 84v-82q-117 -95 -206 -127t-183 -32zM562 973q-108 0 -184 -79t-99 -214h458q37 145 -14 219q-53 74 -161 74z
M637 1149l-25 -23l-290 213q-66 49 -33 105t80 52q47 -5 71 -42z" />
    <glyph glyph-name="eacute" unicode="&#xe9;" horiz-adv-x="1024" 
d="M563 -20q-225 0 -358 152t-133 386q0 232 153 379q154 147 359 147q170 0 277 -94q56 -49 79 -140t0 -212h-668q-8 -207 92 -334t275 -127q176 0 313 84v-82q-117 -95 -206 -127t-183 -32zM562 973q-108 0 -184 -79t-99 -214h458q37 145 -14 219q-53 74 -161 74z
M512 1149l197 305q25 37 71 42t80 -51q33 -56 -33 -106l-288 -213z" />
    <glyph glyph-name="ecircumflex" unicode="&#xea;" horiz-adv-x="1024" 
d="M563 -20q-225 0 -358 152t-133 386q0 232 153 379q154 147 359 147q170 0 277 -94q56 -49 79 -140t0 -212h-668q-8 -207 92 -334t275 -127q176 0 313 84v-82q-117 -95 -206 -127t-183 -32zM562 973q-108 0 -184 -79t-99 -214h458q37 145 -14 219q-53 74 -161 74z
M561 1311l-231 -185h-56l256 369h62l256 -369h-57z" />
    <glyph glyph-name="edieresis" unicode="&#xeb;" horiz-adv-x="1024" 
d="M563 -20q-225 0 -358 152t-133 386q0 232 153 379q154 147 359 147q170 0 277 -94q56 -49 79 -140t0 -212h-668q-8 -207 92 -334t275 -127q176 0 313 84v-82q-117 -95 -206 -127t-183 -32zM562 973q-108 0 -184 -79t-99 -214h458q37 145 -14 219q-53 74 -161 74z
M653 1261q0 49 33 81t82 32t82 -33t33 -81t-33 -81q-33 -32 -82 -32t-82 32t-33 82zM256 1261q0 49 32 81t81 32t82 -32t33 -82t-34 -81q-32 -32 -81 -32t-81 32t-32 82z" />
    <glyph glyph-name="igrave" unicode="&#xec;" horiz-adv-x="614" 
d="M430 1044v-835q0 -86 31 -118t137 -46v-45h-543v45q106 14 139 46q32 32 31 118v543q-1 78 -29 108t-120 45v47l334 92h20zM352 1149l-24 -23l-291 213q-66 49 -33 105t80 52q47 -5 72 -42z" />
    <glyph glyph-name="iacute" unicode="&#xed;" horiz-adv-x="614" 
d="M430 1044v-835q0 -86 31 -118t137 -46v-45h-543v45q106 14 139 46q32 32 31 118v543q-1 78 -29 108t-120 45v47l334 92h20zM279 1149l196 305q25 37 72 42t80 -51t-33 -106l-289 -213z" />
    <glyph glyph-name="icircumflex" unicode="&#xee;" horiz-adv-x="614" 
d="M430 1044v-835q0 -86 31 -118t137 -46v-45h-543v45q106 14 139 46q32 32 31 118v543q-1 78 -29 108t-120 45v47l334 92h20zM319 1311l-231 -185h-55l256 369h61l256 -369h-57z" />
    <glyph glyph-name="idieresis" unicode="&#xef;" horiz-adv-x="614" 
d="M430 1044v-835q0 -86 31 -118t137 -46v-45h-543v45q106 14 139 46q32 32 31 118v543q-1 78 -29 108t-120 45v47l334 92h20zM412 1261q0 49 32 81t82 32q49 0 82 -33t33 -81t-33 -81q-33 -32 -82 -32t-82 32q-32 32 -32 82zM14 1261q0 49 32 81t81 32t82 -32t33 -82
t-33 -81q-33 -32 -82 -32t-81 32t-32 82z" />
    <glyph glyph-name="eth" unicode="&#xf0;" horiz-adv-x="1150" 
d="M299 492q0 -440 276 -441q277 1 277 441t-276 440t-277 -440zM578 1577l122 -160l279 162l39 -70l-270 -157q332 -463 331 -830q0 -244 -145 -394q-144 -150 -366 -148q-222 0 -360 145t-134 367t147 366q143 145 363 146q88 0 176 -33q-61 172 -131 313l-254 -147
l-39 69l258 150q-70 139 -129 221h113z" />
    <glyph glyph-name="ntilde" unicode="&#xf1;" horiz-adv-x="1269" 
d="M55 0v45q106 14 139 46q32 32 31 118v543q-1 78 -29 108t-120 45v47l344 92h16l-6 -215h4q193 215 389 215q115 0 189 -74t73 -233v-528q0 -86 31 -118t137 -46v-45h-501v45q90 23 109 49t20 115v522q0 82 -39 126t-114 44t-137 -31t-161 -108v-553q0 -86 31 -118
t137 -46v-45h-543zM845 1341q48 -1 80 15t64 61l41 -24q-51 -95 -80 -136q-56 -79 -125 -79q-47 0 -169 41t-171 41t-79 -22t-72 -77l-41 27q115 236 215 235q41 0 165 -41t172 -41z" />
    <glyph glyph-name="ograve" unicode="&#xf2;" horiz-adv-x="1150" 
d="M299 512q0 -227 72 -344q73 -117 205 -117t204 117t72 344t-72 344t-205 117t-205 -117t-71 -344zM927 134q-147 -154 -363 -154t-355 154t-135 377q4 224 148 379q144 154 360 154t358 -154q141 -154 137 -378q-4 -223 -150 -378zM655 1149l-24 -23l-291 213
q-66 49 -33 105t80 52q47 -5 72 -42z" />
    <glyph glyph-name="oacute" unicode="&#xf3;" horiz-adv-x="1150" 
d="M299 512q0 -227 72 -344q73 -117 205 -117t204 117t72 344t-72 344t-205 117t-205 -117t-71 -344zM927 134q-147 -154 -363 -154t-355 154t-135 377q4 224 148 379q144 154 360 154t358 -154q141 -154 137 -378q-4 -223 -150 -378zM535 1149l196 305q25 37 72 42t80 -51
t-33 -106l-289 -213z" />
    <glyph glyph-name="ocircumflex" unicode="&#xf4;" horiz-adv-x="1150" 
d="M299 512q0 -227 72 -344q73 -117 205 -117t204 117t72 344t-72 344t-205 117t-205 -117t-71 -344zM927 134q-147 -154 -363 -154t-355 154t-135 377q4 224 148 379q144 154 360 154t358 -154q141 -154 137 -378q-4 -223 -150 -378zM594 1311l-232 -185h-55l256 369h62
l256 -369h-58z" />
    <glyph glyph-name="otilde" unicode="&#xf5;" horiz-adv-x="1150" 
d="M299 512q0 -227 72 -344q73 -117 205 -117t204 117t72 344t-72 344t-205 117t-205 -117t-71 -344zM927 134q-147 -154 -363 -154t-355 154t-135 377q4 224 148 379q144 154 360 154t358 -154q141 -154 137 -378q-4 -223 -150 -378zM773 1341q48 -1 80 15t65 61l40 -24
q-22 -43 -38 -72q-76 -143 -155 -143q-58 0 -180 41t-171 41t-80 -22t-72 -77l-41 27q115 236 215 235q41 0 165 -41t172 -41z" />
    <glyph glyph-name="odieresis" unicode="&#xf6;" horiz-adv-x="1150" 
d="M299 512q0 -227 72 -344q73 -117 205 -117t204 117t72 344t-72 344t-205 117t-205 -117t-71 -344zM927 134q-147 -154 -363 -154t-355 154t-135 377q4 224 148 379q144 154 360 154t358 -154q141 -154 137 -378q-4 -223 -150 -378zM786 1147q-50 0 -82 32t-32 82
q0 49 33 81t81 32t82 -33q33 -33 33 -81t-33 -81q-33 -32 -82 -32zM274 1261q0 49 32 81t81 32t82 -32t33 -82t-33 -81q-33 -32 -82 -32t-81 32t-32 82z" />
    <glyph glyph-name="divide" unicode="&#xf7;" horiz-adv-x="1146" 
d="M199 588h747v-82h-747v82zM475 844q0 45 31 77q31 31 77 31q47 0 77 -32t30 -76q0 -45 -31 -76t-77 -31t-76 31q-31 31 -31 76zM475 249q0 46 31 77q31 30 77 30q47 0 77 -32t30 -76q0 -45 -31 -76t-75 -31t-77 31q-32 31 -32 77z" />
    <glyph glyph-name="oslash" unicode="&#xf8;" horiz-adv-x="1150" 
d="M299 512q0 -135 25 -211l475 514q-73 158 -215 158q-286 0 -285 -461zM852 512q0 117 -27 213l-475 -514q70 -160 225 -160q133 0 205 117t72 344zM1010 1044l57 -57l-111 -119q125 -150 121 -364t-150 -370q-146 -154 -348 -154t-335 116l-107 -116l-61 55l112 121
q-122 150 -116 364t150 370q144 155 362 154q184 0 315 -118z" />
    <glyph glyph-name="ugrave" unicode="&#xf9;" 
d="M819 823q0 80 -31 110t-139 44v47h375v-743q0 -96 42 -126t146 -18v-55l-372 -102h-21v215h-4q-184 -215 -371 -215q-112 0 -186 74t-74 233v536q0 80 -27 110q-28 30 -122 44v47h354v-733q0 -76 37 -122t108 -46q71 1 130 29t155 108v563zM618 1149l-24 -23l-291 213
q-66 49 -33 105t80 52q47 -5 72 -42z" />
    <glyph glyph-name="uacute" unicode="&#xfa;" 
d="M819 823q0 80 -31 110t-139 44v47h375v-743q0 -96 42 -126t146 -18v-55l-372 -102h-21v215h-4q-184 -215 -371 -215q-112 0 -186 74t-74 233v536q0 80 -27 110q-28 30 -122 44v47h354v-733q0 -76 37 -122t108 -46q71 1 130 29t155 108v563zM549 1149l196 305q25 37 72 42
t80 -51t-33 -106l-289 -213z" />
    <glyph glyph-name="ucircumflex" unicode="&#xfb;" 
d="M819 823q0 80 -31 110t-139 44v47h375v-743q0 -96 42 -126t146 -18v-55l-372 -102h-21v215h-4q-184 -215 -371 -215q-112 0 -186 74t-74 233v536q0 80 -27 110q-28 30 -122 44v47h354v-733q0 -76 37 -122t108 -46q71 1 130 29t155 108v563zM598 1311l-231 -185h-56
l256 369h62l256 -369h-58z" />
    <glyph glyph-name="udieresis" unicode="&#xfc;" 
d="M819 823q0 80 -31 110t-139 44v47h375v-743q0 -96 42 -126t146 -18v-55l-372 -102h-21v215h-4q-184 -215 -371 -215q-112 0 -186 74t-74 233v536q0 80 -27 110q-28 30 -122 44v47h354v-733q0 -76 37 -122t108 -46q71 1 130 29t155 108v563zM676 1261q0 49 33 81t82 32
t81 -33t33 -81q0 -48 -33 -81q-34 -32 -82 -32t-81 32t-33 82zM279 1261q-1 49 31 81t81 32t82 -32t33 -82t-33 -81q-33 -32 -82 -32t-81 32q-31 32 -31 82z" />
    <glyph glyph-name="yacute" unicode="&#xfd;" horiz-adv-x="1167" 
d="M14 1024h508v-47q-104 -13 -126 -61t18 -123l239 -570h4l215 570q31 80 -2 125t-139 59v47h420v-47q-76 -16 -109 -40t-57 -83l-346 -874q-107 -268 -253 -394t-273 -139q-96 -8 -119 68q-14 59 24 96q25 20 58 10q323 -95 473 354l-391 879q-25 53 -52 77t-92 46v47z
M627 1149l196 305q25 37 72 42t80 -51t-33 -106l-289 -213z" />
    <glyph glyph-name="thorn" unicode="&#xfe;" 
d="M410 -322q0 -86 30 -118t138 -45v-47h-523v47q94 14 122 46t28 117v1606q0 78 -29 109t-121 45v47l338 92h17v-676h4q57 66 140 105t173 38q197 0 313 -150t117 -384q0 -234 -157 -382t-365 -148q-139 0 -225 61v-363zM634 915q-128 0 -224 -86v-491q0 -158 68 -222
t157 -65q151 0 233 125t74 327t-94 307t-214 105z" />
    <glyph glyph-name="ydieresis" unicode="&#xff;" horiz-adv-x="1167" 
d="M14 1024h508v-47q-104 -13 -126 -61t18 -123l239 -570h4l215 570q31 80 -2 125t-139 59v47h420v-47q-76 -16 -109 -40t-57 -83l-346 -874q-107 -268 -253 -394t-273 -139q-96 -8 -119 68q-14 59 24 96q25 20 58 10q323 -95 473 354l-391 879q-25 53 -52 77t-92 46v47z
M711 1261q1 49 33 81t81 32t82 -33t33 -81t-33 -81q-33 -32 -82 -32t-82 32q-32 32 -32 82zM313 1261q0 49 32 81t81 32t82 -32t33 -82t-33 -81q-33 -32 -82 -32t-81 32t-32 82z" />
    <glyph glyph-name="Amacron" unicode="&#x100;" horiz-adv-x="1433" 
d="M649 1192l-207 -627h430l-219 627h-4zM1417 0h-553v45q106 14 134 60t-5 124l-92 258h-485l-76 -227q-37 -92 -9 -146t144 -69v-45h-461v45q106 16 146 39q39 23 59 84l438 1276h121l471 -1276q20 -53 51 -77t117 -46v-45zM395 1714h645v-82h-645v82z" />
    <glyph glyph-name="amacron" unicode="&#x101;" horiz-adv-x="1024" 
d="M614 201l4 241l-231 -55q-131 -31 -113 -158q17 -117 125 -115q53 0 98 20q45 18 117 67zM444 952q-144 0 -174 -80q-29 -80 19 -126q49 -46 -20 -92t-126 -31q-23 6 -30 22q-31 66 16 159t164 167q117 73 254 73t211 -73q73 -74 71 -203l-10 -498q-4 -146 84 -144
q43 1 105 11v-35q-100 -70 -152 -96t-104 -26q-137 0 -138 163h-4q-96 -88 -162 -126q-66 -37 -154 -37q-89 0 -156 72t-66 173q0 180 266 228l283 49l4 205q3 121 -49 183t-132 62zM180 1305h645v-82h-645v82z" />
    <glyph glyph-name="Abreve" unicode="&#x102;" horiz-adv-x="1433" 
d="M649 1192l-207 -627h430l-219 627h-4zM1417 0h-553v45q106 14 134 60t-5 124l-92 258h-485l-76 -227q-37 -92 -9 -146t144 -69v-45h-461v45q106 16 146 39q39 23 59 84l438 1276h121l471 -1276q20 -53 51 -77t117 -46v-45zM715 1577q-129 0 -196 92t-66 217h53
q16 -76 76 -118t133 -42q74 0 133 42t76 118h51q1 -125 -65 -217t-195 -92z" />
    <glyph glyph-name="abreve" unicode="&#x103;" horiz-adv-x="1024" 
d="M614 201l4 241l-231 -55q-131 -31 -113 -158q17 -117 125 -115q53 0 98 20q45 18 117 67zM444 952q-144 0 -174 -80q-29 -80 19 -126q49 -46 -20 -92t-126 -31q-23 6 -30 22q-31 66 16 159t164 167q117 73 254 73t211 -73q73 -74 71 -203l-10 -498q-4 -146 84 -144
q43 1 105 11v-35q-100 -70 -152 -96t-104 -26q-137 0 -138 163h-4q-96 -88 -162 -126q-66 -37 -154 -37q-89 0 -156 72t-66 173q0 180 266 228l283 49l4 205q3 121 -49 183t-132 62zM510 1167q-129 1 -196 93t-66 217h53q15 -76 75 -118t134 -42t133 42t76 118h51
q0 -125 -66 -217t-194 -93z" />
    <glyph glyph-name="Aogonek" unicode="&#x104;" horiz-adv-x="1433" 
d="M649 1192l-207 -625h430l-219 625h-4zM1417 0h-215q-47 -43 -78 -100q-66 -123 -24 -207q47 -96 194 -35v-41q-30 -35 -76 -59t-98 -23q-52 0 -96 29q-83 56 -68 186q8 59 56 126t129 124h-277v45q106 14 134 60t-5 124l-90 256h-489l-74 -225q-37 -92 -9 -146t144 -69
v-45h-461v45q106 16 146 39q39 23 59 84l438 1276h121l471 -1276q20 -53 51 -77t117 -46v-45z" />
    <glyph glyph-name="aogonek" unicode="&#x105;" horiz-adv-x="1024" 
d="M618 442l-219 -51q-143 -35 -125 -162q8 -55 40 -85t84 -30t98 19q46 18 118 68zM444 952q-144 0 -174 -80q-29 -80 17 -124q20 -20 18 -48q-10 -46 -91 -72t-101 17q-31 66 16 159t164 167q117 73 254 73t211 -74t71 -202l-10 -498q-4 -146 84 -144q43 1 105 11v-35
q-86 -59 -143 -87q-58 -27 -74 -35q-76 -39 -117 -131t8 -171q57 -92 192 -36v-41q-30 -35 -76 -59q-102 -53 -193 6q-85 58 -69 189q7 58 54 125t125 120q-100 20 -101 161h-4q-96 -88 -162 -126q-66 -37 -154 -37q-89 0 -156 72t-66 173q0 180 266 228l283 49l4 205
q3 121 -49 183t-132 62z" />
    <glyph glyph-name="Cacute" unicode="&#x106;" horiz-adv-x="1310" 
d="M778 57q170 1 278 99t142 237h55l-20 -291q-197 -123 -455 -122q-298 0 -492 208t-194 529t194 529t492 208q258 0 455 -123l20 -293h-55q-35 139 -142 238q-108 98 -278 98q-203 0 -332 -183t-129 -474t129 -475t332 -185zM725 1559l197 305q26 37 72 42t79 -51
t-33 -106l-288 -213z" />
    <glyph glyph-name="cacute" unicode="&#x107;" horiz-adv-x="1024" 
d="M573 973q-141 0 -221 -109q-80 -110 -80 -306t98 -308t266 -113q167 0 316 84v-82q-117 -96 -206 -128t-183 -31q-225 0 -358 152t-133 386q0 232 153 379q154 147 359 147q166 0 266 -76t100 -180q0 -52 -34 -82t-83 -30t-75 22t-25 54q8 117 -26 169q-36 52 -134 52z
M545 1149l196 305q25 37 72 42t80 -51t-33 -106l-289 -213z" />
    <glyph glyph-name="Ccircumflex" unicode="&#x108;" horiz-adv-x="1310" 
d="M778 57q170 1 278 99t142 237h55l-20 -291q-197 -123 -455 -122q-298 0 -492 208t-194 529t194 529t492 208q258 0 455 -123l20 -293h-55q-35 139 -142 238q-108 98 -278 98q-203 0 -332 -183t-129 -474t129 -475t332 -185zM760 1720l-232 -184h-55l256 369h62l256 -369
h-58z" />
    <glyph glyph-name="ccircumflex" unicode="&#x109;" horiz-adv-x="1024" 
d="M573 973q-141 0 -221 -109q-80 -110 -80 -306t98 -308t266 -113q167 0 316 84v-82q-117 -96 -206 -128t-183 -31q-225 0 -358 152t-133 386q0 232 153 379q154 147 359 147q166 0 266 -76t100 -180q0 -52 -34 -82t-83 -30t-75 22t-25 54q8 117 -26 169q-36 52 -134 52z
M584 1311l-232 -185h-55l256 369h61l256 -369h-57z" />
    <glyph glyph-name="Cdotaccent" unicode="&#x10a;" horiz-adv-x="1310" 
d="M778 57q170 1 278 99t142 237h55l-20 -291q-197 -123 -455 -122q-298 0 -492 208t-194 529t194 529t492 208q258 0 455 -123l20 -293h-55q-35 139 -142 238q-108 98 -278 98q-203 0 -332 -183t-129 -474t129 -475t332 -185zM678 1694q0 51 36 87t87 36t87 -36t36 -87
t-36 -87t-87 -36t-87 36t-36 87z" />
    <glyph glyph-name="cdotaccent" unicode="&#x10b;" horiz-adv-x="1024" 
d="M573 973q-141 0 -221 -109q-80 -110 -80 -306t98 -308t266 -113q167 0 316 84v-82q-117 -96 -206 -128t-183 -31q-225 0 -358 152t-133 386q0 232 153 379q154 147 359 147q166 0 266 -76t100 -180q0 -52 -34 -82t-83 -30t-75 22t-25 54q8 117 -26 169q-36 52 -134 52z
M475 1284q0 51 36 87t87 36t87 -36t36 -87t-36 -87t-87 -36t-87 36t-36 87z" />
    <glyph glyph-name="Ccaron" unicode="&#x10c;" horiz-adv-x="1310" 
d="M778 57q170 1 278 99t142 237h55l-20 -291q-197 -123 -455 -122q-298 0 -492 208t-194 529t194 529t492 208q258 0 455 -123l20 -293h-55q-35 139 -142 238q-108 98 -278 98q-203 0 -332 -183t-129 -474t129 -475t332 -185zM776 1720l230 185h57l-256 -369h-62l-256 369
h56z" />
    <glyph glyph-name="ccaron" unicode="&#x10d;" horiz-adv-x="1024" 
d="M573 973q-141 0 -221 -109q-80 -110 -80 -306t98 -308t266 -113q167 0 316 84v-82q-117 -96 -206 -128t-183 -31q-225 0 -358 152t-133 386q0 232 153 379q154 147 359 147q166 0 266 -76t100 -180q0 -52 -34 -82t-83 -30t-75 22t-25 54q8 117 -26 169q-36 52 -134 52z
M598 1311l229 184h58l-256 -369h-62l-256 369h56z" />
    <glyph glyph-name="Dcaron" unicode="&#x10e;" horiz-adv-x="1515" 
d="M696 0h-620v45q106 14 138 46t32 118v1014q0 85 -32 117t-138 46v48h620q334 0 531 -190t197 -518t-200 -527t-528 -199zM451 76h245q126 0 226 54t158 145q118 185 118 462t-129 448t-393 171h-225v-1280zM729 1720l229 185h58l-256 -369h-62l-256 369h56z" />
    <glyph glyph-name="dcaron" unicode="&#x10f;" 
d="M1288 1585q94 -1 132 -65t38 -146q0 -133 -83 -237t-181 -140l-27 47q123 57 164 166q33 84 -14 111q-12 6 -29 6q-53 0 -90 38t-37 91t38 91t89 38zM819 1284q0 78 -28 109q-29 31 -121 45v47l334 92h20v-1296q0 -96 42 -126t146 -18v-55l-372 -102h-21v143h-4
q-127 -143 -319 -143t-308 150t-116 384t156 382q157 148 366 148q135 0 225 -61v301zM592 106q127 0 227 87v493q-1 158 -69 222t-156 65q-152 0 -234 -125t-74 -327q8 -203 94 -309q85 -106 212 -106z" />
    <glyph glyph-name="Dcroat" unicode="&#x110;" horiz-adv-x="1515" 
d="M451 76h245q126 0 226 54t158 145q118 185 118 462t-129 448t-393 171h-225v-596h229v-78h-229v-606zM14 760h232v463q0 85 -32 117t-138 46v48h620q334 0 531 -190t197 -518t-200 -527t-528 -199h-620v45q106 14 138 46t32 118v473h-232v78z" />
    <glyph glyph-name="dcroat" unicode="&#x111;" 
d="M592 106q127 0 227 87v493q-1 158 -69 222t-156 65q-152 0 -234 -125t-74 -327q8 -203 94 -309q85 -106 212 -106zM1171 1122h-147v-841q0 -100 40 -126t148 -18v-55l-372 -102h-21v143h-4q-127 -143 -319 -143t-308 150t-116 384t156 382q157 148 366 148q135 0 225 -61
v139h-170v78h170v84q0 74 -31 108t-118 46v47l334 92h20v-377h147v-78z" />
    <glyph glyph-name="Emacron" unicode="&#x112;" 
d="M451 1356v-596h184q102 0 156 45q53 45 65 162h55v-492h-55q-12 117 -65 162t-156 45h-184v-606h378q109 0 181 66t86 190h55l-21 -332h-1054v45q106 14 138 46t32 118v1014q0 85 -32 117t-138 46v48h1034l10 -334h-55q-14 124 -81 190t-175 66h-358zM342 1714h645v-82
h-645v82z" />
    <glyph glyph-name="emacron" unicode="&#x113;" horiz-adv-x="1024" 
d="M563 -20q-225 0 -358 152t-133 386q0 232 153 379q154 147 359 147q170 0 277 -94q56 -49 79 -140t0 -212h-668q-8 -207 92 -334t275 -127q176 0 313 84v-82q-117 -95 -206 -127t-183 -32zM562 973q-108 0 -184 -79t-99 -214h458q37 145 -14 219q-53 74 -161 74z
M248 1305h645v-82h-645v82z" />
    <glyph glyph-name="Ebreve" unicode="&#x114;" 
d="M451 1356v-596h184q102 0 156 45q53 45 65 162h55v-492h-55q-12 117 -65 162t-156 45h-184v-606h378q109 0 181 66t86 190h55l-21 -332h-1054v45q106 14 138 46t32 118v1014q0 85 -32 117t-138 46v48h1034l10 -334h-55q-14 124 -81 190t-175 66h-358zM674 1577
q-129 0 -196 92t-66 217h53q15 -76 75 -118t134 -42t133 42t76 118h51q0 -125 -66 -217t-194 -92z" />
    <glyph glyph-name="ebreve" unicode="&#x115;" horiz-adv-x="1024" 
d="M563 -20q-225 0 -358 152t-133 386q0 232 153 379q154 147 359 147q170 0 277 -94q56 -49 79 -140t0 -212h-668q-8 -207 92 -334t275 -127q176 0 313 84v-82q-117 -95 -206 -127t-183 -32zM562 973q-108 0 -184 -79t-99 -214h458q37 145 -14 219q-53 74 -161 74z
M578 1167q-129 1 -196 93t-67 217h54q16 -76 75 -118q60 -42 134 -42t133 42t75 118h52q0 -125 -66 -217t-194 -93z" />
    <glyph glyph-name="Edotaccent" unicode="&#x116;" 
d="M451 1356v-596h184q102 0 156 45q53 45 65 162h55v-492h-55q-12 117 -65 162t-156 45h-184v-606h378q109 0 181 66t86 190h55l-21 -332h-1054v45q106 14 138 46t32 118v1014q0 85 -32 117t-138 46v48h1034l10 -334h-55q-14 124 -81 190t-175 66h-358zM541 1694
q0 51 36 87t87 36t87 -36q35 -36 35 -87t-36 -87t-87 -36q-52 0 -88 36q-34 36 -34 87z" />
    <glyph glyph-name="edotaccent" unicode="&#x117;" horiz-adv-x="1024" 
d="M563 -20q-225 0 -358 152t-133 386q0 232 153 379q154 147 359 147q170 0 277 -94q56 -49 79 -140t0 -212h-668q-8 -207 92 -334t275 -127q176 0 313 84v-82q-117 -95 -206 -127t-183 -32zM562 973q-108 0 -184 -79t-99 -214h458q37 145 -14 219q-53 74 -161 74z
M457 1284q0 51 36 87t87 36t87 -36q35 -36 35 -87t-36 -87t-86 -36q-51 0 -87 36t-36 87z" />
    <glyph glyph-name="Eogonek" unicode="&#x118;" 
d="M1048 -465q-52 0 -96 29q-84 57 -67 186q8 59 56 126t128 124h-993v45q106 14 138 46t32 118v1014q0 85 -32 117t-138 46v48h1034l10 -334h-55q-14 124 -81 190t-175 66h-358v-596h184q102 0 156 45q53 45 65 162h55v-492h-55q-12 117 -65 162t-156 45h-184v-606h378
q109 0 181 66t86 190h55l-21 -332q-109 -100 -114 -227q-8 -109 74 -133q55 -13 133 18v-41q-29 -35 -76 -59t-99 -23z" />
    <glyph glyph-name="eogonek" unicode="&#x119;" horiz-adv-x="1024" 
d="M562 973q-108 0 -184 -79t-99 -214h458q37 145 -14 219q-53 74 -161 74zM72 518q0 232 153 379q154 147 359 147q170 0 277 -94q56 -49 79 -140t0 -212h-668q-8 -207 92 -334t269 -127q170 0 319 84v-82q-12 -13 -32 -27t-37 -28q-19 -15 -85 -51t-184 -51
q-104 -98 -111 -216t75 -141q53 -16 133 17v-41q-29 -35 -76 -59q-102 -52 -194 5q-84 56 -69 186q7 58 54 125t125 124q-221 2 -350 154q-129 150 -129 382z" />
    <glyph glyph-name="Ecaron" unicode="&#x11a;" 
d="M451 1356v-596h184q102 0 156 45q53 45 65 162h55v-492h-55q-12 117 -65 162t-156 45h-184v-606h378q109 0 181 66t86 190h55l-21 -332h-1054v45q106 14 138 46t32 118v1014q0 85 -32 117t-138 46v48h1034l10 -334h-55q-14 124 -81 190t-175 66h-358zM678 1720l229 185
h58l-256 -369h-62l-256 369h55z" />
    <glyph glyph-name="ecaron" unicode="&#x11b;" horiz-adv-x="1024" 
d="M563 -20q-225 0 -358 152t-133 386q0 232 153 379q154 147 359 147q170 0 277 -94q56 -49 79 -140t0 -212h-668q-8 -207 92 -334t275 -127q176 0 313 84v-82q-117 -95 -206 -127t-183 -32zM562 973q-108 0 -184 -79t-99 -214h458q37 145 -14 219q-53 74 -161 74z
M575 1311l230 184h57l-256 -369h-61l-256 369h55z" />
    <glyph glyph-name="Gcircumflex" unicode="&#x11c;" horiz-adv-x="1433" 
d="M1075 430q0 86 -31 118t-139 46v45h512v-45q-89 -14 -113 -45t-24 -119v-287q-76 -57 -219 -110t-283 -53q-298 0 -492 208t-194 529t194 529t492 208q258 0 455 -123l20 -293h-55q-35 139 -142 238q-108 98 -278 98q-203 0 -332 -183t-129 -474t129 -475t332 -185
q172 0 297 115v258zM768 1720l-231 -184h-56l256 369h62l256 -369h-58z" />
    <glyph glyph-name="gcircumflex" unicode="&#x11d;" horiz-adv-x="1105" 
d="M836 901v-4q86 -102 86 -221q0 -174 -114 -276t-296 -103q-78 0 -139 20l-16 -16q-11 -12 -14 -16q-3 -5 -12 -15q-28 -33 -28 -67q0 -57 121 -70l321 -31q143 -14 227 -82t83 -180q1 -112 -103 -207q-104 -94 -248 -140t-294 -46q-379 0 -379 205q0 86 60 159t179 152
q-61 10 -104 50t-43 102q0 106 194 223q-102 43 -163 130t-62 202q0 166 119 270t301 104q106 0 256 -59l281 31v-115h-213zM496 973q-96 0 -150 -83t-45 -224q11 -142 71 -220t157 -78t144 84q46 83 38 220q-7 137 -63 219t-152 82zM225 -307q0 -82 69 -128q68 -46 192 -46
q124 -1 249 65t125 180q0 68 -57 99t-168 45l-318 41q-92 -125 -92 -256zM518 1311l-231 -185h-56l256 369h62l256 -369h-57z" />
    <glyph glyph-name="Gbreve" unicode="&#x11e;" horiz-adv-x="1433" 
d="M1075 430q0 86 -31 118t-139 46v45h512v-45q-89 -14 -113 -45t-24 -119v-287q-76 -57 -219 -110t-283 -53q-298 0 -492 208t-194 529t194 529t492 208q258 0 455 -123l20 -293h-55q-35 139 -142 238q-108 98 -278 98q-203 0 -332 -183t-129 -474t129 -475t332 -185
q172 0 297 115v258zM772 1577q-130 0 -196 92t-66 217h53q15 -76 75 -118t134 -42t133 42t76 118h51q0 -125 -66 -217t-194 -92z" />
    <glyph glyph-name="gbreve" unicode="&#x11f;" horiz-adv-x="1105" 
d="M836 901v-4q86 -102 86 -221q0 -174 -114 -276t-296 -103q-78 0 -139 20l-16 -16q-11 -12 -14 -16q-3 -5 -12 -15q-28 -33 -28 -67q0 -57 121 -70l321 -31q143 -14 227 -82t83 -180q1 -112 -103 -207q-104 -94 -248 -140t-294 -46q-379 0 -379 205q0 86 60 159t179 152
q-61 10 -104 50t-43 102q0 106 194 223q-102 43 -163 130t-62 202q0 166 119 270t301 104q106 0 256 -59l281 31v-115h-213zM496 973q-96 0 -150 -83t-45 -224q11 -142 71 -220t157 -78t144 84q46 83 38 220q-7 137 -63 219t-152 82zM225 -307q0 -82 69 -128q68 -46 192 -46
q124 -1 249 65t125 180q0 68 -57 99t-168 45l-318 41q-92 -125 -92 -256zM549 1167q-129 1 -196 93t-66 217h53q16 -76 76 -118t133 -42q74 0 133 42t76 118h51q1 -125 -65 -217t-195 -93z" />
    <glyph glyph-name="Gdotaccent" unicode="&#x120;" horiz-adv-x="1433" 
d="M1075 430q0 86 -31 118t-139 46v45h512v-45q-89 -14 -113 -45t-24 -119v-287q-76 -57 -219 -110t-283 -53q-298 0 -492 208t-194 529t194 529t492 208q258 0 455 -123l20 -293h-55q-35 139 -142 238q-108 98 -278 98q-203 0 -332 -183t-129 -474t129 -475t332 -185
q172 0 297 115v258zM676 1694q0 51 36 87t87 36t87 -36t36 -87t-36 -87t-88 -36t-87 36t-35 87z" />
    <glyph glyph-name="gdotaccent" unicode="&#x121;" horiz-adv-x="1105" 
d="M836 901v-4q86 -102 86 -221q0 -174 -114 -276t-296 -103q-78 0 -139 20l-16 -16q-11 -12 -14 -16q-3 -5 -12 -15q-28 -33 -28 -67q0 -57 121 -70l321 -31q143 -14 227 -82t83 -180q1 -112 -103 -207q-104 -94 -248 -140t-294 -46q-379 0 -379 205q0 86 60 159t179 152
q-61 10 -104 50t-43 102q0 106 194 223q-102 43 -163 130t-62 202q0 166 119 270t301 104q106 0 256 -59l281 31v-115h-213zM496 973q-96 0 -150 -83t-45 -224q11 -142 71 -220t157 -78t144 84q46 83 38 220q-7 137 -63 219t-152 82zM225 -307q0 -82 69 -128q68 -46 192 -46
q124 -1 249 65t125 180q0 68 -57 99t-168 45l-318 41q-92 -125 -92 -256zM414 1284q0 51 36 87t87 36t87 -36t36 -87t-36 -87t-87 -36t-87 36t-36 87z" />
    <glyph glyph-name="Gcommaaccent" unicode="&#x122;" horiz-adv-x="1433" 
d="M754 -94q94 0 132 -65t38 -146q0 -133 -83 -237t-182 -140l-26 47q123 57 164 166q33 84 -15 111q-12 6 -28 6q-53 0 -90 38t-37 91t38 91t89 38zM1075 430q0 86 -31 118t-139 46v45h512v-45q-89 -14 -113 -45t-24 -119v-287q-76 -57 -219 -110t-283 -53q-298 0 -492 208
t-194 529t194 529t492 208q258 0 455 -123l20 -293h-55q-35 139 -142 238q-108 98 -278 98q-203 0 -332 -183t-129 -474t129 -475t332 -185q172 0 297 115v258z" />
    <glyph glyph-name="gcommaaccent" unicode="&#x123;" horiz-adv-x="1105" 
d="M545 1729q94 0 132 -65t38 -146q0 -134 -83 -238t-181 -139l-27 47q123 57 164 166q33 84 -15 110q-12 6 -28 6q-53 0 -90 38t-37 92t38 91q38 38 89 38zM836 901v-4q86 -102 86 -221q0 -174 -114 -276t-296 -103q-78 0 -139 20l-16 -16q-11 -12 -14 -16q-3 -5 -12 -15
q-28 -33 -28 -67q0 -57 121 -70l321 -31q143 -14 227 -82t83 -180q1 -112 -103 -207q-104 -94 -248 -140t-294 -46q-379 0 -379 205q0 86 60 159t179 152q-61 10 -104 50t-43 102q0 106 194 223q-102 43 -163 130t-62 202q0 166 119 270t301 104q106 0 256 -59l281 31v-115
h-213zM496 973q-96 0 -150 -83t-45 -224q11 -142 71 -220t157 -78t144 84q46 83 38 220q-7 137 -63 219t-152 82zM225 -307q0 -82 69 -128q68 -46 192 -46q124 -1 249 65t125 180q0 68 -57 99t-168 45l-318 41q-92 -125 -92 -256z" />
    <glyph glyph-name="Hcircumflex" unicode="&#x124;" horiz-adv-x="1597" 
d="M1352 1223v-1014q0 -86 30 -118t138 -46v-45h-543v45q106 14 138 46t32 118v483h-696v-483q1 -86 31 -118t136 -46v-45h-542v45q106 14 138 46t32 118v1014q0 85 -32 117t-138 46v48h542v-48q-106 -14 -137 -46t-30 -117v-453h696v453q0 85 -32 117t-138 46v48h543v-48
q-106 -14 -137 -46t-31 -117zM807 1720l-232 -184h-55l256 369h62l256 -369h-58z" />
    <glyph glyph-name="hcircumflex" unicode="&#x125;" horiz-adv-x="1269" 
d="M55 0v45q106 14 139 46q32 32 31 118v1075q0 78 -28 109q-29 31 -121 45v47l334 92h20v-737h4q197 205 367 204q285 0 284 -307v-528q0 -86 31 -118t137 -46v-45h-501v45q90 23 109 49t20 115v522q0 76 -38 123t-110 47q-141 0 -303 -129v-563q0 -86 31 -118t137 -46v-45
h-543zM328 1782l-232 -185h-55l256 369h61l256 -369h-57z" />
    <glyph glyph-name="Hbar" unicode="&#x126;" horiz-adv-x="1597" 
d="M451 770h696v188h-696v-188zM76 1036h170v187q0 85 -32 117t-138 46v48h542v-48q-106 -14 -137 -46t-30 -117v-187h696v187q0 85 -32 117t-138 46v48h543v-48q-106 -14 -138 -46t-30 -117v-187h168v-78h-168v-749q0 -86 30 -118t138 -46v-45h-543v45q106 14 138 46
t32 118v483h-696v-483q1 -86 31 -118t136 -46v-45h-542v45q106 14 138 46t32 118v749h-170v78z" />
    <glyph glyph-name="hbar" unicode="&#x127;" horiz-adv-x="1269" 
d="M76 1200h149v84q0 78 -28 109q-29 31 -121 45v47l334 92h20v-377h168v-78h-168v-282h4q195 205 389 204q119 0 191 -76t71 -231v-528q0 -86 31 -118t137 -46v-45h-501v45q90 23 109 49t20 115v522q0 74 -38 122t-112 48q-75 0 -141 -30t-160 -99v-563q0 -86 31 -118
t137 -46v-45h-543v45q106 14 139 46q32 32 31 118v913h-149v78z" />
    <glyph glyph-name="Itilde" unicode="&#x128;" horiz-adv-x="696" 
d="M451 1223v-1014q1 -86 31 -118t136 -46v-45h-542v45q106 14 138 46t32 118v1014q0 85 -32 117t-138 46v48h542v-48q-106 -14 -136 -46t-31 -117zM195 1833q41 0 165 -41t171 -41q48 0 80 15t65 61l41 -25q-106 -215 -205 -215q-49 0 -170 41t-170 41q-49 1 -80 -21
t-72 -77l-40 26q115 236 215 236z" />
    <glyph glyph-name="itilde" unicode="&#x129;" horiz-adv-x="614" 
d="M501 1341q48 -1 80 15t64 61l41 -24q-51 -95 -80 -136q-56 -79 -125 -79q-47 0 -168 41t-171 41t-80 -22t-72 -77l-41 27q115 236 215 235q41 0 165 -41t172 -41zM422 1044v-835q0 -86 31 -118t137 -46v-45h-543v45q106 14 138 46t32 118v543q0 78 -29 108t-120 45v47
l333 92h21z" />
    <glyph glyph-name="Imacron" unicode="&#x12a;" horiz-adv-x="696" 
d="M451 1223v-1014q1 -86 31 -118t136 -46v-45h-542v45q106 14 138 46t32 118v1014q0 85 -32 117t-138 46v48h542v-48q-106 -14 -136 -46t-31 -117zM25 1714h645v-82h-645v82z" />
    <glyph glyph-name="imacron" unicode="&#x12b;" horiz-adv-x="614" 
d="M-6 1305h645v-82h-645v82zM422 1044v-835q0 -86 31 -118t137 -46v-45h-543v45q106 14 138 46t32 118v543q0 78 -29 108t-120 45v47l333 92h21z" />
    <glyph glyph-name="Ibreve" unicode="&#x12c;" horiz-adv-x="696" 
d="M451 1223v-1014q1 -86 31 -118t136 -46v-45h-542v45q106 14 138 46t32 118v1014q0 85 -32 117t-138 46v48h542v-48q-106 -14 -136 -46t-31 -117zM350 1577q-130 0 -196 92t-66 217h53q15 -76 75 -118t134 -42t133 42t76 118h51q0 -125 -66 -217t-194 -92z" />
    <glyph glyph-name="ibreve" unicode="&#x12d;" horiz-adv-x="614" 
d="M430 1044v-835q0 -86 31 -118t137 -46v-45h-543v45q106 14 139 46q32 32 31 118v543q-1 78 -29 108t-120 45v47l334 92h20zM328 1167q-129 1 -196 93t-66 217h53q15 -76 75 -118t134 -42t133 42t76 118h51q0 -125 -66 -217t-194 -93z" />
    <glyph glyph-name="Iogonek" unicode="&#x12e;" horiz-adv-x="696" 
d="M321 -465q-52 0 -96 29q-84 57 -67 186q8 59 56 126t128 124h-266v45q106 14 138 46t32 118v1014q0 85 -32 117t-138 46v48h542v-48q-106 -14 -137 -46t-30 -117v-1014q1 -86 31 -118t136 -46v-45h-215q-109 -100 -114 -227q-8 -109 73 -133q54 -15 134 18v-41
q-29 -35 -76 -59t-99 -23z" />
    <glyph glyph-name="iogonek" unicode="&#x12f;" horiz-adv-x="614" 
d="M188 1375q0 57 41 99t99 42t98 -42q41 -42 41 -100t-41 -98q-41 -41 -98 -41t-99 41q-41 41 -41 99zM300 -465q-52 0 -95 29q-85 58 -68 186q9 59 57 126t128 124h-267v45q106 14 139 46q32 32 31 118v543q-1 78 -29 108t-120 45v47l334 92h20v-835q0 -86 31 -118
t137 -46v-45h-215q-109 -100 -116 -218t75 -142q53 -15 133 18v-41q-29 -35 -76 -59t-99 -23z" />
    <glyph glyph-name="Idotaccent" unicode="&#x130;" horiz-adv-x="696" 
d="M451 1223v-1014q1 -86 31 -118t136 -46v-45h-542v45q106 14 138 46t32 118v1014q0 85 -32 117t-138 46v48h542v-48q-106 -14 -136 -46t-31 -117zM221 1694q0 51 36 87t87 36t87 -36t36 -87t-36 -87t-88 -36t-87 36t-35 87z" />
    <glyph glyph-name="dotlessi" unicode="&#x131;" horiz-adv-x="614" 
d="M430 1044v-835q0 -86 31 -118t137 -46v-45h-543v45q106 14 139 46q32 32 31 118v543q-1 78 -29 108t-120 45v47l334 92h20z" />
    <glyph glyph-name="IJ" unicode="&#x132;" horiz-adv-x="1515" 
d="M1270 1223v-670q0 -260 -118 -417t-302 -156q-106 0 -127 71q-16 57 26 89t97 6q160 -76 194 -30q28 35 26 97q-1 63 -1 117v893q0 85 -32 117t-138 46v48h543v-48q-106 -14 -137 -46t-31 -117zM451 1223v-1014q1 -86 31 -118t136 -46v-45h-542v45q106 14 138 46t32 118
v1014q0 85 -32 117t-138 46v48h542v-48q-106 -14 -136 -46t-31 -117z" />
    <glyph glyph-name="ij" unicode="&#x133;" horiz-adv-x="1185" 
d="M801 1375q0 57 41 99t98 42t98 -42t41 -100t-41 -98q-41 -41 -98 -41t-98 41t-41 99zM1042 1044v-952q0 -254 -124 -450t-244 -195q-100 0 -117 76q-12 57 22 83q35 26 75 13q84 -29 118 -16q35 12 49 27q37 40 31 179q-2 44 -8 126t-6 157v660q0 78 -29 108t-121 45v47
l334 92h20zM188 1375q0 57 41 99t99 42t98 -42q41 -42 41 -100t-41 -98q-41 -41 -98 -41t-99 41q-41 41 -41 99zM430 1044v-835q0 -86 31 -118t137 -46v-45h-543v45q106 14 139 46q32 32 31 118v543q-1 78 -29 108t-120 45v47l334 92h20z" />
    <glyph glyph-name="Jcircumflex" unicode="&#x134;" horiz-adv-x="819" 
d="M573 1223v-670q1 -260 -117 -417t-302 -156q-106 0 -127 71q-17 57 25 89t97 6q160 -76 195 -30q28 36 26 98q-1 62 -1 116v893q0 85 -32 117t-138 46v48h542v-48q-106 -14 -137 -46t-31 -117zM471 1720l-231 -184h-56l256 369h62l256 -369h-58z" />
    <glyph glyph-name="jcircumflex" unicode="&#x135;" horiz-adv-x="571" 
d="M326 1311l-232 -185h-55l256 369h61l256 -369h-57zM428 1044v-952q0 -254 -124 -450t-245 -195q-98 0 -114 76q-11 57 21 83t73 13q85 -29 119 -16q35 12 49 27q46 49 25 264q-9 123 -9 198v660q-1 78 -29 108t-120 45v47l334 92h20z" />
    <glyph glyph-name="Kcommaaccent" unicode="&#x136;" horiz-adv-x="1503" 
d="M848 1434h522v-48q-205 -29 -305 -157l-352 -445l448 -534q147 -172 291 -205v-45h-610v45q190 27 53 195l-297 358q-45 54 -71 68t-76 14v-471q1 -86 31 -118t136 -46v-45h-542v45q106 14 138 46t32 118v1014q0 85 -32 117t-138 46v48h542v-48q-106 -14 -137 -46
t-30 -117v-465q82 0 126 22t91 80l250 311q53 69 55 131q0 70 -125 84v48zM709 -80q94 0 132 -64t38 -147q0 -133 -83 -237t-182 -140l-26 47q123 57 164 166q33 84 -15 111q-12 6 -28 6q-53 0 -91 38q-36 38 -36 91t38 91t89 38z" />
    <glyph glyph-name="kcommaaccent" unicode="&#x137;" 
d="M608 -94q94 0 132 -65t38 -146q0 -133 -83 -237t-181 -140l-27 47q123 57 164 166q33 84 -14 111q-12 6 -29 6q-53 0 -90 38t-37 91t38 91t89 38zM430 496v-287q0 -86 31 -118t137 -46v-45h-543v45q106 14 139 46q32 32 31 118v1075q0 78 -28 109q-29 31 -121 45v47
l334 92h20v-1004q82 1 124 15t81 57l133 154q129 150 -72 178v47h451v-47q-86 -16 -139 -41t-97 -76l-223 -262l309 -381q59 -74 109 -115t113 -57v-45h-471v45q45 5 59 21q30 33 -59 141l-175 217q-39 44 -67 58t-76 14z" />
    <glyph glyph-name="kgreenlandic" unicode="&#x138;" 
d="M430 496v-287q0 -86 31 -118t137 -46v-45h-543v45q106 14 139 46q32 32 31 118v543q-1 78 -29 108t-120 45v47l334 92h20v-471q82 1 124 15t81 57l133 154q129 150 -72 178v47h451v-47q-86 -16 -139 -41t-97 -76l-223 -262l309 -381q59 -74 109 -115t113 -57v-45h-471v45
q45 5 59 21q30 33 -59 141l-175 217q-39 44 -67 58t-76 14z" />
    <glyph glyph-name="Lacute" unicode="&#x139;" horiz-adv-x="1187" 
d="M451 76h378q109 0 181 66t86 190h55l-21 -332h-1054v45q106 14 138 46t32 118v1014q0 85 -32 117t-138 46v48h542v-48q-106 -14 -137 -46t-30 -117v-1147zM322 1559l196 305q25 37 72 42t80 -51t-33 -106l-289 -213z" />
    <glyph glyph-name="lacute" unicode="&#x13a;" horiz-adv-x="614" 
d="M430 1577v-1368q0 -86 31 -118t137 -46v-45h-543v45q106 14 139 46q32 32 31 118v1075q0 78 -28 109q-29 31 -121 45v47l334 92h20zM270 1681l197 306q25 37 71 42t80 -51q33 -56 -32 -106l-289 -213z" />
    <glyph glyph-name="Lcommaaccent" unicode="&#x13b;" horiz-adv-x="1187" 
d="M451 76h378q109 0 181 66t86 190h55l-21 -332h-1054v45q106 14 138 46t32 118v1014q0 85 -32 117t-138 46v48h542v-48q-106 -14 -137 -46t-30 -117v-1147zM614 -78q94 0 132 -64t38 -147q0 -133 -83 -237t-181 -140l-26 48q123 57 163 165q33 84 -14 111q-12 6 -29 6
q-53 0 -90 38t-37 91t38 91t89 38z" />
    <glyph glyph-name="lcommaaccent" unicode="&#x13c;" horiz-adv-x="614" 
d="M305 -94q94 0 132 -65t38 -146q0 -133 -83 -237t-181 -140l-27 47q123 57 164 166q33 84 -14 111q-12 6 -29 6q-53 0 -90 38t-37 91t38 91t89 38zM430 1577v-1368q0 -86 31 -118t137 -46v-45h-543v45q106 14 139 46q32 32 31 118v1075q0 78 -28 109q-29 31 -121 45v47
l334 92h20z" />
    <glyph glyph-name="Lcaron" unicode="&#x13d;" horiz-adv-x="1187" 
d="M451 76h378q109 0 181 66t86 190h55l-21 -332h-1054v45q106 14 138 46t32 118v1014q0 85 -32 117t-138 46v48h542v-48q-106 -14 -137 -46t-30 -117v-1147zM868 1464q94 0 132 -64t38 -147q0 -133 -83 -237t-181 -139l-26 47q123 57 163 166q33 84 -14 110q-12 6 -29 6
q-53 0 -90 38t-37 91t38 91t89 38z" />
    <glyph glyph-name="lcaron" unicode="&#x13e;" horiz-adv-x="614" 
d="M694 1585q94 -1 132 -65t38 -146q0 -133 -83 -237t-181 -140l-27 47q123 57 164 166q33 84 -14 111q-12 6 -29 6q-53 0 -90 38t-37 91t38 91t89 38zM430 1577v-1368q0 -86 31 -118t137 -46v-45h-543v45q106 14 139 46q32 32 31 118v1075q0 78 -28 109q-29 31 -121 45v47
l334 92h20z" />
    <glyph glyph-name="Ldot" unicode="&#x13f;" horiz-adv-x="1187" 
d="M451 76h378q109 0 181 66t86 190h55l-21 -332h-1054v45q106 14 138 46t32 118v1014q0 85 -32 117t-138 46v48h542v-48q-106 -14 -137 -46t-30 -117v-1147zM752 631q-49 -1 -82 31t-33 82t33 82t81 32q49 0 81 -32t32 -82t-32 -82t-80 -31z" />
    <glyph glyph-name="ldot" unicode="&#x140;" horiz-adv-x="749" 
d="M526 734q0 50 33 82t81 32t81 -33t33 -82t-32 -81t-81 -32t-82 32t-33 82zM430 1577v-1368q0 -86 31 -118t137 -46v-45h-543v45q106 14 139 46q32 32 31 118v1075q0 78 -28 109q-29 31 -121 45v47l334 92h20z" />
    <glyph glyph-name="Lslash" unicode="&#x141;" horiz-adv-x="1187" 
d="M76 760h170v463q0 85 -32 117t-138 46v48h542v-48q-106 -14 -137 -46t-30 -117v-463h229v-78h-229v-606h378q109 0 181 66t86 190h55l-21 -332h-1054v45q106 14 138 46t32 118v473h-170v78z" />
    <glyph glyph-name="lslash" unicode="&#x142;" horiz-adv-x="614" 
d="M578 682h-148v-473q0 -86 31 -118t137 -46v-45h-543v45q106 14 139 46q32 32 31 118v473h-149v78h149v524q0 78 -28 109q-29 31 -121 45v47l334 92h20v-817h148v-78z" />
    <glyph glyph-name="Nacute" unicode="&#x143;" horiz-adv-x="1495" 
d="M1167 1223q-1 89 -33 119t-151 44v48h455v-48q-115 -14 -149 -46t-34 -117v-1223h-125l-782 1243v-1034q0 -88 33 -119t151 -45v-45h-456v45q114 14 148 46t34 118v1014q0 85 -34 117t-148 46v48h420l671 -1082v871zM725 1559l197 305q26 37 72 42t79 -51t-33 -106
l-288 -213z" />
    <glyph glyph-name="nacute" unicode="&#x144;" horiz-adv-x="1269" 
d="M55 0v45q106 14 139 46q32 32 31 118v543q-1 78 -29 108t-120 45v47l344 92h16l-6 -215h4q193 215 389 215q115 0 189 -74t73 -233v-528q0 -86 31 -118t137 -46v-45h-501v45q90 23 109 49t20 115v522q0 82 -39 126t-114 44t-137 -31t-161 -108v-553q0 -86 31 -118
t137 -46v-45h-543zM612 1149l197 305q25 37 71 42t80 -51q33 -56 -32 -106l-289 -213z" />
    <glyph glyph-name="Ncommaaccent" unicode="&#x145;" horiz-adv-x="1495" 
d="M1167 1223q-1 89 -33 119t-151 44v48h455v-48q-115 -14 -149 -46t-34 -117v-1223h-125l-782 1243v-1034q0 -88 33 -119t151 -45v-45h-456v45q114 14 148 46t34 118v1014q0 85 -34 117t-148 46v48h420l671 -1082v871zM713 -94q94 0 132 -65t38 -146q0 -133 -83 -237
t-182 -140l-26 47q123 57 164 166q33 84 -15 111q-12 6 -28 6q-53 0 -90 38t-37 91t38 91t89 38z" />
    <glyph glyph-name="ncommaaccent" unicode="&#x146;" horiz-adv-x="1269" 
d="M645 -94q94 0 132 -65t38 -146q0 -133 -83 -237t-181 -140l-27 47q123 57 164 166q33 84 -14 111q-12 6 -29 6q-53 0 -90 38t-37 91t38 91t89 38zM55 0v45q106 14 139 46q32 32 31 118v543q-1 78 -29 108t-120 45v47l344 92h16l-6 -215h4q193 215 389 215q115 0 189 -74
t73 -233v-528q0 -86 31 -118t137 -46v-45h-501v45q90 23 109 49t20 115v522q0 82 -39 126t-114 44t-137 -31t-161 -108v-553q0 -86 31 -118t137 -46v-45h-543z" />
    <glyph glyph-name="Ncaron" unicode="&#x147;" horiz-adv-x="1495" 
d="M1167 1223q-1 89 -33 119t-151 44v48h455v-48q-115 -14 -149 -46t-34 -117v-1223h-125l-782 1243v-1034q0 -88 33 -119t151 -45v-45h-456v45q114 14 148 46t34 118v1014q0 85 -34 117t-148 46v48h420l671 -1082v871zM782 1720l230 185h57l-256 -369h-61l-256 369h55z" />
    <glyph glyph-name="ncaron" unicode="&#x148;" horiz-adv-x="1269" 
d="M55 0v45q106 14 139 46q32 32 31 118v543q-1 78 -29 108t-120 45v47l344 92h16l-6 -215h4q193 215 389 215q115 0 189 -74t73 -233v-528q0 -86 31 -118t137 -46v-45h-501v45q90 23 109 49t20 115v522q0 82 -39 126t-114 44t-137 -31t-161 -108v-553q0 -86 31 -118
t137 -46v-45h-543zM664 1311l229 184h57l-256 -369h-61l-256 369h55z" />
    <glyph glyph-name="napostrophe" unicode="&#x149;" horiz-adv-x="1269" 
d="M311 1729q94 0 132 -65t38 -146q0 -134 -83 -238t-181 -139l-27 47q123 57 164 166q33 84 -14 110q-12 6 -29 6q-53 0 -90 38t-37 92t38 91q38 38 89 38zM55 0v45q106 14 139 46q32 32 31 118v543q-1 78 -29 108t-120 45v47l344 92h16l-6 -215h4q193 215 389 215
q115 0 189 -74t73 -233v-528q0 -86 31 -118t137 -46v-45h-501v45q90 23 109 49t20 115v522q0 82 -39 126t-114 44t-137 -31t-161 -108v-553q0 -86 31 -118t137 -46v-45h-543z" />
    <glyph glyph-name="Eng" unicode="&#x14a;" horiz-adv-x="1495" 
d="M348 209q0 -88 33 -119t151 -45v-45h-456v45q114 14 148 46t34 118v1014q0 85 -34 117t-148 46v48h420l671 -1082v871q-1 89 -33 119t-151 44v48h455v-48q-115 -14 -149 -46t-34 -117v-1223q0 -264 -112 -409q-113 -144 -307 -144q-72 0 -112 42t-5 99q35 56 115 24
q136 -56 234 -1q67 35 90 161q9 48 9 105v80l-819 1286v-1034z" />
    <glyph glyph-name="eng" unicode="&#x14b;" 
d="M881 92v639q0 76 -38 123t-114 47t-138 -31t-161 -108v-553q0 -86 31 -118t137 -46v-45h-543v45q106 14 139 46q32 32 31 118v543q-1 78 -29 108t-120 45v47l344 92h16l-6 -215h4q193 215 389 215q115 0 189 -74t73 -233v-645q1 -254 -123 -450t-245 -195q-100 0 -117 76
q-12 57 22 83t74 13q84 -29 119 -16q35 12 49 27q37 40 31 179q-2 44 -8 126t-6 157z" />
    <glyph glyph-name="Omacron" unicode="&#x14c;" horiz-adv-x="1597" 
d="M317 717q-1 -291 135 -475t346 -184t346 184t136 475t-135 474t-346 183t-347 -183t-135 -474zM92 717q0 317 207 527t500 210t499 -210t207 -527q0 -317 -207 -527q-208 -210 -500 -210t-499 210t-207 527zM489 1714h646v-82h-646v82z" />
    <glyph glyph-name="omacron" unicode="&#x14d;" horiz-adv-x="1150" 
d="M299 512q0 -227 72 -344q73 -117 205 -117t204 117t72 344t-72 344t-205 117t-205 -117t-71 -344zM927 134q-147 -154 -363 -154t-355 154t-135 377q4 224 148 379q144 154 360 154t358 -154q141 -154 137 -378q-4 -223 -150 -378zM285 1305h645v-82h-645v82z" />
    <glyph glyph-name="Obreve" unicode="&#x14e;" horiz-adv-x="1597" 
d="M317 717q-1 -291 135 -475t346 -184t346 184t136 475t-135 474t-346 183t-347 -183t-135 -474zM92 717q0 317 207 527t500 210t499 -210t207 -527q0 -317 -207 -527q-208 -210 -500 -210t-499 210t-207 527zM827 1577q-129 0 -195 92t-67 217h53q16 -76 76 -118t133 -42
q74 0 134 42q59 42 75 118h51q1 -125 -65 -217t-195 -92z" />
    <glyph glyph-name="obreve" unicode="&#x14f;" horiz-adv-x="1150" 
d="M299 512q0 -227 72 -344q73 -117 205 -117t204 117t72 344t-72 344t-205 117t-205 -117t-71 -344zM927 134q-147 -154 -363 -154t-355 154t-135 377q4 224 148 379q144 154 360 154t358 -154q141 -154 137 -378q-4 -223 -150 -378zM588 1167q-129 1 -196 93t-66 217h53
q15 -76 75 -118t134 -42t133 42t76 118h51q0 -125 -66 -217t-194 -93z" />
    <glyph glyph-name="Ohungarumlaut" unicode="&#x150;" horiz-adv-x="1597" 
d="M317 717q-1 -291 135 -475t346 -184t346 184t136 475t-135 474t-346 183t-347 -183t-135 -474zM92 717q0 317 207 527t500 210t499 -210t207 -527q0 -317 -207 -527q-208 -210 -500 -210t-499 210t-207 527zM958 1536l-34 14l90 357q10 37 39 53q51 25 102 -14
q55 -47 10 -113zM631 1536l-35 14l90 357q10 37 39 53q51 25 102 -14q55 -47 11 -113z" />
    <glyph glyph-name="ohungarumlaut" unicode="&#x151;" horiz-adv-x="1150" 
d="M299 512q0 -227 72 -344q73 -117 205 -117t204 117t72 344t-72 344t-205 117t-205 -117t-71 -344zM927 134q-147 -154 -363 -154t-355 154t-135 377q4 224 148 379q144 154 360 154t358 -154q141 -154 137 -378q-4 -223 -150 -378zM705 1141l90 356q10 37 39 53
q51 25 102 -14q55 -47 10 -113l-207 -297zM377 1141l90 356q10 37 39 53q51 25 102 -14q55 -47 10 -113l-206 -297z" />
    <glyph glyph-name="OE" unicode="&#x152;" horiz-adv-x="1986" 
d="M317 717q-1 -291 135 -475t349 -184t213 243v825q0 113 -52 181t-163 67q-211 0 -347 -183t-135 -474zM1219 1356v-596h174q102 0 155 45t66 162h55v-492h-55q-12 117 -66 162t-155 45h-174v-606h368q109 0 181 66t85 190h56l-21 -332h-884q-72 -20 -205 -20
q-293 0 -500 210t-207 526q0 318 207 528t500 210q133 0 205 -20h864l10 -334h-55q-14 124 -81 190t-175 66h-348z" />
    <glyph glyph-name="oe" unicode="&#x153;" horiz-adv-x="1769" 
d="M1319 973q-217 0 -264 -293h428q37 145 -15 219t-149 74zM299 512q0 -461 261 -461t261 461t-261 461t-261 -461zM1309 -20q-252 0 -379 190q-136 -190 -366 -190t-362 154t-128 378q4 225 141 379q137 153 365 153t362 -192q68 92 171 142t201 50t167 -22
q70 -22 126 -72q56 -49 79 -140t0 -212h-637q-9 -213 77 -337t254 -124t318 84v-82q-117 -95 -205 -127t-184 -32z" />
    <glyph glyph-name="Racute" unicode="&#x154;" horiz-adv-x="1372" 
d="M451 707h143q196 0 272 86t76 232q0 147 -71 239t-236 92h-184v-649zM1157 1051q0 -311 -342 -398l301 -422q102 -145 219 -186v-45h-297q-76 57 -164 195l-284 434h-139v-420q1 -86 31 -118t136 -46v-45h-542v45q106 14 138 46t32 118v1014q0 85 -32 117t-138 46v48h610
q225 0 348 -104t123 -279zM588 1559l196 305q25 37 72 42t80 -51t-33 -106l-289 -213z" />
    <glyph glyph-name="racute" unicode="&#x155;" horiz-adv-x="890" 
d="M430 209q0 -86 31 -118t137 -46v-45h-543v45q106 14 139 46q32 32 31 118v543q-1 78 -29 108t-120 45v47l344 92h16l-6 -235h4q150 236 307 235q68 0 103 -51t1 -118t-97 -41q-168 68 -318 -93v-532zM473 1149l197 305q26 37 72 42t79 -51t-33 -106l-288 -213z" />
    <glyph glyph-name="Rcommaaccent" unicode="&#x156;" horiz-adv-x="1372" 
d="M451 707h143q196 0 272 86t76 232q0 147 -71 239t-236 92h-184v-649zM1157 1051q0 -311 -342 -398l301 -422q102 -145 219 -186v-45h-297q-76 57 -164 195l-284 434h-139v-420q1 -86 31 -118t136 -46v-45h-542v45q106 14 138 46t32 118v1014q0 85 -32 117t-138 46v48h610
q225 0 348 -104t123 -279zM711 -82q94 0 132 -64t38 -147q0 -133 -83 -237t-182 -140l-26 47q123 57 164 166q33 84 -15 111q-12 6 -28 6q-53 0 -90 38t-37 91t38 91t89 38z" />
    <glyph glyph-name="rcommaaccent" unicode="&#x157;" horiz-adv-x="890" 
d="M305 -94q94 0 132 -65t38 -146q0 -133 -83 -237t-181 -140l-27 47q123 57 164 166q33 84 -14 111q-12 6 -29 6q-53 0 -90 38t-37 91t38 91t89 38zM430 209q0 -86 31 -118t137 -46v-45h-543v45q106 14 139 46q32 32 31 118v543q-1 78 -29 108t-120 45v47l344 92h16
l-6 -235h4q150 236 307 235q68 0 103 -51t1 -118t-97 -41q-168 68 -318 -93v-532z" />
    <glyph glyph-name="Rcaron" unicode="&#x158;" horiz-adv-x="1372" 
d="M451 707h143q196 0 272 86t76 232q0 147 -71 239t-236 92h-184v-649zM1157 1051q0 -311 -342 -398l301 -422q102 -145 219 -186v-45h-297q-76 57 -164 195l-284 434h-139v-420q1 -86 31 -118t136 -46v-45h-542v45q106 14 138 46t32 118v1014q0 85 -32 117t-138 46v48h610
q225 0 348 -104t123 -279zM645 1720l229 185h58l-256 -369h-62l-256 369h56z" />
    <glyph glyph-name="rcaron" unicode="&#x159;" horiz-adv-x="890" 
d="M430 209q0 -86 31 -118t137 -46v-45h-543v45q106 14 139 46q32 32 31 118v543q-1 78 -29 108t-120 45v47l344 92h16l-6 -235h4q150 236 307 235q68 0 103 -51t1 -118t-97 -41q-168 68 -318 -93v-532zM475 1311l230 184h57l-256 -369h-62l-256 369h56z" />
    <glyph glyph-name="Sacute" unicode="&#x15a;" horiz-adv-x="1095" 
d="M1004 399q0 -193 -132 -307t-351 -112q-220 0 -408 102l-21 362h55q37 -383 375 -383q127 0 199 74t72 199q0 162 -197 267q-47 26 -115 54q-178 76 -276 173q-99 97 -99 256q0 158 122 264t330 106t378 -92l20 -344h-55q-59 354 -332 354q-115 0 -181 -56t-66 -169
q0 -188 268 -297q414 -166 414 -451zM510 1559l197 305q25 37 71 42t80 -51q33 -56 -33 -106l-288 -213z" />
    <glyph glyph-name="sacute" unicode="&#x15b;" horiz-adv-x="880" 
d="M445 973q-83 0 -134 -40q-51 -39 -51 -97t16 -91q30 -62 195 -120q160 -61 244 -135t84 -206q0 -134 -110 -219q-111 -85 -275 -85t-308 71l-20 277h57q26 -218 192 -266q38 -11 79 -11q82 0 133 49t51 127t-56 123t-187 99t-202 123t-71 192t96 202q96 78 258 78
t295 -63l21 -264h-56q-24 121 -96 189t-155 67zM365 1149l196 305q25 37 72 42t80 -51t-33 -106l-289 -213z" />
    <glyph glyph-name="Scircumflex" unicode="&#x15c;" horiz-adv-x="1095" 
d="M1004 399q0 -193 -132 -307t-351 -112q-220 0 -408 102l-21 362h55q37 -383 375 -383q127 0 199 74t72 199q0 162 -197 267q-47 26 -115 54q-178 76 -276 173q-99 97 -99 256q0 158 122 264t330 106t378 -92l20 -344h-55q-59 354 -332 354q-115 0 -181 -56t-66 -169
q0 -188 268 -297q414 -166 414 -451zM557 1720l-231 -184h-56l256 369h62l256 -369h-58z" />
    <glyph glyph-name="scircumflex" unicode="&#x15d;" horiz-adv-x="880" 
d="M445 973q-83 0 -134 -40q-51 -39 -51 -97t16 -91q30 -62 195 -120q160 -61 244 -135t84 -206q0 -134 -110 -219q-111 -85 -275 -85t-308 71l-20 277h57q26 -218 192 -266q38 -11 79 -11q82 0 133 49t51 127t-56 123t-187 99t-202 123t-71 192t96 202q96 78 258 78
t295 -63l21 -264h-56q-24 121 -96 189t-155 67zM430 1311l-231 -185h-56l256 369h62l256 -369h-58z" />
    <glyph glyph-name="Scedilla" unicode="&#x15e;" horiz-adv-x="1095" 
d="M569 1372q-115 0 -181 -56t-66 -169q0 -188 268 -297q414 -166 414 -451q0 -188 -125 -301t-326 -116v-64q0 -37 105 -56q40 -7 73 -41t33 -95q-2 -90 -108 -155t-232 -83l-21 61l43 13q122 36 149 85q13 25 13 57q0 59 -62 84q-62 26 -61 110l4 84q-209 10 -376 100
l-21 362h55q37 -383 375 -383q127 0 199 74t72 199q0 162 -197 267q-47 26 -115 54q-178 76 -276 173q-99 97 -99 256q0 158 122 264t330 106t378 -92l20 -344h-55q-59 354 -332 354z" />
    <glyph glyph-name="scedilla" unicode="&#x15f;" horiz-adv-x="880" 
d="M445 973q-83 0 -134 -40q-51 -39 -51 -97t16 -91q30 -62 195 -120q160 -61 244 -135t84 -206q-1 -132 -107 -216t-262 -88v-62q0 -37 106 -56q40 -7 72 -41t33 -95q-3 -90 -109 -155t-231 -83l-20 61l43 13q121 35 148 85q13 25 13 57q0 59 -62 84q-62 26 -61 110l5 86
q-152 14 -261 67l-20 277h57q26 -218 192 -266q38 -11 79 -11q82 0 133 49t51 127t-56 123t-187 99t-202 123t-71 192t96 202q96 78 258 78t295 -63l21 -264h-56q-24 121 -96 189t-155 67z" />
    <glyph glyph-name="Scaron" unicode="&#x160;" horiz-adv-x="1095" 
d="M1004 399q0 -193 -132 -307t-351 -112q-220 0 -408 102l-21 362h55q37 -383 375 -383q127 0 199 74t72 199q0 162 -197 267q-47 26 -115 54q-178 76 -276 173q-99 97 -99 256q0 158 122 264t330 106t378 -92l20 -344h-55q-59 354 -332 354q-115 0 -181 -56t-66 -169
q0 -188 268 -297q414 -166 414 -451zM567 1720l230 185h57l-256 -369h-61l-256 369h55z" />
    <glyph glyph-name="scaron" unicode="&#x161;" horiz-adv-x="880" 
d="M445 973q-83 0 -134 -40q-51 -39 -51 -97t16 -91q30 -62 195 -120q160 -61 244 -135t84 -206q0 -134 -110 -219q-111 -85 -275 -85t-308 71l-20 277h57q26 -218 192 -266q38 -11 79 -11q82 0 133 49t51 127t-56 123t-187 99t-202 123t-71 192t96 202q96 78 258 78
t295 -63l21 -264h-56q-24 121 -96 189t-155 67zM416 1311l229 184h57l-256 -369h-61l-256 369h55z" />
    <glyph glyph-name="Tcommaaccent" unicode="&#x162;" 
d="M860 1356h-143v-1147q0 -86 31 -118t137 -46v-45h-543v45q106 14 138 46t32 118v1147h-143q-109 0 -175 -66t-81 -190h-58l11 334h1095l10 -334h-55q-14 124 -81 190t-175 66zM590 -94q94 0 132 -65t38 -146q0 -133 -83 -237t-181 -140l-27 47q123 57 164 166
q33 84 -15 111q-12 6 -28 6q-53 0 -90 38t-37 91t38 91t89 38z" />
    <glyph glyph-name="tcommaaccent" unicode="&#x163;" horiz-adv-x="778" 
d="M348 -94q94 0 132 -65t38 -146q0 -133 -83 -237t-181 -140l-27 47q123 57 164 166q33 84 -14 111q-12 6 -29 6q-53 0 -90 38t-37 91t38 91t89 38zM389 942v-709q0 -77 40 -101q41 -24 103 -24t205 29v-35q-154 -123 -327 -122q-225 0 -226 245v717h-129v72l129 30
l154 287h51v-307h291v-82h-291z" />
    <glyph glyph-name="Tcaron" unicode="&#x164;" 
d="M860 1356h-143v-1147q0 -86 31 -118t137 -46v-45h-543v45q106 14 138 46t32 118v1147h-143q-109 0 -175 -66t-81 -190h-58l11 334h1095l10 -334h-55q-14 124 -81 190t-175 66zM612 1720l230 185h57l-256 -369h-61l-256 369h55z" />
    <glyph glyph-name="tcaron" unicode="&#x165;" horiz-adv-x="778" 
d="M643 1708q94 0 132 -64t38 -147q0 -133 -83 -237t-181 -140l-27 47q123 57 164 166q33 84 -14 111q-12 6 -29 6q-53 0 -90 38t-37 91t38 91t89 38zM389 942v-709q0 -77 40 -101q41 -24 103 -24t205 29v-35q-154 -123 -327 -122q-225 0 -226 245v717h-129v72l129 30
l154 287h51v-307h291v-82h-291z" />
    <glyph glyph-name="Tbar" unicode="&#x166;" 
d="M946 760v-78h-229v-473q0 -86 31 -118t137 -46v-45h-543v45q106 14 138 46t32 118v473h-231v78h231v596h-143q-109 0 -175 -66t-81 -190h-58l11 334h1095l10 -334h-55q-14 124 -81 190t-175 66h-143v-596h229z" />
    <glyph glyph-name="tbar" unicode="&#x167;" horiz-adv-x="778" 
d="M55 688h129v254h-129v72l129 30l154 287h51v-307h291v-82h-291v-254h189v-78h-189v-350q0 -92 39 -122q78 -60 309 -1v-35q-154 -123 -327 -122q-225 0 -226 245v385h-129v78z" />
    <glyph glyph-name="Utilde" unicode="&#x168;" horiz-adv-x="1556" 
d="M1225 573v650q0 85 -33 117t-154 46v48h461v-48q-117 -14 -151 -46t-33 -117v-670q-1 -272 -147 -423q-146 -150 -409 -150t-399 150q-135 151 -135 423v670q1 85 -31 117t-139 46v48h543v-48q-106 -14 -137 -46t-31 -117v-650q0 -502 383 -501q205 0 309 130t103 371z
M682 1833q41 0 165 -41t172 -41t80 15t64 61l41 -25q-106 -215 -205 -215q-49 0 -170 41t-169 41q-48 1 -80 -21q-31 -22 -72 -77l-41 26q115 236 215 236z" />
    <glyph glyph-name="utilde" unicode="&#x169;" 
d="M819 823q0 80 -31 110t-139 44v47h375v-743q0 -96 42 -126t146 -18v-55l-372 -102h-21v215h-4q-184 -215 -371 -215q-112 0 -186 74t-74 233v536q0 80 -27 110q-28 30 -122 44v47h354v-733q0 -76 37 -122t108 -46q71 1 130 29t155 108v563zM763 1341q48 -1 80 15t64 61
l41 -24q-51 -95 -80 -136q-56 -79 -125 -79q-47 0 -169 41t-170 41t-80 -22q-31 -22 -72 -77l-41 27q115 236 215 235q41 0 165 -41t172 -41z" />
    <glyph glyph-name="Umacron" unicode="&#x16a;" horiz-adv-x="1556" 
d="M1225 573v650q0 85 -33 117t-154 46v48h461v-48q-117 -14 -151 -46t-33 -117v-670q-1 -272 -147 -423q-146 -150 -409 -150t-399 150q-135 151 -135 423v670q1 85 -31 117t-139 46v48h543v-48q-106 -14 -137 -46t-31 -117v-650q0 -502 383 -501q205 0 309 130t103 371z
M494 1714h645v-82h-645v82z" />
    <glyph glyph-name="umacron" unicode="&#x16b;" 
d="M819 823q0 80 -31 110t-139 44v47h375v-743q0 -96 42 -126t146 -18v-55l-372 -102h-21v215h-4q-184 -215 -371 -215q-112 0 -186 74t-74 233v536q0 80 -27 110q-28 30 -122 44v47h354v-733q0 -76 37 -122t108 -46q71 1 130 29t155 108v563zM281 1305h645v-82h-645v82z
" />
    <glyph glyph-name="Ubreve" unicode="&#x16c;" horiz-adv-x="1556" 
d="M1225 573v650q0 85 -33 117t-154 46v48h461v-48q-117 -14 -151 -46t-33 -117v-670q-1 -272 -147 -423q-146 -150 -409 -150t-399 150q-135 151 -135 423v670q1 85 -31 117t-139 46v48h543v-48q-106 -14 -137 -46t-31 -117v-650q0 -502 383 -501q205 0 309 130t103 371z
M791 1577q-129 0 -196 92t-67 217h54q16 -76 75 -118t133 -42t134 42q59 42 75 118h52q1 -125 -65 -217t-195 -92z" />
    <glyph glyph-name="ubreve" unicode="&#x16d;" 
d="M819 823q0 80 -31 110t-139 44v47h375v-743q0 -96 42 -126t146 -18v-55l-372 -102h-21v215h-4q-184 -215 -371 -215q-112 0 -186 74t-74 233v536q0 80 -27 110q-28 30 -122 44v47h354v-733q0 -76 37 -122t108 -46q71 1 130 29t155 108v563zM590 1167q-129 1 -196 93
t-66 217h53q15 -76 75 -118t134 -42t133 42t76 118h51q0 -125 -66 -217t-194 -93z" />
    <glyph glyph-name="Uring" unicode="&#x16e;" horiz-adv-x="1556" 
d="M1225 573v650q0 85 -33 117t-154 46v48h461v-48q-117 -14 -151 -46t-33 -117v-670q-1 -272 -147 -423q-146 -150 -409 -150t-399 150q-135 151 -135 423v670q1 85 -31 117t-139 46v48h543v-48q-106 -14 -137 -46t-31 -117v-650q0 -502 383 -501q205 0 309 130t103 371z
M707 1714q-1 -49 33 -83t83 -34t83 34t34 83t-34 83t-83 34t-83 -34t-33 -83zM639 1714q0 78 53 131t131 53t131 -54q54 -54 54 -131t-54 -130t-131 -53q-78 0 -131 53t-53 131z" />
    <glyph glyph-name="uring" unicode="&#x16f;" 
d="M819 823q0 80 -31 110t-139 44v47h375v-743q0 -96 42 -126t146 -18v-55l-372 -102h-21v215h-4q-184 -215 -371 -215q-112 0 -186 74t-74 233v536q0 80 -27 110q-28 30 -122 44v47h354v-733q0 -76 37 -122t108 -46q71 1 130 29t155 108v563zM477 1305q0 -49 34 -83t83 -34
t83 34t34 83t-34 83t-83 34t-83 -34t-34 -83zM410 1305q0 78 53 131t130 53t131 -54t54 -131t-53 -130q-53 -54 -131 -54t-131 54t-53 131z" />
    <glyph glyph-name="Uhungarumlaut" unicode="&#x170;" horiz-adv-x="1556" 
d="M1225 573v650q0 85 -33 117t-154 46v48h461v-48q-117 -14 -151 -46t-33 -117v-670q-1 -272 -147 -423q-146 -150 -409 -150t-399 150q-135 151 -135 423v670q1 85 -31 117t-139 46v48h543v-48q-106 -14 -137 -46t-31 -117v-650q0 -502 383 -501q205 0 309 130t103 371z
M967 1536l-35 14l90 357q10 37 39 53q51 25 102 -14q55 -47 11 -113zM639 1536l-35 14l90 357q10 37 39 53q51 25 103 -14q55 -47 10 -113z" />
    <glyph glyph-name="uhungarumlaut" unicode="&#x171;" 
d="M819 823q0 80 -31 110t-139 44v47h375v-743q0 -96 42 -126t146 -18v-55l-372 -102h-21v215h-4q-184 -215 -371 -215q-112 0 -186 74t-74 233v536q0 80 -27 110q-28 30 -122 44v47h354v-733q0 -76 37 -122t108 -46q71 1 130 29t155 108v563zM680 1141l90 356q10 37 39 53
q51 25 102 -14q55 -47 11 -113l-207 -297zM352 1141l90 356q10 37 39 53q51 25 103 -14q55 -47 10 -113l-207 -297z" />
    <glyph glyph-name="Uogonek" unicode="&#x172;" horiz-adv-x="1556" 
d="M752 -465q-51 0 -94 27q-82 53 -71 177q5 56 46 121t112 120q-262 6 -391 156t-129 417v670q1 85 -31 117t-139 46v48h543v-48q-106 -14 -137 -46t-31 -117v-650q0 -502 383 -501q205 0 308 130t104 371v650q0 85 -33 117t-154 46v48h461v-48q-117 -14 -151 -46t-33 -117
v-670q0 -261 -134 -409t-368 -162q-76 -80 -94 -176t37 -146q55 -49 170 -2v-41q-29 -35 -76 -59t-98 -23z" />
    <glyph glyph-name="uogonek" unicode="&#x173;" 
d="M819 195h-4q-184 -215 -371 -215q-112 0 -186 74t-74 233v536q0 80 -27 110q-28 30 -122 44v47h354v-733q0 -76 37 -122t108 -46t130 29t155 108v563q0 80 -31 110t-139 44v47h375v-743q0 -96 42 -126t146 -18v-55l-325 -96q-107 -98 -115 -218t74 -143q53 -16 133 17
v-41q-29 -35 -77 -59q-105 -52 -191 5t-71 186q7 58 54 124t125 123v215z" />
    <glyph glyph-name="Wcircumflex" unicode="&#x174;" horiz-adv-x="2068" 
d="M768 1434h547v-48q-106 -14 -132 -59t3 -125l274 -954h4l265 923q33 93 5 147t-143 68v48h461v-48q-110 -16 -148 -38t-57 -84l-379 -1274h-137l-274 874l-332 -874h-119l-426 1274q-16 52 -48 76t-118 46v48h549v-48q-106 -14 -136 -60t1 -124l309 -954h4l277 745
l-82 271q-16 52 -48 76t-120 46v48zM1051 1720l-232 -184h-55l256 369h61l256 -369h-57z" />
    <glyph glyph-name="wcircumflex" unicode="&#x175;" horiz-adv-x="1761" 
d="M670 1024h508v-47q-104 -15 -124 -61t13 -123l180 -570h4l215 570q31 80 -2 125t-139 59v47h420v-47q-76 -16 -109 -40t-57 -83l-326 -823l-67 -41h-64l-231 686l-275 -645l-69 -41h-62l-327 864q-20 53 -48 77t-96 46v47h508v-47q-104 -15 -124 -61t16 -123l198 -570h4
l230 551l-29 80q-18 51 -48 76t-99 47v47zM922 1311l-232 -185h-55l256 369h61l256 -369h-57z" />
    <glyph glyph-name="Ycircumflex" unicode="&#x176;" horiz-adv-x="1310" 
d="M10 1434h502v-48q-102 -14 -114 -63t36 -121l291 -563h4l266 553q78 168 -114 194v48h419v-48q-80 -16 -118 -40t-66 -82l-328 -693v-362q0 -86 31 -118t137 -46v-45h-542v45q106 14 138 46t32 118v272l-426 783q-25 46 -57 72t-91 50v48zM709 1720l-232 -184h-55
l256 369h61l256 -369h-57z" />
    <glyph glyph-name="ycircumflex" unicode="&#x177;" horiz-adv-x="1167" 
d="M14 1024h508v-47q-104 -13 -126 -61t18 -123l239 -570h4l215 570q31 80 -2 125t-139 59v47h420v-47q-76 -16 -109 -40t-57 -83l-346 -874q-107 -268 -253 -394t-273 -139q-96 -8 -119 68q-14 59 24 96q25 20 58 10q323 -95 473 354l-391 879q-25 53 -52 77t-92 46v47z
M633 1311l-232 -185h-55l256 369h62l256 -369h-58z" />
    <glyph glyph-name="Ydieresis" unicode="&#x178;" horiz-adv-x="1310" 
d="M10 1434h502v-48q-102 -14 -114 -63t36 -121l291 -563h4l266 553q78 168 -114 194v48h419v-48q-80 -16 -118 -40t-66 -82l-328 -693v-362q0 -86 31 -118t137 -46v-45h-542v45q106 14 138 46t32 118v272l-426 783q-25 46 -57 72t-91 50v48zM791 1670q0 50 32 82
q33 32 82 32t82 -33t33 -82t-33 -81t-82 -32t-82 32q-32 32 -32 82zM393 1670q0 50 33 82t81 32t81 -32t33 -82t-33 -82t-82 -32t-81 32t-32 82z" />
    <glyph glyph-name="Zacute" unicode="&#x179;" 
d="M829 76q111 0 182 66t85 190h55l-21 -332h-1054v55l798 1301h-440q-110 0 -176 -66t-80 -190h-57l10 334h999v-62l-786 -1296h485zM592 1559l196 305q25 37 72 42t80 -51t-33 -106l-289 -213z" />
    <glyph glyph-name="zacute" unicode="&#x17a;" horiz-adv-x="983" 
d="M690 72q84 0 126 56t58 183h52l-21 -311h-850v86l604 866h-337q-82 0 -120 -56t-55 -185h-51l10 313h789v-88l-606 -864h401zM434 1149l197 305q25 37 71 42t80 -51q33 -56 -32 -106l-289 -213z" />
    <glyph glyph-name="Zdotaccent" unicode="&#x17b;" 
d="M829 76q111 0 182 66t85 190h55l-21 -332h-1054v55l798 1301h-440q-110 0 -176 -66t-80 -190h-57l10 334h999v-62l-786 -1296h485zM528 1694q0 51 36 87t87 36t87 -36t36 -87t-36 -87t-88 -36t-87 36t-35 87z" />
    <glyph glyph-name="zdotaccent" unicode="&#x17c;" horiz-adv-x="983" 
d="M690 72q84 0 126 56t58 183h52l-21 -311h-850v86l604 866h-337q-82 0 -120 -56t-55 -185h-51l10 313h789v-88l-606 -864h401zM385 1284q0 51 36 87t87 36t87 -36t36 -87t-36 -87t-87 -36t-87 36t-36 87z" />
    <glyph glyph-name="Zcaron" unicode="&#x17d;" 
d="M829 76q111 0 182 66t85 190h55l-21 -332h-1054v55l798 1301h-440q-110 0 -176 -66t-80 -190h-57l10 334h999v-62l-786 -1296h485zM639 1720l229 185h58l-256 -369h-62l-256 369h56z" />
    <glyph glyph-name="zcaron" unicode="&#x17e;" horiz-adv-x="983" 
d="M690 72q84 0 126 56t58 183h52l-21 -311h-850v86l604 866h-337q-82 0 -120 -56t-55 -185h-51l10 313h789v-88l-606 -864h401zM524 1311l230 184h57l-256 -369h-61l-256 369h55z" />
    <glyph glyph-name="longs" unicode="&#x17f;" horiz-adv-x="634" 
d="M408 1112l2 -903q0 -86 30 -118t138 -46v-45h-523v45q96 16 123 47t27 117v733h-133v72l133 10q25 221 180 387q156 166 261 166t120 -72q10 -57 -33 -92q-31 -23 -65 -10q-180 59 -228 -21q-35 -55 -32 -270z" />
    <glyph glyph-name="florin" unicode="&#x192;" horiz-adv-x="634" 
d="M172 942v72l133 10q20 114 90 222t156 178t168 111q82 42 133 42q92 0 96 -68q4 -57 -38 -88t-76 -18q-127 48 -181 15q-33 -20 -51 -34t-36 -77t-35 -163t-21 -120h250v-82h-264l-168 -942q-20 -111 -90 -217t-154 -178t-167 -115t-134 -43q-92 0 -96 68q-4 57 38 88
q43 31 89 15q113 -40 163 -14q31 15 56 44q41 46 90 352l170 942h-121z" />
    <glyph glyph-name="AEacute" unicode="&#x1fc;" horiz-adv-x="1802" 
d="M901 760v442h-4l-242 -442h246zM1382 1356h-276v-596h102q102 0 156 45q53 45 66 162h55v-492h-55q-12 117 -66 162t-156 45h-102v-606h297q109 0 181 66t85 190h55l-20 -332h-973v45q106 14 138 46t32 118v473h-287l-225 -422q-55 -92 -41 -146t127 -69v-45h-461v45
q109 16 154 39t80 84l696 1266h739l11 -334h-56q-14 124 -80 190t-176 66zM1008 1559l196 305q25 37 72 42t80 -51t-33 -106l-289 -213z" />
    <glyph glyph-name="aeacute" unicode="&#x1fd;" horiz-adv-x="1517" 
d="M391 115q143 0 289 108q-47 98 -53 217l-238 -53q-135 -31 -115 -158q8 -55 40 -85t77 -29zM1084 973q-100 0 -168 -78q-69 -78 -85 -215h398q35 147 -5 220t-140 73zM1085 -20q-252 0 -374 188q-225 -188 -414 -188q-92 0 -159 72t-66 173q0 180 266 228l283 49l4 205
q3 121 -49 183t-132 62q-144 0 -174 -80q-29 -80 19 -126q49 -46 -20 -92t-126 -31q-23 6 -30 22q-31 66 16 159t164 167t260 73q172 0 240 -129q133 129 305 129t273 -106t63 -340h-607q-6 -215 81 -338t245 -123t293 84v-82q-104 -91 -186 -125t-175 -34zM797 1149
l196 305q25 37 72 42t80 -51t-33 -106l-289 -213z" />
    <glyph glyph-name="Oslashacute" unicode="&#x1fe;" horiz-adv-x="1597" 
d="M1280 717q0 195 -74 358l-772 -809q138 -209 356 -209q218 1 354 185t136 475zM317 717q0 -203 76 -371l774 807q-137 221 -358 221t-357 -183t-135 -474zM92 729q0 305 207 515t491 210t484 -188l119 125l55 -62l-117 -123q174 -206 174 -506t-207 -510t-487 -210
t-481 178l-123 -129l-60 63l123 127q-178 205 -178 510zM766 1559l197 305q25 37 71 42t80 -51q33 -56 -33 -106l-288 -213z" />
    <glyph glyph-name="oslashacute" unicode="&#x1ff;" horiz-adv-x="1150" 
d="M299 512q0 -135 25 -211l475 514q-73 158 -215 158q-286 0 -285 -461zM852 512q0 117 -27 213l-475 -514q70 -160 225 -160q133 0 205 117t72 344zM1010 1044l57 -57l-111 -119q125 -150 121 -364t-150 -370q-146 -154 -348 -154t-335 116l-107 -116l-61 55l112 121
q-122 150 -116 364t150 370q144 155 362 154q184 0 315 -118zM520 1149l197 305q25 37 71 42t80 -51q33 -56 -32 -106l-289 -213z" />
    <glyph glyph-name="Scommaaccent" unicode="&#x218;" horiz-adv-x="1095" 
d="M1004 399q0 -193 -132 -307t-351 -112q-220 0 -408 102l-21 362h55q37 -383 375 -383q127 0 199 74t72 199q0 162 -197 267q-47 26 -115 54q-178 76 -276 173q-99 97 -99 256q0 158 122 264t330 106t378 -92l20 -344h-55q-59 354 -332 354q-115 0 -181 -56t-66 -169
q0 -188 268 -297q414 -166 414 -451zM524 -94q94 0 132 -65t38 -146q0 -133 -83 -237t-181 -140l-27 47q123 57 164 166q33 84 -14 111q-12 6 -29 6q-53 0 -90 38t-37 91t38 91t89 38z" />
    <glyph glyph-name="scommaaccent" unicode="&#x219;" horiz-adv-x="880" 
d="M401 -94q95 0 133 -65t37 -146q0 -133 -83 -237t-181 -140l-26 47q123 57 163 166q33 84 -14 111q-12 6 -29 6q-53 0 -90 38t-37 91t38 91t89 38zM445 973q-83 0 -134 -40q-51 -39 -51 -97t16 -91q30 -62 195 -120q160 -61 244 -135t84 -206q0 -134 -110 -219
q-111 -85 -275 -85t-308 71l-20 277h57q26 -218 192 -266q38 -11 79 -11q82 0 133 49t51 127t-56 123t-187 99t-202 123t-71 192t96 202q96 78 258 78t295 -63l21 -264h-56q-24 121 -96 189t-155 67z" />
    <glyph glyph-name="uni021A" unicode="&#x21a;" 
d="M860 1356h-143v-1147q0 -86 31 -118t137 -46v-45h-543v45q106 14 138 46t32 118v1147h-143q-109 0 -175 -66t-81 -190h-58l11 334h1095l10 -334h-55q-14 124 -81 190t-175 66zM592 -88q94 0 132 -65t38 -146q0 -133 -83 -237t-181 -140l-27 47q123 57 164 166
q33 84 -14 111q-12 6 -29 6q-53 0 -90 38t-37 91t38 91t89 38z" />
    <glyph glyph-name="uni021B" unicode="&#x21b;" horiz-adv-x="778" 
d="M348 -98q94 0 132 -65t38 -146q0 -133 -83 -237t-181 -140l-27 47q123 57 164 166q33 84 -14 111q-12 6 -29 6q-53 0 -90 38t-37 91t38 91t89 38zM389 942v-709q0 -77 40 -101q41 -24 103 -24t205 29v-35q-154 -123 -327 -122q-225 0 -226 245v717h-129v72l129 30
l154 287h51v-307h291v-82h-291z" />
    <glyph glyph-name="circumflex" unicode="&#x2c6;" horiz-adv-x="962" 
d="M481 1311l-231 -185h-55l256 369h61l256 -369h-57z" />
    <glyph glyph-name="caron" unicode="&#x2c7;" horiz-adv-x="962" 
d="M481 1311l230 184h57l-256 -369h-61l-256 369h55z" />
    <glyph glyph-name="uni02C9" unicode="&#x2c9;" horiz-adv-x="1044" 
d="M199 1305h645v-82h-645v82z" />
    <glyph glyph-name="breve" unicode="&#x2d8;" horiz-adv-x="921" 
d="M461 1167q-129 1 -196 93t-66 217h53q16 -76 76 -118t133 -42q74 0 133 42t76 118h51q1 -125 -65 -217t-195 -93z" />
    <glyph glyph-name="dotaccent" unicode="&#x2d9;" horiz-adv-x="643" 
d="M199 1284q0 51 35 87q36 36 88 36t87 -36t35 -87t-36 -87t-86 -36q-51 0 -88 36q-35 36 -35 87z" />
    <glyph glyph-name="ring" unicode="&#x2da;" horiz-adv-x="768" 
d="M266 1305q0 -49 34 -83t83 -34t83 34t34 83t-34 83t-83 34t-83 -34t-34 -83zM199 1305q0 78 53 131t130 53t131 -54t54 -131t-53 -130q-53 -54 -131 -54t-131 54t-53 131z" />
    <glyph glyph-name="ogonek" unicode="&#x2db;" horiz-adv-x="737" 
d="M362 -465q-52 0 -96 29q-84 57 -67 186q8 59 56 126t128 124h61q-109 -100 -114 -227q-8 -109 73 -133q54 -15 134 18v-41q-29 -35 -76 -59t-99 -23z" />
    <glyph glyph-name="tilde" unicode="&#x2dc;" horiz-adv-x="1126" 
d="M746 1341q48 -1 80 15t65 61l41 -24q-51 -95 -80 -136q-56 -79 -125 -79q-47 0 -169 41t-171 41t-79 -22t-72 -77l-41 27q115 236 215 235q40 0 164 -41t172 -41z" />
    <glyph glyph-name="hungarumlaut" unicode="&#x2dd;" horiz-adv-x="983" 
d="M526 1141l90 356q10 37 39 53q51 25 103 -14q55 -47 10 -113l-207 -297zM199 1141l90 356q10 37 39 53q51 25 102 -14q55 -47 10 -113l-207 -297z" />
    <glyph glyph-name="uni037E" unicode="&#x37e;" horiz-adv-x="731" 
d="M164 475q0 84 58 143q58 60 142 60t144 -60q59 -60 59 -143q0 -84 -59 -142q-59 -59 -143 -59q-85 0 -143 58t-58 143z" />
    <glyph glyph-name="tonos" unicode="&#x384;" horiz-adv-x="655" 
d="M199 1049l90 356q10 37 39 53q51 25 102 -14q55 -47 10 -113l-207 -297z" />
    <glyph glyph-name="dieresistonos" unicode="&#x385;" horiz-adv-x="1187" 
d="M571 1229l-34 14l90 356q10 37 39 54q51 25 104 -19t8 -108zM874 1147q-50 0 -82 32t-32 82q0 49 33 81t81 32t82 -33q33 -33 33 -81t-33 -81q-33 -32 -82 -32zM199 1261q-1 49 31 81t81 32t82 -32t33 -82t-33 -81q-33 -32 -82 -32t-81 32q-31 32 -31 82z" />
    <glyph glyph-name="anoteleia" unicode="&#x387;" horiz-adv-x="856" 
d="M510 769q0 48 31 79t77 31t78 -31q31 -31 31 -79t-31 -78q-31 -29 -78 -29q-48 0 -78 30t-30 77zM129 769q0 48 31 79t78 31q48 0 78 -31t30 -79t-31 -78q-31 -29 -77 -29t-78 30q-31 30 -31 77z" />
    <glyph glyph-name="Delta" unicode="&#x394;" horiz-adv-x="1445" 
d="M1116 61l-418 1117l-471 -1117h889zM1323 0h-1200l627 1454z" />
    <glyph glyph-name="Delta" unicode="&#x2206;" horiz-adv-x="1445" 
d="M1116 61l-418 1117l-471 -1117h889zM1323 0h-1200l627 1454z" />
    <glyph glyph-name="Omega" unicode="&#x3a9;" horiz-adv-x="1638" 
d="M818 1374q-210 0 -324 -140t-115 -394q0 -422 328 -510v-330h-574l-20 332h55q14 -117 76 -153t190 -36h201v115q-219 49 -350 202t-131 380q0 274 187 444t478 170t478 -170t188 -444q0 -227 -131 -380t-350 -202v-115h198q129 0 191 36q61 36 75 153h58l-21 -332h-573
v330q328 90 328 510q0 254 -116 394t-326 140z" />
    <glyph glyph-name="Omega" unicode="&#x2126;" horiz-adv-x="1638" 
d="M818 1374q-210 0 -324 -140t-115 -394q0 -422 328 -510v-330h-574l-20 332h55q14 -117 76 -153t190 -36h201v115q-219 49 -350 202t-131 380q0 274 187 444t478 170t478 -170t188 -444q0 -227 -131 -380t-350 -202v-115h198q129 0 191 36q61 36 75 153h58l-21 -332h-573
v330q328 90 328 510q0 254 -116 394t-326 140z" />
    <glyph glyph-name="uni03BC" unicode="&#x3bc;" 
d="M184 823q0 80 -27 110q-28 30 -122 44v47h354v-707q0 -195 146 -194q70 1 129 29t155 108v563q0 80 -31 110t-139 44v47h375v-770q0 -84 42 -103t146 -14v-55l-372 -102h-21v215h-4q-63 -72 -104 -111t-103 -72q-62 -32 -116 -32t-111 14q-25 -223 -139 -385t-218 -162
q-102 0 -118 76q-12 57 22 83t80 11q47 -16 87 -17q101 -3 104 145l-15 347v731z" />
    <glyph glyph-name="pi" unicode="&#x3c0;" horiz-adv-x="1310" 
d="M711 0v45q106 14 138 46t32 118v743h-451v-743q0 -86 31 -118t137 -46v-45h-543v45q106 14 139 46q32 32 31 118v604q0 86 -31 118q-32 32 -139 46v47h1198v-47q-106 -14 -137 -46t-31 -118v-604q0 -86 31 -118t137 -46v-45h-542z" />
    <glyph glyph-name="uni03C2" unicode="&#x3c2;" horiz-adv-x="1404" 
d="M911 973h-71q112 -70 176 -193t61 -268q-4 -223 -150 -378q-147 -154 -363 -154t-355 154t-135 378q4 223 148 378t362 154h327q229 0 277 203q14 66 82 57t92 -67q23 -51 -23 -115q-47 -64 -167 -106t-261 -43zM299 512q0 -227 72 -344q73 -117 205 -117t204 117t72 344
t-72 344t-205 117t-205 -117t-71 -344z" />
    <glyph glyph-name="sigma" unicode="&#x3c3;" horiz-adv-x="1404" 
d="M911 973h-71q112 -70 176 -193t61 -268q-4 -223 -150 -378q-147 -154 -363 -154t-355 154t-135 378q4 223 148 378t362 154h327q229 0 277 203q14 66 82 57t92 -67q23 -51 -23 -115q-47 -64 -167 -106t-261 -43zM299 512q0 -227 72 -344q73 -117 205 -117t204 117t72 344
t-72 344t-205 117t-205 -117t-71 -344z" />
    <glyph glyph-name="Wgrave" unicode="&#x1e80;" horiz-adv-x="2068" 
d="M768 1434h547v-48q-106 -14 -132 -59t3 -125l274 -954h4l265 923q33 93 5 147t-143 68v48h461v-48q-110 -16 -148 -38t-57 -84l-379 -1274h-137l-274 874l-332 -874h-119l-426 1274q-16 52 -48 76t-118 46v48h549v-48q-106 -14 -136 -60t1 -124l309 -954h4l277 745
l-82 271q-16 52 -48 76t-120 46v48zM1059 1536l-291 213q-66 49 -33 105t80 52q47 -5 72 -42l196 -305z" />
    <glyph glyph-name="wgrave" unicode="&#x1e81;" horiz-adv-x="1761" 
d="M670 1024h508v-47q-104 -15 -124 -61t13 -123l180 -570h4l215 570q31 80 -2 125t-139 59v47h420v-47q-76 -16 -109 -40t-57 -83l-326 -823l-67 -41h-64l-231 686l-275 -645l-69 -41h-62l-327 864q-20 53 -48 77t-96 46v47h508v-47q-104 -15 -124 -61t16 -123l198 -570h4
l230 551l-29 80q-18 51 -48 76t-99 47v47zM958 1149l-24 -23l-291 213q-66 49 -33 105t80 52q47 -5 72 -42z" />
    <glyph glyph-name="Wacute" unicode="&#x1e82;" horiz-adv-x="2068" 
d="M768 1434h547v-48q-106 -14 -132 -59t3 -125l274 -954h4l265 923q33 93 5 147t-143 68v48h461v-48q-110 -16 -148 -38t-57 -84l-379 -1274h-137l-274 874l-332 -874h-119l-426 1274q-16 52 -48 76t-118 46v48h549v-48q-106 -14 -136 -60t1 -124l309 -954h4l277 745
l-82 271q-16 52 -48 76t-120 46v48zM1044 1559l197 305q25 37 72 42t80 -51t-33 -106l-289 -213z" />
    <glyph glyph-name="wacute" unicode="&#x1e83;" horiz-adv-x="1761" 
d="M670 1024h508v-47q-104 -15 -124 -61t13 -123l180 -570h4l215 570q31 80 -2 125t-139 59v47h420v-47q-76 -16 -109 -40t-57 -83l-326 -823l-67 -41h-64l-231 686l-275 -645l-69 -41h-62l-327 864q-20 53 -48 77t-96 46v47h508v-47q-104 -15 -124 -61t16 -123l198 -570h4
l230 551l-29 80q-18 51 -48 76t-99 47v47zM903 1149l197 305q26 37 72 42t79 -51t-32 -106l-289 -213z" />
    <glyph glyph-name="Wdieresis" unicode="&#x1e84;" horiz-adv-x="2068" 
d="M768 1434h547v-48q-106 -14 -132 -59t3 -125l274 -954h4l265 923q33 93 5 147t-143 68v48h461v-48q-110 -16 -148 -38t-57 -84l-379 -1274h-137l-274 874l-332 -874h-119l-426 1274q-16 52 -48 76t-118 46v48h549v-48q-106 -14 -136 -60t1 -124l309 -954h4l277 745
l-82 271q-16 52 -48 76t-120 46v48zM1139 1670q0 50 32 82q33 32 82 32t82 -33t33 -82t-33 -81t-82 -32t-82 32q-32 32 -32 82zM741 1670q0 50 33 82t81 32t81 -32t33 -82t-33 -82t-82 -32t-81 32t-32 82z" />
    <glyph glyph-name="wdieresis" unicode="&#x1e85;" horiz-adv-x="1761" 
d="M670 1024h508v-47q-104 -15 -124 -61t13 -123l180 -570h4l215 570q31 80 -2 125t-139 59v47h420v-47q-76 -16 -109 -40t-57 -83l-326 -823l-67 -41h-64l-231 686l-275 -645l-69 -41h-62l-327 864q-20 53 -48 77t-96 46v47h508v-47q-104 -15 -124 -61t16 -123l198 -570h4
l230 551l-29 80q-18 51 -48 76t-99 47v47zM1008 1261q0 49 32 81t82 32q49 0 82 -33t33 -81t-33 -81q-33 -32 -82 -32t-82 32q-32 32 -32 82zM610 1261q0 49 32 81t81 32t82 -32t33 -82t-33 -81q-33 -32 -82 -32t-81 32t-32 82z" />
    <glyph glyph-name="Ygrave" unicode="&#x1ef2;" horiz-adv-x="1310" 
d="M10 1434h502v-48q-102 -14 -114 -63t36 -121l291 -563h4l266 553q78 168 -114 194v48h419v-48q-80 -16 -118 -40t-66 -82l-328 -693v-362q0 -86 31 -118t137 -46v-45h-542v45q106 14 138 46t32 118v272l-426 783q-25 46 -57 72t-91 50v48zM707 1536l-291 213
q-66 49 -33 105t80 52q47 -5 72 -42l196 -305z" />
    <glyph glyph-name="ygrave" unicode="&#x1ef3;" horiz-adv-x="1167" 
d="M14 1024h508v-47q-104 -13 -126 -61t18 -123l239 -570h4l215 570q31 80 -2 125t-139 59v47h420v-47q-76 -16 -109 -40t-57 -83l-346 -874q-107 -268 -253 -394t-273 -139q-96 -8 -119 68q-14 59 24 96q25 20 58 10q323 -95 473 354l-391 879q-25 53 -52 77t-92 46v47z
M651 1149l-24 -23l-291 213q-66 49 -33 105t80 52q47 -5 72 -42z" />
    <glyph glyph-name="figuredash" unicode="&#x2012;" horiz-adv-x="1249" 
d="M199 588h850v-82h-850v82z" />
    <glyph glyph-name="endash" unicode="&#x2013;" horiz-adv-x="1249" 
d="M199 588h850v-82h-850v82z" />
    <glyph glyph-name="emdash" unicode="&#x2014;" horiz-adv-x="1843" 
d="M199 588h1443v-82h-1443v82z" />
    <glyph glyph-name="quoteleft" unicode="&#x2018;" horiz-adv-x="696" 
d="M369 1018q-94 0 -132 64t-38 147q0 133 83 237t181 140l26 -47q-123 -57 -163 -166q-33 -84 14 -111q12 -6 29 -6q53 0 90 -38t37 -91t-38 -91t-89 -38z" />
    <glyph glyph-name="quoteright" unicode="&#x2019;" horiz-adv-x="696" 
d="M326 1581q94 0 132 -63t38 -146q0 -135 -82 -238t-183 -141l-26 47q121 58 159 154t-8 123q-12 8 -30 8q-53 0 -90 37t-37 90t38 91t89 38z" />
    <glyph glyph-name="quotesinglbase" unicode="&#x201a;" horiz-adv-x="696" 
d="M326 252q94 0 132 -64t38 -145q0 -133 -83 -237t-182 -140l-26 47q123 57 164 166q33 84 -15 111q-12 6 -28 6q-53 0 -90 37t-37 90t38 91t89 38z" />
    <glyph glyph-name="quotedblleft" unicode="&#x201c;" horiz-adv-x="1146" 
d="M367 1018q-92 0 -130 64t-38 147q0 133 83 237t181 140l24 -47q-121 -57 -161 -166q-33 -84 14 -111q12 -6 29 -6q53 0 90 -38t37 -91t-39 -91t-90 -38zM817 1018q-92 0 -130 64t-38 147q0 133 83 237t181 140l25 -47q-121 -57 -162 -166q-33 -84 15 -111q12 -6 28 -6
q53 0 90 -38t37 -91t-39 -91t-90 -38z" />
    <glyph glyph-name="quotedblright" unicode="&#x201d;" horiz-adv-x="1146" 
d="M776 1581q94 0 132 -63t38 -146q0 -135 -82 -238t-182 -141l-27 47q121 58 159 154t-7 123q-12 8 -31 8q-53 0 -90 37t-37 90t38 91t89 38zM326 1581q94 0 132 -63t38 -146q0 -135 -82 -238t-183 -141l-26 47q121 58 159 154t-8 123q-12 8 -30 8q-53 0 -90 37t-37 90
t38 91t89 38z" />
    <glyph glyph-name="quotedblbase" unicode="&#x201e;" horiz-adv-x="1146" 
d="M776 252q94 0 132 -64t38 -145q0 -133 -83 -237t-181 -140l-27 47q123 57 164 166q33 84 -14 111q-12 6 -29 6q-53 0 -90 37t-37 90t38 91t89 38zM326 252q94 0 132 -64t38 -145q0 -133 -83 -237t-182 -140l-26 47q123 57 164 166q33 84 -15 111q-12 6 -28 6
q-53 0 -90 37t-37 90t38 91t89 38z" />
    <glyph glyph-name="dagger" unicode="&#x2020;" horiz-adv-x="1320" 
d="M631 -532v768q0 158 -25 272l-26 117q0 10 11 55t40 272q-205 -22 -267 -36q-62 -15 -86 -15t-49 25q-25 26 -25 58t26 56q24 24 46 25q22 0 95 -16q74 -16 260 -35q-26 242 -39 294q-12 52 -12 74t23 48q24 24 59 24q34 0 58 -24t24 -46t-16 -92q-15 -70 -36 -278
q222 22 276 37q54 14 78 14t47 -25q23 -26 23 -58t-24 -56t-46 -25q-24 0 -80 13t-274 38q18 -177 35 -248q16 -70 16 -79l-26 -117q-25 -115 -25 -272v-768h-61z" />
    <glyph glyph-name="daggerdbl" unicode="&#x2021;" horiz-adv-x="1320" 
d="M743 471q1 -45 -23 -210t-28 -312q244 28 287 40q43 11 67 11t47 -25t23 -57t-24 -58q-24 -24 -46 -24q-24 0 -93 16t-261 35q19 -202 35 -275q16 -72 16 -94q1 -22 -23 -46t-58 -25q-34 0 -59 25q-23 25 -23 47t11 69t40 299q-219 -21 -277 -36q-56 -15 -78 -15t-47 25
t-25 57t26 58q24 24 46 24t75 -12q54 -12 280 -39q-6 145 -29 310t-22 212q0 47 22 191t29 290q-205 -22 -267 -36q-62 -15 -86 -15t-49 25q-25 26 -25 58t26 56q24 24 46 25q22 0 95 -16q74 -16 260 -35q-26 242 -39 294q-12 52 -12 74t23 48q24 24 59 24q34 0 58 -24
t24 -46t-16 -92q-15 -70 -36 -278q222 22 276 37q54 14 78 14t47 -25q23 -26 23 -58t-24 -56t-46 -25q-24 0 -80 13t-274 38q4 -148 28 -292t23 -189z" />
    <glyph glyph-name="bullet" unicode="&#x2022;" horiz-adv-x="813" 
d="M205 475q0 84 58 143q59 60 143 60t143 -60t59 -143q0 -84 -59 -142q-59 -59 -143 -59t-142 58t-59 143z" />
    <glyph glyph-name="onedotenleader" unicode="&#x2024;" horiz-adv-x="655" 
d="M197 109q0 53 39 91t92 38t91 -38t38 -91t-38 -91t-91 -38t-92 38t-39 91z" />
    <glyph glyph-name="twodotenleader" unicode="&#x2025;" horiz-adv-x="1126" 
d="M668 109q0 53 39 91t92 38t91 -38t38 -91t-38 -91t-91 -38t-92 38t-39 91zM197 109q0 53 39 91t92 38t91 -38t38 -91t-38 -91t-91 -38t-92 38t-39 91z" />
    <glyph glyph-name="ellipsis" unicode="&#x2026;" horiz-adv-x="1638" 
d="M1180 109q0 53 39 91t92 38t91 -38t38 -91t-38 -91t-91 -38t-92 38t-39 91zM688 109q0 53 39 91t92 38t91 -38t38 -91t-38 -91t-91 -38t-92 38t-39 91zM197 109q0 53 39 91t92 38t91 -38t38 -91t-38 -91t-91 -38t-92 38t-39 91z" />
    <glyph glyph-name="perthousand" unicode="&#x2030;" horiz-adv-x="2846" 
d="M2511 297q0 276 -167 276q-167 1 -167 -277t168 -278q80 0 123 71t43 208zM2350 614q130 0 214 -92t81 -225t-90 -225t-217 -92t-214 92t-80 225q2 133 89 225t217 92zM668 1137q0 276 -167 276q-167 1 -167 -277t168 -278q80 0 123 71t43 208zM507 1454q130 0 214 -92
t81 -225t-90 -225t-217 -93q-130 1 -214 93t-80 225q2 133 89 225t217 92zM1671 297q0 276 -167 276q-167 1 -167 -277t168 -278q80 0 123 71t43 208zM1510 614q130 0 214 -92t81 -225t-90 -225t-217 -92t-214 92t-80 225q2 133 89 225t217 92zM1405 1577l-696 -1700h-93
l699 1700h90z" />
    <glyph glyph-name="guilsinglleft" unicode="&#x2039;" horiz-adv-x="983" 
d="M442 551l340 -318v-94l-583 385v47l583 387v-96z" />
    <glyph glyph-name="guilsinglright" unicode="&#x203a;" horiz-adv-x="983" 
d="M541 551l-342 311v96l583 -387v-47l-583 -385v94z" />
    <glyph glyph-name="exclamdbl" unicode="&#x203c;" horiz-adv-x="1146" 
d="M822 1577q70 0 94 -44q26 -44 20 -106l-90 -1017h-51l-97 1017q-6 59 24 105t100 45zM688 109q0 53 39 91t92 38t91 -38t38 -91t-38 -91t-91 -38t-92 38t-39 91zM330 1577q70 0 96 -44t18 -106l-90 -1017h-51l-96 1017q-6 59 23 105q30 45 100 45zM197 109q0 53 39 91
t92 38t91 -38t38 -91t-38 -91t-91 -38t-92 38t-39 91z" />
    <glyph glyph-name="fraction" unicode="&#x2044;" horiz-adv-x="983" 
d="M782 1577l-491 -1700h-92l493 1700h90z" />
    <glyph glyph-name="zerosuperior" unicode="&#x2070;" horiz-adv-x="819" 
d="M262 1436q0 -176 33 -268t115 -93q82 0 114 92q32 93 33 269q0 176 -33 267q-32 91 -114 91t-115 -91t-33 -267zM102 1434q0 172 80 292t228 121q148 0 227 -121q80 -120 80 -290t-80 -291t-227 -121t-228 119q-80 119 -80 291z" />
    <glyph glyph-name="foursuperior" unicode="&#x2074;" horiz-adv-x="819" 
d="M717 1217h-109v-173h-147v173h-359v118l410 520h96v-540h109v-98zM461 1315v393l-311 -393h311z" />
    <glyph glyph-name="fivesuperior" unicode="&#x2075;" horiz-adv-x="819" 
d="M647 1835v-117h-371l-6 -186q117 14 202 -8t127 -68q77 -82 78 -188q1 -104 -82 -174t-205 -70t-186 46q-65 46 -65 108q0 74 80 73q31 0 48 -15t16 -36q-10 -119 86 -119q71 0 113 46q42 45 42 137t-54 150t-173 59h-84l12 362h422z" />
    <glyph glyph-name="sixsuperior" unicode="&#x2076;" horiz-adv-x="819" 
d="M694 1286q0 -112 -85 -186q-85 -76 -209 -76t-200 93q-77 93 -77 231q0 194 125 334t321 178l11 -43q-252 -72 -299 -338q78 65 181 65q104 0 168 -73t64 -185zM535 1282q0 92 -34 143q-35 51 -99 51t-119 -51q-19 -139 17 -244t112 -106q123 0 123 207z" />
    <glyph glyph-name="sevensuperior" unicode="&#x2077;" horiz-adv-x="819" 
d="M287 1726q-59 0 -77 -17t-28 -81h-37l7 215h522v-49l-279 -750h-172l371 682h-307z" />
    <glyph glyph-name="eightsuperior" unicode="&#x2078;" horiz-adv-x="819" 
d="M692 1253q0 -105 -86 -167t-205 -62t-197 54t-77 159q0 63 49 115t131 80q-150 84 -149 206q0 96 78 152t180 57q102 0 174 -51t72 -141q0 -55 -41 -105t-117 -73q102 -45 145 -97t43 -127zM549 1219q0 113 -199 190q-84 -61 -84 -153t39 -136q39 -45 106 -45
q67 1 103 41t35 103zM537 1661q0 69 -34 101t-86 32t-86 -33t-34 -88q0 -111 166 -176q74 45 74 164z" />
    <glyph glyph-name="ninesuperior" unicode="&#x2079;" horiz-adv-x="819" 
d="M123 1576q0 112 85 188t209 75q125 0 201 -93t76 -230q0 -195 -125 -335t-321 -177l-10 43q145 41 211 130t88 207q-77 -66 -181 -66t-169 74q-64 72 -64 184zM283 1581q-1 -92 33 -144q34 -53 98 -53t121 54q18 139 -18 243t-111 105q-123 0 -123 -205z" />
    <glyph glyph-name="parenleftsuperior" unicode="&#x207d;" horiz-adv-x="819" 
d="M401 1477q0 -412 158 -689h-37q-264 279 -264 688t264 687h37q-158 -274 -158 -686z" />
    <glyph glyph-name="parenrightsuperior" unicode="&#x207e;" horiz-adv-x="819" 
d="M418 1477q0 414 -160 686h35q266 -276 266 -687t-266 -688h-35q160 275 160 689z" />
    <glyph glyph-name="nsuperior" unicode="&#x207f;" horiz-adv-x="917" 
d="M96 1044v25q66 15 84 33t19 69v322q-1 47 -17 65t-65 29v29l198 53h9l-2 -127h2q117 127 233 127q68 0 113 -43t45 -139v-316q0 -51 17 -69t83 -33v-25h-301v25q52 17 64 33t12 69v312q0 45 -23 73t-65 29q-76 0 -180 -84v-330q0 -53 17 -70t81 -32v-25h-324z" />
    <glyph glyph-name="zeroinferior" unicode="&#x2080;" horiz-adv-x="819" 
d="M262 -18q0 -176 33 -268t115 -93q82 0 114 92q32 93 33 269q0 176 -33 267q-32 91 -114 91t-115 -91t-33 -267zM102 -20q0 172 80 292t228 121q148 0 227 -121q80 -120 80 -290t-80 -291t-227 -121t-228 119q-80 119 -80 291z" />
    <glyph glyph-name="oneinferior" unicode="&#x2081;" horiz-adv-x="819" 
d="M483 401v-682q0 -51 26 -70t116 -28v-31h-430v31q89 7 115 27t26 71v504q0 49 -26 61t-115 13v31l276 73h12z" />
    <glyph glyph-name="twoinferior" unicode="&#x2082;" horiz-adv-x="819" 
d="M410 348q-55 0 -76 -26q-20 -27 -18 -71q4 -77 -62 -77q-37 0 -56 20t-20 54q0 63 64 108t178 45q116 1 182 -65t66 -142t-18 -129t-106 -151q-87 -98 -245 -207h375v-117h-529v50q245 179 318 319q57 111 57 209q1 180 -110 180z" />
    <glyph glyph-name="threeinferior" unicode="&#x2083;" horiz-adv-x="819" 
d="M377 -379q143 0 143 191q0 78 -43 122t-117 43h-38v50h18q76 0 119 46q43 47 43 121t-34 110t-83 36q-102 0 -82 -121q4 -21 -13 -37t-50 -16q-66 0 -72 53q-8 76 56 125t176 49t179 -50t67 -128t-49 -132q-48 -54 -132 -75v-2q92 -12 152 -61q61 -49 61 -152t-85 -163
t-210 -60t-186 47t-54 127q6 53 76 53q31 0 47 -15t17 -36q-1 -68 21 -96t73 -29z" />
    <glyph glyph-name="fourinferior" unicode="&#x2084;" horiz-adv-x="819" 
d="M717 -238h-109v-172h-147v172h-359v119l410 520h96v-540h109v-99zM461 -139v393l-311 -393h311z" />
    <glyph glyph-name="fiveinferior" unicode="&#x2085;" horiz-adv-x="819" 
d="M647 381v-117h-371l-6 -186q117 14 202 -8t127 -68q77 -82 78 -188q1 -104 -82 -174t-205 -70t-186 46q-65 46 -65 108q0 74 80 73q31 0 48 -15t16 -36q-10 -119 86 -119q71 0 113 46q42 45 42 137t-54 150t-173 58h-84l12 363h422z" />
    <glyph glyph-name="sixinferior" unicode="&#x2086;" horiz-adv-x="819" 
d="M694 -168q0 -112 -85 -186q-85 -76 -209 -76t-200 93q-77 93 -77 231q0 194 125 334t321 178l11 -44q-252 -72 -299 -337q78 65 181 65q104 0 168 -73t64 -185zM535 -172q0 92 -34 143q-35 51 -99 51t-119 -51q-19 -139 17 -244t112 -106q123 0 123 207z" />
    <glyph glyph-name="seveninferior" unicode="&#x2087;" horiz-adv-x="819" 
d="M287 272q-59 0 -77 -17t-28 -81h-37l7 215h522v-49l-279 -750h-172l371 682h-307z" />
    <glyph glyph-name="eightinferior" unicode="&#x2088;" horiz-adv-x="819" 
d="M692 -201q0 -105 -86 -167t-205 -62t-197 54t-77 159q0 63 49 115t131 79q-150 84 -149 207q0 96 78 152t180 57q102 0 174 -51t72 -141q0 -55 -41 -105t-117 -73q102 -45 145 -97t43 -127zM549 -236q0 113 -199 191q-84 -61 -84 -153t39 -136q39 -45 106 -45t103 40
t35 103zM537 207q0 69 -34 101t-86 32t-86 -33t-34 -88q0 -111 166 -176q74 45 74 164z" />
    <glyph glyph-name="nineinferior" unicode="&#x2089;" horiz-adv-x="819" 
d="M123 122q0 112 85 188t209 75q125 0 201 -93t76 -231q0 -195 -125 -335t-321 -177l-10 43q145 41 211 130t88 208q-77 -66 -181 -66t-169 74q-64 72 -64 184zM283 127q-1 -92 33 -144q34 -53 98 -53t121 54q18 139 -18 243t-111 105q-123 0 -123 -205z" />
    <glyph glyph-name="parenleftinferior" unicode="&#x208d;" horiz-adv-x="819" 
d="M401 22q0 -412 158 -688h-37q-264 280 -264 688t264 687h37q-158 -275 -158 -687z" />
    <glyph glyph-name="parenrightinferior" unicode="&#x208e;" horiz-adv-x="819" 
d="M418 22q0 414 -160 687h35q266 -275 266 -687t-266 -688h-35q160 274 160 688z" />
    <glyph glyph-name="colonmonetary" unicode="&#x20a1;" horiz-adv-x="1310" 
d="M977 -205h-82v195q-61 -10 -126 -10t-140 16v-201h-82v221q-207 72 -331 259t-124 441t124 440q124 187 331 259v223h82v-200q76 16 140 16t126 -10v194h82v-208q137 -31 256 -99l20 -293h-55q-35 139 -142 238q-108 98 -278 98q-203 0 -332 -183t-129 -474t129 -475
t332 -185q170 1 278 99t142 237h55l-20 -291q-100 -66 -256 -102v-205z" />
    <glyph glyph-name="franc" unicode="&#x20a3;" horiz-adv-x="1177" 
d="M76 381h170v842q0 85 -32 117t-138 46v48h1034l10 -334h-55q-14 124 -81 190t-175 66h-358v-627h184q102 0 156 45q53 45 65 162h55v-492h-55q-12 117 -65 162t-156 45h-184v-270h229v-78h-229v-94q1 -86 31 -118t136 -46v-45h-542v45q106 14 138 46t32 118v94h-170v78z
" />
    <glyph glyph-name="lira" unicode="&#x20a4;" horiz-adv-x="1304" 
d="M158 831h143q-29 156 -22 238q10 166 137 276q127 109 310 109q184 0 282 -80t98 -184q0 -51 -37 -82t-85 -31t-74 22q-26 23 -22 63q14 158 -67 194q-35 16 -92 16q-111 0 -175 -63t-69 -170q-4 -107 13 -308h305v-77h-303q8 -100 2 -168h301v-78h-309
q-27 -236 -207 -404q0 -2 1 -2t1 -2q172 82 292 75t201 -37q80 -30 107 -36q88 -22 146 12t95 173h56q-47 -180 -117 -262q-113 -133 -305 -101q-23 4 -118 41t-184 57q-172 40 -325 -22l-24 61q236 164 229 447h-184v78h180q-4 51 -25 168h-155v77z" />
    <glyph glyph-name="peseta" unicode="&#x20a7;" horiz-adv-x="1515" 
d="M492 1356v-289h509q-8 125 -80 207q-73 82 -225 82h-204zM492 686h143q155 0 265 85t101 218h-509v-303zM117 1067h170v156q0 85 -32 117t-138 46v48h631q216 0 338 -102t131 -265h180v-78h-183q-20 -161 -158 -271t-411 -110h-153v-399q0 -86 30 -118t137 -46v-45h-542
v45q106 14 138 46t32 118v780h-170v78z" />
    <glyph glyph-name="Euro" unicode="&#x20ac;" horiz-adv-x="1536" 
d="M117 874h151q48 260 232 420t442 160t455 -123l20 -293h-55q-35 139 -142 238q-108 98 -280 98t-294 -136t-154 -364h372v-81h-383v-76q0 -61 2 -88h381v-82h-370q35 -223 155 -357q121 -133 292 -133q171 1 279 99t142 237h55l-20 -291q-197 -122 -454 -122t-440 156
t-233 411h-153v82h141q-2 27 -2 83t2 81h-141v81z" />
    <glyph glyph-name="litre" unicode="&#x2113;" horiz-adv-x="1001" 
d="M725 1212q0 84 -39 134t-98 49q-58 1 -98 -57t-39 -226v-395q274 317 274 495zM451 317q0 -276 166 -276t245 270h37q-43 -170 -129 -251q-86 -80 -183 -80t-168 50t-98 126t-26 227v106l-168 -170l-25 23l193 203v497q0 208 84 310t203 102q90 0 143 -55t53 -153
t-63 -226q-63 -127 -264 -358v-345z" />
    <glyph glyph-name="afii61352" unicode="&#x2116;" horiz-adv-x="2211" 
d="M1999 1137q0 276 -167 276q-167 1 -167 -277t168 -278q80 0 123 71t43 208zM1838 1454q130 0 214 -92t81 -225t-90 -225t-217 -93q-130 1 -214 93t-80 225q2 133 89 225t217 92zM1167 1223q-1 89 -33 119t-151 44v48h455v-48q-115 -14 -149 -46t-34 -117v-1223h-125
l-782 1243v-1034q0 -88 33 -119t151 -45v-45h-456v45q114 14 148 46t34 118v1014q0 85 -34 117t-148 46v48h420l671 -1082v871z" />
    <glyph glyph-name="trademark" unicode="&#x2122;" horiz-adv-x="1953" 
d="M1751 1434v-29q-61 -11 -79 -29t-19 -67v-406q0 -51 18 -70t80 -28v-25h-319v25q63 7 82 27t20 71v391l-211 -520h-59l-226 547v-418q0 -53 20 -71t89 -27v-25h-273v25q72 8 91 26q18 18 18 72v406q0 51 -18 68t-91 28v29h244l215 -506l203 506h215zM553 1386v-483
q0 -51 18 -70t82 -28v-25h-319v25q62 7 80 27t18 71v483h-65q-63 0 -96 -27q-32 -28 -40 -102h-30l2 177h575l6 -177h-32q-8 72 -40 101t-96 28h-63z" />
    <glyph glyph-name="estimated" unicode="&#x212e;" horiz-adv-x="1589" 
d="M1184 813v387q-168 158 -392 158t-386 -158v-387h778zM406 715v-482q166 -160 389 -159q334 0 516 321l94 -53q-131 -186 -267 -274t-343 -88q-313 0 -500 210q-193 205 -193 527q0 321 194 529t484 208t494 -186q201 -193 213 -553h-1081z" />
    <glyph glyph-name="onethird" unicode="&#x2153;" horiz-adv-x="1843" 
d="M1202 1454l-491 -1474h-82l493 1474h80zM391 1446v-682q0 -50 26 -70t115 -28v-31h-430v31q90 8 116 27t26 71v504q0 49 -26 61t-116 12v31l277 74h12zM1440 31q143 0 143 190q0 78 -43 122t-117 44h-39v49h19q76 0 119 46t43 120t-34 112q-34 36 -83 36q-102 0 -82 -121
q4 -21 -13 -37t-50 -17q-66 0 -72 54q-8 76 56 125q65 49 177 49t178 -50t66 -128t-48 -132t-132 -75v-2q92 -12 152 -62t60 -152t-84 -162q-85 -60 -210 -60t-186 47t-54 127q6 53 76 53q31 1 47 -15t17 -36q0 -68 21 -97q22 -28 73 -28z" />
    <glyph glyph-name="twothirds" unicode="&#x2154;" horiz-adv-x="1843" 
d="M367 1393q-99 1 -93 -97q4 -76 -63 -77q-37 0 -56 20t-20 53q-1 62 63 108t179 46t181 -66t67 -141q-1 -75 -19 -129t-105 -152t-245 -206h375v-117h-529v49q246 180 318 320q57 111 57 208q1 181 -110 181zM1243 1454l-491 -1474h-82l493 1474h80zM1440 31
q143 0 143 190q0 78 -43 122t-117 44h-39v49h19q76 0 119 46t43 120t-34 112q-34 36 -83 36q-102 0 -82 -121q4 -21 -13 -37t-50 -17q-66 0 -72 54q-8 76 56 125q65 49 177 49t178 -50t66 -128t-48 -132t-132 -75v-2q92 -12 152 -62t60 -152t-84 -162q-85 -60 -210 -60
t-186 47t-54 127q6 53 76 53q31 1 47 -15t17 -36q0 -68 21 -97q22 -28 73 -28z" />
    <glyph glyph-name="oneeighth" unicode="&#x215b;" horiz-adv-x="1843" 
d="M1741 209q0 -105 -86 -167t-205 -62t-197 54t-77 159q0 63 49 115t131 79q-150 84 -150 207q0 96 78 152t180 56t174 -50q72 -51 72 -142q0 -55 -41 -104t-117 -74q102 -45 146 -97t43 -126zM1597 174q0 113 -198 191q-84 -61 -84 -153t39 -136q40 -45 106 -45t102 40
q35 40 35 103zM1585 616q0 68 -34 101t-86 33t-86 -33t-33 -88q0 -111 165 -176q74 44 74 163zM1202 1454l-491 -1474h-82l493 1474h80zM391 1446v-682q0 -50 26 -70t115 -28v-31h-430v31q90 8 116 27t26 71v504q0 49 -26 61t-116 12v31l277 74h12z" />
    <glyph glyph-name="threeeighths" unicode="&#x215c;" horiz-adv-x="1843" 
d="M338 666q143 0 143 190q0 78 -43 122t-116 44h-39v49h18q76 0 119 46q43 47 43 121t-34 110t-83 36q-102 -1 -82 -120q4 -20 -13 -36t-50 -18q-66 0 -72 54q-8 76 56 125q65 49 177 49t178 -50t66 -128t-48 -133q-48 -54 -132 -74v-2q92 -11 152 -61t61 -152
q0 -102 -85 -163t-210 -61t-186 48t-54 126q6 53 76 54q31 0 47 -16t17 -35q0 -68 21 -97q22 -28 73 -28zM1741 209q0 -105 -86 -167t-205 -62t-197 54t-77 159q0 63 49 115t131 79q-150 84 -150 207q0 96 78 152t180 56t174 -50q72 -51 72 -142q0 -55 -41 -104t-117 -74
q102 -45 146 -97t43 -126zM1597 174q0 113 -198 191q-84 -61 -84 -153t39 -136q40 -45 106 -45t102 40q35 40 35 103zM1585 616q0 68 -34 101t-86 33t-86 -33t-33 -88q0 -111 165 -176q74 44 74 163zM1202 1454l-491 -1474h-82l493 1474h80z" />
    <glyph glyph-name="fiveeighths" unicode="&#x215d;" horiz-adv-x="1843" 
d="M610 1425v-116h-370l-7 -187q306 37 390 -166q18 -45 18 -90q0 -112 -83 -182q-82 -70 -204 -70t-187 46t-65 108q0 74 80 74q31 0 48 -16t16 -35q-10 -119 86 -119q72 0 114 46t41 137q0 91 -54 149t-173 59h-84l12 362h422zM1741 209q0 -105 -86 -167t-205 -62t-197 54
t-77 159q0 63 49 115t131 79q-150 84 -150 207q0 96 78 152t180 56t174 -50q72 -51 72 -142q0 -55 -41 -104t-117 -74q102 -45 146 -97t43 -126zM1597 174q0 113 -198 191q-84 -61 -84 -153t39 -136q40 -45 106 -45t102 40q35 40 35 103zM1585 616q0 68 -34 101t-86 33
t-86 -33t-33 -88q0 -111 165 -176q74 44 74 163zM1202 1454l-491 -1474h-82l493 1474h80z" />
    <glyph glyph-name="seveneighths" unicode="&#x215e;" horiz-adv-x="1843" 
d="M244 1317q-58 1 -76 -17t-29 -81h-37l7 215h522v-50l-279 -749h-172l371 682h-307zM1741 209q0 -105 -86 -167t-205 -62t-197 54t-77 159q0 63 49 115t131 79q-150 84 -150 207q0 96 78 152t180 56t174 -50q72 -51 72 -142q0 -55 -41 -104t-117 -74q102 -45 146 -97
t43 -126zM1597 174q0 113 -198 191q-84 -61 -84 -153t39 -136q40 -45 106 -45t102 40q35 40 35 103zM1585 616q0 68 -34 101t-86 33t-86 -33t-33 -88q0 -111 165 -176q74 44 74 163zM1120 1454l-491 -1474h-82l493 1474h80z" />
    <glyph glyph-name="partialdiff" unicode="&#x2202;" horiz-adv-x="1185" 
d="M684 1004q63 0 130 -30t106 -95q8 182 -40 342q-48 161 -180 196q-68 18 -159 -24q-59 -25 -95 8t-10 105t111 71q123 0 239 -83q241 -173 313 -556q36 -188 -3 -401q-43 -252 -215 -405q-171 -152 -393 -152t-334 145t-71 367q42 222 212 366q170 146 389 146zM664 932
q-279 0 -357 -440t201 -441q274 1 352 441t-196 440z" />
    <glyph glyph-name="product" unicode="&#x220f;" horiz-adv-x="1515" 
d="M895 -532v47q106 14 138 46t32 117v1684h-614v-1684q1 -86 31 -118t136 -45v-47h-542v47q106 14 138 46t32 117v1545q0 85 -32 117t-138 46v48h1362v-48q-106 -14 -138 -46t-30 -117v-1545q0 -86 30 -118t138 -45v-47h-543z" />
    <glyph glyph-name="summation" unicode="&#x2211;" horiz-adv-x="1204" 
d="M799 76q109 0 175 66t81 190h57l-10 -332h-1010v61l397 656l-397 655v62h959l10 -334h-57q-16 124 -82 190t-174 66h-400l391 -641l-391 -639h451z" />
    <glyph glyph-name="minus" unicode="&#x2212;" horiz-adv-x="1146" 
d="M199 588h747v-82h-747v82z" />
    <glyph glyph-name="uni2215" unicode="&#x2215;" horiz-adv-x="983" 
d="M782 1577l-491 -1700h-92l493 1700h90z" />
    <glyph glyph-name="uni2219" unicode="&#x2219;" horiz-adv-x="729" 
d="M195 508q0 70 50 119t120 49q71 0 119 -49t48 -119t-49 -120t-119 -50t-119 50q-50 50 -50 120z" />
    <glyph glyph-name="radical" unicode="&#x221a;" horiz-adv-x="1607" 
d="M123 788v72h541l258 -655l501 1249h62l-574 -1454h-71l-324 788h-393z" />
    <glyph glyph-name="infinity" unicode="&#x221e;" horiz-adv-x="1943" 
d="M534 819q160 0 273 -76t170 -180q170 256 434 256q166 0 267 -90q102 -90 102 -225t-104 -217t-266 -82q-160 0 -275 76t-170 176q-168 -252 -433 -252q-166 0 -267 90t-101 225t104 217q106 82 266 82zM1414 266q140 0 222 68t82 169t-80 178t-226 77q-144 0 -252 -84
t-150 -172q44 -96 154 -166t250 -70zM532 266q144 0 252 84t150 172q-43 96 -154 166t-250 70t-222 -68t-83 -169t81 -178q82 -77 226 -77z" />
    <glyph glyph-name="integral" unicode="&#x222b;" horiz-adv-x="634" 
d="M-217 -553q-92 0 -96 68q-4 57 38 88t76 18q128 -48 200 -7q63 36 107 297q12 69 15 89l182 1024q20 114 91 222t156 178t167 111q82 42 133 42q92 0 96 -68q4 -57 -38 -88t-76 -18q-168 59 -228 -19q-44 -54 -84 -294q-8 -43 -12 -66l-182 -1024q-20 -114 -90 -222
t-155 -178t-167 -111q-82 -42 -133 -42z" />
    <glyph glyph-name="approxequal" unicode="&#x2248;" horiz-adv-x="1126" 
d="M734 434q36 0 67 22t44 38t46 63l41 -25q-49 -91 -79 -134q-56 -79 -115 -80q-58 -2 -179 62t-171 64t-84 -44q-12 -13 -36 -50t-32 -49l-41 27q115 236 215 235q40 -1 164 -65t160 -64zM734 741q36 0 67 22t44 38t46 63l41 -24q-51 -95 -80 -136q-56 -79 -125 -79
q-47 0 -168 63q-121 64 -159 64t-62 -16t-34 -28q-12 -12 -36 -50t-32 -50l-41 27q115 236 215 235q40 0 164 -64t160 -65z" />
    <glyph glyph-name="notequal" unicode="&#x2260;" horiz-adv-x="1146" 
d="M199 444h295l59 205h-354v82h379l106 365h90l-106 -365h278v-82h-303l-59 -205h362v-82h-387l-104 -362h-93l107 362h-270v82z" />
    <glyph glyph-name="lessequal" unicode="&#x2264;" horiz-adv-x="1146" 
d="M946 96h-747v82h669l-669 346v47l747 387v-96l-637 -311l637 -318v-137z" />
    <glyph glyph-name="greaterequal" unicode="&#x2265;" horiz-adv-x="1146" 
d="M946 178v-82h-747v137l639 318l-639 311v96l747 -387v-47l-670 -346h670z" />
    <glyph glyph-name="lozenge" unicode="&#x25ca;" horiz-adv-x="1253" 
d="M205 705l399 765h45l400 -765l-400 -766h-45zM627 80l321 625l-321 622l-324 -622z" />
    <glyph glyph-name="undercommaaccent" unicode="&#xf005;" horiz-adv-x="696" 
d="M326 -94q94 0 132 -65t38 -146q0 -133 -83 -237t-182 -140l-26 47q123 57 164 166q33 84 -15 111q-12 6 -28 6q-53 0 -90 38t-37 91t38 91t89 38z" />
    <glyph glyph-name="Abreve.small" unicode="&#xf66d;" horiz-adv-x="1208" 
d="M530 874l-168 -452h353l-180 452h-5zM1192 0h-506v45q104 14 124 61q19 47 -17 123l-48 115h-409l-43 -115q-31 -80 2 -125t139 -59v-45h-420v45q78 16 111 40t55 83l361 948h108l400 -948q23 -53 49 -77t94 -46v-45zM580 1270q-129 0 -196 92t-67 217h54q16 -76 75 -118
q60 -42 134 -42t133 42t75 118h52q0 -125 -66 -217t-194 -92z" />
    <glyph glyph-name="Amacron.small" unicode="&#xf66e;" horiz-adv-x="1208" 
d="M530 874l-168 -452h353l-180 452h-5zM1192 0h-506v45q104 14 124 61q19 47 -17 123l-48 115h-409l-43 -115q-31 -80 2 -125t139 -59v-45h-420v45q78 16 111 40t55 83l361 948h108l400 -948q23 -53 49 -77t94 -46v-45zM268 1407h645v-82h-645v82z" />
    <glyph glyph-name="AEacute.small" unicode="&#xf670;" horiz-adv-x="1536" 
d="M821 1251l197 305q26 37 72 42t79 -51t-32 -105l-289 -213zM717 569v308h-4l-181 -308h185zM922 596h41q94 0 141 36t59 150h56v-450h-56q-16 118 -61 152t-139 34h-41v-442h215q117 0 185 48t81 167h55l-20 -291h-891v45q106 14 138 46t32 118v285h-228l-153 -265
q-49 -78 -29 -124t123 -60v-45h-416v45q80 16 122 41t75 82l547 938h659l10 -293h-55q-14 119 -78 167t-178 48h-194v-432z" />
    <glyph glyph-name="Cacute.small" unicode="&#xf671;" horiz-adv-x="1146" 
d="M612 1251l197 305q25 37 71 42t80 -51q33 -56 -32 -105l-289 -213zM317 553q-1 -380 221 -472q58 -24 141 -24t151 27t107 82q40 55 59 103t38 124h56l-21 -291q-197 -122 -411 -122t-383 124q-85 64 -134 180t-49 270t49 268q49 116 134 179q171 127 384 126t410 -123
l21 -293h-56q-84 336 -368 336q-136 0 -242 -108q-106 -107 -107 -386z" />
    <glyph glyph-name="Ccaron.small" unicode="&#xf672;" horiz-adv-x="1146" 
d="M670 1413l229 184h57l-256 -368h-61l-256 368h55zM317 553q-1 -380 221 -472q58 -24 141 -24t151 27t107 82q40 55 59 103t38 124h56l-21 -291q-197 -122 -411 -122t-383 124q-85 64 -134 180t-49 270t49 268q49 116 134 179q171 127 384 126t410 -123l21 -293h-56
q-84 336 -368 336q-136 0 -242 -108q-106 -107 -107 -386z" />
    <glyph glyph-name="Ccircumflex.small" unicode="&#xf673;" horiz-adv-x="1146" 
d="M649 1413l-231 -184h-56l256 368h62l256 -368h-57zM317 553q-1 -380 221 -472q58 -24 141 -24t151 27t107 82q40 55 59 103t38 124h56l-21 -291q-197 -122 -411 -122t-383 124q-85 64 -134 180t-49 270t49 268q49 116 134 179q171 127 384 126t410 -123l21 -293h-56
q-84 336 -368 336q-136 0 -242 -108q-106 -107 -107 -386z" />
    <glyph glyph-name="Cdotaccent.small" unicode="&#xf674;" horiz-adv-x="1146" 
d="M549 1386q0 52 36 88t87 36t87 -36t36 -88t-36 -87t-88 -35t-87 36t-35 86zM317 553q-1 -380 221 -472q58 -24 141 -24t151 27t107 82q40 55 59 103t38 124h56l-21 -291q-197 -122 -411 -122t-383 124q-85 64 -134 180t-49 270t49 268q49 116 134 179q171 127 384 126
t410 -123l21 -293h-56q-84 336 -368 336q-136 0 -242 -108q-106 -107 -107 -386z" />
    <glyph glyph-name="Dcaron.small" unicode="&#xf675;" horiz-adv-x="1351" 
d="M657 1413l230 184h57l-256 -368h-61l-256 368h55zM604 0h-528v45q106 14 138 46t32 118v686q0 86 -32 118t-138 46v47h528q328 0 492 -141t164 -405t-167 -412t-489 -148zM451 76h153q254 0 342 138t88 360t-96 338t-354 116h-133v-952z" />
    <glyph glyph-name="Ebreve.small" unicode="&#xf677;" horiz-adv-x="1146" 
d="M641 1270q-129 0 -196 92t-66 217h53q16 -76 76 -118t133 -42q74 0 133 42t76 118h51q1 -125 -65 -217t-195 -92zM451 1028v-432h102q106 0 158 36q51 36 63 150h55v-450h-55q-12 114 -63 150t-158 36h-102v-442h297q116 0 184 48t82 167h55l-20 -291h-973v45
q106 14 138 46t32 118v686q0 86 -32 118t-138 46v47h952l10 -293h-55q-13 119 -77 167t-179 48h-276z" />
    <glyph glyph-name="Ecaron.small" unicode="&#xf678;" horiz-adv-x="1146" 
d="M659 1413l230 184h57l-256 -368h-61l-256 368h55zM451 1028v-432h102q106 0 158 36q51 36 63 150h55v-450h-55q-12 114 -63 150t-158 36h-102v-442h297q116 0 184 48t82 167h55l-20 -291h-973v45q106 14 138 46t32 118v686q0 86 -32 118t-138 46v47h952l10 -293h-55
q-13 119 -77 167t-179 48h-276z" />
    <glyph glyph-name="Edotaccent.small" unicode="&#xf679;" horiz-adv-x="1146" 
d="M528 1386q0 52 36 88t87 36t87 -36t36 -88t-36 -87t-88 -35t-87 36t-35 86zM451 1028v-432h102q106 0 158 36q51 36 63 150h55v-450h-55q-12 114 -63 150t-158 36h-102v-442h297q116 0 184 48t82 167h55l-20 -291h-973v45q106 14 138 46t32 118v686q0 86 -32 118t-138 46
v47h952l10 -293h-55q-13 119 -77 167t-179 48h-276z" />
    <glyph glyph-name="Emacron.small" unicode="&#xf67a;" horiz-adv-x="1146" 
d="M299 1407h645v-82h-645v82zM451 1028v-432h102q106 0 158 36q51 36 63 150h55v-450h-55q-12 114 -63 150t-158 36h-102v-442h297q116 0 184 48t82 167h55l-20 -291h-973v45q106 14 138 46t32 118v686q0 86 -32 118t-138 46v47h952l10 -293h-55q-13 119 -77 167t-179 48
h-276z" />
    <glyph glyph-name="Gbreve.small" unicode="&#xf67d;" horiz-adv-x="1290" 
d="M657 1270q-129 0 -195 92t-67 217h54q16 -76 75 -118t133 -42t134 42q59 42 75 118h52q0 -125 -66 -217t-195 -92zM915 287q-1 85 -31 117t-139 47v45h512v-45q-89 -14 -113 -45t-24 -119v-144q-219 -163 -447 -163t-398 124q-85 64 -134 180t-49 270t49 268
q49 116 134 179q171 127 384 126t410 -123l21 -293h-56q-84 336 -368 336q-136 0 -242 -108t-107 -387q0 -280 106 -387q106 -108 247 -108t245 97v133z" />
    <glyph glyph-name="Gcircumflex.small" unicode="&#xf67e;" horiz-adv-x="1290" 
d="M659 1413l-231 -184h-55l256 368h61l256 -368h-57zM915 287q-1 85 -31 117t-139 47v45h512v-45q-89 -14 -113 -45t-24 -119v-144q-219 -163 -447 -163t-398 124q-85 64 -134 180t-49 270t49 268q49 116 134 179q171 127 384 126t410 -123l21 -293h-56q-84 336 -368 336
q-136 0 -242 -108t-107 -387q0 -280 106 -387q106 -108 247 -108t245 97v133z" />
    <glyph glyph-name="Gcommaaccent.small" unicode="&#xf67f;" horiz-adv-x="1290" 
d="M645 -94q94 0 132 -65t38 -146q0 -133 -83 -237t-181 -140l-27 47q123 57 164 166q33 84 -14 111q-12 6 -29 6q-53 0 -90 38t-37 91t38 91t89 38zM915 287q-1 85 -31 117t-139 47v45h512v-45q-89 -14 -113 -45t-24 -119v-144q-219 -163 -447 -163t-398 124
q-85 64 -134 180t-49 270t49 268q49 116 134 179q171 127 384 126t410 -123l21 -293h-56q-84 336 -368 336q-136 0 -242 -108t-107 -387q0 -280 106 -387q106 -108 247 -108t245 97v133z" />
    <glyph glyph-name="Gdotaccent.small" unicode="&#xf680;" horiz-adv-x="1290" 
d="M551 1386q0 52 36 88t87 36t87 -36t36 -88t-36 -87t-87 -35t-87 36t-36 86zM915 287q-1 85 -31 117t-139 47v45h512v-45q-89 -14 -113 -45t-24 -119v-144q-219 -163 -447 -163t-398 124q-85 64 -134 180t-49 270t49 268q49 116 134 179q171 127 384 126t410 -123l21 -293
h-56q-84 336 -368 336q-136 0 -242 -108t-107 -387q0 -280 106 -387q106 -108 247 -108t245 97v133z" />
    <glyph glyph-name="Hcircumflex.small" unicode="&#xf682;" horiz-adv-x="1454" 
d="M735 1413l-231 -184h-55l256 368h61l256 -368h-57zM1208 895v-686q0 -86 31 -118t137 -46v-45h-542v45q106 14 138 46t32 118v319h-553v-319q1 -86 31 -118t136 -46v-45h-542v45q106 14 138 46t32 118v686q0 86 -32 118t-138 46v47h542v-47q-106 -14 -137 -46t-30 -118
v-289h553v289q0 86 -32 118t-138 46v47h542v-47q-106 -14 -137 -46t-31 -118z" />
    <glyph glyph-name="Ibreve.small" unicode="&#xf683;" horiz-adv-x="696" 
d="M344 1270q-129 0 -196 92t-66 217h53q15 -76 75 -118t134 -42t133 42t76 118h51q0 -125 -66 -217t-194 -92zM451 895v-686q1 -86 31 -118t136 -46v-45h-542v45q106 14 138 46t32 118v686q0 86 -32 118t-138 46v47h542v-47q-106 -14 -136 -46t-31 -118z" />
    <glyph glyph-name="Imacron.small" unicode="&#xf685;" horiz-adv-x="696" 
d="M25 1407h645v-82h-645v82zM453 895v-686q1 -86 31 -118t137 -46v-45h-543v45q106 14 138 46t32 118v686q0 86 -32 118t-138 46v47h543v-47q-106 -14 -137 -46t-31 -118z" />
    <glyph glyph-name="Itilde.small" unicode="&#xf687;" horiz-adv-x="696" 
d="M195 1526q41 0 165 -41t171 -41q48 0 80 15t65 61l41 -25q-106 -215 -205 -215q-49 0 -170 41t-170 41t-80 -22t-72 -76l-40 26q115 236 215 236zM453 895v-686q1 -86 31 -118t137 -46v-45h-543v45q106 14 138 46t32 118v686q0 86 -32 118t-138 46v47h543v-47
q-106 -14 -137 -46t-31 -118z" />
    <glyph glyph-name="Jcircumflex.small" unicode="&#xf688;" horiz-adv-x="819" 
d="M471 1413l-231 -184h-56l256 368h62l256 -368h-58zM573 895v-373q1 -252 -119 -397t-300 -145q-106 0 -127 71q-15 55 25 87t95 7q158 -71 197 -23t25 294v479q0 86 -32 118t-138 46v47h542v-47q-106 -14 -137 -46t-31 -118z" />
    <glyph glyph-name="Kcommaaccent.small" unicode="&#xf689;" horiz-adv-x="1310" 
d="M666 -94q94 0 132 -65t38 -146q0 -133 -83 -237t-182 -140l-26 47q123 57 164 166q33 84 -15 111q-12 6 -28 6q-53 0 -91 38q-37 38 -37 91t39 91q38 38 89 38zM451 594q81 0 123 14t81 58l195 215q61 59 47 111t-119 67v47h451v-47q-160 -29 -236 -117l-284 -324
l329 -401q60 -74 110 -115t112 -57v-45h-472v45q46 7 60 23q30 34 -60 139l-192 233q-35 44 -66 60t-79 16v-307q1 -86 31 -118t136 -46v-45h-542v45q106 14 138 46t32 118v686q0 86 -32 118t-138 46v47h542v-47q-106 -14 -137 -46t-30 -118v-301z" />
    <glyph glyph-name="Lacute.small" unicode="&#xf68a;" horiz-adv-x="1105" 
d="M332 1251l196 305q25 37 72 42t80 -51t-33 -105l-289 -213zM246 209v686q0 86 -32 118t-138 46v47h542v-47q-106 -14 -137 -46t-30 -118v-819h297q116 0 184 48t82 167h55l-20 -291h-973v45q106 14 138 46t32 118z" />
    <glyph glyph-name="Lcaron.small" unicode="&#xf68b;" horiz-adv-x="1105" 
d="M879 1135q94 0 132 -65t38 -146q0 -134 -83 -238t-182 -139l-26 47q123 57 164 166q33 84 -15 110q-12 6 -28 7q-53 0 -91 37q-36 38 -36 92t38 91q38 38 89 38zM246 209v686q0 86 -32 118t-138 46v47h542v-47q-106 -14 -137 -46t-30 -118v-819h297q116 0 184 48t82 167
h55l-20 -291h-973v45q106 14 138 46t32 118z" />
    <glyph glyph-name="Lcommaaccent.small" unicode="&#xf68c;" horiz-adv-x="1105" 
d="M598 -94q94 0 132 -65t38 -146q0 -133 -83 -237t-181 -140l-27 47q123 57 164 166q33 84 -14 111q-12 6 -29 6q-53 0 -90 38t-37 91t38 91t89 38zM246 209v686q0 86 -32 118t-138 46v47h542v-47q-106 -14 -137 -46t-30 -118v-819h297q116 0 184 48t82 167h55l-20 -291
h-973v45q106 14 138 46t32 118z" />
    <glyph glyph-name="Ldot.small" unicode="&#xf68d;" horiz-adv-x="1105" 
d="M657 592q0 51 36 87t87 36t87 -36t36 -87t-36 -87t-87 -36t-87 36t-36 87zM246 209v686q0 86 -32 118t-138 46v47h542v-47q-106 -14 -137 -46t-30 -118v-819h297q116 0 184 48t82 167h55l-20 -291h-973v45q106 14 138 46t32 118z" />
    <glyph glyph-name="Nacute.small" unicode="&#xf68e;" horiz-adv-x="1372" 
d="M686 1251l197 305q25 37 71 42t80 -51q33 -56 -33 -105l-288 -213zM1044 895q0 88 -32 119q-33 31 -152 45v47h455v-47q-115 -14 -149 -46t-33 -118v-895h-125l-660 915v-706q0 -88 33 -119t151 -45v-45h-456v45q114 14 148 46t34 118v686q0 86 -34 118t-148 46v47h387
l581 -793v582z" />
    <glyph glyph-name="Ncaron.small" unicode="&#xf68f;" horiz-adv-x="1372" 
d="M715 1413l229 184h57l-256 -368h-61l-256 368h55zM1044 895q0 88 -32 119q-33 31 -152 45v47h455v-47q-115 -14 -149 -46t-33 -118v-895h-125l-660 915v-706q0 -88 33 -119t151 -45v-45h-456v45q114 14 148 46t34 118v686q0 86 -34 118t-148 46v47h387l581 -793v582z" />
    <glyph glyph-name="Ncommaaccent.small" unicode="&#xf690;" horiz-adv-x="1372" 
d="M670 -94q94 0 132 -65t38 -146q0 -133 -83 -237t-182 -140l-26 47q123 57 164 166q33 84 -15 111q-12 6 -28 6q-53 0 -90 38t-37 91t38 91t89 38zM1044 895q0 88 -32 119q-33 31 -152 45v47h455v-47q-115 -14 -149 -46t-33 -118v-895h-125l-660 915v-706q0 -88 33 -119
t151 -45v-45h-456v45q114 14 148 46t34 118v686q0 86 -34 118t-148 46v47h387l581 -793v582z" />
    <glyph glyph-name="Obreve.small" unicode="&#xf691;" horiz-adv-x="1351" 
d="M678 1270q-129 0 -196 92t-66 217h53q15 -76 75 -118t134 -42t133 42t76 118h51q0 -125 -66 -217t-194 -92zM317 553q-1 -266 103 -381t256 -115t255 115t103 381t-103 380t-255 114t-256 -114t-103 -380zM92 552q0 271 173 423q173 151 411 151t410 -152t174 -422
q0 -271 -174 -422q-174 -150 -410 -150q-238 0 -411 150t-173 422z" />
    <glyph glyph-name="Ohungarumlaut.small" unicode="&#xf692;" horiz-adv-x="1351" 
d="M803 1243l90 356q10 37 39 54q51 25 104 -19t8 -108l-206 -297zM475 1243l90 356q10 37 39 54q51 25 103 -15q55 -47 10 -112l-207 -297zM317 553q-1 -266 103 -381t256 -115t255 115t103 381t-103 380t-255 114t-256 -114t-103 -380zM92 552q0 271 173 423
q173 151 411 151t410 -152t174 -422q0 -271 -174 -422q-174 -150 -410 -150q-238 0 -411 150t-173 422z" />
    <glyph glyph-name="Omacron.small" unicode="&#xf693;" horiz-adv-x="1351" 
d="M340 1407h645v-82h-645v82zM317 553q-1 -266 103 -381t256 -115t255 115t103 381t-103 380t-255 114t-256 -114t-103 -380zM92 552q0 271 173 423q173 151 411 151t410 -152t174 -422q0 -271 -174 -422q-174 -150 -410 -150q-238 0 -411 150t-173 422z" />
    <glyph glyph-name="Oslashacute.small" unicode="&#xf694;" horiz-adv-x="1351" 
d="M1034 553q0 131 -39 244l-585 -611q94 -129 256 -129t265 115t103 381zM317 553q0 -180 54 -291l592 619q-92 166 -287 166q-152 0 -256 -114t-103 -380zM92 559q0 264 173 416q173 151 407 151t395 -137l113 119l55 -64l-109 -112q133 -154 134 -379q0 -272 -174 -423
q-174 -150 -396 -150q-223 0 -375 108l-108 -111l-60 54l107 108q-162 156 -162 420zM653 1251l197 305q26 37 72 42t79 -51t-32 -105l-289 -213z" />
    <glyph glyph-name="Racute.small" unicode="&#xf695;" horiz-adv-x="1249" 
d="M451 547h71q358 0 359 241q0 124 -71 182t-237 58h-122v-481zM1096 788q0 -102 -83 -183t-239 -113l240 -295q82 -102 205 -152v-45h-295q-86 57 -146 143l-231 328h-96v-262q1 -86 31 -118t136 -46v-45h-542v45q106 14 138 46t32 118v686q0 86 -32 118t-138 46v47h549
q235 0 353 -76t118 -242zM557 1251l197 305q26 37 72 42t79 -51t-33 -105l-288 -213z" />
    <glyph glyph-name="Rcaron.small" unicode="&#xf696;" horiz-adv-x="1249" 
d="M451 547h71q358 0 359 241q0 124 -71 182t-237 58h-122v-481zM1096 788q0 -102 -83 -183t-239 -113l240 -295q82 -102 205 -152v-45h-295q-86 57 -146 143l-231 328h-96v-262q1 -86 31 -118t136 -46v-45h-542v45q106 14 138 46t32 118v686q0 86 -32 118t-138 46v47h549
q235 0 353 -76t118 -242zM600 1413l229 184h58l-256 -368h-62l-256 368h56z" />
    <glyph glyph-name="Rcommaaccent.small" unicode="&#xf697;" horiz-adv-x="1249" 
d="M451 547h71q358 0 359 241q0 124 -71 182t-237 58h-122v-481zM1096 788q0 -102 -83 -183t-239 -113l240 -295q82 -102 205 -152v-45h-295q-86 57 -146 143l-231 328h-96v-262q1 -86 31 -118t136 -46v-45h-542v45q106 14 138 46t32 118v686q0 86 -32 118t-138 46v47h549
q235 0 353 -76t118 -242zM672 -94q94 0 132 -65t38 -146q0 -133 -83 -237t-181 -140l-27 47q123 57 164 166q33 84 -15 111q-12 6 -28 6q-53 0 -90 38t-37 91t38 91t89 38z" />
    <glyph glyph-name="Sacute.small" unicode="&#xf698;" horiz-adv-x="972" 
d="M428 1251l197 305q25 37 71 42t80 -51q33 -56 -33 -105l-288 -213zM490 1047q-200 0 -199 -148q0 -92 59 -142q58 -51 202 -103t234 -127t90 -221t-119 -236t-305 -90t-335 79l-21 299h66q22 -170 106 -236t182 -65t158 53t60 141t-80 142q-58 39 -200 99
q-142 59 -219 132q-77 74 -77 206t104 214t283 82q178 0 326 -71l24 -287h-63q-25 131 -103 205q-79 74 -173 74z" />
    <glyph glyph-name="Scircumflex.small" unicode="&#xf69a;" horiz-adv-x="972" 
d="M467 1413l-231 -184h-56l256 368h62l256 -368h-58zM490 1047q-200 0 -199 -148q0 -92 59 -142q58 -51 202 -103t234 -127t90 -221t-119 -236t-305 -90t-335 79l-21 299h66q22 -170 106 -236t182 -65t158 53t60 141t-80 142q-58 39 -200 99q-142 59 -219 132
q-77 74 -77 206t104 214t283 82q178 0 326 -71l24 -287h-63q-25 131 -103 205q-79 74 -173 74z" />
    <glyph glyph-name="Scommaaccent.small" unicode="&#xf69b;" horiz-adv-x="972" 
d="M451 -94q94 0 132 -65t38 -146q0 -133 -83 -237t-182 -140l-26 47q123 57 164 166q33 84 -15 111q-12 6 -28 6q-53 0 -91 38q-36 38 -36 91t37 91q39 38 90 38zM490 1047q-200 0 -199 -148q0 -92 59 -142q58 -51 202 -103t234 -127t90 -221t-119 -236t-305 -90t-335 79
l-21 299h66q22 -170 106 -236t182 -65t158 53t60 141t-80 142q-58 39 -200 99q-142 59 -219 132q-77 74 -77 206t104 214t283 82q178 0 326 -71l24 -287h-63q-25 131 -103 205q-79 74 -173 74z" />
    <glyph glyph-name="Tcaron.small" unicode="&#xf69d;" horiz-adv-x="1105" 
d="M551 1413l229 184h58l-256 -368h-62l-256 368h55zM762 1028h-107v-819q0 -86 31 -118t137 -46v-45h-542v45q106 14 138 46t32 118v819h-109q-111 0 -163 -47t-66 -168h-58l11 293h972l11 -293h-56q-14 121 -67 168t-164 47z" />
    <glyph glyph-name="Tcommaaccent.small" unicode="&#xf69e;" horiz-adv-x="1105" 
d="M528 -94q94 0 132 -65t38 -146q0 -133 -83 -237t-181 -140l-26 47q123 57 163 166q33 84 -14 111q-12 6 -29 6q-53 0 -90 38t-37 91t38 91t89 38zM762 1028h-107v-819q0 -86 31 -118t137 -46v-45h-542v45q106 14 138 46t32 118v819h-109q-111 0 -163 -47t-66 -168h-58
l11 293h972l11 -293h-56q-14 121 -67 168t-164 47z" />
    <glyph glyph-name="Ubreve.small" unicode="&#xf69f;" horiz-adv-x="1433" 
d="M756 1270q-129 0 -196 92t-66 217h53q15 -76 75 -118t134 -42t133 42t76 118h51q0 -125 -66 -217t-194 -92zM1102 512v383q0 86 -33 118t-154 46v47h461v-47q-116 -14 -150 -46t-34 -118v-403q0 -254 -131 -383t-354 -129q-481 0 -482 512v403q0 86 -31 118
q-32 32 -139 46v47h543v-47q-106 -14 -137 -46t-31 -118v-383q0 -228 78 -334t244 -106q350 0 350 440z" />
    <glyph glyph-name="Uhungarumlaut.small" unicode="&#xf6a0;" horiz-adv-x="1433" 
d="M877 1243l90 356q10 37 39 54q51 25 104 -19t8 -108l-207 -297zM549 1243l90 356q10 37 39 54q51 25 104 -19t9 -108l-207 -297zM1102 512v383q0 86 -33 118t-154 46v47h461v-47q-116 -14 -150 -46t-34 -118v-403q0 -254 -131 -383t-354 -129q-481 0 -482 512v403
q0 86 -31 118q-32 32 -139 46v47h543v-47q-106 -14 -137 -46t-31 -118v-383q0 -228 78 -334t244 -106q350 0 350 440z" />
    <glyph glyph-name="Umacron.small" unicode="&#xf6a1;" horiz-adv-x="1433" 
d="M434 1407h645v-82h-645v82zM1102 512v383q0 86 -33 118t-154 46v47h461v-47q-116 -14 -150 -46t-34 -118v-403q0 -254 -131 -383t-354 -129q-481 0 -482 512v403q0 86 -31 118q-32 32 -139 46v47h543v-47q-106 -14 -137 -46t-31 -118v-383q0 -228 78 -334t244 -106
q350 0 350 440z" />
    <glyph glyph-name="Uring.small" unicode="&#xf6a3;" horiz-adv-x="1433" 
d="M639 1407q0 -49 34 -83t83 -34t83 34t33 83q0 49 -33 83q-34 34 -83 34t-83 -34t-34 -83zM571 1407q-1 78 53 131t131 53t131 -54t54 -131t-53 -130t-131 -53t-132 53t-53 131zM1102 512v383q0 86 -33 118t-154 46v47h461v-47q-116 -14 -150 -46t-34 -118v-403
q0 -254 -131 -383t-354 -129q-481 0 -482 512v403q0 86 -31 118q-32 32 -139 46v47h543v-47q-106 -14 -137 -46t-31 -118v-383q0 -228 78 -334t244 -106q350 0 350 440z" />
    <glyph glyph-name="Utilde.small" unicode="&#xf6a4;" horiz-adv-x="1433" 
d="M610 1526q41 0 165 -41t172 -41t80 15t65 61l41 -25q-51 -96 -80 -136q-57 -79 -116 -79q-58 0 -178 41t-170 41t-81 -22t-72 -76l-41 26q115 236 215 236zM1102 512v383q0 86 -33 118t-154 46v47h461v-47q-116 -14 -150 -46t-34 -118v-403q0 -254 -131 -383t-354 -129
q-481 0 -482 512v403q0 86 -31 118q-32 32 -139 46v47h543v-47q-106 -14 -137 -46t-31 -118v-383q0 -228 78 -334t244 -106q350 0 350 440z" />
    <glyph glyph-name="Wacute.small" unicode="&#xf6a5;" horiz-adv-x="1802" 
d="M911 1251l197 305q26 37 72 42t79 -51t-32 -105l-289 -213zM690 1106h508v-47q-104 -15 -124 -61t11 -124l189 -645h4l229 645q29 80 -3 125t-138 60v47h420v-47q-78 -16 -111 -40t-55 -83l-352 -946h-117l-248 760l-291 -760h-114l-340 946q-18 51 -46 76t-98 47v47h508
v-47q-104 -15 -124 -61t16 -124l209 -645h4l241 621l-26 86q-16 51 -47 75t-105 48v47z" />
    <glyph glyph-name="Wcircumflex.small" unicode="&#xf6a6;" horiz-adv-x="1802" 
d="M946 1413l-231 -184h-56l256 368h62l256 -368h-57zM690 1106h508v-47q-104 -15 -124 -61t11 -124l189 -645h4l229 645q29 80 -3 125t-138 60v47h420v-47q-78 -16 -111 -40t-55 -83l-352 -946h-117l-248 760l-291 -760h-114l-340 946q-18 51 -46 76t-98 47v47h508v-47
q-104 -15 -124 -61t16 -124l209 -645h4l241 621l-26 86q-16 51 -47 75t-105 48v47z" />
    <glyph glyph-name="Wdieresis.small" unicode="&#xf6a7;" horiz-adv-x="1802" 
d="M1034 1363q0 50 33 82t82 32t82 -33t33 -82t-33 -81t-82 -32t-82 32t-33 82zM637 1363q0 50 32 82t81 32q50 0 82 -32t32 -82t-33 -82t-81 -32t-81 32q-32 32 -32 82zM690 1106h508v-47q-104 -15 -124 -61t11 -124l189 -645h4l229 645q29 80 -3 125t-138 60v47h420v-47
q-78 -16 -111 -40t-55 -83l-352 -946h-117l-248 760l-291 -760h-114l-340 946q-18 51 -46 76t-98 47v47h508v-47q-104 -15 -124 -61t16 -124l209 -645h4l241 621l-26 86q-16 51 -47 75t-105 48v47z" />
    <glyph glyph-name="Wgrave.small" unicode="&#xf6a8;" horiz-adv-x="1802" 
d="M965 1251l-25 -22l-291 213q-66 49 -33 105q32 56 80 51t72 -42zM690 1106h508v-47q-104 -15 -124 -61t11 -124l189 -645h4l229 645q29 80 -3 125t-138 60v47h420v-47q-78 -16 -111 -40t-55 -83l-352 -946h-117l-248 760l-291 -760h-114l-340 946q-18 51 -46 76t-98 47
v47h508v-47q-104 -15 -124 -61t16 -124l209 -645h4l241 621l-26 86q-16 51 -47 75t-105 48v47z" />
    <glyph glyph-name="Ycircumflex.small" unicode="&#xf6a9;" horiz-adv-x="1146" 
d="M614 1413l-231 -184h-55l256 368h61l256 -368h-57zM10 1106h502v-47q-102 -13 -114 -63t36 -122l209 -399h4l184 389q78 168 -114 195v47h420v-47q-80 -16 -119 -41t-66 -82l-245 -528v-199q1 -86 31 -118t136 -46v-45h-542v45q106 14 138 46t32 118v108l-328 619
q-27 51 -62 79q-36 28 -102 44v47z" />
    <glyph glyph-name="Ygrave.small" unicode="&#xf6aa;" horiz-adv-x="1146" 
d="M621 1251l-25 -22l-291 213q-66 49 -33 105t80 51t72 -42zM10 1106h502v-47q-102 -13 -114 -63t36 -122l209 -399h4l184 389q78 168 -114 195v47h420v-47q-80 -16 -119 -41t-66 -82l-245 -528v-199q1 -86 31 -118t136 -46v-45h-542v45q106 14 138 46t32 118v108l-328 619
q-27 51 -62 79q-36 28 -102 44v47z" />
    <glyph glyph-name="Zacute.small" unicode="&#xf6ab;" horiz-adv-x="1095" 
d="M494 1251l196 305q25 37 72 42t80 -51t-33 -105l-289 -213zM696 76q117 0 185 48t82 167h55l-21 -291h-923v55l659 973h-305q-115 0 -178 -48t-78 -167h-57l10 293h864v-62l-647 -968h354z" />
    <glyph glyph-name="Zdotaccent.small" unicode="&#xf6ac;" horiz-adv-x="1095" 
d="M446 1386q0 52 36 88t87 36t87 -36t36 -88t-36 -87t-88 -35t-87 36t-35 86zM696 76q117 0 185 48t82 167h55l-21 -291h-923v55l659 973h-305q-115 0 -178 -48t-78 -167h-57l10 293h864v-62l-647 -968h354z" />
    <glyph glyph-name="Idotaccent.small" unicode="&#xf6ad;" horiz-adv-x="696" 
d="M221 1386q0 52 36 88t87 36t87 -36t36 -88t-36 -87t-88 -35t-87 36t-35 86zM451 895v-686q1 -86 31 -118t136 -46v-45h-542v45q106 14 138 46t32 118v686q0 86 -32 118t-138 46v47h542v-47q-106 -14 -136 -46t-31 -118z" />
    <glyph glyph-name="dotlessj" unicode="&#xf6be;" horiz-adv-x="571" 
d="M428 1044v-952q0 -254 -124 -450t-245 -195q-98 0 -114 76q-11 57 21 83t73 13q85 -29 119 -16q35 12 49 27q46 49 25 264q-9 123 -9 198v660q-1 78 -29 108t-120 45v47l334 92h20z" />
    <glyph glyph-name="commaaccent" unicode="&#xf6c3;" horiz-adv-x="696" 
d="M326 -94q94 0 132 -65t38 -146q0 -133 -83 -237t-182 -140l-26 47q123 57 164 166q33 84 -15 111q-12 6 -28 6q-53 0 -90 38t-37 91t38 91t89 38z" />
    <glyph glyph-name="Acute" unicode="&#xf6c9;" horiz-adv-x="755" 
d="M199 1559l196 305q25 37 72 42t80 -51t-33 -106l-289 -213z" />
    <glyph glyph-name="Caron" unicode="&#xf6ca;" horiz-adv-x="962" 
d="M481 1720l230 185h57l-256 -369h-61l-256 369h55z" />
    <glyph glyph-name="Dieresis" unicode="&#xf6cb;" horiz-adv-x="1024" 
d="M596 1670q0 50 33 82t82 32t82 -33t33 -82t-34 -81q-32 -32 -81 -32t-82 32t-33 82zM199 1670q0 50 31 82q32 32 81 32t82 -32t33 -82t-33 -82t-82 -32t-81 32q-31 32 -31 82z" />
    <glyph glyph-name="DieresisAcute" unicode="&#xf6cc;" horiz-adv-x="1187" 
d="M537 1653l90 356q10 37 39 53q51 25 102 -14q55 -47 10 -113l-207 -297zM874 1556q-50 0 -82 32t-32 82t33 82t81 32t82 -33q33 -33 33 -82t-33 -81t-82 -32zM199 1670q0 50 31 82q32 32 81 32t82 -32t33 -82t-33 -82t-82 -32t-81 32q-31 32 -31 82z" />
    <glyph glyph-name="DieresisGrave" unicode="&#xf6cd;" horiz-adv-x="1187" 
d="M614 1638l-204 297q-45 66 10 113q51 39 102 14q29 -16 39 -53l88 -356zM426 1670q0 -50 -33 -82t-82 -32t-81 32t-32 82t32 82t81 32t82 -32t33 -82zM989 1669q0 -49 -33 -81t-82 -32q-50 0 -82 32t-32 82t33 82t81 32t82 -33q33 -33 33 -82z" />
    <glyph glyph-name="Grave" unicode="&#xf6ce;" horiz-adv-x="755" 
d="M530 1536l-290 213q-66 49 -33 105t80 52q47 -5 71 -42l197 -305z" />
    <glyph glyph-name="Hungarumlaut" unicode="&#xf6cf;" horiz-adv-x="983" 
d="M561 1536l-35 14l90 357q10 37 39 53q51 25 103 -14q55 -47 10 -113zM233 1536l-34 14l90 357q10 37 39 53q51 25 102 -14q55 -47 10 -113z" />
    <glyph glyph-name="Macron" unicode="&#xf6d0;" horiz-adv-x="1044" 
d="M199 1714h645v-82h-645v82z" />
    <glyph glyph-name="cyrBreve" unicode="&#xf6d1;" horiz-adv-x="921" 
d="M461 1577q-129 0 -196 92t-66 217h53q16 -76 76 -118t133 -42q74 0 133 42t76 118h51q1 -125 -65 -217t-195 -92z" />
    <glyph glyph-name="cyrFlex" unicode="&#xf6d2;" horiz-adv-x="962" 
d="M481 1720l-231 -184h-55l256 369h61l256 -369h-57z" />
    <glyph glyph-name="dblGrave" unicode="&#xf6d3;" horiz-adv-x="983" 
d="M457 1550l-35 -14l-207 297q-45 66 10 113q51 39 103 14q29 -16 39 -53zM784 1550l-34 -14l-207 297q-45 66 10 113q51 39 102 14q29 -16 39 -53z" />
    <glyph glyph-name="cyrbreve" unicode="&#xf6d4;" horiz-adv-x="921" 
d="M461 1167q-129 1 -196 93t-66 217h53q16 -76 76 -118t133 -42q74 0 133 42t76 118h51q1 -125 -65 -217t-195 -93z" />
    <glyph glyph-name="cyrflex" unicode="&#xf6d5;" horiz-adv-x="962" 
d="M481 1311l-231 -185h-55l256 369h61l256 -369h-57z" />
    <glyph glyph-name="dblgrave" unicode="&#xf6d6;" horiz-adv-x="983" 
d="M422 1126l-207 297q-45 66 10 113q51 39 103 14q29 -16 39 -53l90 -356zM784 1141l-34 -15l-207 297q-45 66 10 113q51 39 102 14q29 -16 39 -53z" />
    <glyph glyph-name="dieresisacute" unicode="&#xf6d7;" horiz-adv-x="1187" 
d="M537 1243l90 356q10 37 39 54q51 25 104 -19t8 -108l-207 -297zM874 1147q-50 0 -82 32t-32 82q0 49 33 81t81 32t82 -33q33 -33 33 -81t-33 -81q-33 -32 -82 -32zM199 1261q-1 49 31 81t81 32t82 -32t33 -82t-33 -81q-33 -32 -82 -32t-81 32q-31 32 -31 82z" />
    <glyph glyph-name="dieresisgrave" unicode="&#xf6d8;" horiz-adv-x="1187" 
d="M614 1229l-204 297q-45 66 8 108t104 19q29 -16 39 -54l88 -356zM311 1374q49 0 82 -32t33 -81q0 -50 -33 -82t-82 -32t-81 32t-32 82q0 49 32 81t81 32zM989 1260q0 -49 -33 -81t-82 -32q-50 0 -82 32t-32 82q0 49 33 81t81 32t82 -32q33 -32 33 -82z" />
    <glyph glyph-name="rupiah" unicode="&#xf6dd;" horiz-adv-x="2621" 
d="M492 707h143q195 0 271 86t77 232q0 147 -71 239t-236 92h-184v-649zM1986 915q-128 0 -225 -86v-491q0 -158 69 -222t157 -65q151 0 233 125t74 327t-94 307t-214 105zM1761 -322q0 -86 31 -118t137 -45v-47h-522v47q94 14 122 46t27 117v322h-477q-68 47 -149 172
l-299 457h-139v-420q0 -86 30 -118t137 -46v-45h-542v45q106 14 138 46t32 118v1014q0 85 -32 117t-138 46v48h610q225 0 348 -104t123 -279q0 -311 -342 -398l301 -422q68 -98 153 -135t246 -41v697q0 78 -28 108t-121 45v47l344 92h16l-6 -143h4q57 66 141 105t173 38
q197 0 313 -150t117 -384q0 -234 -157 -382t-365 -148q-140 0 -226 61v-363z" />
    <glyph glyph-name="threequartersemdash" unicode="&#xf6de;" horiz-adv-x="1843" 
d="M199 588h1443v-82h-1443v82z" />
    <glyph glyph-name="centinferior" unicode="&#xf6df;" horiz-adv-x="819" 
d="M498 -635h-72v209q-168 12 -268 121t-100 286t100 285t268 123v209h72v-207q127 -4 254 -74l8 -176h-35q-19 83 -83 141t-175 58t-181 -93t-69 -265q0 -172 70 -266t180 -93q109 -1 173 57t85 142h35l-8 -178q-115 -68 -254 -72v-207z" />
    <glyph glyph-name="centsuperior" unicode="&#xf6e0;" horiz-adv-x="819" 
d="M498 819h-72v209q-168 12 -268 121t-100 286t100 285t268 123v209h72v-207q127 -4 254 -73l8 -177h-35q-19 83 -83 141t-175 58t-181 -93t-69 -265q0 -172 70 -266t180 -93q109 -1 173 57t85 142h35l-8 -178q-115 -68 -254 -72v-207z" />
    <glyph glyph-name="commainferior" unicode="&#xf6e1;" horiz-adv-x="819" 
d="M393 -227q72 0 101 -48t28 -110q0 -100 -63 -179t-140 -106l-20 41q98 45 126 126t-34 81q-39 0 -67 27t-27 69t29 70q28 29 67 29z" />
    <glyph glyph-name="commasuperior" unicode="&#xf6e2;" horiz-adv-x="819" 
d="M393 1227q72 0 101 -48t28 -110q0 -100 -63 -179t-140 -106l-20 41q98 45 126 126t-34 81q-39 0 -67 27t-27 69t29 70q28 29 67 29z" />
    <glyph glyph-name="dollarinferior" unicode="&#xf6e3;" horiz-adv-x="819" 
d="M621 127q-39 209 -181 209q-150 0 -149 -117q0 -55 35 -86t101 -57t102 -45q104 -52 139 -121q20 -41 20 -92q0 -106 -65 -170q-66 -63 -174 -74v-209h-72v207q-145 4 -225 59l-21 219h37q12 -125 74 -175t135 -50q74 0 119 37t45 92t-28 89q-29 34 -57 48t-114 52
q-86 39 -143 91t-57 143t62 149q64 58 173 65v207h72v-207q106 -6 196 -53l12 -211h-36z" />
    <glyph glyph-name="dollarsuperior" unicode="&#xf6e4;" horiz-adv-x="819" 
d="M621 1581q-39 209 -181 209q-150 0 -149 -117q0 -55 35 -86t101 -57t102 -45q104 -52 139 -121q20 -41 20 -92q0 -106 -65 -170q-66 -63 -174 -74v-209h-72v207q-145 4 -225 59l-21 220h37q12 -125 74 -175t135 -51q74 0 119 37q45 36 45 92t-28 90q-29 34 -57 48
t-114 52t-143 90t-57 143t62 149q64 58 173 65v207h72v-207q106 -6 196 -53l12 -211h-36z" />
    <glyph glyph-name="hypheninferior" unicode="&#xf6e5;" horiz-adv-x="819" 
d="M31 41h757v-92h-757v92z" />
    <glyph glyph-name="hyphensuperior" unicode="&#xf6e6;" horiz-adv-x="819" 
d="M31 1495h757v-92h-757v92z" />
    <glyph glyph-name="periodinferior" unicode="&#xf6e7;" horiz-adv-x="819" 
d="M410 -219q44 0 74 -32t30 -74q0 -41 -31 -73t-73 -32t-75 32q-32 32 -32 73q0 42 32 74t75 32z" />
    <glyph glyph-name="periodsuperior" unicode="&#xf6e8;" horiz-adv-x="819" 
d="M410 1235q44 0 74 -32t30 -74q0 -41 -31 -73t-73 -32t-75 32q-32 32 -32 73q0 42 32 74t75 32z" />
    <glyph glyph-name="asuperior" unicode="&#xf6e9;" horiz-adv-x="747" 
d="M276 1106q60 0 134 53l2 144q-57 -12 -140 -35q-78 -20 -65 -94q4 -32 23 -50t46 -18zM492 1024q-82 0 -82 98h-2q-58 -54 -98 -76t-92 -22t-89 42t-37 105q0 109 152 138q75 10 170 30l2 121q2 143 -117 144q-49 0 -78 -24q-46 -38 -8 -95q33 -33 -24 -66t-76 4
q-33 63 50 153t210 89q80 0 125 -44t43 -124l-9 -299q-2 -68 28 -81t85 1v-20q-98 -74 -153 -74z" />
    <glyph glyph-name="bsuperior" unicode="&#xf6ea;" horiz-adv-x="854" 
d="M309 1980v-401q82 86 195 86q114 0 182 -91q68 -92 68 -232t-94 -229t-218 -89q-86 0 -174 61l-49 -51h-33v772q0 46 -17 64t-73 26v31l201 53h12zM442 1585q-76 0 -133 -53v-293q0 -94 41 -132t94 -38q90 0 140 75q49 76 44 194q-6 118 -58 182t-128 65z" />
    <glyph glyph-name="dsuperior" unicode="&#xf6eb;" horiz-adv-x="882" 
d="M539 1806q1 46 -17 64t-71 26v31l198 53h15v-776q0 -59 23 -75q24 -15 91 -11v-33l-225 -61h-14v88h-2q-78 -88 -191 -88q-114 0 -184 90t-70 230t94 230t222 91q68 0 131 -37v178zM401 1100q74 0 138 51v297q0 94 -41 134t-92 40q-90 0 -140 -77t-45 -198
q4 -121 55 -184t125 -63z" />
    <glyph glyph-name="esuperior" unicode="&#xf6ec;" horiz-adv-x="720" 
d="M376 1024q-126 0 -205 92t-79 232t92 229q92 88 206 88q114 -1 180 -65q65 -64 40 -205h-397q-4 -125 54 -200t165 -75t186 51v-51q-116 -96 -242 -96zM386 1622q-66 0 -111 -48q-46 -48 -60 -130h277q24 88 -8 133t-98 45z" />
    <glyph glyph-name="isuperior" unicode="&#xf6ed;" horiz-adv-x="522" 
d="M178 1868q0 36 24 60t58 24t60 -26q24 -26 24 -58t-25 -58q-25 -24 -59 -24t-58 24t-24 58zM322 1669v-498q0 -53 17 -70t81 -32v-25h-324v25q66 15 84 33t19 69v322q-1 47 -17 65t-65 29v29l192 53h13z" />
    <glyph glyph-name="lsuperior" unicode="&#xf6ee;" horiz-adv-x="522" 
d="M322 1989v-818q0 -53 17 -70t81 -32v-25h-324v25q66 15 84 33t19 69v644q-1 45 -17 63t-65 29v26l192 56h13z" />
    <glyph glyph-name="msuperior" unicode="&#xf6ef;" horiz-adv-x="1282" 
d="M549 1669q123 0 149 -133q94 133 228 133q68 0 110 -43t43 -139v-316q1 -51 19 -69t82 -33v-25h-297v25q53 17 64 33t11 69v312q0 102 -84 102q-76 0 -176 -84v-330q0 -51 20 -69t85 -33v-25h-301v25q53 17 64 33t12 69v312q0 102 -84 102q-78 0 -172 -84v-330
q0 -53 17 -70t81 -32v-25h-324v25q66 15 84 33t19 69v322q-1 47 -17 65t-65 29v29l198 53h9l-2 -127h2q102 127 225 127z" />
    <glyph glyph-name="osuperior" unicode="&#xf6f0;" horiz-adv-x="792" 
d="M393 1622q-166 0 -166 -276t166 -277q78 0 121 70q43 71 43 205t-43 206t-121 72zM396 1665q130 0 214 -93q84 -92 80 -228t-90 -228t-215 -92t-212 92t-79 227t88 229t214 93z" />
    <glyph glyph-name="rsuperior" unicode="&#xf6f1;" horiz-adv-x="675" 
d="M322 1171q0 -53 17 -70t81 -32v-25h-324v25q66 15 84 33t19 69v322q-1 47 -17 65t-65 29v29l198 53h9l-2 -139h2q86 139 184 139q29 0 45 -14q39 -29 19 -78t-62 -33q-100 41 -188 -55v-318z" />
    <glyph glyph-name="ssuperior" unicode="&#xf6f2;" horiz-adv-x="622" 
d="M311 1622q-49 0 -80 -26t-31 -64t22 -63q22 -23 42 -33t89 -37t119 -70t50 -123t-66 -131t-165 -51q-98 0 -178 45l-17 164h33q20 -164 162 -164q51 0 81 29t30 75q0 47 -34 73t-113 60t-121 74q-42 41 -42 115t58 122t143 48q84 0 188 -39l13 -160h-33q-13 72 -57 114
t-93 42z" />
    <glyph glyph-name="tsuperior" unicode="&#xf6f3;" horiz-adv-x="610" 
d="M297 1599v-407q0 -54 24 -72q23 -18 69 -18t116 16v-20q-86 -74 -199 -74q-131 0 -131 147v428h-80v41l80 25l90 168h31v-184h174v-50h-174z" />
    <glyph glyph-name="Brevesmall" unicode="&#xf6f4;" horiz-adv-x="921" 
d="M461 1270q-129 0 -196 92t-66 217h53q16 -76 76 -118t133 -42q74 0 133 42t76 118h51q1 -125 -65 -217t-195 -92z" />
    <glyph glyph-name="Caronsmall" unicode="&#xf6f5;" horiz-adv-x="962" 
d="M481 1413l230 184h57l-256 -368h-61l-256 368h55z" />
    <glyph glyph-name="Circumflexsmall" unicode="&#xf6f6;" horiz-adv-x="962" 
d="M481 1413l-231 -184h-55l256 368h61l256 -368h-57z" />
    <glyph glyph-name="Dotaccentsmall" unicode="&#xf6f7;" horiz-adv-x="643" 
d="M199 1386q0 51 35 88q36 36 88 36t87 -36t35 -88t-36 -87t-86 -35q-51 0 -88 35q-35 36 -35 87z" />
    <glyph glyph-name="Hungarumlautsmall" unicode="&#xf6f8;" horiz-adv-x="983" 
d="M526 1243l90 356q10 37 39 54q51 25 103 -15q55 -47 10 -112l-207 -297zM199 1243l90 356q10 37 39 54q51 25 104 -19t8 -108l-207 -297z" />
    <glyph glyph-name="Lslashsmall" unicode="&#xf6f9;" horiz-adv-x="1105" 
d="M76 586h170v309q0 86 -32 118t-138 46v47h542v-47q-106 -14 -137 -46t-30 -118v-309h188v-78h-188v-432h297q116 0 184 48t82 167h55l-20 -291h-973v45q106 14 138 46t32 118v299h-170v78z" />
    <glyph glyph-name="OEsmall" unicode="&#xf6fa;" horiz-adv-x="1789" 
d="M317 553q-1 -266 103 -381t244 -115q140 1 181 101q42 100 42 395t-42 394q-41 99 -181 99t-244 -113q-104 -114 -103 -380zM1094 1028v-432h102q106 0 158 36q51 36 63 150h56v-450h-56q-12 114 -63 150t-158 36h-102v-442h297q117 0 185 48t81 167h55l-20 -291h-852
q-72 -20 -164 -20q-238 0 -411 150t-173 422q0 271 173 423t411 151q92 0 164 -20h831l10 -293h-55q-14 119 -78 167t-178 48h-276z" />
    <glyph glyph-name="Ogoneksmall" unicode="&#xf6fb;" horiz-adv-x="737" 
d="M362 -465q-52 0 -96 29q-84 57 -67 186q8 59 56 126t128 124h61q-109 -100 -114 -227q-8 -109 73 -133q54 -15 134 18v-41q-29 -35 -76 -59t-99 -23z" />
    <glyph glyph-name="Ringsmall" unicode="&#xf6fc;" horiz-adv-x="768" 
d="M266 1407q0 -49 34 -83t83 -34t83 34t34 83t-34 83t-83 34t-83 -34t-34 -83zM199 1407q0 78 53 131t130 53t131 -54t54 -131t-53 -130t-131 -53t-131 53t-53 131z" />
    <glyph glyph-name="Scaronsmall" unicode="&#xf6fd;" horiz-adv-x="972" 
d="M485 1393l230 184h57l-256 -369h-61l-256 369h55zM490 1047q-200 0 -199 -148q0 -92 59 -142q58 -51 202 -103t234 -127t90 -221t-119 -236t-305 -90t-335 79l-21 299h66q22 -170 106 -236t182 -65t158 53t60 141t-80 142q-58 39 -200 99q-142 59 -219 132
q-77 74 -77 206t104 214t283 82q178 0 326 -71l24 -287h-63q-25 131 -103 205q-79 74 -173 74z" />
    <glyph glyph-name="Tildesmall" unicode="&#xf6fe;" horiz-adv-x="1126" 
d="M410 1526q40 0 164 -41t172 -41t80 15t65 61l41 -25q-51 -96 -80 -136q-57 -79 -115 -79q-57 0 -179 41t-171 41t-79 -22t-72 -76l-41 26q115 236 215 236z" />
    <glyph glyph-name="Zcaronsmall" unicode="&#xf6ff;" horiz-adv-x="1095" 
d="M573 1393l230 184h57l-256 -369h-61l-256 369h55zM696 76q117 0 185 48t82 167h55l-21 -291h-923v55l659 973h-305q-115 0 -178 -48t-78 -167h-57l10 293h864v-62l-647 -968h354z" />
    <glyph glyph-name="exclamsmall" unicode="&#xf721;" horiz-adv-x="655" 
d="M329 1126q71 0 97 -45t18 -104l-90 -567h-51l-96 567q-10 57 20 103q31 46 102 46zM197 109q0 53 39 91t92 38t91 -38t38 -91t-38 -91t-91 -38t-92 38t-39 91z" />
    <glyph glyph-name="dollaroldstyle" unicode="&#xf724;" horiz-adv-x="1013" 
d="M303 891q0 -115 152 -186v333q-152 -16 -152 -147zM688 246q0 66 -40 106q-40 41 -111 80v-362q71 14 111 62t40 114zM455 1311h82v-187q152 -6 288 -69l25 -287h-64q-20 118 -89 190t-160 84v-374q178 -66 269 -141t91 -214t-102 -228t-258 -101v-189h-82v187
q-190 6 -318 77l-20 299h65q20 -162 98 -228t175 -73v416l-90 37q-127 53 -190 126q-62 72 -62 194t90 202t252 92v187z" />
    <glyph glyph-name="ampersandsmall" unicode="&#xf726;" horiz-adv-x="1497" 
d="M526 -20q-166 0 -270 80t-104 221q0 109 64 177t204 136q-80 90 -114 149t-34 131q0 115 98 184q98 68 230 68q131 0 215 -62t84 -163q0 -152 -262 -268l324 -338q57 74 98 172q20 53 -11 79q-32 26 -137 34v45h426v-45q-96 -8 -131 -31t-57 -74q-61 -135 -143 -229
l104 -107q78 -78 172 -94v-45h-281l-127 117q-182 -137 -348 -137zM760 895q0 63 -37 109t-111 45q-74 0 -110 -42t-35 -100q0 -86 123 -225q170 96 170 213zM350 324q0 -100 70 -172t186 -72t223 82l-360 383q-119 -78 -119 -221z" />
    <glyph glyph-name="zerooldstyle" unicode="&#xf730;" 
d="M338 553q0 -268 58 -382t218 -114t219 114q58 114 58 381t-58 381q-59 114 -219 114t-218 -113t-58 -381zM113 551q0 272 124 424q123 151 377 151t378 -152t124 -421q0 -270 -124 -422q-124 -151 -378 -151t-378 150t-123 421z" />
    <glyph glyph-name="oneoldstyle" unicode="&#xf731;" horiz-adv-x="880" 
d="M553 1126v-917q0 -92 45 -118t186 -44q12 -2 19 -2v-45h-707v45q164 14 208 45t44 119v635q0 80 -44 96t-208 16v48l436 122h21z" />
    <glyph glyph-name="twooldstyle" unicode="&#xf732;" horiz-adv-x="1044" 
d="M526 1047q-102 -1 -141 -49t-31 -162q2 -33 -26 -56q-28 -22 -74 -22q-47 0 -81 30t-34 82q1 104 107 180t296 76t296 -83q104 -83 104 -222q0 -231 -291 -452q-123 -94 -303 -201h604v-168h-860v82q327 199 485 355q67 67 103 135t43 115q8 46 8 112q0 248 -205 248z
" />
    <glyph glyph-name="threeoldstyle" unicode="&#xf733;" horiz-adv-x="1116" 
d="M512 -209q131 0 202 93q70 92 70 236t-75 231q-76 87 -213 85h-70v78h61q123 0 189 79t66 203t-59 186q-57 64 -151 64t-130 -46q-36 -48 -27 -164q2 -33 -26 -56q-29 -22 -75 -22t-80 30t-34 82q0 104 105 180t287 76t290 -84t108 -212t-78 -218t-213 -127v-4
q147 -18 245 -110t100 -246q0 -190 -142 -301t-338 -111t-299 76q-102 76 -102 197q0 48 35 72t81 24q47 0 73 -22t24 -54q-8 -111 35 -163t141 -52z" />
    <glyph glyph-name="fouroldstyle" unicode="&#xf734;" horiz-adv-x="1167" 
d="M1090 0h-195v-266h-205v266h-614v176l682 950h137v-983h195v-143zM690 143v752l-534 -752h534z" />
    <glyph glyph-name="fiveoldstyle" unicode="&#xf735;" horiz-adv-x="1095" 
d="M932 1106v-170h-608l-13 -338q152 18 273 -4q122 -22 194 -71q72 -47 120 -115q85 -120 85 -254q0 -188 -137 -314t-365 -127q-167 0 -275 77t-108 179q0 53 34 83t83 30t76 -22t24 -54q-12 -201 181 -201q112 1 192 89t80 233q0 371 -420 379h-127l21 600h690z" />
    <glyph glyph-name="sixoldstyle" unicode="&#xf736;" horiz-adv-x="1157" 
d="M1044 416q0 -186 -136 -312q-136 -125 -326 -124q-223 0 -346 154t-123 386q0 326 202 558q203 232 531 294l16 -67q-248 -72 -368 -223t-158 -361q138 121 316 121t285 -120t107 -306zM584 57q109 1 172 91t63 253q-1 163 -67 253t-189 89q-123 0 -225 -106
q-31 -236 38 -408t208 -172z" />
    <glyph glyph-name="sevenoldstyle" unicode="&#xf737;" horiz-adv-x="1024" 
d="M338 936q-108 0 -138 -30t-46 -144h-58l10 344h861v-62l-490 -1310h-246l619 1202h-512z" />
    <glyph glyph-name="eightoldstyle" unicode="&#xf738;" horiz-adv-x="1157" 
d="M1040 362q0 -178 -141 -280t-336 -102t-321 93t-127 267q0 102 81 189t220 141q-250 139 -250 334q0 158 130 252t298 96q168 0 285 -87t116 -239q1 -94 -69 -178t-193 -127q167 -76 237 -159t70 -200zM840 307q0 193 -357 330q-172 -109 -172 -283q0 -139 73 -218
t197 -79q123 1 191 69t68 181zM813 1036q0 113 -63 174q-62 62 -162 62t-162 -60t-64 -157q0 -98 76 -169t232 -134q143 81 143 284z" />
    <glyph glyph-name="nineoldstyle" unicode="&#xf739;" horiz-adv-x="1157" 
d="M113 690q0 186 136 312q136 124 326 124q223 0 347 -154q123 -155 122 -386q0 -326 -202 -558t-531 -294l-16 65q248 72 367 223t159 361q-145 -121 -320 -121t-282 121q-106 121 -106 307zM573 1047q-111 1 -173 -89t-62 -253t66 -253t187 -92q120 0 228 109
q31 236 -39 407t-207 171z" />
    <glyph glyph-name="questionsmall" unicode="&#xf73f;" horiz-adv-x="907" 
d="M244 109q0 53 39 91t92 38t91 -38t38 -91t-38 -91t-91 -38t-92 38t-39 91zM713 813q0 -88 -50 -136t-151 -97q-66 -35 -96 -72t-17 -98h-61q-77 167 -26 241q28 39 71 55t106 35q63 20 95 35q57 29 57 79q0 51 -43 67t-104 6q-169 -28 -240 -4q-63 26 -62 96t72 94
q47 16 111 4q119 -26 229 -106t109 -199z" />
    <glyph glyph-name="Gravesmall" unicode="&#xf760;" horiz-adv-x="755" 
d="M555 1251l-25 -22l-290 213q-66 49 -33 105t80 51t71 -42z" />
    <glyph glyph-name="Asmall" unicode="&#xf761;" horiz-adv-x="1208" 
d="M530 874l-168 -452h353l-180 452h-5zM1192 0h-506v45q104 14 124 61q19 47 -17 123l-48 115h-409l-43 -115q-31 -80 2 -125t139 -59v-45h-420v45q78 16 111 40t55 83l361 948h108l400 -948q23 -53 49 -77t94 -46v-45z" />
    <glyph glyph-name="Bsmall" unicode="&#xf762;" horiz-adv-x="1167" 
d="M522 616q154 0 226 48t72 160t-59 158q-58 46 -186 46h-124v-412h71zM451 539v-463h122q162 0 235 54t73 178t-85 177t-274 54h-71zM614 0h-538v45q106 14 138 46t32 118v686q0 86 -32 118t-138 46v47h502q457 0 456 -266q0 -111 -88 -173t-198 -77v-4q141 -14 244 -88
t104 -195q0 -303 -482 -303z" />
    <glyph glyph-name="Csmall" unicode="&#xf763;" horiz-adv-x="1146" 
d="M317 553q-1 -380 221 -472q58 -24 141 -24t151 27t107 82q40 55 59 103t38 124h56l-21 -291q-197 -122 -411 -122t-383 124q-85 64 -134 180t-49 270t49 268q49 116 134 179q171 127 384 126t410 -123l21 -293h-56q-84 336 -368 336q-136 0 -242 -108
q-106 -107 -107 -386z" />
    <glyph glyph-name="Dsmall" unicode="&#xf764;" horiz-adv-x="1351" 
d="M604 0h-528v45q106 14 138 46t32 118v686q0 86 -32 118t-138 46v47h528q328 0 492 -141t164 -405t-167 -412t-489 -148zM451 76h153q254 0 342 138t88 360t-96 338t-354 116h-133v-952z" />
    <glyph glyph-name="Esmall" unicode="&#xf765;" horiz-adv-x="1146" 
d="M451 1028v-432h102q106 0 158 36q51 36 63 150h55v-450h-55q-12 114 -63 150t-158 36h-102v-442h297q116 0 184 48t82 167h55l-20 -291h-973v45q106 14 138 46t32 118v686q0 86 -32 118t-138 46v47h952l10 -293h-55q-13 119 -77 167t-179 48h-276z" />
    <glyph glyph-name="Fsmall" unicode="&#xf766;" horiz-adv-x="1095" 
d="M451 498v-289q1 -86 31 -118t136 -46v-45h-542v45q106 14 138 46t32 118v686q0 86 -32 118t-138 46v47h952l10 -293h-55q-13 119 -77 167t-179 48h-276v-453h102q106 0 158 36q51 36 63 151h55v-451h-55q-12 115 -63 151t-158 36h-102z" />
    <glyph glyph-name="Gsmall" unicode="&#xf767;" horiz-adv-x="1290" 
d="M915 287q-1 85 -31 117t-139 47v45h512v-45q-89 -14 -113 -45t-24 -119v-144q-219 -163 -447 -163t-398 124q-85 64 -134 180t-49 270t49 268q49 116 134 179q171 127 384 126t410 -123l21 -293h-56q-84 336 -368 336q-136 0 -242 -108t-107 -387q0 -280 106 -387
q106 -108 247 -108t245 97v133z" />
    <glyph glyph-name="Hsmall" unicode="&#xf768;" horiz-adv-x="1454" 
d="M1208 895v-686q0 -86 31 -118t137 -46v-45h-542v45q106 14 138 46t32 118v319h-553v-319q1 -86 31 -118t136 -46v-45h-542v45q106 14 138 46t32 118v686q0 86 -32 118t-138 46v47h542v-47q-106 -14 -137 -46t-30 -118v-289h553v289q0 86 -32 118t-138 46v47h542v-47
q-106 -14 -137 -46t-31 -118z" />
    <glyph glyph-name="Ismall" unicode="&#xf769;" horiz-adv-x="696" 
d="M451 895v-686q1 -86 31 -118t136 -46v-45h-542v45q106 14 138 46t32 118v686q0 86 -32 118t-138 46v47h542v-47q-106 -14 -136 -46t-31 -118z" />
    <glyph glyph-name="Jsmall" unicode="&#xf76a;" horiz-adv-x="819" 
d="M573 895v-373q1 -252 -119 -397t-300 -145q-106 0 -127 71q-15 55 25 87t95 7q158 -71 197 -23t25 294v479q0 86 -32 118t-138 46v47h542v-47q-106 -14 -137 -46t-31 -118z" />
    <glyph glyph-name="Ksmall" unicode="&#xf76b;" horiz-adv-x="1310" 
d="M451 594q81 0 123 14t81 58l195 215q61 59 47 111t-119 67v47h451v-47q-160 -29 -236 -117l-284 -324l329 -401q60 -74 110 -115t112 -57v-45h-472v45q46 7 60 23q30 34 -60 139l-192 233q-35 44 -66 60t-79 16v-307q1 -86 31 -118t136 -46v-45h-542v45q106 14 138 46
t32 118v686q0 86 -32 118t-138 46v47h542v-47q-106 -14 -137 -46t-30 -118v-301z" />
    <glyph glyph-name="Lsmall" unicode="&#xf76c;" horiz-adv-x="1105" 
d="M246 209v686q0 86 -32 118t-138 46v47h542v-47q-106 -14 -137 -46t-30 -118v-819h297q116 0 184 48t82 167h55l-20 -291h-973v45q106 14 138 46t32 118z" />
    <glyph glyph-name="Msmall" unicode="&#xf76d;" horiz-adv-x="1638" 
d="M1561 1106v-47q-105 -14 -137 -46t-31 -118v-686q1 -86 31 -118t137 -46v-45h-543v45q106 14 138 46t32 118v661l-354 -880h-103l-383 925v-706q0 -88 33 -119t151 -45v-45h-456v45q120 14 152 45t32 119v686q0 88 -33 119t-151 45v47h409l365 -856l342 856h369z" />
    <glyph glyph-name="Nsmall" unicode="&#xf76e;" horiz-adv-x="1372" 
d="M1044 895q0 88 -32 119q-33 31 -152 45v47h455v-47q-115 -14 -149 -46t-33 -118v-895h-125l-660 915v-706q0 -88 33 -119t151 -45v-45h-456v45q114 14 148 46t34 118v686q0 86 -34 118t-148 46v47h387l581 -793v582z" />
    <glyph glyph-name="Osmall" unicode="&#xf76f;" horiz-adv-x="1351" 
d="M317 553q-1 -266 103 -381t256 -115t255 115t103 381t-103 380t-255 114t-256 -114t-103 -380zM92 552q0 271 173 423q173 151 411 151t410 -152t174 -422q0 -271 -174 -422q-174 -150 -410 -150q-238 0 -411 150t-173 422z" />
    <glyph glyph-name="Psmall" unicode="&#xf770;" horiz-adv-x="1167" 
d="M522 403h-71v-194q1 -86 31 -118t136 -46v-45h-542v45q106 14 138 46t32 118v686q0 86 -32 118t-138 46v47h549q471 0 471 -338q-1 -365 -574 -365zM451 481h71q174 0 266 75t92 208t-71 199q-72 66 -236 65h-122v-547z" />
    <glyph glyph-name="Qsmall" unicode="&#xf771;" horiz-adv-x="1351" 
d="M317 553q-1 -266 103 -381t256 -115t255 115t103 381t-103 380t-255 114t-256 -114t-103 -380zM92 563q0 260 173 412q173 151 411 151t410 -152t174 -408q0 -257 -140 -402t-346 -176l92 -92q23 -23 102 -92q212 -185 449 -218v-37q-145 -45 -229 -45q-150 0 -278 101
t-296 356q-7 10 -16 25q-214 23 -360 170t-146 407z" />
    <glyph glyph-name="Rsmall" unicode="&#xf772;" horiz-adv-x="1249" 
d="M451 547h71q358 0 359 241q0 124 -71 182t-237 58h-122v-481zM1096 788q0 -102 -83 -183t-239 -113l240 -295q82 -102 205 -152v-45h-295q-86 57 -146 143l-231 328h-96v-262q1 -86 31 -118t136 -46v-45h-542v45q106 14 138 46t32 118v686q0 86 -32 118t-138 46v47h549
q235 0 353 -76t118 -242z" />
    <glyph glyph-name="Ssmall" unicode="&#xf773;" horiz-adv-x="972" 
d="M490 1047q-200 0 -199 -148q0 -92 59 -142q58 -51 202 -103t234 -127t90 -221t-119 -236t-305 -90t-335 79l-21 299h66q22 -170 106 -236t182 -65t158 53t60 141t-80 142q-58 39 -200 99q-142 59 -219 132q-77 74 -77 206t104 214t283 82q178 0 326 -71l24 -287h-63
q-25 131 -103 205q-79 74 -173 74z" />
    <glyph glyph-name="Tsmall" unicode="&#xf774;" horiz-adv-x="1105" 
d="M762 1028h-107v-819q0 -86 31 -118t137 -46v-45h-542v45q106 14 138 46t32 118v819h-109q-111 0 -163 -47t-66 -168h-58l11 293h972l11 -293h-56q-14 121 -67 168t-164 47z" />
    <glyph glyph-name="Usmall" unicode="&#xf775;" horiz-adv-x="1433" 
d="M1102 512v383q0 86 -33 118t-154 46v47h461v-47q-116 -14 -150 -46t-34 -118v-403q0 -254 -131 -383t-354 -129q-481 0 -482 512v403q0 86 -31 118q-32 32 -139 46v47h543v-47q-106 -14 -137 -46t-31 -118v-383q0 -228 78 -334t244 -106q350 0 350 440z" />
    <glyph glyph-name="Vsmall" unicode="&#xf776;" horiz-adv-x="1208" 
d="M14 1106h508v-47q-104 -13 -126 -61t18 -124l260 -645h4l235 645q31 80 -2 125t-139 60v47h420v-47q-78 -16 -111 -40t-55 -83l-360 -946h-109l-399 946q-23 53 -49 77q-27 24 -95 46v47z" />
    <glyph glyph-name="Wsmall" unicode="&#xf777;" horiz-adv-x="1802" 
d="M690 1106h508v-47q-104 -15 -124 -61t11 -124l189 -645h4l229 645q29 80 -3 125t-138 60v47h420v-47q-78 -16 -111 -40t-55 -83l-352 -946h-117l-248 760l-291 -760h-114l-340 946q-18 51 -46 76t-98 47v47h508v-47q-104 -15 -124 -61t16 -124l209 -645h4l241 621l-26 86
q-16 51 -47 75t-105 48v47z" />
    <glyph glyph-name="Xsmall" unicode="&#xf778;" horiz-adv-x="1269" 
d="M793 1106h389v-47q-82 -14 -126 -39t-85 -78l-250 -317l309 -461q35 -51 71 -74t111 -45v-45h-505v45q88 13 92 63t-51 117l-162 230l-178 -230q-54 -73 -60 -107t19 -49t75 -24v-45h-387v45q84 16 132 41t87 78l271 354l-287 424q-37 53 -74 78t-108 39v47h487v-47
q-79 -15 -79 -63q2 -44 55 -115l139 -193l156 186q133 160 -41 185v47z" />
    <glyph glyph-name="Ysmall" unicode="&#xf779;" horiz-adv-x="1146" 
d="M10 1106h502v-47q-102 -13 -114 -63t36 -122l209 -399h4l184 389q78 168 -114 195v47h420v-47q-80 -16 -119 -41t-66 -82l-245 -528v-199q1 -86 31 -118t136 -46v-45h-542v45q106 14 138 46t32 118v108l-328 619q-27 51 -62 79q-36 28 -102 44v47z" />
    <glyph glyph-name="Zsmall" unicode="&#xf77a;" horiz-adv-x="1095" 
d="M696 76q117 0 185 48t82 167h55l-21 -291h-923v55l659 973h-305q-115 0 -178 -48t-78 -167h-57l10 293h864v-62l-647 -968h354z" />
    <glyph glyph-name="exclamdownsmall" unicode="&#xf7a1;" horiz-adv-x="655" 
d="M328 -20q-70 0 -101 45t-20 104l96 567h51l90 -567q8 -61 -18 -105q-28 -44 -98 -44zM197 995q0 53 39 92t92 39t91 -39t38 -92t-38 -91t-91 -38t-92 38t-39 91z" />
    <glyph glyph-name="centoldstyle" unicode="&#xf7a2;" 
d="M338 551q0 -246 86 -361t221 -129v979q-135 -14 -221 -128t-86 -361zM727 1311v-187q186 -10 363 -120l20 -293h-55q-78 311 -328 333v-985q166 12 239 117q36 53 53 99t36 118h55l-20 -291q-176 -111 -363 -120v-187h-82v187q-210 8 -363 134q-79 64 -124 176t-45 246
q0 357 231 499q125 78 301 87v187h82z" />
    <glyph glyph-name="Dieresissmall" unicode="&#xf7a8;" horiz-adv-x="1024" 
d="M596 1363q0 50 33 82t82 32t82 -33t33 -82t-34 -81q-32 -32 -81 -32t-82 32t-33 82zM199 1363q0 50 31 82q32 32 81 32t82 -32t33 -82t-33 -82t-82 -32t-81 32q-31 32 -31 82z" />
    </font>
</defs>
</svg>
